G04 #@! TF.GenerationSoftware,KiCad,Pcbnew,5.1.5-52549c5~84~ubuntu19.04.1*
G04 #@! TF.CreationDate,2019-12-10T10:52:44+01:00*
G04 #@! TF.ProjectId,2ch-4-20mA,3263682d-342d-4323-906d-412e6b696361,rev?*
G04 #@! TF.SameCoordinates,Original*
G04 #@! TF.FileFunction,Legend,Bot*
G04 #@! TF.FilePolarity,Positive*
%FSLAX46Y46*%
G04 Gerber Fmt 4.6, Leading zero omitted, Abs format (unit mm)*
G04 Created by KiCad (PCBNEW 5.1.5-52549c5~84~ubuntu19.04.1) date 2019-12-10 10:52:44*
%MOMM*%
%LPD*%
G04 APERTURE LIST*
%ADD10C,0.120000*%
%ADD11C,0.150000*%
%ADD12C,0.010000*%
G04 APERTURE END LIST*
D10*
X135890000Y-111125000D02*
X135890000Y-117475000D01*
X161290000Y-111125000D02*
X135890000Y-111125000D01*
X161290000Y-117475000D02*
X161290000Y-111125000D01*
D11*
X159843214Y-114752380D02*
X160319404Y-114752380D01*
X160319404Y-113752380D01*
X159509880Y-114752380D02*
X159509880Y-114085714D01*
X159509880Y-113752380D02*
X159557500Y-113800000D01*
X159509880Y-113847619D01*
X159462261Y-113800000D01*
X159509880Y-113752380D01*
X159509880Y-113847619D01*
X158605119Y-114704761D02*
X158700357Y-114752380D01*
X158890833Y-114752380D01*
X158986071Y-114704761D01*
X159033690Y-114657142D01*
X159081309Y-114561904D01*
X159081309Y-114276190D01*
X159033690Y-114180952D01*
X158986071Y-114133333D01*
X158890833Y-114085714D01*
X158700357Y-114085714D01*
X158605119Y-114133333D01*
X157795595Y-114704761D02*
X157890833Y-114752380D01*
X158081309Y-114752380D01*
X158176547Y-114704761D01*
X158224166Y-114609523D01*
X158224166Y-114228571D01*
X158176547Y-114133333D01*
X158081309Y-114085714D01*
X157890833Y-114085714D01*
X157795595Y-114133333D01*
X157747976Y-114228571D01*
X157747976Y-114323809D01*
X158224166Y-114419047D01*
X157319404Y-114085714D02*
X157319404Y-114752380D01*
X157319404Y-114180952D02*
X157271785Y-114133333D01*
X157176547Y-114085714D01*
X157033690Y-114085714D01*
X156938452Y-114133333D01*
X156890833Y-114228571D01*
X156890833Y-114752380D01*
X156462261Y-114704761D02*
X156367023Y-114752380D01*
X156176547Y-114752380D01*
X156081309Y-114704761D01*
X156033690Y-114609523D01*
X156033690Y-114561904D01*
X156081309Y-114466666D01*
X156176547Y-114419047D01*
X156319404Y-114419047D01*
X156414642Y-114371428D01*
X156462261Y-114276190D01*
X156462261Y-114228571D01*
X156414642Y-114133333D01*
X156319404Y-114085714D01*
X156176547Y-114085714D01*
X156081309Y-114133333D01*
X155224166Y-114704761D02*
X155319404Y-114752380D01*
X155509880Y-114752380D01*
X155605119Y-114704761D01*
X155652738Y-114609523D01*
X155652738Y-114228571D01*
X155605119Y-114133333D01*
X155509880Y-114085714D01*
X155319404Y-114085714D01*
X155224166Y-114133333D01*
X155176547Y-114228571D01*
X155176547Y-114323809D01*
X155652738Y-114419047D01*
X154319404Y-114752380D02*
X154319404Y-113752380D01*
X154319404Y-114704761D02*
X154414642Y-114752380D01*
X154605119Y-114752380D01*
X154700357Y-114704761D01*
X154747976Y-114657142D01*
X154795595Y-114561904D01*
X154795595Y-114276190D01*
X154747976Y-114180952D01*
X154700357Y-114133333D01*
X154605119Y-114085714D01*
X154414642Y-114085714D01*
X154319404Y-114133333D01*
X152652738Y-114085714D02*
X152652738Y-114752380D01*
X153081309Y-114085714D02*
X153081309Y-114609523D01*
X153033690Y-114704761D01*
X152938452Y-114752380D01*
X152795595Y-114752380D01*
X152700357Y-114704761D01*
X152652738Y-114657142D01*
X152176547Y-114085714D02*
X152176547Y-114752380D01*
X152176547Y-114180952D02*
X152128928Y-114133333D01*
X152033690Y-114085714D01*
X151890833Y-114085714D01*
X151795595Y-114133333D01*
X151747976Y-114228571D01*
X151747976Y-114752380D01*
X150843214Y-114752380D02*
X150843214Y-113752380D01*
X150843214Y-114704761D02*
X150938452Y-114752380D01*
X151128928Y-114752380D01*
X151224166Y-114704761D01*
X151271785Y-114657142D01*
X151319404Y-114561904D01*
X151319404Y-114276190D01*
X151271785Y-114180952D01*
X151224166Y-114133333D01*
X151128928Y-114085714D01*
X150938452Y-114085714D01*
X150843214Y-114133333D01*
X149986071Y-114704761D02*
X150081309Y-114752380D01*
X150271785Y-114752380D01*
X150367023Y-114704761D01*
X150414642Y-114609523D01*
X150414642Y-114228571D01*
X150367023Y-114133333D01*
X150271785Y-114085714D01*
X150081309Y-114085714D01*
X149986071Y-114133333D01*
X149938452Y-114228571D01*
X149938452Y-114323809D01*
X150414642Y-114419047D01*
X149509880Y-114752380D02*
X149509880Y-114085714D01*
X149509880Y-114276190D02*
X149462261Y-114180952D01*
X149414642Y-114133333D01*
X149319404Y-114085714D01*
X149224166Y-114085714D01*
X147557500Y-114657142D02*
X147605119Y-114704761D01*
X147747976Y-114752380D01*
X147843214Y-114752380D01*
X147986071Y-114704761D01*
X148081309Y-114609523D01*
X148128928Y-114514285D01*
X148176547Y-114323809D01*
X148176547Y-114180952D01*
X148128928Y-113990476D01*
X148081309Y-113895238D01*
X147986071Y-113800000D01*
X147843214Y-113752380D01*
X147747976Y-113752380D01*
X147605119Y-113800000D01*
X147557500Y-113847619D01*
X147128928Y-114228571D02*
X146795595Y-114228571D01*
X146652738Y-114752380D02*
X147128928Y-114752380D01*
X147128928Y-113752380D01*
X146652738Y-113752380D01*
X145652738Y-114752380D02*
X145986071Y-114276190D01*
X146224166Y-114752380D02*
X146224166Y-113752380D01*
X145843214Y-113752380D01*
X145747976Y-113800000D01*
X145700357Y-113847619D01*
X145652738Y-113942857D01*
X145652738Y-114085714D01*
X145700357Y-114180952D01*
X145747976Y-114228571D01*
X145843214Y-114276190D01*
X146224166Y-114276190D01*
X145224166Y-114752380D02*
X145224166Y-113752380D01*
X144652738Y-114752380D01*
X144652738Y-113752380D01*
X143224166Y-113752380D02*
X143033690Y-113752380D01*
X142938452Y-113800000D01*
X142843214Y-113895238D01*
X142795595Y-114085714D01*
X142795595Y-114419047D01*
X142843214Y-114609523D01*
X142938452Y-114704761D01*
X143033690Y-114752380D01*
X143224166Y-114752380D01*
X143319404Y-114704761D01*
X143414642Y-114609523D01*
X143462261Y-114419047D01*
X143462261Y-114085714D01*
X143414642Y-113895238D01*
X143319404Y-113800000D01*
X143224166Y-113752380D01*
X142367023Y-114752380D02*
X142367023Y-113752380D01*
X142367023Y-114228571D02*
X141795595Y-114228571D01*
X141795595Y-114752380D02*
X141795595Y-113752380D01*
X140843214Y-114752380D02*
X141319404Y-114752380D01*
X141319404Y-113752380D01*
X139843214Y-114085714D02*
X139605119Y-114752380D01*
X139367023Y-114085714D01*
X138986071Y-114657142D02*
X138938452Y-114704761D01*
X138986071Y-114752380D01*
X139033690Y-114704761D01*
X138986071Y-114657142D01*
X138986071Y-114752380D01*
X137986071Y-114752380D02*
X138557500Y-114752380D01*
X138271785Y-114752380D02*
X138271785Y-113752380D01*
X138367023Y-113895238D01*
X138462261Y-113990476D01*
X138557500Y-114038095D01*
X137557500Y-114657142D02*
X137509880Y-114704761D01*
X137557500Y-114752380D01*
X137605119Y-114704761D01*
X137557500Y-114657142D01*
X137557500Y-114752380D01*
X137128928Y-113847619D02*
X137081309Y-113800000D01*
X136986071Y-113752380D01*
X136747976Y-113752380D01*
X136652738Y-113800000D01*
X136605119Y-113847619D01*
X136557500Y-113942857D01*
X136557500Y-114038095D01*
X136605119Y-114180952D01*
X137176547Y-114752380D01*
X136557500Y-114752380D01*
D10*
X161290000Y-117475000D02*
X135890000Y-117475000D01*
D11*
X142622500Y-116657380D02*
X143193928Y-116657380D01*
X142908214Y-116657380D02*
X142908214Y-115657380D01*
X143003452Y-115800238D01*
X143098690Y-115895476D01*
X143193928Y-115943095D01*
X142241547Y-115752619D02*
X142193928Y-115705000D01*
X142098690Y-115657380D01*
X141860595Y-115657380D01*
X141765357Y-115705000D01*
X141717738Y-115752619D01*
X141670119Y-115847857D01*
X141670119Y-115943095D01*
X141717738Y-116085952D01*
X142289166Y-116657380D01*
X141670119Y-116657380D01*
X140527261Y-115609761D02*
X141384404Y-116895476D01*
X140241547Y-115752619D02*
X140193928Y-115705000D01*
X140098690Y-115657380D01*
X139860595Y-115657380D01*
X139765357Y-115705000D01*
X139717738Y-115752619D01*
X139670119Y-115847857D01*
X139670119Y-115943095D01*
X139717738Y-116085952D01*
X140289166Y-116657380D01*
X139670119Y-116657380D01*
X139051071Y-115657380D02*
X138955833Y-115657380D01*
X138860595Y-115705000D01*
X138812976Y-115752619D01*
X138765357Y-115847857D01*
X138717738Y-116038333D01*
X138717738Y-116276428D01*
X138765357Y-116466904D01*
X138812976Y-116562142D01*
X138860595Y-116609761D01*
X138955833Y-116657380D01*
X139051071Y-116657380D01*
X139146309Y-116609761D01*
X139193928Y-116562142D01*
X139241547Y-116466904D01*
X139289166Y-116276428D01*
X139289166Y-116038333D01*
X139241547Y-115847857D01*
X139193928Y-115752619D01*
X139146309Y-115705000D01*
X139051071Y-115657380D01*
X137765357Y-116657380D02*
X138336785Y-116657380D01*
X138051071Y-116657380D02*
X138051071Y-115657380D01*
X138146309Y-115800238D01*
X138241547Y-115895476D01*
X138336785Y-115943095D01*
X137289166Y-116657380D02*
X137098690Y-116657380D01*
X137003452Y-116609761D01*
X136955833Y-116562142D01*
X136860595Y-116419285D01*
X136812976Y-116228809D01*
X136812976Y-115847857D01*
X136860595Y-115752619D01*
X136908214Y-115705000D01*
X137003452Y-115657380D01*
X137193928Y-115657380D01*
X137289166Y-115705000D01*
X137336785Y-115752619D01*
X137384404Y-115847857D01*
X137384404Y-116085952D01*
X137336785Y-116181190D01*
X137289166Y-116228809D01*
X137193928Y-116276428D01*
X137003452Y-116276428D01*
X136908214Y-116228809D01*
X136860595Y-116181190D01*
X136812976Y-116085952D01*
X159890833Y-115990714D02*
X159890833Y-116800238D01*
X159938452Y-116895476D01*
X159986071Y-116943095D01*
X160081309Y-116990714D01*
X160224166Y-116990714D01*
X160319404Y-116943095D01*
X159890833Y-116609761D02*
X159986071Y-116657380D01*
X160176547Y-116657380D01*
X160271785Y-116609761D01*
X160319404Y-116562142D01*
X160367023Y-116466904D01*
X160367023Y-116181190D01*
X160319404Y-116085952D01*
X160271785Y-116038333D01*
X160176547Y-115990714D01*
X159986071Y-115990714D01*
X159890833Y-116038333D01*
X159414642Y-116657380D02*
X159414642Y-115990714D01*
X159414642Y-115657380D02*
X159462261Y-115705000D01*
X159414642Y-115752619D01*
X159367023Y-115705000D01*
X159414642Y-115657380D01*
X159414642Y-115752619D01*
X159081309Y-115990714D02*
X158700357Y-115990714D01*
X158938452Y-115657380D02*
X158938452Y-116514523D01*
X158890833Y-116609761D01*
X158795595Y-116657380D01*
X158700357Y-116657380D01*
X158367023Y-116657380D02*
X158367023Y-115657380D01*
X157938452Y-116657380D02*
X157938452Y-116133571D01*
X157986071Y-116038333D01*
X158081309Y-115990714D01*
X158224166Y-115990714D01*
X158319404Y-116038333D01*
X158367023Y-116085952D01*
X157033690Y-115990714D02*
X157033690Y-116657380D01*
X157462261Y-115990714D02*
X157462261Y-116514523D01*
X157414642Y-116609761D01*
X157319404Y-116657380D01*
X157176547Y-116657380D01*
X157081309Y-116609761D01*
X157033690Y-116562142D01*
X156557500Y-116657380D02*
X156557500Y-115657380D01*
X156557500Y-116038333D02*
X156462261Y-115990714D01*
X156271785Y-115990714D01*
X156176547Y-116038333D01*
X156128928Y-116085952D01*
X156081309Y-116181190D01*
X156081309Y-116466904D01*
X156128928Y-116562142D01*
X156176547Y-116609761D01*
X156271785Y-116657380D01*
X156462261Y-116657380D01*
X156557500Y-116609761D01*
X155652738Y-116562142D02*
X155605119Y-116609761D01*
X155652738Y-116657380D01*
X155700357Y-116609761D01*
X155652738Y-116562142D01*
X155652738Y-116657380D01*
X155176547Y-116657380D02*
X155176547Y-115657380D01*
X155176547Y-116038333D02*
X155081309Y-115990714D01*
X154890833Y-115990714D01*
X154795595Y-116038333D01*
X154747976Y-116085952D01*
X154700357Y-116181190D01*
X154700357Y-116466904D01*
X154747976Y-116562142D01*
X154795595Y-116609761D01*
X154890833Y-116657380D01*
X155081309Y-116657380D01*
X155176547Y-116609761D01*
X154271785Y-116657380D02*
X154271785Y-115990714D01*
X154271785Y-116181190D02*
X154224166Y-116085952D01*
X154176547Y-116038333D01*
X154081309Y-115990714D01*
X153986071Y-115990714D01*
X153271785Y-116609761D02*
X153367023Y-116657380D01*
X153557500Y-116657380D01*
X153652738Y-116609761D01*
X153700357Y-116514523D01*
X153700357Y-116133571D01*
X153652738Y-116038333D01*
X153557500Y-115990714D01*
X153367023Y-115990714D01*
X153271785Y-116038333D01*
X153224166Y-116133571D01*
X153224166Y-116228809D01*
X153700357Y-116324047D01*
X152367023Y-116609761D02*
X152462261Y-116657380D01*
X152652738Y-116657380D01*
X152747976Y-116609761D01*
X152795595Y-116562142D01*
X152843214Y-116466904D01*
X152843214Y-116181190D01*
X152795595Y-116085952D01*
X152747976Y-116038333D01*
X152652738Y-115990714D01*
X152462261Y-115990714D01*
X152367023Y-116038333D01*
X151938452Y-116657380D02*
X151938452Y-115657380D01*
X151509880Y-116657380D02*
X151509880Y-116133571D01*
X151557500Y-116038333D01*
X151652738Y-115990714D01*
X151795595Y-115990714D01*
X151890833Y-116038333D01*
X151938452Y-116085952D01*
X151176547Y-115990714D02*
X150795595Y-115990714D01*
X151033690Y-115657380D02*
X151033690Y-116514523D01*
X150986071Y-116609761D01*
X150890833Y-116657380D01*
X150795595Y-116657380D01*
X150557500Y-115990714D02*
X150319404Y-116657380D01*
X150081309Y-115990714D01*
X149319404Y-116609761D02*
X149414642Y-116657380D01*
X149605119Y-116657380D01*
X149700357Y-116609761D01*
X149747976Y-116514523D01*
X149747976Y-116133571D01*
X149700357Y-116038333D01*
X149605119Y-115990714D01*
X149414642Y-115990714D01*
X149319404Y-116038333D01*
X149271785Y-116133571D01*
X149271785Y-116228809D01*
X149747976Y-116324047D01*
X148843214Y-116562142D02*
X148795595Y-116609761D01*
X148843214Y-116657380D01*
X148890833Y-116609761D01*
X148843214Y-116562142D01*
X148843214Y-116657380D01*
X148367023Y-116657380D02*
X148367023Y-115657380D01*
X148367023Y-116038333D02*
X148271785Y-115990714D01*
X148081309Y-115990714D01*
X147986071Y-116038333D01*
X147938452Y-116085952D01*
X147890833Y-116181190D01*
X147890833Y-116466904D01*
X147938452Y-116562142D01*
X147986071Y-116609761D01*
X148081309Y-116657380D01*
X148271785Y-116657380D01*
X148367023Y-116609761D01*
X147081309Y-116609761D02*
X147176547Y-116657380D01*
X147367023Y-116657380D01*
X147462261Y-116609761D01*
X147509880Y-116514523D01*
X147509880Y-116133571D01*
X147462261Y-116038333D01*
X147367023Y-115990714D01*
X147176547Y-115990714D01*
X147081309Y-116038333D01*
X147033690Y-116133571D01*
X147033690Y-116228809D01*
X147509880Y-116324047D01*
X160367023Y-111942619D02*
X160319404Y-111895000D01*
X160224166Y-111847380D01*
X159986071Y-111847380D01*
X159890833Y-111895000D01*
X159843214Y-111942619D01*
X159795595Y-112037857D01*
X159795595Y-112133095D01*
X159843214Y-112275952D01*
X160414642Y-112847380D01*
X159795595Y-112847380D01*
X158033690Y-112752142D02*
X158081309Y-112799761D01*
X158224166Y-112847380D01*
X158319404Y-112847380D01*
X158462261Y-112799761D01*
X158557500Y-112704523D01*
X158605119Y-112609285D01*
X158652738Y-112418809D01*
X158652738Y-112275952D01*
X158605119Y-112085476D01*
X158557500Y-111990238D01*
X158462261Y-111895000D01*
X158319404Y-111847380D01*
X158224166Y-111847380D01*
X158081309Y-111895000D01*
X158033690Y-111942619D01*
X157605119Y-112847380D02*
X157605119Y-111847380D01*
X157605119Y-112323571D02*
X157033690Y-112323571D01*
X157033690Y-112847380D02*
X157033690Y-111847380D01*
X155367023Y-112180714D02*
X155367023Y-112847380D01*
X155605119Y-111799761D02*
X155843214Y-112514047D01*
X155224166Y-112514047D01*
X154843214Y-112466428D02*
X154081309Y-112466428D01*
X153652738Y-111942619D02*
X153605119Y-111895000D01*
X153509880Y-111847380D01*
X153271785Y-111847380D01*
X153176547Y-111895000D01*
X153128928Y-111942619D01*
X153081309Y-112037857D01*
X153081309Y-112133095D01*
X153128928Y-112275952D01*
X153700357Y-112847380D01*
X153081309Y-112847380D01*
X152462261Y-111847380D02*
X152367023Y-111847380D01*
X152271785Y-111895000D01*
X152224166Y-111942619D01*
X152176547Y-112037857D01*
X152128928Y-112228333D01*
X152128928Y-112466428D01*
X152176547Y-112656904D01*
X152224166Y-112752142D01*
X152271785Y-112799761D01*
X152367023Y-112847380D01*
X152462261Y-112847380D01*
X152557500Y-112799761D01*
X152605119Y-112752142D01*
X152652738Y-112656904D01*
X152700357Y-112466428D01*
X152700357Y-112228333D01*
X152652738Y-112037857D01*
X152605119Y-111942619D01*
X152557500Y-111895000D01*
X152462261Y-111847380D01*
X150938452Y-112847380D02*
X150938452Y-112180714D01*
X150938452Y-112275952D02*
X150890833Y-112228333D01*
X150795595Y-112180714D01*
X150652738Y-112180714D01*
X150557500Y-112228333D01*
X150509880Y-112323571D01*
X150509880Y-112847380D01*
X150509880Y-112323571D02*
X150462261Y-112228333D01*
X150367023Y-112180714D01*
X150224166Y-112180714D01*
X150128928Y-112228333D01*
X150081309Y-112323571D01*
X150081309Y-112847380D01*
X149652738Y-112561666D02*
X149176547Y-112561666D01*
X149747976Y-112847380D02*
X149414642Y-111847380D01*
X149081309Y-112847380D01*
X148128928Y-112180714D02*
X147747976Y-112180714D01*
X147986071Y-111847380D02*
X147986071Y-112704523D01*
X147938452Y-112799761D01*
X147843214Y-112847380D01*
X147747976Y-112847380D01*
X147271785Y-112847380D02*
X147367023Y-112799761D01*
X147414642Y-112752142D01*
X147462261Y-112656904D01*
X147462261Y-112371190D01*
X147414642Y-112275952D01*
X147367023Y-112228333D01*
X147271785Y-112180714D01*
X147128928Y-112180714D01*
X147033690Y-112228333D01*
X146986071Y-112275952D01*
X146938452Y-112371190D01*
X146938452Y-112656904D01*
X146986071Y-112752142D01*
X147033690Y-112799761D01*
X147128928Y-112847380D01*
X147271785Y-112847380D01*
X145843214Y-112180714D02*
X145605119Y-112847380D01*
X145367023Y-112180714D01*
X144843214Y-112847380D02*
X144938452Y-112799761D01*
X144986071Y-112752142D01*
X145033690Y-112656904D01*
X145033690Y-112371190D01*
X144986071Y-112275952D01*
X144938452Y-112228333D01*
X144843214Y-112180714D01*
X144700357Y-112180714D01*
X144605119Y-112228333D01*
X144557500Y-112275952D01*
X144509880Y-112371190D01*
X144509880Y-112656904D01*
X144557500Y-112752142D01*
X144605119Y-112799761D01*
X144700357Y-112847380D01*
X144843214Y-112847380D01*
X143938452Y-112847380D02*
X144033690Y-112799761D01*
X144081309Y-112704523D01*
X144081309Y-111847380D01*
X143700357Y-112180714D02*
X143319404Y-112180714D01*
X143557500Y-111847380D02*
X143557500Y-112704523D01*
X143509880Y-112799761D01*
X143414642Y-112847380D01*
X143319404Y-112847380D01*
X142557500Y-112847380D02*
X142557500Y-112323571D01*
X142605119Y-112228333D01*
X142700357Y-112180714D01*
X142890833Y-112180714D01*
X142986071Y-112228333D01*
X142557500Y-112799761D02*
X142652738Y-112847380D01*
X142890833Y-112847380D01*
X142986071Y-112799761D01*
X143033690Y-112704523D01*
X143033690Y-112609285D01*
X142986071Y-112514047D01*
X142890833Y-112466428D01*
X142652738Y-112466428D01*
X142557500Y-112418809D01*
X141652738Y-112180714D02*
X141652738Y-112990238D01*
X141700357Y-113085476D01*
X141747976Y-113133095D01*
X141843214Y-113180714D01*
X141986071Y-113180714D01*
X142081309Y-113133095D01*
X141652738Y-112799761D02*
X141747976Y-112847380D01*
X141938452Y-112847380D01*
X142033690Y-112799761D01*
X142081309Y-112752142D01*
X142128928Y-112656904D01*
X142128928Y-112371190D01*
X142081309Y-112275952D01*
X142033690Y-112228333D01*
X141938452Y-112180714D01*
X141747976Y-112180714D01*
X141652738Y-112228333D01*
X140795595Y-112799761D02*
X140890833Y-112847380D01*
X141081309Y-112847380D01*
X141176547Y-112799761D01*
X141224166Y-112704523D01*
X141224166Y-112323571D01*
X141176547Y-112228333D01*
X141081309Y-112180714D01*
X140890833Y-112180714D01*
X140795595Y-112228333D01*
X140747976Y-112323571D01*
X140747976Y-112418809D01*
X141224166Y-112514047D01*
X139652738Y-112180714D02*
X139414642Y-112847380D01*
X139176547Y-112180714D01*
X138271785Y-112847380D02*
X138843214Y-112847380D01*
X138557500Y-112847380D02*
X138557500Y-111847380D01*
X138652738Y-111990238D01*
X138747976Y-112085476D01*
X138843214Y-112133095D01*
X137843214Y-112752142D02*
X137795595Y-112799761D01*
X137843214Y-112847380D01*
X137890833Y-112799761D01*
X137843214Y-112752142D01*
X137843214Y-112847380D01*
X136843214Y-112847380D02*
X137414642Y-112847380D01*
X137128928Y-112847380D02*
X137128928Y-111847380D01*
X137224166Y-111990238D01*
X137319404Y-112085476D01*
X137414642Y-112133095D01*
X145572857Y-79717380D02*
X145572857Y-80526904D01*
X145525238Y-80622142D01*
X145477619Y-80669761D01*
X145382380Y-80717380D01*
X145191904Y-80717380D01*
X145096666Y-80669761D01*
X145049047Y-80622142D01*
X145001428Y-80526904D01*
X145001428Y-79717380D01*
X144001428Y-80717380D02*
X144572857Y-80717380D01*
X144287142Y-80717380D02*
X144287142Y-79717380D01*
X144382380Y-79860238D01*
X144477619Y-79955476D01*
X144572857Y-80003095D01*
X142001428Y-80717380D02*
X142049047Y-80717380D01*
X142144285Y-80669761D01*
X142287142Y-80526904D01*
X142525238Y-80241190D01*
X142620476Y-80098333D01*
X142668095Y-79955476D01*
X142668095Y-79860238D01*
X142620476Y-79765000D01*
X142525238Y-79717380D01*
X142477619Y-79717380D01*
X142382380Y-79765000D01*
X142334761Y-79860238D01*
X142334761Y-79907857D01*
X142382380Y-80003095D01*
X142430000Y-80050714D01*
X142715714Y-80241190D01*
X142763333Y-80288809D01*
X142810952Y-80384047D01*
X142810952Y-80526904D01*
X142763333Y-80622142D01*
X142715714Y-80669761D01*
X142620476Y-80717380D01*
X142477619Y-80717380D01*
X142382380Y-80669761D01*
X142334761Y-80622142D01*
X142191904Y-80431666D01*
X142144285Y-80288809D01*
X142144285Y-80193571D01*
X140810952Y-79717380D02*
X140810952Y-80526904D01*
X140763333Y-80622142D01*
X140715714Y-80669761D01*
X140620476Y-80717380D01*
X140430000Y-80717380D01*
X140334761Y-80669761D01*
X140287142Y-80622142D01*
X140239523Y-80526904D01*
X140239523Y-79717380D01*
X139810952Y-79812619D02*
X139763333Y-79765000D01*
X139668095Y-79717380D01*
X139430000Y-79717380D01*
X139334761Y-79765000D01*
X139287142Y-79812619D01*
X139239523Y-79907857D01*
X139239523Y-80003095D01*
X139287142Y-80145952D01*
X139858571Y-80717380D01*
X139239523Y-80717380D01*
X138810952Y-80622142D02*
X138763333Y-80669761D01*
X138810952Y-80717380D01*
X138858571Y-80669761D01*
X138810952Y-80622142D01*
X138810952Y-80717380D01*
X138810952Y-80098333D02*
X138763333Y-80145952D01*
X138810952Y-80193571D01*
X138858571Y-80145952D01*
X138810952Y-80098333D01*
X138810952Y-80193571D01*
X137096666Y-80717380D02*
X137572857Y-80717380D01*
X137572857Y-79717380D01*
X136763333Y-80717380D02*
X136763333Y-79717380D01*
X136430000Y-80431666D01*
X136096666Y-79717380D01*
X136096666Y-80717380D01*
X135620476Y-80717380D02*
X135620476Y-79717380D01*
X135239523Y-79717380D01*
X135144285Y-79765000D01*
X135096666Y-79812619D01*
X135049047Y-79907857D01*
X135049047Y-80050714D01*
X135096666Y-80145952D01*
X135144285Y-80193571D01*
X135239523Y-80241190D01*
X135620476Y-80241190D01*
X134477619Y-80145952D02*
X134572857Y-80098333D01*
X134620476Y-80050714D01*
X134668095Y-79955476D01*
X134668095Y-79907857D01*
X134620476Y-79812619D01*
X134572857Y-79765000D01*
X134477619Y-79717380D01*
X134287142Y-79717380D01*
X134191904Y-79765000D01*
X134144285Y-79812619D01*
X134096666Y-79907857D01*
X134096666Y-79955476D01*
X134144285Y-80050714D01*
X134191904Y-80098333D01*
X134287142Y-80145952D01*
X134477619Y-80145952D01*
X134572857Y-80193571D01*
X134620476Y-80241190D01*
X134668095Y-80336428D01*
X134668095Y-80526904D01*
X134620476Y-80622142D01*
X134572857Y-80669761D01*
X134477619Y-80717380D01*
X134287142Y-80717380D01*
X134191904Y-80669761D01*
X134144285Y-80622142D01*
X134096666Y-80526904D01*
X134096666Y-80336428D01*
X134144285Y-80241190D01*
X134191904Y-80193571D01*
X134287142Y-80145952D01*
X133239523Y-79717380D02*
X133430000Y-79717380D01*
X133525238Y-79765000D01*
X133572857Y-79812619D01*
X133668095Y-79955476D01*
X133715714Y-80145952D01*
X133715714Y-80526904D01*
X133668095Y-80622142D01*
X133620476Y-80669761D01*
X133525238Y-80717380D01*
X133334761Y-80717380D01*
X133239523Y-80669761D01*
X133191904Y-80622142D01*
X133144285Y-80526904D01*
X133144285Y-80288809D01*
X133191904Y-80193571D01*
X133239523Y-80145952D01*
X133334761Y-80098333D01*
X133525238Y-80098333D01*
X133620476Y-80145952D01*
X133668095Y-80193571D01*
X133715714Y-80288809D01*
X132287142Y-80050714D02*
X132287142Y-80717380D01*
X132525238Y-79669761D02*
X132763333Y-80384047D01*
X132144285Y-80384047D01*
X131572857Y-79717380D02*
X131477619Y-79717380D01*
X131382380Y-79765000D01*
X131334761Y-79812619D01*
X131287142Y-79907857D01*
X131239523Y-80098333D01*
X131239523Y-80336428D01*
X131287142Y-80526904D01*
X131334761Y-80622142D01*
X131382380Y-80669761D01*
X131477619Y-80717380D01*
X131572857Y-80717380D01*
X131668095Y-80669761D01*
X131715714Y-80622142D01*
X131763333Y-80526904D01*
X131810952Y-80336428D01*
X131810952Y-80098333D01*
X131763333Y-79907857D01*
X131715714Y-79812619D01*
X131668095Y-79765000D01*
X131572857Y-79717380D01*
X144263333Y-82272142D02*
X144310952Y-82319761D01*
X144453809Y-82367380D01*
X144549047Y-82367380D01*
X144691904Y-82319761D01*
X144787142Y-82224523D01*
X144834761Y-82129285D01*
X144882380Y-81938809D01*
X144882380Y-81795952D01*
X144834761Y-81605476D01*
X144787142Y-81510238D01*
X144691904Y-81415000D01*
X144549047Y-81367380D01*
X144453809Y-81367380D01*
X144310952Y-81415000D01*
X144263333Y-81462619D01*
X143310952Y-82367380D02*
X143882380Y-82367380D01*
X143596666Y-82367380D02*
X143596666Y-81367380D01*
X143691904Y-81510238D01*
X143787142Y-81605476D01*
X143882380Y-81653095D01*
X141310952Y-82367380D02*
X141358571Y-82367380D01*
X141453809Y-82319761D01*
X141596666Y-82176904D01*
X141834761Y-81891190D01*
X141930000Y-81748333D01*
X141977619Y-81605476D01*
X141977619Y-81510238D01*
X141930000Y-81415000D01*
X141834761Y-81367380D01*
X141787142Y-81367380D01*
X141691904Y-81415000D01*
X141644285Y-81510238D01*
X141644285Y-81557857D01*
X141691904Y-81653095D01*
X141739523Y-81700714D01*
X142025238Y-81891190D01*
X142072857Y-81938809D01*
X142120476Y-82034047D01*
X142120476Y-82176904D01*
X142072857Y-82272142D01*
X142025238Y-82319761D01*
X141930000Y-82367380D01*
X141787142Y-82367380D01*
X141691904Y-82319761D01*
X141644285Y-82272142D01*
X141501428Y-82081666D01*
X141453809Y-81938809D01*
X141453809Y-81843571D01*
X139549047Y-82272142D02*
X139596666Y-82319761D01*
X139739523Y-82367380D01*
X139834761Y-82367380D01*
X139977619Y-82319761D01*
X140072857Y-82224523D01*
X140120476Y-82129285D01*
X140168095Y-81938809D01*
X140168095Y-81795952D01*
X140120476Y-81605476D01*
X140072857Y-81510238D01*
X139977619Y-81415000D01*
X139834761Y-81367380D01*
X139739523Y-81367380D01*
X139596666Y-81415000D01*
X139549047Y-81462619D01*
X139168095Y-81462619D02*
X139120476Y-81415000D01*
X139025238Y-81367380D01*
X138787142Y-81367380D01*
X138691904Y-81415000D01*
X138644285Y-81462619D01*
X138596666Y-81557857D01*
X138596666Y-81653095D01*
X138644285Y-81795952D01*
X139215714Y-82367380D01*
X138596666Y-82367380D01*
X138168095Y-82272142D02*
X138120476Y-82319761D01*
X138168095Y-82367380D01*
X138215714Y-82319761D01*
X138168095Y-82272142D01*
X138168095Y-82367380D01*
X138168095Y-81748333D02*
X138120476Y-81795952D01*
X138168095Y-81843571D01*
X138215714Y-81795952D01*
X138168095Y-81748333D01*
X138168095Y-81843571D01*
X136406190Y-82367380D02*
X136977619Y-82367380D01*
X136691904Y-82367380D02*
X136691904Y-81367380D01*
X136787142Y-81510238D01*
X136882380Y-81605476D01*
X136977619Y-81653095D01*
X135787142Y-81367380D02*
X135691904Y-81367380D01*
X135596666Y-81415000D01*
X135549047Y-81462619D01*
X135501428Y-81557857D01*
X135453809Y-81748333D01*
X135453809Y-81986428D01*
X135501428Y-82176904D01*
X135549047Y-82272142D01*
X135596666Y-82319761D01*
X135691904Y-82367380D01*
X135787142Y-82367380D01*
X135882380Y-82319761D01*
X135930000Y-82272142D01*
X135977619Y-82176904D01*
X136025238Y-81986428D01*
X136025238Y-81748333D01*
X135977619Y-81557857D01*
X135930000Y-81462619D01*
X135882380Y-81415000D01*
X135787142Y-81367380D01*
X134834761Y-81367380D02*
X134739523Y-81367380D01*
X134644285Y-81415000D01*
X134596666Y-81462619D01*
X134549047Y-81557857D01*
X134501428Y-81748333D01*
X134501428Y-81986428D01*
X134549047Y-82176904D01*
X134596666Y-82272142D01*
X134644285Y-82319761D01*
X134739523Y-82367380D01*
X134834761Y-82367380D01*
X134930000Y-82319761D01*
X134977619Y-82272142D01*
X135025238Y-82176904D01*
X135072857Y-81986428D01*
X135072857Y-81748333D01*
X135025238Y-81557857D01*
X134977619Y-81462619D01*
X134930000Y-81415000D01*
X134834761Y-81367380D01*
X133310952Y-81700714D02*
X133310952Y-82367380D01*
X133310952Y-81795952D02*
X133263333Y-81748333D01*
X133168095Y-81700714D01*
X133025238Y-81700714D01*
X132930000Y-81748333D01*
X132882380Y-81843571D01*
X132882380Y-82367380D01*
X132072857Y-81843571D02*
X132406190Y-81843571D01*
X132406190Y-82367380D02*
X132406190Y-81367380D01*
X131930000Y-81367380D01*
X144144285Y-83017380D02*
X144144285Y-83826904D01*
X144096666Y-83922142D01*
X144049047Y-83969761D01*
X143953809Y-84017380D01*
X143763333Y-84017380D01*
X143668095Y-83969761D01*
X143620476Y-83922142D01*
X143572857Y-83826904D01*
X143572857Y-83017380D01*
X143191904Y-83017380D02*
X142572857Y-83017380D01*
X142906190Y-83398333D01*
X142763333Y-83398333D01*
X142668095Y-83445952D01*
X142620476Y-83493571D01*
X142572857Y-83588809D01*
X142572857Y-83826904D01*
X142620476Y-83922142D01*
X142668095Y-83969761D01*
X142763333Y-84017380D01*
X143049047Y-84017380D01*
X143144285Y-83969761D01*
X143191904Y-83922142D01*
X142144285Y-83922142D02*
X142096666Y-83969761D01*
X142144285Y-84017380D01*
X142191904Y-83969761D01*
X142144285Y-83922142D01*
X142144285Y-84017380D01*
X142144285Y-83398333D02*
X142096666Y-83445952D01*
X142144285Y-83493571D01*
X142191904Y-83445952D01*
X142144285Y-83398333D01*
X142144285Y-83493571D01*
X141049047Y-83017380D02*
X140477619Y-83017380D01*
X140763333Y-84017380D02*
X140763333Y-83017380D01*
X140144285Y-83493571D02*
X139810952Y-83493571D01*
X139668095Y-84017380D02*
X140144285Y-84017380D01*
X140144285Y-83017380D01*
X139668095Y-83017380D01*
X138668095Y-83922142D02*
X138715714Y-83969761D01*
X138858571Y-84017380D01*
X138953809Y-84017380D01*
X139096666Y-83969761D01*
X139191904Y-83874523D01*
X139239523Y-83779285D01*
X139287142Y-83588809D01*
X139287142Y-83445952D01*
X139239523Y-83255476D01*
X139191904Y-83160238D01*
X139096666Y-83065000D01*
X138953809Y-83017380D01*
X138858571Y-83017380D01*
X138715714Y-83065000D01*
X138668095Y-83112619D01*
X138287142Y-83112619D02*
X138239523Y-83065000D01*
X138144285Y-83017380D01*
X137906190Y-83017380D01*
X137810952Y-83065000D01*
X137763333Y-83112619D01*
X137715714Y-83207857D01*
X137715714Y-83303095D01*
X137763333Y-83445952D01*
X138334761Y-84017380D01*
X137715714Y-84017380D01*
X137287142Y-83636428D02*
X136525238Y-83636428D01*
X135858571Y-83017380D02*
X135763333Y-83017380D01*
X135668095Y-83065000D01*
X135620476Y-83112619D01*
X135572857Y-83207857D01*
X135525238Y-83398333D01*
X135525238Y-83636428D01*
X135572857Y-83826904D01*
X135620476Y-83922142D01*
X135668095Y-83969761D01*
X135763333Y-84017380D01*
X135858571Y-84017380D01*
X135953809Y-83969761D01*
X136001428Y-83922142D01*
X136049047Y-83826904D01*
X136096666Y-83636428D01*
X136096666Y-83398333D01*
X136049047Y-83207857D01*
X136001428Y-83112619D01*
X135953809Y-83065000D01*
X135858571Y-83017380D01*
X135049047Y-84017380D02*
X134858571Y-84017380D01*
X134763333Y-83969761D01*
X134715714Y-83922142D01*
X134620476Y-83779285D01*
X134572857Y-83588809D01*
X134572857Y-83207857D01*
X134620476Y-83112619D01*
X134668095Y-83065000D01*
X134763333Y-83017380D01*
X134953809Y-83017380D01*
X135049047Y-83065000D01*
X135096666Y-83112619D01*
X135144285Y-83207857D01*
X135144285Y-83445952D01*
X135096666Y-83541190D01*
X135049047Y-83588809D01*
X134953809Y-83636428D01*
X134763333Y-83636428D01*
X134668095Y-83588809D01*
X134620476Y-83541190D01*
X134572857Y-83445952D01*
X133620476Y-84017380D02*
X134191904Y-84017380D01*
X133906190Y-84017380D02*
X133906190Y-83017380D01*
X134001428Y-83160238D01*
X134096666Y-83255476D01*
X134191904Y-83303095D01*
X133287142Y-83017380D02*
X132668095Y-83017380D01*
X133001428Y-83398333D01*
X132858571Y-83398333D01*
X132763333Y-83445952D01*
X132715714Y-83493571D01*
X132668095Y-83588809D01*
X132668095Y-83826904D01*
X132715714Y-83922142D01*
X132763333Y-83969761D01*
X132858571Y-84017380D01*
X133144285Y-84017380D01*
X133239523Y-83969761D01*
X133287142Y-83922142D01*
D12*
G36*
X141726177Y-123559533D02*
G01*
X141694798Y-123581776D01*
X141667089Y-123609485D01*
X141667089Y-123918920D01*
X141667162Y-124010799D01*
X141667505Y-124082840D01*
X141668308Y-124137780D01*
X141669759Y-124178360D01*
X141672048Y-124207317D01*
X141675364Y-124227391D01*
X141679895Y-124241321D01*
X141685831Y-124251845D01*
X141690486Y-124258100D01*
X141721217Y-124282673D01*
X141756504Y-124285341D01*
X141788755Y-124270271D01*
X141799412Y-124261374D01*
X141806536Y-124249557D01*
X141810833Y-124230526D01*
X141813009Y-124199992D01*
X141813772Y-124153662D01*
X141813845Y-124117871D01*
X141813845Y-123983045D01*
X142310556Y-123983045D01*
X142310556Y-124105700D01*
X142311069Y-124161787D01*
X142313124Y-124200333D01*
X142317492Y-124226361D01*
X142324944Y-124244897D01*
X142333953Y-124258100D01*
X142364856Y-124282604D01*
X142399804Y-124285506D01*
X142433262Y-124268089D01*
X142442396Y-124258959D01*
X142448848Y-124246855D01*
X142453103Y-124228001D01*
X142455648Y-124198620D01*
X142456971Y-124154937D01*
X142457557Y-124093175D01*
X142457625Y-124079000D01*
X142458109Y-123962631D01*
X142458359Y-123866727D01*
X142458277Y-123789177D01*
X142457769Y-123727869D01*
X142456738Y-123680690D01*
X142455087Y-123645530D01*
X142452721Y-123620276D01*
X142449543Y-123602817D01*
X142445456Y-123591041D01*
X142440366Y-123582835D01*
X142434734Y-123576645D01*
X142402872Y-123556844D01*
X142369643Y-123559533D01*
X142338265Y-123581776D01*
X142325567Y-123596126D01*
X142317474Y-123611978D01*
X142312958Y-123634554D01*
X142310994Y-123669078D01*
X142310556Y-123720776D01*
X142310556Y-123836289D01*
X141813845Y-123836289D01*
X141813845Y-123717756D01*
X141813338Y-123663148D01*
X141811302Y-123626275D01*
X141806965Y-123602307D01*
X141799553Y-123586415D01*
X141791267Y-123576645D01*
X141759406Y-123556844D01*
X141726177Y-123559533D01*
G37*
X141726177Y-123559533D02*
X141694798Y-123581776D01*
X141667089Y-123609485D01*
X141667089Y-123918920D01*
X141667162Y-124010799D01*
X141667505Y-124082840D01*
X141668308Y-124137780D01*
X141669759Y-124178360D01*
X141672048Y-124207317D01*
X141675364Y-124227391D01*
X141679895Y-124241321D01*
X141685831Y-124251845D01*
X141690486Y-124258100D01*
X141721217Y-124282673D01*
X141756504Y-124285341D01*
X141788755Y-124270271D01*
X141799412Y-124261374D01*
X141806536Y-124249557D01*
X141810833Y-124230526D01*
X141813009Y-124199992D01*
X141813772Y-124153662D01*
X141813845Y-124117871D01*
X141813845Y-123983045D01*
X142310556Y-123983045D01*
X142310556Y-124105700D01*
X142311069Y-124161787D01*
X142313124Y-124200333D01*
X142317492Y-124226361D01*
X142324944Y-124244897D01*
X142333953Y-124258100D01*
X142364856Y-124282604D01*
X142399804Y-124285506D01*
X142433262Y-124268089D01*
X142442396Y-124258959D01*
X142448848Y-124246855D01*
X142453103Y-124228001D01*
X142455648Y-124198620D01*
X142456971Y-124154937D01*
X142457557Y-124093175D01*
X142457625Y-124079000D01*
X142458109Y-123962631D01*
X142458359Y-123866727D01*
X142458277Y-123789177D01*
X142457769Y-123727869D01*
X142456738Y-123680690D01*
X142455087Y-123645530D01*
X142452721Y-123620276D01*
X142449543Y-123602817D01*
X142445456Y-123591041D01*
X142440366Y-123582835D01*
X142434734Y-123576645D01*
X142402872Y-123556844D01*
X142369643Y-123559533D01*
X142338265Y-123581776D01*
X142325567Y-123596126D01*
X142317474Y-123611978D01*
X142312958Y-123634554D01*
X142310994Y-123669078D01*
X142310556Y-123720776D01*
X142310556Y-123836289D01*
X141813845Y-123836289D01*
X141813845Y-123717756D01*
X141813338Y-123663148D01*
X141811302Y-123626275D01*
X141806965Y-123602307D01*
X141799553Y-123586415D01*
X141791267Y-123576645D01*
X141759406Y-123556844D01*
X141726177Y-123559533D01*
G36*
X142991935Y-123554163D02*
G01*
X142913228Y-123554542D01*
X142852137Y-123555333D01*
X142806183Y-123556670D01*
X142772886Y-123558683D01*
X142749764Y-123561506D01*
X142734338Y-123565269D01*
X142724129Y-123570105D01*
X142719187Y-123573822D01*
X142693543Y-123606358D01*
X142690441Y-123640138D01*
X142706289Y-123670826D01*
X142716652Y-123683089D01*
X142727804Y-123691450D01*
X142743965Y-123696657D01*
X142769358Y-123699457D01*
X142808202Y-123700596D01*
X142864720Y-123700821D01*
X142875820Y-123700822D01*
X143021756Y-123700822D01*
X143021756Y-123971756D01*
X143021852Y-124057154D01*
X143022289Y-124122864D01*
X143023288Y-124171774D01*
X143025072Y-124206773D01*
X143027863Y-124230749D01*
X143031883Y-124246593D01*
X143037355Y-124257191D01*
X143044334Y-124265267D01*
X143077266Y-124285112D01*
X143111646Y-124283548D01*
X143142824Y-124260906D01*
X143145114Y-124258100D01*
X143152571Y-124247492D01*
X143158253Y-124235081D01*
X143162399Y-124217850D01*
X143165250Y-124192784D01*
X143167046Y-124156867D01*
X143168028Y-124107083D01*
X143168436Y-124040417D01*
X143168511Y-123964589D01*
X143168511Y-123700822D01*
X143307873Y-123700822D01*
X143367678Y-123700418D01*
X143409082Y-123698840D01*
X143436252Y-123695547D01*
X143453354Y-123689992D01*
X143464557Y-123681631D01*
X143465917Y-123680178D01*
X143482275Y-123646939D01*
X143480828Y-123609362D01*
X143462022Y-123576645D01*
X143454750Y-123570298D01*
X143445373Y-123565266D01*
X143431391Y-123561396D01*
X143410304Y-123558537D01*
X143379611Y-123556535D01*
X143336811Y-123555239D01*
X143279405Y-123554498D01*
X143204890Y-123554158D01*
X143110767Y-123554068D01*
X143090740Y-123554067D01*
X142991935Y-123554163D01*
G37*
X142991935Y-123554163D02*
X142913228Y-123554542D01*
X142852137Y-123555333D01*
X142806183Y-123556670D01*
X142772886Y-123558683D01*
X142749764Y-123561506D01*
X142734338Y-123565269D01*
X142724129Y-123570105D01*
X142719187Y-123573822D01*
X142693543Y-123606358D01*
X142690441Y-123640138D01*
X142706289Y-123670826D01*
X142716652Y-123683089D01*
X142727804Y-123691450D01*
X142743965Y-123696657D01*
X142769358Y-123699457D01*
X142808202Y-123700596D01*
X142864720Y-123700821D01*
X142875820Y-123700822D01*
X143021756Y-123700822D01*
X143021756Y-123971756D01*
X143021852Y-124057154D01*
X143022289Y-124122864D01*
X143023288Y-124171774D01*
X143025072Y-124206773D01*
X143027863Y-124230749D01*
X143031883Y-124246593D01*
X143037355Y-124257191D01*
X143044334Y-124265267D01*
X143077266Y-124285112D01*
X143111646Y-124283548D01*
X143142824Y-124260906D01*
X143145114Y-124258100D01*
X143152571Y-124247492D01*
X143158253Y-124235081D01*
X143162399Y-124217850D01*
X143165250Y-124192784D01*
X143167046Y-124156867D01*
X143168028Y-124107083D01*
X143168436Y-124040417D01*
X143168511Y-123964589D01*
X143168511Y-123700822D01*
X143307873Y-123700822D01*
X143367678Y-123700418D01*
X143409082Y-123698840D01*
X143436252Y-123695547D01*
X143453354Y-123689992D01*
X143464557Y-123681631D01*
X143465917Y-123680178D01*
X143482275Y-123646939D01*
X143480828Y-123609362D01*
X143462022Y-123576645D01*
X143454750Y-123570298D01*
X143445373Y-123565266D01*
X143431391Y-123561396D01*
X143410304Y-123558537D01*
X143379611Y-123556535D01*
X143336811Y-123555239D01*
X143279405Y-123554498D01*
X143204890Y-123554158D01*
X143110767Y-123554068D01*
X143090740Y-123554067D01*
X142991935Y-123554163D01*
G36*
X143766386Y-123560877D02*
G01*
X143742673Y-123575647D01*
X143716022Y-123597227D01*
X143716022Y-123918773D01*
X143716107Y-124012830D01*
X143716471Y-124086932D01*
X143717276Y-124143704D01*
X143718687Y-124185768D01*
X143720867Y-124215748D01*
X143723979Y-124236267D01*
X143728186Y-124249949D01*
X143733652Y-124259416D01*
X143737528Y-124264082D01*
X143768966Y-124284575D01*
X143804767Y-124283739D01*
X143836127Y-124266264D01*
X143862778Y-124244684D01*
X143862778Y-123597227D01*
X143836127Y-123575647D01*
X143810406Y-123559949D01*
X143789400Y-123554067D01*
X143766386Y-123560877D01*
G37*
X143766386Y-123560877D02*
X143742673Y-123575647D01*
X143716022Y-123597227D01*
X143716022Y-123918773D01*
X143716107Y-124012830D01*
X143716471Y-124086932D01*
X143717276Y-124143704D01*
X143718687Y-124185768D01*
X143720867Y-124215748D01*
X143723979Y-124236267D01*
X143728186Y-124249949D01*
X143733652Y-124259416D01*
X143737528Y-124264082D01*
X143768966Y-124284575D01*
X143804767Y-124283739D01*
X143836127Y-124266264D01*
X143862778Y-124244684D01*
X143862778Y-123597227D01*
X143836127Y-123575647D01*
X143810406Y-123559949D01*
X143789400Y-123554067D01*
X143766386Y-123560877D01*
G36*
X144210335Y-123556034D02*
G01*
X144190745Y-123563035D01*
X144189990Y-123563377D01*
X144163387Y-123583678D01*
X144148730Y-123604561D01*
X144145862Y-123614352D01*
X144146004Y-123627361D01*
X144150039Y-123645895D01*
X144158854Y-123672257D01*
X144173331Y-123708752D01*
X144194355Y-123757687D01*
X144222812Y-123821365D01*
X144259585Y-123902093D01*
X144279825Y-123946216D01*
X144316375Y-124024985D01*
X144350685Y-124097423D01*
X144381448Y-124160880D01*
X144407352Y-124212708D01*
X144427090Y-124250259D01*
X144439350Y-124270884D01*
X144441776Y-124273733D01*
X144472817Y-124286302D01*
X144507879Y-124284619D01*
X144536000Y-124269332D01*
X144537146Y-124268089D01*
X144548332Y-124251154D01*
X144567096Y-124218170D01*
X144591125Y-124173380D01*
X144618103Y-124121032D01*
X144627799Y-124101742D01*
X144700986Y-123955150D01*
X144780760Y-124114393D01*
X144809233Y-124169415D01*
X144835650Y-124217132D01*
X144857852Y-124253893D01*
X144873681Y-124276044D01*
X144879046Y-124280741D01*
X144920743Y-124287102D01*
X144955151Y-124273733D01*
X144965272Y-124259446D01*
X144982786Y-124227692D01*
X145006265Y-124181597D01*
X145034280Y-124124285D01*
X145065401Y-124058880D01*
X145098201Y-123988507D01*
X145131250Y-123916291D01*
X145163119Y-123845355D01*
X145192381Y-123778825D01*
X145217605Y-123719826D01*
X145237364Y-123671481D01*
X145250228Y-123636915D01*
X145254769Y-123619253D01*
X145254723Y-123618613D01*
X145243674Y-123596388D01*
X145221590Y-123573753D01*
X145220290Y-123572768D01*
X145193147Y-123557425D01*
X145168042Y-123557574D01*
X145158632Y-123560466D01*
X145147166Y-123566718D01*
X145134990Y-123579014D01*
X145120643Y-123599908D01*
X145102664Y-123631949D01*
X145079593Y-123677688D01*
X145049970Y-123739677D01*
X145023255Y-123796898D01*
X144992520Y-123863226D01*
X144964979Y-123922874D01*
X144942062Y-123972725D01*
X144925202Y-124009664D01*
X144915827Y-124030573D01*
X144914460Y-124033845D01*
X144908311Y-124028497D01*
X144894178Y-124006109D01*
X144873943Y-123969946D01*
X144849485Y-123923277D01*
X144839752Y-123904022D01*
X144806783Y-123839004D01*
X144781357Y-123791654D01*
X144761388Y-123759219D01*
X144744790Y-123738946D01*
X144729476Y-123728082D01*
X144713360Y-123723875D01*
X144702857Y-123723400D01*
X144684330Y-123725042D01*
X144668096Y-123731831D01*
X144651965Y-123746566D01*
X144633749Y-123772044D01*
X144611261Y-123811061D01*
X144582311Y-123866414D01*
X144566338Y-123897903D01*
X144540430Y-123948087D01*
X144517833Y-123989704D01*
X144500542Y-124019242D01*
X144490550Y-124033189D01*
X144489191Y-124033770D01*
X144482739Y-124022793D01*
X144468292Y-123994290D01*
X144447297Y-123951244D01*
X144421203Y-123896638D01*
X144391454Y-123833454D01*
X144376820Y-123802071D01*
X144338750Y-123721078D01*
X144308095Y-123658756D01*
X144283263Y-123613071D01*
X144262663Y-123581989D01*
X144244702Y-123563478D01*
X144227790Y-123555504D01*
X144210335Y-123556034D01*
G37*
X144210335Y-123556034D02*
X144190745Y-123563035D01*
X144189990Y-123563377D01*
X144163387Y-123583678D01*
X144148730Y-123604561D01*
X144145862Y-123614352D01*
X144146004Y-123627361D01*
X144150039Y-123645895D01*
X144158854Y-123672257D01*
X144173331Y-123708752D01*
X144194355Y-123757687D01*
X144222812Y-123821365D01*
X144259585Y-123902093D01*
X144279825Y-123946216D01*
X144316375Y-124024985D01*
X144350685Y-124097423D01*
X144381448Y-124160880D01*
X144407352Y-124212708D01*
X144427090Y-124250259D01*
X144439350Y-124270884D01*
X144441776Y-124273733D01*
X144472817Y-124286302D01*
X144507879Y-124284619D01*
X144536000Y-124269332D01*
X144537146Y-124268089D01*
X144548332Y-124251154D01*
X144567096Y-124218170D01*
X144591125Y-124173380D01*
X144618103Y-124121032D01*
X144627799Y-124101742D01*
X144700986Y-123955150D01*
X144780760Y-124114393D01*
X144809233Y-124169415D01*
X144835650Y-124217132D01*
X144857852Y-124253893D01*
X144873681Y-124276044D01*
X144879046Y-124280741D01*
X144920743Y-124287102D01*
X144955151Y-124273733D01*
X144965272Y-124259446D01*
X144982786Y-124227692D01*
X145006265Y-124181597D01*
X145034280Y-124124285D01*
X145065401Y-124058880D01*
X145098201Y-123988507D01*
X145131250Y-123916291D01*
X145163119Y-123845355D01*
X145192381Y-123778825D01*
X145217605Y-123719826D01*
X145237364Y-123671481D01*
X145250228Y-123636915D01*
X145254769Y-123619253D01*
X145254723Y-123618613D01*
X145243674Y-123596388D01*
X145221590Y-123573753D01*
X145220290Y-123572768D01*
X145193147Y-123557425D01*
X145168042Y-123557574D01*
X145158632Y-123560466D01*
X145147166Y-123566718D01*
X145134990Y-123579014D01*
X145120643Y-123599908D01*
X145102664Y-123631949D01*
X145079593Y-123677688D01*
X145049970Y-123739677D01*
X145023255Y-123796898D01*
X144992520Y-123863226D01*
X144964979Y-123922874D01*
X144942062Y-123972725D01*
X144925202Y-124009664D01*
X144915827Y-124030573D01*
X144914460Y-124033845D01*
X144908311Y-124028497D01*
X144894178Y-124006109D01*
X144873943Y-123969946D01*
X144849485Y-123923277D01*
X144839752Y-123904022D01*
X144806783Y-123839004D01*
X144781357Y-123791654D01*
X144761388Y-123759219D01*
X144744790Y-123738946D01*
X144729476Y-123728082D01*
X144713360Y-123723875D01*
X144702857Y-123723400D01*
X144684330Y-123725042D01*
X144668096Y-123731831D01*
X144651965Y-123746566D01*
X144633749Y-123772044D01*
X144611261Y-123811061D01*
X144582311Y-123866414D01*
X144566338Y-123897903D01*
X144540430Y-123948087D01*
X144517833Y-123989704D01*
X144500542Y-124019242D01*
X144490550Y-124033189D01*
X144489191Y-124033770D01*
X144482739Y-124022793D01*
X144468292Y-123994290D01*
X144447297Y-123951244D01*
X144421203Y-123896638D01*
X144391454Y-123833454D01*
X144376820Y-123802071D01*
X144338750Y-123721078D01*
X144308095Y-123658756D01*
X144283263Y-123613071D01*
X144262663Y-123581989D01*
X144244702Y-123563478D01*
X144227790Y-123555504D01*
X144210335Y-123556034D01*
G36*
X146936691Y-123554275D02*
G01*
X146807712Y-123558636D01*
X146698009Y-123571861D01*
X146605774Y-123594741D01*
X146529198Y-123628070D01*
X146466473Y-123672638D01*
X146415788Y-123729236D01*
X146375337Y-123798658D01*
X146374541Y-123800351D01*
X146350399Y-123862483D01*
X146341797Y-123917509D01*
X146348769Y-123972887D01*
X146371346Y-124036073D01*
X146375628Y-124045689D01*
X146404828Y-124101966D01*
X146437644Y-124145451D01*
X146479998Y-124182417D01*
X146537810Y-124219135D01*
X146541169Y-124221052D01*
X146591496Y-124245227D01*
X146648379Y-124263282D01*
X146715473Y-124275839D01*
X146796435Y-124283522D01*
X146894918Y-124286953D01*
X146929714Y-124287251D01*
X147095406Y-124287845D01*
X147118803Y-124258100D01*
X147125743Y-124248319D01*
X147131158Y-124236897D01*
X147135235Y-124221095D01*
X147138163Y-124198175D01*
X147140133Y-124165396D01*
X147140775Y-124141089D01*
X146984156Y-124141089D01*
X146890274Y-124141089D01*
X146835336Y-124139483D01*
X146778940Y-124135255D01*
X146732655Y-124129292D01*
X146729861Y-124128790D01*
X146647652Y-124106736D01*
X146583886Y-124073600D01*
X146536548Y-124027847D01*
X146503618Y-123967939D01*
X146497892Y-123952061D01*
X146492279Y-123927333D01*
X146494709Y-123902902D01*
X146506533Y-123870400D01*
X146513660Y-123854434D01*
X146537000Y-123812006D01*
X146565120Y-123782240D01*
X146596060Y-123761511D01*
X146658034Y-123734537D01*
X146737349Y-123714998D01*
X146829747Y-123703746D01*
X146896667Y-123701270D01*
X146984156Y-123700822D01*
X146984156Y-124141089D01*
X147140775Y-124141089D01*
X147141332Y-124120021D01*
X147141950Y-124059311D01*
X147142175Y-123980526D01*
X147142200Y-123918920D01*
X147142200Y-123609485D01*
X147114491Y-123581776D01*
X147102194Y-123570544D01*
X147088897Y-123562853D01*
X147070328Y-123558040D01*
X147042214Y-123555446D01*
X147000283Y-123554410D01*
X146940263Y-123554270D01*
X146936691Y-123554275D01*
G37*
X146936691Y-123554275D02*
X146807712Y-123558636D01*
X146698009Y-123571861D01*
X146605774Y-123594741D01*
X146529198Y-123628070D01*
X146466473Y-123672638D01*
X146415788Y-123729236D01*
X146375337Y-123798658D01*
X146374541Y-123800351D01*
X146350399Y-123862483D01*
X146341797Y-123917509D01*
X146348769Y-123972887D01*
X146371346Y-124036073D01*
X146375628Y-124045689D01*
X146404828Y-124101966D01*
X146437644Y-124145451D01*
X146479998Y-124182417D01*
X146537810Y-124219135D01*
X146541169Y-124221052D01*
X146591496Y-124245227D01*
X146648379Y-124263282D01*
X146715473Y-124275839D01*
X146796435Y-124283522D01*
X146894918Y-124286953D01*
X146929714Y-124287251D01*
X147095406Y-124287845D01*
X147118803Y-124258100D01*
X147125743Y-124248319D01*
X147131158Y-124236897D01*
X147135235Y-124221095D01*
X147138163Y-124198175D01*
X147140133Y-124165396D01*
X147140775Y-124141089D01*
X146984156Y-124141089D01*
X146890274Y-124141089D01*
X146835336Y-124139483D01*
X146778940Y-124135255D01*
X146732655Y-124129292D01*
X146729861Y-124128790D01*
X146647652Y-124106736D01*
X146583886Y-124073600D01*
X146536548Y-124027847D01*
X146503618Y-123967939D01*
X146497892Y-123952061D01*
X146492279Y-123927333D01*
X146494709Y-123902902D01*
X146506533Y-123870400D01*
X146513660Y-123854434D01*
X146537000Y-123812006D01*
X146565120Y-123782240D01*
X146596060Y-123761511D01*
X146658034Y-123734537D01*
X146737349Y-123714998D01*
X146829747Y-123703746D01*
X146896667Y-123701270D01*
X146984156Y-123700822D01*
X146984156Y-124141089D01*
X147140775Y-124141089D01*
X147141332Y-124120021D01*
X147141950Y-124059311D01*
X147142175Y-123980526D01*
X147142200Y-123918920D01*
X147142200Y-123609485D01*
X147114491Y-123581776D01*
X147102194Y-123570544D01*
X147088897Y-123562853D01*
X147070328Y-123558040D01*
X147042214Y-123555446D01*
X147000283Y-123554410D01*
X146940263Y-123554270D01*
X146936691Y-123554275D01*
G36*
X147724657Y-123554260D02*
G01*
X147648299Y-123555174D01*
X147589783Y-123557311D01*
X147546745Y-123561175D01*
X147516817Y-123567267D01*
X147497632Y-123576090D01*
X147486824Y-123588146D01*
X147482027Y-123603939D01*
X147480873Y-123623970D01*
X147480867Y-123626335D01*
X147481869Y-123648992D01*
X147486604Y-123666503D01*
X147497667Y-123679574D01*
X147517652Y-123688913D01*
X147549154Y-123695227D01*
X147594768Y-123699222D01*
X147657087Y-123701606D01*
X147738707Y-123703086D01*
X147763723Y-123703414D01*
X148005800Y-123706467D01*
X148009186Y-123771378D01*
X148012571Y-123836289D01*
X147844424Y-123836289D01*
X147778734Y-123836531D01*
X147731828Y-123837556D01*
X147699917Y-123839811D01*
X147679209Y-123843742D01*
X147665916Y-123849798D01*
X147656245Y-123858424D01*
X147656183Y-123858493D01*
X147638644Y-123892112D01*
X147639278Y-123928448D01*
X147657686Y-123959423D01*
X147661329Y-123962607D01*
X147674259Y-123970812D01*
X147691976Y-123976521D01*
X147718430Y-123980162D01*
X147757568Y-123982167D01*
X147813338Y-123982964D01*
X147849006Y-123983045D01*
X148011445Y-123983045D01*
X148011445Y-124141089D01*
X147764839Y-124141089D01*
X147683420Y-124141231D01*
X147621590Y-124141814D01*
X147576363Y-124143068D01*
X147544752Y-124145227D01*
X147523769Y-124148523D01*
X147510427Y-124153189D01*
X147501739Y-124159457D01*
X147499550Y-124161733D01*
X147483386Y-124193280D01*
X147482203Y-124229168D01*
X147495464Y-124260285D01*
X147505957Y-124270271D01*
X147516871Y-124275769D01*
X147533783Y-124280022D01*
X147559367Y-124283180D01*
X147596299Y-124285392D01*
X147647254Y-124286806D01*
X147714906Y-124287572D01*
X147801931Y-124287838D01*
X147821606Y-124287845D01*
X147910089Y-124287787D01*
X147978773Y-124287467D01*
X148030436Y-124286667D01*
X148067855Y-124285167D01*
X148093810Y-124282749D01*
X148111078Y-124279194D01*
X148122438Y-124274282D01*
X148130668Y-124267795D01*
X148135183Y-124263138D01*
X148141979Y-124254889D01*
X148147288Y-124244669D01*
X148151294Y-124229800D01*
X148154179Y-124207602D01*
X148156126Y-124175393D01*
X148157319Y-124130496D01*
X148157939Y-124070228D01*
X148158171Y-123991911D01*
X148158200Y-123925994D01*
X148158129Y-123833628D01*
X148157792Y-123761117D01*
X148157002Y-123705737D01*
X148155574Y-123664765D01*
X148153321Y-123635478D01*
X148150057Y-123615153D01*
X148145596Y-123601066D01*
X148139752Y-123590495D01*
X148134803Y-123583811D01*
X148111406Y-123554067D01*
X147821226Y-123554067D01*
X147724657Y-123554260D01*
G37*
X147724657Y-123554260D02*
X147648299Y-123555174D01*
X147589783Y-123557311D01*
X147546745Y-123561175D01*
X147516817Y-123567267D01*
X147497632Y-123576090D01*
X147486824Y-123588146D01*
X147482027Y-123603939D01*
X147480873Y-123623970D01*
X147480867Y-123626335D01*
X147481869Y-123648992D01*
X147486604Y-123666503D01*
X147497667Y-123679574D01*
X147517652Y-123688913D01*
X147549154Y-123695227D01*
X147594768Y-123699222D01*
X147657087Y-123701606D01*
X147738707Y-123703086D01*
X147763723Y-123703414D01*
X148005800Y-123706467D01*
X148009186Y-123771378D01*
X148012571Y-123836289D01*
X147844424Y-123836289D01*
X147778734Y-123836531D01*
X147731828Y-123837556D01*
X147699917Y-123839811D01*
X147679209Y-123843742D01*
X147665916Y-123849798D01*
X147656245Y-123858424D01*
X147656183Y-123858493D01*
X147638644Y-123892112D01*
X147639278Y-123928448D01*
X147657686Y-123959423D01*
X147661329Y-123962607D01*
X147674259Y-123970812D01*
X147691976Y-123976521D01*
X147718430Y-123980162D01*
X147757568Y-123982167D01*
X147813338Y-123982964D01*
X147849006Y-123983045D01*
X148011445Y-123983045D01*
X148011445Y-124141089D01*
X147764839Y-124141089D01*
X147683420Y-124141231D01*
X147621590Y-124141814D01*
X147576363Y-124143068D01*
X147544752Y-124145227D01*
X147523769Y-124148523D01*
X147510427Y-124153189D01*
X147501739Y-124159457D01*
X147499550Y-124161733D01*
X147483386Y-124193280D01*
X147482203Y-124229168D01*
X147495464Y-124260285D01*
X147505957Y-124270271D01*
X147516871Y-124275769D01*
X147533783Y-124280022D01*
X147559367Y-124283180D01*
X147596299Y-124285392D01*
X147647254Y-124286806D01*
X147714906Y-124287572D01*
X147801931Y-124287838D01*
X147821606Y-124287845D01*
X147910089Y-124287787D01*
X147978773Y-124287467D01*
X148030436Y-124286667D01*
X148067855Y-124285167D01*
X148093810Y-124282749D01*
X148111078Y-124279194D01*
X148122438Y-124274282D01*
X148130668Y-124267795D01*
X148135183Y-124263138D01*
X148141979Y-124254889D01*
X148147288Y-124244669D01*
X148151294Y-124229800D01*
X148154179Y-124207602D01*
X148156126Y-124175393D01*
X148157319Y-124130496D01*
X148157939Y-124070228D01*
X148158171Y-123991911D01*
X148158200Y-123925994D01*
X148158129Y-123833628D01*
X148157792Y-123761117D01*
X148157002Y-123705737D01*
X148155574Y-123664765D01*
X148153321Y-123635478D01*
X148150057Y-123615153D01*
X148145596Y-123601066D01*
X148139752Y-123590495D01*
X148134803Y-123583811D01*
X148111406Y-123554067D01*
X147821226Y-123554067D01*
X147724657Y-123554260D01*
G36*
X149255114Y-123558448D02*
G01*
X149231548Y-123572273D01*
X149200735Y-123594881D01*
X149161078Y-123627338D01*
X149110980Y-123670708D01*
X149048843Y-123726058D01*
X148973072Y-123794451D01*
X148886334Y-123873084D01*
X148705711Y-124036878D01*
X148700067Y-123817029D01*
X148698029Y-123741351D01*
X148696063Y-123684994D01*
X148693734Y-123644706D01*
X148690606Y-123617235D01*
X148686245Y-123599329D01*
X148680216Y-123587737D01*
X148672084Y-123579208D01*
X148667772Y-123575623D01*
X148633241Y-123556670D01*
X148600383Y-123559441D01*
X148574318Y-123575633D01*
X148547667Y-123597199D01*
X148544352Y-123912151D01*
X148543435Y-124004779D01*
X148542968Y-124077544D01*
X148543113Y-124133161D01*
X148544032Y-124174342D01*
X148545887Y-124203803D01*
X148548839Y-124224255D01*
X148553050Y-124238413D01*
X148558682Y-124248991D01*
X148564927Y-124257474D01*
X148578439Y-124273207D01*
X148591883Y-124283636D01*
X148607124Y-124287639D01*
X148626026Y-124284094D01*
X148650455Y-124271879D01*
X148682273Y-124249871D01*
X148723348Y-124216949D01*
X148775542Y-124171991D01*
X148840722Y-124113875D01*
X148914556Y-124047099D01*
X149179845Y-123806458D01*
X149185489Y-124025589D01*
X149187531Y-124101128D01*
X149189502Y-124157354D01*
X149191839Y-124197524D01*
X149194981Y-124224896D01*
X149199364Y-124242728D01*
X149205424Y-124254279D01*
X149213600Y-124262807D01*
X149217784Y-124266282D01*
X149254765Y-124285372D01*
X149289708Y-124282493D01*
X149320136Y-124258100D01*
X149327097Y-124248286D01*
X149332523Y-124236826D01*
X149336603Y-124220968D01*
X149339529Y-124197963D01*
X149341492Y-124165062D01*
X149342683Y-124119516D01*
X149343292Y-124058573D01*
X149343511Y-123979486D01*
X149343534Y-123920956D01*
X149343460Y-123829407D01*
X149343113Y-123757687D01*
X149342301Y-123703045D01*
X149340833Y-123662732D01*
X149338519Y-123633998D01*
X149335167Y-123614093D01*
X149330588Y-123600268D01*
X149324589Y-123589772D01*
X149320136Y-123583811D01*
X149308850Y-123569691D01*
X149298301Y-123559029D01*
X149286893Y-123552892D01*
X149273030Y-123552343D01*
X149255114Y-123558448D01*
G37*
X149255114Y-123558448D02*
X149231548Y-123572273D01*
X149200735Y-123594881D01*
X149161078Y-123627338D01*
X149110980Y-123670708D01*
X149048843Y-123726058D01*
X148973072Y-123794451D01*
X148886334Y-123873084D01*
X148705711Y-124036878D01*
X148700067Y-123817029D01*
X148698029Y-123741351D01*
X148696063Y-123684994D01*
X148693734Y-123644706D01*
X148690606Y-123617235D01*
X148686245Y-123599329D01*
X148680216Y-123587737D01*
X148672084Y-123579208D01*
X148667772Y-123575623D01*
X148633241Y-123556670D01*
X148600383Y-123559441D01*
X148574318Y-123575633D01*
X148547667Y-123597199D01*
X148544352Y-123912151D01*
X148543435Y-124004779D01*
X148542968Y-124077544D01*
X148543113Y-124133161D01*
X148544032Y-124174342D01*
X148545887Y-124203803D01*
X148548839Y-124224255D01*
X148553050Y-124238413D01*
X148558682Y-124248991D01*
X148564927Y-124257474D01*
X148578439Y-124273207D01*
X148591883Y-124283636D01*
X148607124Y-124287639D01*
X148626026Y-124284094D01*
X148650455Y-124271879D01*
X148682273Y-124249871D01*
X148723348Y-124216949D01*
X148775542Y-124171991D01*
X148840722Y-124113875D01*
X148914556Y-124047099D01*
X149179845Y-123806458D01*
X149185489Y-124025589D01*
X149187531Y-124101128D01*
X149189502Y-124157354D01*
X149191839Y-124197524D01*
X149194981Y-124224896D01*
X149199364Y-124242728D01*
X149205424Y-124254279D01*
X149213600Y-124262807D01*
X149217784Y-124266282D01*
X149254765Y-124285372D01*
X149289708Y-124282493D01*
X149320136Y-124258100D01*
X149327097Y-124248286D01*
X149332523Y-124236826D01*
X149336603Y-124220968D01*
X149339529Y-124197963D01*
X149341492Y-124165062D01*
X149342683Y-124119516D01*
X149343292Y-124058573D01*
X149343511Y-123979486D01*
X149343534Y-123920956D01*
X149343460Y-123829407D01*
X149343113Y-123757687D01*
X149342301Y-123703045D01*
X149340833Y-123662732D01*
X149338519Y-123633998D01*
X149335167Y-123614093D01*
X149330588Y-123600268D01*
X149324589Y-123589772D01*
X149320136Y-123583811D01*
X149308850Y-123569691D01*
X149298301Y-123559029D01*
X149286893Y-123552892D01*
X149273030Y-123552343D01*
X149255114Y-123558448D01*
G36*
X149905081Y-123559599D02*
G01*
X149836565Y-123571095D01*
X149783943Y-123588967D01*
X149749708Y-123612499D01*
X149740379Y-123625924D01*
X149730893Y-123657148D01*
X149737277Y-123685395D01*
X149757430Y-123712182D01*
X149788745Y-123724713D01*
X149834183Y-123723696D01*
X149869326Y-123716906D01*
X149947419Y-123703971D01*
X150027226Y-123702742D01*
X150116555Y-123713241D01*
X150141229Y-123717690D01*
X150224291Y-123741108D01*
X150289273Y-123775945D01*
X150335461Y-123821604D01*
X150362145Y-123877494D01*
X150367663Y-123906388D01*
X150364051Y-123965012D01*
X150340729Y-124016879D01*
X150299824Y-124060978D01*
X150243459Y-124096299D01*
X150173760Y-124121829D01*
X150092852Y-124136559D01*
X150002860Y-124139478D01*
X149905910Y-124129575D01*
X149900436Y-124128641D01*
X149861875Y-124121459D01*
X149840494Y-124114521D01*
X149831227Y-124104227D01*
X149829006Y-124086976D01*
X149828956Y-124077841D01*
X149828956Y-124039489D01*
X149897431Y-124039489D01*
X149957900Y-124035347D01*
X149999165Y-124022147D01*
X150023175Y-123998730D01*
X150031877Y-123963936D01*
X150031983Y-123959394D01*
X150026892Y-123929654D01*
X150009433Y-123908419D01*
X149976939Y-123894366D01*
X149926743Y-123886173D01*
X149878123Y-123883161D01*
X149807456Y-123881433D01*
X149756198Y-123884070D01*
X149721239Y-123893800D01*
X149699470Y-123913353D01*
X149687780Y-123945456D01*
X149683060Y-123992838D01*
X149682200Y-124055071D01*
X149683609Y-124124535D01*
X149687848Y-124171786D01*
X149694936Y-124197012D01*
X149696311Y-124198988D01*
X149735228Y-124230508D01*
X149792286Y-124255470D01*
X149863869Y-124273340D01*
X149946358Y-124283586D01*
X150036139Y-124285673D01*
X150129592Y-124279068D01*
X150184556Y-124270956D01*
X150270766Y-124246554D01*
X150350892Y-124206662D01*
X150417977Y-124154887D01*
X150428173Y-124144539D01*
X150461302Y-124101035D01*
X150491194Y-124047118D01*
X150514357Y-123990592D01*
X150527298Y-123939259D01*
X150528858Y-123919544D01*
X150522218Y-123878419D01*
X150504568Y-123827252D01*
X150479297Y-123773394D01*
X150449789Y-123724195D01*
X150423719Y-123691334D01*
X150362765Y-123642452D01*
X150283969Y-123603545D01*
X150190157Y-123575494D01*
X150084150Y-123559179D01*
X149987000Y-123555192D01*
X149905081Y-123559599D01*
G37*
X149905081Y-123559599D02*
X149836565Y-123571095D01*
X149783943Y-123588967D01*
X149749708Y-123612499D01*
X149740379Y-123625924D01*
X149730893Y-123657148D01*
X149737277Y-123685395D01*
X149757430Y-123712182D01*
X149788745Y-123724713D01*
X149834183Y-123723696D01*
X149869326Y-123716906D01*
X149947419Y-123703971D01*
X150027226Y-123702742D01*
X150116555Y-123713241D01*
X150141229Y-123717690D01*
X150224291Y-123741108D01*
X150289273Y-123775945D01*
X150335461Y-123821604D01*
X150362145Y-123877494D01*
X150367663Y-123906388D01*
X150364051Y-123965012D01*
X150340729Y-124016879D01*
X150299824Y-124060978D01*
X150243459Y-124096299D01*
X150173760Y-124121829D01*
X150092852Y-124136559D01*
X150002860Y-124139478D01*
X149905910Y-124129575D01*
X149900436Y-124128641D01*
X149861875Y-124121459D01*
X149840494Y-124114521D01*
X149831227Y-124104227D01*
X149829006Y-124086976D01*
X149828956Y-124077841D01*
X149828956Y-124039489D01*
X149897431Y-124039489D01*
X149957900Y-124035347D01*
X149999165Y-124022147D01*
X150023175Y-123998730D01*
X150031877Y-123963936D01*
X150031983Y-123959394D01*
X150026892Y-123929654D01*
X150009433Y-123908419D01*
X149976939Y-123894366D01*
X149926743Y-123886173D01*
X149878123Y-123883161D01*
X149807456Y-123881433D01*
X149756198Y-123884070D01*
X149721239Y-123893800D01*
X149699470Y-123913353D01*
X149687780Y-123945456D01*
X149683060Y-123992838D01*
X149682200Y-124055071D01*
X149683609Y-124124535D01*
X149687848Y-124171786D01*
X149694936Y-124197012D01*
X149696311Y-124198988D01*
X149735228Y-124230508D01*
X149792286Y-124255470D01*
X149863869Y-124273340D01*
X149946358Y-124283586D01*
X150036139Y-124285673D01*
X150129592Y-124279068D01*
X150184556Y-124270956D01*
X150270766Y-124246554D01*
X150350892Y-124206662D01*
X150417977Y-124154887D01*
X150428173Y-124144539D01*
X150461302Y-124101035D01*
X150491194Y-124047118D01*
X150514357Y-123990592D01*
X150527298Y-123939259D01*
X150528858Y-123919544D01*
X150522218Y-123878419D01*
X150504568Y-123827252D01*
X150479297Y-123773394D01*
X150449789Y-123724195D01*
X150423719Y-123691334D01*
X150362765Y-123642452D01*
X150283969Y-123603545D01*
X150190157Y-123575494D01*
X150084150Y-123559179D01*
X149987000Y-123555192D01*
X149905081Y-123559599D01*
G36*
X150878822Y-123576645D02*
G01*
X150872242Y-123584218D01*
X150867079Y-123593987D01*
X150863164Y-123608571D01*
X150860324Y-123630585D01*
X150858387Y-123662648D01*
X150857183Y-123707375D01*
X150856539Y-123767385D01*
X150856284Y-123845294D01*
X150856245Y-123920956D01*
X150856314Y-124014802D01*
X150856638Y-124088689D01*
X150857386Y-124145232D01*
X150858732Y-124187049D01*
X150860846Y-124216757D01*
X150863900Y-124236973D01*
X150868066Y-124250314D01*
X150873516Y-124259398D01*
X150878822Y-124265267D01*
X150911826Y-124284947D01*
X150946991Y-124283181D01*
X150978455Y-124261717D01*
X150985684Y-124253337D01*
X150991334Y-124243614D01*
X150995599Y-124229861D01*
X150998673Y-124209389D01*
X151000752Y-124179512D01*
X151002030Y-124137541D01*
X151002701Y-124080789D01*
X151002959Y-124006567D01*
X151003000Y-123922537D01*
X151003000Y-123609485D01*
X150975291Y-123581776D01*
X150941137Y-123558463D01*
X150908006Y-123557623D01*
X150878822Y-123576645D01*
G37*
X150878822Y-123576645D02*
X150872242Y-123584218D01*
X150867079Y-123593987D01*
X150863164Y-123608571D01*
X150860324Y-123630585D01*
X150858387Y-123662648D01*
X150857183Y-123707375D01*
X150856539Y-123767385D01*
X150856284Y-123845294D01*
X150856245Y-123920956D01*
X150856314Y-124014802D01*
X150856638Y-124088689D01*
X150857386Y-124145232D01*
X150858732Y-124187049D01*
X150860846Y-124216757D01*
X150863900Y-124236973D01*
X150868066Y-124250314D01*
X150873516Y-124259398D01*
X150878822Y-124265267D01*
X150911826Y-124284947D01*
X150946991Y-124283181D01*
X150978455Y-124261717D01*
X150985684Y-124253337D01*
X150991334Y-124243614D01*
X150995599Y-124229861D01*
X150998673Y-124209389D01*
X151000752Y-124179512D01*
X151002030Y-124137541D01*
X151002701Y-124080789D01*
X151002959Y-124006567D01*
X151003000Y-123922537D01*
X151003000Y-123609485D01*
X150975291Y-123581776D01*
X150941137Y-123558463D01*
X150908006Y-123557623D01*
X150878822Y-123576645D01*
G36*
X151646703Y-123555351D02*
G01*
X151571888Y-123560581D01*
X151502306Y-123568750D01*
X151442002Y-123579550D01*
X151395020Y-123592673D01*
X151365406Y-123607813D01*
X151360860Y-123612269D01*
X151345054Y-123646850D01*
X151349847Y-123682351D01*
X151374364Y-123712725D01*
X151375534Y-123713596D01*
X151389954Y-123722954D01*
X151405008Y-123727876D01*
X151426005Y-123728473D01*
X151458257Y-123724861D01*
X151507073Y-123717154D01*
X151511000Y-123716505D01*
X151583739Y-123707569D01*
X151662217Y-123703161D01*
X151740927Y-123703119D01*
X151814361Y-123707279D01*
X151877011Y-123715479D01*
X151923370Y-123727557D01*
X151926416Y-123728771D01*
X151960048Y-123747615D01*
X151971864Y-123766685D01*
X151962614Y-123785439D01*
X151933047Y-123803337D01*
X151883911Y-123819837D01*
X151815957Y-123834396D01*
X151770645Y-123841406D01*
X151676456Y-123854889D01*
X151601544Y-123867214D01*
X151542717Y-123879449D01*
X151496785Y-123892661D01*
X151460555Y-123907917D01*
X151430838Y-123926285D01*
X151404442Y-123948831D01*
X151383230Y-123970971D01*
X151358065Y-124001819D01*
X151345681Y-124028345D01*
X151341808Y-124061026D01*
X151341667Y-124072995D01*
X151344576Y-124112712D01*
X151356202Y-124142259D01*
X151376323Y-124168486D01*
X151417216Y-124208576D01*
X151462817Y-124239149D01*
X151516513Y-124261203D01*
X151581692Y-124275735D01*
X151661744Y-124283741D01*
X151760057Y-124286218D01*
X151776289Y-124286177D01*
X151841849Y-124284818D01*
X151906866Y-124281730D01*
X151964252Y-124277356D01*
X152006922Y-124272140D01*
X152010372Y-124271541D01*
X152052796Y-124261491D01*
X152088780Y-124248796D01*
X152109150Y-124237190D01*
X152128107Y-124206572D01*
X152129427Y-124170918D01*
X152113085Y-124139144D01*
X152109429Y-124135551D01*
X152094315Y-124124876D01*
X152075415Y-124120276D01*
X152046162Y-124121059D01*
X152010651Y-124125127D01*
X151970970Y-124128762D01*
X151915345Y-124131828D01*
X151850406Y-124134053D01*
X151782785Y-124135164D01*
X151765000Y-124135237D01*
X151697128Y-124134964D01*
X151647454Y-124133646D01*
X151611610Y-124130827D01*
X151585224Y-124126050D01*
X151563926Y-124118857D01*
X151551126Y-124112867D01*
X151523000Y-124096233D01*
X151505068Y-124081168D01*
X151502447Y-124076897D01*
X151507976Y-124059263D01*
X151534260Y-124042192D01*
X151579478Y-124026458D01*
X151641808Y-124012838D01*
X151660171Y-124009804D01*
X151756090Y-123994738D01*
X151832641Y-123982146D01*
X151892780Y-123971111D01*
X151939460Y-123960720D01*
X151975637Y-123950056D01*
X152004265Y-123938205D01*
X152028298Y-123924251D01*
X152050692Y-123907281D01*
X152074402Y-123886378D01*
X152082380Y-123879049D01*
X152110353Y-123851699D01*
X152125160Y-123830029D01*
X152130952Y-123805232D01*
X152131889Y-123773983D01*
X152121575Y-123712705D01*
X152090752Y-123660640D01*
X152039595Y-123617958D01*
X151968283Y-123584825D01*
X151917400Y-123569964D01*
X151862100Y-123560366D01*
X151795853Y-123554936D01*
X151722706Y-123553367D01*
X151646703Y-123555351D01*
G37*
X151646703Y-123555351D02*
X151571888Y-123560581D01*
X151502306Y-123568750D01*
X151442002Y-123579550D01*
X151395020Y-123592673D01*
X151365406Y-123607813D01*
X151360860Y-123612269D01*
X151345054Y-123646850D01*
X151349847Y-123682351D01*
X151374364Y-123712725D01*
X151375534Y-123713596D01*
X151389954Y-123722954D01*
X151405008Y-123727876D01*
X151426005Y-123728473D01*
X151458257Y-123724861D01*
X151507073Y-123717154D01*
X151511000Y-123716505D01*
X151583739Y-123707569D01*
X151662217Y-123703161D01*
X151740927Y-123703119D01*
X151814361Y-123707279D01*
X151877011Y-123715479D01*
X151923370Y-123727557D01*
X151926416Y-123728771D01*
X151960048Y-123747615D01*
X151971864Y-123766685D01*
X151962614Y-123785439D01*
X151933047Y-123803337D01*
X151883911Y-123819837D01*
X151815957Y-123834396D01*
X151770645Y-123841406D01*
X151676456Y-123854889D01*
X151601544Y-123867214D01*
X151542717Y-123879449D01*
X151496785Y-123892661D01*
X151460555Y-123907917D01*
X151430838Y-123926285D01*
X151404442Y-123948831D01*
X151383230Y-123970971D01*
X151358065Y-124001819D01*
X151345681Y-124028345D01*
X151341808Y-124061026D01*
X151341667Y-124072995D01*
X151344576Y-124112712D01*
X151356202Y-124142259D01*
X151376323Y-124168486D01*
X151417216Y-124208576D01*
X151462817Y-124239149D01*
X151516513Y-124261203D01*
X151581692Y-124275735D01*
X151661744Y-124283741D01*
X151760057Y-124286218D01*
X151776289Y-124286177D01*
X151841849Y-124284818D01*
X151906866Y-124281730D01*
X151964252Y-124277356D01*
X152006922Y-124272140D01*
X152010372Y-124271541D01*
X152052796Y-124261491D01*
X152088780Y-124248796D01*
X152109150Y-124237190D01*
X152128107Y-124206572D01*
X152129427Y-124170918D01*
X152113085Y-124139144D01*
X152109429Y-124135551D01*
X152094315Y-124124876D01*
X152075415Y-124120276D01*
X152046162Y-124121059D01*
X152010651Y-124125127D01*
X151970970Y-124128762D01*
X151915345Y-124131828D01*
X151850406Y-124134053D01*
X151782785Y-124135164D01*
X151765000Y-124135237D01*
X151697128Y-124134964D01*
X151647454Y-124133646D01*
X151611610Y-124130827D01*
X151585224Y-124126050D01*
X151563926Y-124118857D01*
X151551126Y-124112867D01*
X151523000Y-124096233D01*
X151505068Y-124081168D01*
X151502447Y-124076897D01*
X151507976Y-124059263D01*
X151534260Y-124042192D01*
X151579478Y-124026458D01*
X151641808Y-124012838D01*
X151660171Y-124009804D01*
X151756090Y-123994738D01*
X151832641Y-123982146D01*
X151892780Y-123971111D01*
X151939460Y-123960720D01*
X151975637Y-123950056D01*
X152004265Y-123938205D01*
X152028298Y-123924251D01*
X152050692Y-123907281D01*
X152074402Y-123886378D01*
X152082380Y-123879049D01*
X152110353Y-123851699D01*
X152125160Y-123830029D01*
X152130952Y-123805232D01*
X152131889Y-123773983D01*
X152121575Y-123712705D01*
X152090752Y-123660640D01*
X152039595Y-123617958D01*
X151968283Y-123584825D01*
X151917400Y-123569964D01*
X151862100Y-123560366D01*
X151795853Y-123554936D01*
X151722706Y-123553367D01*
X151646703Y-123555351D01*
G36*
X152667794Y-123554146D02*
G01*
X152598386Y-123554518D01*
X152545997Y-123555385D01*
X152507847Y-123556946D01*
X152481159Y-123559403D01*
X152463153Y-123562957D01*
X152451049Y-123567810D01*
X152442069Y-123574161D01*
X152438818Y-123577084D01*
X152419043Y-123608142D01*
X152415482Y-123643828D01*
X152428491Y-123675510D01*
X152434506Y-123681913D01*
X152444235Y-123688121D01*
X152459901Y-123692910D01*
X152484408Y-123696514D01*
X152520661Y-123699164D01*
X152571565Y-123701095D01*
X152640026Y-123702539D01*
X152702617Y-123703418D01*
X152950334Y-123706467D01*
X152953719Y-123771378D01*
X152957105Y-123836289D01*
X152788958Y-123836289D01*
X152715959Y-123836919D01*
X152662517Y-123839553D01*
X152625628Y-123845309D01*
X152602288Y-123855304D01*
X152589494Y-123870656D01*
X152584242Y-123892482D01*
X152583445Y-123912738D01*
X152585923Y-123937592D01*
X152595277Y-123955906D01*
X152614383Y-123968637D01*
X152646118Y-123976741D01*
X152693359Y-123981176D01*
X152758983Y-123982899D01*
X152794801Y-123983045D01*
X152955978Y-123983045D01*
X152955978Y-124141089D01*
X152707622Y-124141089D01*
X152626213Y-124141202D01*
X152564342Y-124141712D01*
X152518968Y-124142870D01*
X152487054Y-124144930D01*
X152465559Y-124148146D01*
X152451443Y-124152772D01*
X152441668Y-124159059D01*
X152436689Y-124163667D01*
X152419610Y-124190560D01*
X152414111Y-124214467D01*
X152421963Y-124243667D01*
X152436689Y-124265267D01*
X152444546Y-124272066D01*
X152454688Y-124277346D01*
X152469844Y-124281298D01*
X152492741Y-124284113D01*
X152526109Y-124285982D01*
X152572675Y-124287098D01*
X152635167Y-124287651D01*
X152716314Y-124287833D01*
X152758422Y-124287845D01*
X152848598Y-124287765D01*
X152918924Y-124287398D01*
X152972129Y-124286552D01*
X153010940Y-124285036D01*
X153038087Y-124282659D01*
X153056298Y-124279229D01*
X153068300Y-124274554D01*
X153076822Y-124268444D01*
X153080156Y-124265267D01*
X153086755Y-124257670D01*
X153091927Y-124247870D01*
X153095846Y-124233239D01*
X153098684Y-124211152D01*
X153100615Y-124178982D01*
X153101812Y-124134103D01*
X153102448Y-124073889D01*
X153102697Y-123995713D01*
X153102734Y-123922923D01*
X153102700Y-123829707D01*
X153102465Y-123756431D01*
X153101830Y-123700458D01*
X153100594Y-123659151D01*
X153098556Y-123629872D01*
X153095517Y-123609984D01*
X153091277Y-123596850D01*
X153085635Y-123587832D01*
X153078391Y-123580293D01*
X153076606Y-123578612D01*
X153067945Y-123571172D01*
X153057882Y-123565409D01*
X153043625Y-123561112D01*
X153022383Y-123558064D01*
X152991364Y-123556051D01*
X152947777Y-123554860D01*
X152888831Y-123554275D01*
X152811734Y-123554083D01*
X152757001Y-123554067D01*
X152667794Y-123554146D01*
G37*
X152667794Y-123554146D02*
X152598386Y-123554518D01*
X152545997Y-123555385D01*
X152507847Y-123556946D01*
X152481159Y-123559403D01*
X152463153Y-123562957D01*
X152451049Y-123567810D01*
X152442069Y-123574161D01*
X152438818Y-123577084D01*
X152419043Y-123608142D01*
X152415482Y-123643828D01*
X152428491Y-123675510D01*
X152434506Y-123681913D01*
X152444235Y-123688121D01*
X152459901Y-123692910D01*
X152484408Y-123696514D01*
X152520661Y-123699164D01*
X152571565Y-123701095D01*
X152640026Y-123702539D01*
X152702617Y-123703418D01*
X152950334Y-123706467D01*
X152953719Y-123771378D01*
X152957105Y-123836289D01*
X152788958Y-123836289D01*
X152715959Y-123836919D01*
X152662517Y-123839553D01*
X152625628Y-123845309D01*
X152602288Y-123855304D01*
X152589494Y-123870656D01*
X152584242Y-123892482D01*
X152583445Y-123912738D01*
X152585923Y-123937592D01*
X152595277Y-123955906D01*
X152614383Y-123968637D01*
X152646118Y-123976741D01*
X152693359Y-123981176D01*
X152758983Y-123982899D01*
X152794801Y-123983045D01*
X152955978Y-123983045D01*
X152955978Y-124141089D01*
X152707622Y-124141089D01*
X152626213Y-124141202D01*
X152564342Y-124141712D01*
X152518968Y-124142870D01*
X152487054Y-124144930D01*
X152465559Y-124148146D01*
X152451443Y-124152772D01*
X152441668Y-124159059D01*
X152436689Y-124163667D01*
X152419610Y-124190560D01*
X152414111Y-124214467D01*
X152421963Y-124243667D01*
X152436689Y-124265267D01*
X152444546Y-124272066D01*
X152454688Y-124277346D01*
X152469844Y-124281298D01*
X152492741Y-124284113D01*
X152526109Y-124285982D01*
X152572675Y-124287098D01*
X152635167Y-124287651D01*
X152716314Y-124287833D01*
X152758422Y-124287845D01*
X152848598Y-124287765D01*
X152918924Y-124287398D01*
X152972129Y-124286552D01*
X153010940Y-124285036D01*
X153038087Y-124282659D01*
X153056298Y-124279229D01*
X153068300Y-124274554D01*
X153076822Y-124268444D01*
X153080156Y-124265267D01*
X153086755Y-124257670D01*
X153091927Y-124247870D01*
X153095846Y-124233239D01*
X153098684Y-124211152D01*
X153100615Y-124178982D01*
X153101812Y-124134103D01*
X153102448Y-124073889D01*
X153102697Y-123995713D01*
X153102734Y-123922923D01*
X153102700Y-123829707D01*
X153102465Y-123756431D01*
X153101830Y-123700458D01*
X153100594Y-123659151D01*
X153098556Y-123629872D01*
X153095517Y-123609984D01*
X153091277Y-123596850D01*
X153085635Y-123587832D01*
X153078391Y-123580293D01*
X153076606Y-123578612D01*
X153067945Y-123571172D01*
X153057882Y-123565409D01*
X153043625Y-123561112D01*
X153022383Y-123558064D01*
X152991364Y-123556051D01*
X152947777Y-123554860D01*
X152888831Y-123554275D01*
X152811734Y-123554083D01*
X152757001Y-123554067D01*
X152667794Y-123554146D01*
G36*
X154076371Y-123554066D02*
G01*
X154036889Y-123554467D01*
X153921200Y-123557259D01*
X153824311Y-123565550D01*
X153742919Y-123580232D01*
X153673723Y-123602193D01*
X153613420Y-123632322D01*
X153558708Y-123671510D01*
X153539167Y-123688532D01*
X153506750Y-123728363D01*
X153477520Y-123782413D01*
X153454991Y-123842323D01*
X153442679Y-123899739D01*
X153441400Y-123920956D01*
X153449417Y-123979769D01*
X153470899Y-124044013D01*
X153501999Y-124104821D01*
X153538866Y-124153330D01*
X153544854Y-124159182D01*
X153595579Y-124200321D01*
X153651125Y-124232435D01*
X153714696Y-124256365D01*
X153789494Y-124272953D01*
X153878722Y-124283041D01*
X153985582Y-124287469D01*
X154034528Y-124287845D01*
X154096762Y-124287545D01*
X154140528Y-124286292D01*
X154169931Y-124283554D01*
X154189079Y-124278801D01*
X154202077Y-124271501D01*
X154209045Y-124265267D01*
X154215626Y-124257694D01*
X154220788Y-124247924D01*
X154224703Y-124233340D01*
X154227543Y-124211326D01*
X154229480Y-124179264D01*
X154230684Y-124134536D01*
X154231328Y-124074526D01*
X154231583Y-123996617D01*
X154231622Y-123920956D01*
X154231870Y-123820041D01*
X154231817Y-123739427D01*
X154230857Y-123700822D01*
X154084867Y-123700822D01*
X154084867Y-124141089D01*
X153991734Y-124141004D01*
X153935693Y-124139396D01*
X153876999Y-124135256D01*
X153828028Y-124129464D01*
X153826538Y-124129226D01*
X153747392Y-124110090D01*
X153686002Y-124080287D01*
X153639305Y-124037878D01*
X153609635Y-123991961D01*
X153591353Y-123941026D01*
X153592771Y-123893200D01*
X153613988Y-123841933D01*
X153655489Y-123788899D01*
X153712998Y-123749600D01*
X153787750Y-123723331D01*
X153837708Y-123714035D01*
X153894416Y-123707507D01*
X153954519Y-123702782D01*
X154005639Y-123700817D01*
X154008667Y-123700808D01*
X154084867Y-123700822D01*
X154230857Y-123700822D01*
X154230260Y-123676851D01*
X154225998Y-123630055D01*
X154217830Y-123596778D01*
X154204556Y-123574759D01*
X154184974Y-123561739D01*
X154157883Y-123555457D01*
X154122082Y-123553653D01*
X154076371Y-123554066D01*
G37*
X154076371Y-123554066D02*
X154036889Y-123554467D01*
X153921200Y-123557259D01*
X153824311Y-123565550D01*
X153742919Y-123580232D01*
X153673723Y-123602193D01*
X153613420Y-123632322D01*
X153558708Y-123671510D01*
X153539167Y-123688532D01*
X153506750Y-123728363D01*
X153477520Y-123782413D01*
X153454991Y-123842323D01*
X153442679Y-123899739D01*
X153441400Y-123920956D01*
X153449417Y-123979769D01*
X153470899Y-124044013D01*
X153501999Y-124104821D01*
X153538866Y-124153330D01*
X153544854Y-124159182D01*
X153595579Y-124200321D01*
X153651125Y-124232435D01*
X153714696Y-124256365D01*
X153789494Y-124272953D01*
X153878722Y-124283041D01*
X153985582Y-124287469D01*
X154034528Y-124287845D01*
X154096762Y-124287545D01*
X154140528Y-124286292D01*
X154169931Y-124283554D01*
X154189079Y-124278801D01*
X154202077Y-124271501D01*
X154209045Y-124265267D01*
X154215626Y-124257694D01*
X154220788Y-124247924D01*
X154224703Y-124233340D01*
X154227543Y-124211326D01*
X154229480Y-124179264D01*
X154230684Y-124134536D01*
X154231328Y-124074526D01*
X154231583Y-123996617D01*
X154231622Y-123920956D01*
X154231870Y-123820041D01*
X154231817Y-123739427D01*
X154230857Y-123700822D01*
X154084867Y-123700822D01*
X154084867Y-124141089D01*
X153991734Y-124141004D01*
X153935693Y-124139396D01*
X153876999Y-124135256D01*
X153828028Y-124129464D01*
X153826538Y-124129226D01*
X153747392Y-124110090D01*
X153686002Y-124080287D01*
X153639305Y-124037878D01*
X153609635Y-123991961D01*
X153591353Y-123941026D01*
X153592771Y-123893200D01*
X153613988Y-123841933D01*
X153655489Y-123788899D01*
X153712998Y-123749600D01*
X153787750Y-123723331D01*
X153837708Y-123714035D01*
X153894416Y-123707507D01*
X153954519Y-123702782D01*
X154005639Y-123700817D01*
X154008667Y-123700808D01*
X154084867Y-123700822D01*
X154230857Y-123700822D01*
X154230260Y-123676851D01*
X154225998Y-123630055D01*
X154217830Y-123596778D01*
X154204556Y-123574759D01*
X154184974Y-123561739D01*
X154157883Y-123555457D01*
X154122082Y-123553653D01*
X154076371Y-123554066D01*
G36*
X150228043Y-118311571D02*
G01*
X150131768Y-118335809D01*
X150045184Y-118378641D01*
X149970373Y-118438419D01*
X149909418Y-118513494D01*
X149864399Y-118602220D01*
X149838136Y-118698530D01*
X149832286Y-118795795D01*
X149847140Y-118889654D01*
X149880840Y-118977511D01*
X149931528Y-119056770D01*
X149997345Y-119124836D01*
X150076434Y-119179112D01*
X150166934Y-119217002D01*
X150218200Y-119229426D01*
X150262698Y-119236947D01*
X150296999Y-119239919D01*
X150329960Y-119238094D01*
X150370434Y-119231225D01*
X150403531Y-119224250D01*
X150496947Y-119192741D01*
X150580619Y-119141617D01*
X150652665Y-119072429D01*
X150711200Y-118986728D01*
X150725148Y-118959489D01*
X150741586Y-118923122D01*
X150751894Y-118892582D01*
X150757460Y-118860450D01*
X150759669Y-118819307D01*
X150759948Y-118773222D01*
X150755861Y-118688865D01*
X150742446Y-118619586D01*
X150717256Y-118558961D01*
X150677846Y-118500567D01*
X150639298Y-118456302D01*
X150567406Y-118390484D01*
X150492313Y-118345053D01*
X150409562Y-118317850D01*
X150331928Y-118307576D01*
X150228043Y-118311571D01*
G37*
X150228043Y-118311571D02*
X150131768Y-118335809D01*
X150045184Y-118378641D01*
X149970373Y-118438419D01*
X149909418Y-118513494D01*
X149864399Y-118602220D01*
X149838136Y-118698530D01*
X149832286Y-118795795D01*
X149847140Y-118889654D01*
X149880840Y-118977511D01*
X149931528Y-119056770D01*
X149997345Y-119124836D01*
X150076434Y-119179112D01*
X150166934Y-119217002D01*
X150218200Y-119229426D01*
X150262698Y-119236947D01*
X150296999Y-119239919D01*
X150329960Y-119238094D01*
X150370434Y-119231225D01*
X150403531Y-119224250D01*
X150496947Y-119192741D01*
X150580619Y-119141617D01*
X150652665Y-119072429D01*
X150711200Y-118986728D01*
X150725148Y-118959489D01*
X150741586Y-118923122D01*
X150751894Y-118892582D01*
X150757460Y-118860450D01*
X150759669Y-118819307D01*
X150759948Y-118773222D01*
X150755861Y-118688865D01*
X150742446Y-118619586D01*
X150717256Y-118558961D01*
X150677846Y-118500567D01*
X150639298Y-118456302D01*
X150567406Y-118390484D01*
X150492313Y-118345053D01*
X150409562Y-118317850D01*
X150331928Y-118307576D01*
X150228043Y-118311571D01*
G36*
X141768493Y-120757245D02*
G01*
X141768474Y-120991662D01*
X141768448Y-121204603D01*
X141768375Y-121397168D01*
X141768218Y-121570459D01*
X141767936Y-121725576D01*
X141767491Y-121863620D01*
X141766844Y-121985692D01*
X141765955Y-122092894D01*
X141764787Y-122186326D01*
X141763299Y-122267090D01*
X141761454Y-122336286D01*
X141759211Y-122395015D01*
X141756531Y-122444379D01*
X141753377Y-122485478D01*
X141749708Y-122519413D01*
X141745487Y-122547286D01*
X141740673Y-122570198D01*
X141735227Y-122589249D01*
X141729112Y-122605540D01*
X141722288Y-122620173D01*
X141714715Y-122634249D01*
X141706355Y-122648868D01*
X141701161Y-122657974D01*
X141666896Y-122718689D01*
X142525045Y-122718689D01*
X142525045Y-122622733D01*
X142525776Y-122579370D01*
X142527728Y-122546205D01*
X142530537Y-122528424D01*
X142531779Y-122526778D01*
X142543201Y-122533662D01*
X142565916Y-122551505D01*
X142588615Y-122570879D01*
X142643200Y-122611614D01*
X142712679Y-122652617D01*
X142789730Y-122690123D01*
X142867035Y-122720364D01*
X142897887Y-122730012D01*
X142966384Y-122744578D01*
X143049236Y-122754539D01*
X143138629Y-122759583D01*
X143226752Y-122759396D01*
X143305793Y-122753666D01*
X143343489Y-122747858D01*
X143481586Y-122709797D01*
X143608887Y-122652073D01*
X143724708Y-122575211D01*
X143828363Y-122479739D01*
X143919167Y-122366179D01*
X143985969Y-122255381D01*
X144040836Y-122138625D01*
X144082837Y-122019276D01*
X144112833Y-121893283D01*
X144131689Y-121756594D01*
X144140268Y-121605158D01*
X144140994Y-121527711D01*
X144138900Y-121470934D01*
X143309783Y-121470934D01*
X143309576Y-121564002D01*
X143306663Y-121651692D01*
X143301000Y-121728772D01*
X143292545Y-121790009D01*
X143289962Y-121802350D01*
X143258160Y-121909633D01*
X143216502Y-121996658D01*
X143164637Y-122063642D01*
X143102219Y-122110805D01*
X143028900Y-122138365D01*
X142944331Y-122146541D01*
X142848165Y-122135551D01*
X142784689Y-122119829D01*
X142735546Y-122101639D01*
X142681417Y-122075791D01*
X142640756Y-122052089D01*
X142570200Y-122005721D01*
X142570200Y-120855530D01*
X142637608Y-120811962D01*
X142716133Y-120771040D01*
X142800319Y-120744389D01*
X142885443Y-120732465D01*
X142966784Y-120735722D01*
X143039620Y-120754615D01*
X143071574Y-120770184D01*
X143129499Y-120813181D01*
X143178456Y-120869953D01*
X143219610Y-120942575D01*
X143254126Y-121033121D01*
X143283167Y-121143666D01*
X143284448Y-121149533D01*
X143294619Y-121211788D01*
X143302261Y-121289594D01*
X143307330Y-121377720D01*
X143309783Y-121470934D01*
X144138900Y-121470934D01*
X144133143Y-121314895D01*
X144111198Y-121119059D01*
X144075214Y-120940332D01*
X144025241Y-120778845D01*
X143961332Y-120634726D01*
X143883538Y-120508106D01*
X143791911Y-120399115D01*
X143686503Y-120307883D01*
X143641338Y-120276932D01*
X143540389Y-120220785D01*
X143437099Y-120181174D01*
X143327011Y-120157014D01*
X143205670Y-120147219D01*
X143113164Y-120148265D01*
X142983510Y-120159231D01*
X142870916Y-120181046D01*
X142772125Y-120214714D01*
X142683879Y-120261236D01*
X142635014Y-120295448D01*
X142605647Y-120317362D01*
X142583957Y-120332333D01*
X142575747Y-120336733D01*
X142574132Y-120325904D01*
X142572841Y-120295251D01*
X142571862Y-120247526D01*
X142571183Y-120185479D01*
X142570790Y-120111862D01*
X142570670Y-120029427D01*
X142570812Y-119940925D01*
X142571203Y-119849107D01*
X142571829Y-119756724D01*
X142572680Y-119666528D01*
X142573740Y-119581271D01*
X142574999Y-119503703D01*
X142576444Y-119436576D01*
X142578062Y-119382641D01*
X142579839Y-119344650D01*
X142580331Y-119337667D01*
X142587908Y-119267251D01*
X142599469Y-119212102D01*
X142617208Y-119164981D01*
X142643318Y-119118647D01*
X142649585Y-119109067D01*
X142674017Y-119072378D01*
X141768689Y-119072378D01*
X141768493Y-120757245D01*
G37*
X141768493Y-120757245D02*
X141768474Y-120991662D01*
X141768448Y-121204603D01*
X141768375Y-121397168D01*
X141768218Y-121570459D01*
X141767936Y-121725576D01*
X141767491Y-121863620D01*
X141766844Y-121985692D01*
X141765955Y-122092894D01*
X141764787Y-122186326D01*
X141763299Y-122267090D01*
X141761454Y-122336286D01*
X141759211Y-122395015D01*
X141756531Y-122444379D01*
X141753377Y-122485478D01*
X141749708Y-122519413D01*
X141745487Y-122547286D01*
X141740673Y-122570198D01*
X141735227Y-122589249D01*
X141729112Y-122605540D01*
X141722288Y-122620173D01*
X141714715Y-122634249D01*
X141706355Y-122648868D01*
X141701161Y-122657974D01*
X141666896Y-122718689D01*
X142525045Y-122718689D01*
X142525045Y-122622733D01*
X142525776Y-122579370D01*
X142527728Y-122546205D01*
X142530537Y-122528424D01*
X142531779Y-122526778D01*
X142543201Y-122533662D01*
X142565916Y-122551505D01*
X142588615Y-122570879D01*
X142643200Y-122611614D01*
X142712679Y-122652617D01*
X142789730Y-122690123D01*
X142867035Y-122720364D01*
X142897887Y-122730012D01*
X142966384Y-122744578D01*
X143049236Y-122754539D01*
X143138629Y-122759583D01*
X143226752Y-122759396D01*
X143305793Y-122753666D01*
X143343489Y-122747858D01*
X143481586Y-122709797D01*
X143608887Y-122652073D01*
X143724708Y-122575211D01*
X143828363Y-122479739D01*
X143919167Y-122366179D01*
X143985969Y-122255381D01*
X144040836Y-122138625D01*
X144082837Y-122019276D01*
X144112833Y-121893283D01*
X144131689Y-121756594D01*
X144140268Y-121605158D01*
X144140994Y-121527711D01*
X144138900Y-121470934D01*
X143309783Y-121470934D01*
X143309576Y-121564002D01*
X143306663Y-121651692D01*
X143301000Y-121728772D01*
X143292545Y-121790009D01*
X143289962Y-121802350D01*
X143258160Y-121909633D01*
X143216502Y-121996658D01*
X143164637Y-122063642D01*
X143102219Y-122110805D01*
X143028900Y-122138365D01*
X142944331Y-122146541D01*
X142848165Y-122135551D01*
X142784689Y-122119829D01*
X142735546Y-122101639D01*
X142681417Y-122075791D01*
X142640756Y-122052089D01*
X142570200Y-122005721D01*
X142570200Y-120855530D01*
X142637608Y-120811962D01*
X142716133Y-120771040D01*
X142800319Y-120744389D01*
X142885443Y-120732465D01*
X142966784Y-120735722D01*
X143039620Y-120754615D01*
X143071574Y-120770184D01*
X143129499Y-120813181D01*
X143178456Y-120869953D01*
X143219610Y-120942575D01*
X143254126Y-121033121D01*
X143283167Y-121143666D01*
X143284448Y-121149533D01*
X143294619Y-121211788D01*
X143302261Y-121289594D01*
X143307330Y-121377720D01*
X143309783Y-121470934D01*
X144138900Y-121470934D01*
X144133143Y-121314895D01*
X144111198Y-121119059D01*
X144075214Y-120940332D01*
X144025241Y-120778845D01*
X143961332Y-120634726D01*
X143883538Y-120508106D01*
X143791911Y-120399115D01*
X143686503Y-120307883D01*
X143641338Y-120276932D01*
X143540389Y-120220785D01*
X143437099Y-120181174D01*
X143327011Y-120157014D01*
X143205670Y-120147219D01*
X143113164Y-120148265D01*
X142983510Y-120159231D01*
X142870916Y-120181046D01*
X142772125Y-120214714D01*
X142683879Y-120261236D01*
X142635014Y-120295448D01*
X142605647Y-120317362D01*
X142583957Y-120332333D01*
X142575747Y-120336733D01*
X142574132Y-120325904D01*
X142572841Y-120295251D01*
X142571862Y-120247526D01*
X142571183Y-120185479D01*
X142570790Y-120111862D01*
X142570670Y-120029427D01*
X142570812Y-119940925D01*
X142571203Y-119849107D01*
X142571829Y-119756724D01*
X142572680Y-119666528D01*
X142573740Y-119581271D01*
X142574999Y-119503703D01*
X142576444Y-119436576D01*
X142578062Y-119382641D01*
X142579839Y-119344650D01*
X142580331Y-119337667D01*
X142587908Y-119267251D01*
X142599469Y-119212102D01*
X142617208Y-119164981D01*
X142643318Y-119118647D01*
X142649585Y-119109067D01*
X142674017Y-119072378D01*
X141768689Y-119072378D01*
X141768493Y-120757245D01*
G36*
X145281426Y-120151552D02*
G01*
X145129508Y-120171567D01*
X144994244Y-120205202D01*
X144874761Y-120252725D01*
X144770185Y-120314405D01*
X144692576Y-120377965D01*
X144623735Y-120452099D01*
X144569994Y-120531871D01*
X144527090Y-120624091D01*
X144511616Y-120667161D01*
X144498756Y-120706142D01*
X144487554Y-120742289D01*
X144477880Y-120777434D01*
X144469604Y-120813410D01*
X144462597Y-120852050D01*
X144456728Y-120895185D01*
X144451869Y-120944649D01*
X144447890Y-121002273D01*
X144444660Y-121069891D01*
X144442051Y-121149334D01*
X144439933Y-121242436D01*
X144438176Y-121351027D01*
X144436651Y-121476942D01*
X144435228Y-121622012D01*
X144433975Y-121764778D01*
X144432649Y-121920968D01*
X144431444Y-122056239D01*
X144430234Y-122172246D01*
X144428894Y-122270645D01*
X144427300Y-122353093D01*
X144425325Y-122421246D01*
X144422844Y-122476760D01*
X144419731Y-122521292D01*
X144415862Y-122556498D01*
X144411111Y-122584034D01*
X144405352Y-122605556D01*
X144398461Y-122622722D01*
X144390311Y-122637186D01*
X144380777Y-122650606D01*
X144369734Y-122664638D01*
X144365434Y-122670071D01*
X144349614Y-122692910D01*
X144342578Y-122708463D01*
X144342556Y-122708922D01*
X144353433Y-122711121D01*
X144384418Y-122713147D01*
X144433043Y-122714942D01*
X144496837Y-122716451D01*
X144573331Y-122717616D01*
X144660056Y-122718380D01*
X144754543Y-122718686D01*
X144765450Y-122718689D01*
X145188343Y-122718689D01*
X145191605Y-122622622D01*
X145194867Y-122526556D01*
X145256956Y-122577543D01*
X145354286Y-122645057D01*
X145464187Y-122699749D01*
X145550651Y-122729978D01*
X145619722Y-122744666D01*
X145703075Y-122754659D01*
X145792841Y-122759646D01*
X145881155Y-122759313D01*
X145960149Y-122753351D01*
X145996378Y-122747638D01*
X146136397Y-122709776D01*
X146262822Y-122654932D01*
X146374740Y-122583924D01*
X146471238Y-122497568D01*
X146551400Y-122396679D01*
X146614313Y-122282076D01*
X146658688Y-122155984D01*
X146671022Y-122099401D01*
X146678632Y-122037202D01*
X146682261Y-121962363D01*
X146682755Y-121928467D01*
X146682690Y-121925282D01*
X145922752Y-121925282D01*
X145913459Y-122000333D01*
X145885272Y-122064160D01*
X145836803Y-122119798D01*
X145831746Y-122124211D01*
X145783452Y-122159037D01*
X145731743Y-122181620D01*
X145671011Y-122193540D01*
X145595648Y-122196383D01*
X145577541Y-122195978D01*
X145523722Y-122193325D01*
X145483692Y-122187909D01*
X145448676Y-122177745D01*
X145409897Y-122160850D01*
X145399255Y-122155672D01*
X145338604Y-122119844D01*
X145291785Y-122077212D01*
X145279048Y-122061973D01*
X145234378Y-122005462D01*
X145234378Y-121809586D01*
X145234914Y-121730939D01*
X145236604Y-121672988D01*
X145239572Y-121633875D01*
X145243943Y-121611741D01*
X145248028Y-121605274D01*
X145263953Y-121602111D01*
X145297736Y-121599488D01*
X145344660Y-121597655D01*
X145400007Y-121596857D01*
X145408894Y-121596842D01*
X145529670Y-121602096D01*
X145632340Y-121618263D01*
X145718894Y-121645961D01*
X145791319Y-121685808D01*
X145846249Y-121732758D01*
X145890796Y-121790645D01*
X145915520Y-121853693D01*
X145922752Y-121925282D01*
X146682690Y-121925282D01*
X146680822Y-121834712D01*
X146672478Y-121755812D01*
X146656232Y-121684590D01*
X146630595Y-121613864D01*
X146606599Y-121561493D01*
X146547980Y-121466196D01*
X146469883Y-121378170D01*
X146374685Y-121299017D01*
X146264762Y-121230340D01*
X146142490Y-121173741D01*
X146010245Y-121130821D01*
X145945578Y-121115882D01*
X145809396Y-121093777D01*
X145660951Y-121079194D01*
X145509495Y-121072813D01*
X145382936Y-121074445D01*
X145221050Y-121081224D01*
X145228470Y-121022245D01*
X145247762Y-120923092D01*
X145278896Y-120842372D01*
X145322731Y-120779466D01*
X145380129Y-120733756D01*
X145451952Y-120704622D01*
X145539059Y-120691447D01*
X145642314Y-120693611D01*
X145680289Y-120697612D01*
X145821480Y-120722780D01*
X145958293Y-120763814D01*
X146052822Y-120801815D01*
X146097982Y-120821190D01*
X146136415Y-120836760D01*
X146162766Y-120846405D01*
X146170454Y-120848452D01*
X146180198Y-120839374D01*
X146196917Y-120810405D01*
X146220768Y-120761217D01*
X146251907Y-120691484D01*
X146290493Y-120600879D01*
X146297090Y-120585089D01*
X146327147Y-120512772D01*
X146354126Y-120447425D01*
X146376864Y-120391906D01*
X146394194Y-120349072D01*
X146404952Y-120321781D01*
X146408059Y-120312942D01*
X146398060Y-120308187D01*
X146371783Y-120302910D01*
X146343511Y-120299231D01*
X146313354Y-120294474D01*
X146265567Y-120285028D01*
X146204388Y-120271820D01*
X146134054Y-120255776D01*
X146058806Y-120237820D01*
X146030245Y-120230797D01*
X145925184Y-120205209D01*
X145837520Y-120185147D01*
X145762932Y-120169969D01*
X145697097Y-120159035D01*
X145635693Y-120151704D01*
X145574398Y-120147335D01*
X145508890Y-120145287D01*
X145450872Y-120144889D01*
X145281426Y-120151552D01*
G37*
X145281426Y-120151552D02*
X145129508Y-120171567D01*
X144994244Y-120205202D01*
X144874761Y-120252725D01*
X144770185Y-120314405D01*
X144692576Y-120377965D01*
X144623735Y-120452099D01*
X144569994Y-120531871D01*
X144527090Y-120624091D01*
X144511616Y-120667161D01*
X144498756Y-120706142D01*
X144487554Y-120742289D01*
X144477880Y-120777434D01*
X144469604Y-120813410D01*
X144462597Y-120852050D01*
X144456728Y-120895185D01*
X144451869Y-120944649D01*
X144447890Y-121002273D01*
X144444660Y-121069891D01*
X144442051Y-121149334D01*
X144439933Y-121242436D01*
X144438176Y-121351027D01*
X144436651Y-121476942D01*
X144435228Y-121622012D01*
X144433975Y-121764778D01*
X144432649Y-121920968D01*
X144431444Y-122056239D01*
X144430234Y-122172246D01*
X144428894Y-122270645D01*
X144427300Y-122353093D01*
X144425325Y-122421246D01*
X144422844Y-122476760D01*
X144419731Y-122521292D01*
X144415862Y-122556498D01*
X144411111Y-122584034D01*
X144405352Y-122605556D01*
X144398461Y-122622722D01*
X144390311Y-122637186D01*
X144380777Y-122650606D01*
X144369734Y-122664638D01*
X144365434Y-122670071D01*
X144349614Y-122692910D01*
X144342578Y-122708463D01*
X144342556Y-122708922D01*
X144353433Y-122711121D01*
X144384418Y-122713147D01*
X144433043Y-122714942D01*
X144496837Y-122716451D01*
X144573331Y-122717616D01*
X144660056Y-122718380D01*
X144754543Y-122718686D01*
X144765450Y-122718689D01*
X145188343Y-122718689D01*
X145191605Y-122622622D01*
X145194867Y-122526556D01*
X145256956Y-122577543D01*
X145354286Y-122645057D01*
X145464187Y-122699749D01*
X145550651Y-122729978D01*
X145619722Y-122744666D01*
X145703075Y-122754659D01*
X145792841Y-122759646D01*
X145881155Y-122759313D01*
X145960149Y-122753351D01*
X145996378Y-122747638D01*
X146136397Y-122709776D01*
X146262822Y-122654932D01*
X146374740Y-122583924D01*
X146471238Y-122497568D01*
X146551400Y-122396679D01*
X146614313Y-122282076D01*
X146658688Y-122155984D01*
X146671022Y-122099401D01*
X146678632Y-122037202D01*
X146682261Y-121962363D01*
X146682755Y-121928467D01*
X146682690Y-121925282D01*
X145922752Y-121925282D01*
X145913459Y-122000333D01*
X145885272Y-122064160D01*
X145836803Y-122119798D01*
X145831746Y-122124211D01*
X145783452Y-122159037D01*
X145731743Y-122181620D01*
X145671011Y-122193540D01*
X145595648Y-122196383D01*
X145577541Y-122195978D01*
X145523722Y-122193325D01*
X145483692Y-122187909D01*
X145448676Y-122177745D01*
X145409897Y-122160850D01*
X145399255Y-122155672D01*
X145338604Y-122119844D01*
X145291785Y-122077212D01*
X145279048Y-122061973D01*
X145234378Y-122005462D01*
X145234378Y-121809586D01*
X145234914Y-121730939D01*
X145236604Y-121672988D01*
X145239572Y-121633875D01*
X145243943Y-121611741D01*
X145248028Y-121605274D01*
X145263953Y-121602111D01*
X145297736Y-121599488D01*
X145344660Y-121597655D01*
X145400007Y-121596857D01*
X145408894Y-121596842D01*
X145529670Y-121602096D01*
X145632340Y-121618263D01*
X145718894Y-121645961D01*
X145791319Y-121685808D01*
X145846249Y-121732758D01*
X145890796Y-121790645D01*
X145915520Y-121853693D01*
X145922752Y-121925282D01*
X146682690Y-121925282D01*
X146680822Y-121834712D01*
X146672478Y-121755812D01*
X146656232Y-121684590D01*
X146630595Y-121613864D01*
X146606599Y-121561493D01*
X146547980Y-121466196D01*
X146469883Y-121378170D01*
X146374685Y-121299017D01*
X146264762Y-121230340D01*
X146142490Y-121173741D01*
X146010245Y-121130821D01*
X145945578Y-121115882D01*
X145809396Y-121093777D01*
X145660951Y-121079194D01*
X145509495Y-121072813D01*
X145382936Y-121074445D01*
X145221050Y-121081224D01*
X145228470Y-121022245D01*
X145247762Y-120923092D01*
X145278896Y-120842372D01*
X145322731Y-120779466D01*
X145380129Y-120733756D01*
X145451952Y-120704622D01*
X145539059Y-120691447D01*
X145642314Y-120693611D01*
X145680289Y-120697612D01*
X145821480Y-120722780D01*
X145958293Y-120763814D01*
X146052822Y-120801815D01*
X146097982Y-120821190D01*
X146136415Y-120836760D01*
X146162766Y-120846405D01*
X146170454Y-120848452D01*
X146180198Y-120839374D01*
X146196917Y-120810405D01*
X146220768Y-120761217D01*
X146251907Y-120691484D01*
X146290493Y-120600879D01*
X146297090Y-120585089D01*
X146327147Y-120512772D01*
X146354126Y-120447425D01*
X146376864Y-120391906D01*
X146394194Y-120349072D01*
X146404952Y-120321781D01*
X146408059Y-120312942D01*
X146398060Y-120308187D01*
X146371783Y-120302910D01*
X146343511Y-120299231D01*
X146313354Y-120294474D01*
X146265567Y-120285028D01*
X146204388Y-120271820D01*
X146134054Y-120255776D01*
X146058806Y-120237820D01*
X146030245Y-120230797D01*
X145925184Y-120205209D01*
X145837520Y-120185147D01*
X145762932Y-120169969D01*
X145697097Y-120159035D01*
X145635693Y-120151704D01*
X145574398Y-120147335D01*
X145508890Y-120145287D01*
X145450872Y-120144889D01*
X145281426Y-120151552D01*
G36*
X147626571Y-119234071D02*
G01*
X147466430Y-119255245D01*
X147302490Y-119295385D01*
X147132687Y-119354889D01*
X146954957Y-119434154D01*
X146943690Y-119439699D01*
X146885995Y-119467725D01*
X146834448Y-119491802D01*
X146792809Y-119510249D01*
X146764838Y-119521386D01*
X146755267Y-119523933D01*
X146736050Y-119528941D01*
X146731439Y-119533147D01*
X146736542Y-119543580D01*
X146752582Y-119569868D01*
X146777712Y-119609257D01*
X146810086Y-119658991D01*
X146847857Y-119716315D01*
X146889178Y-119778476D01*
X146932202Y-119842718D01*
X146975083Y-119906285D01*
X147015974Y-119966425D01*
X147053029Y-120020380D01*
X147084400Y-120065397D01*
X147108241Y-120098721D01*
X147122706Y-120117597D01*
X147124691Y-120119787D01*
X147134809Y-120115138D01*
X147157150Y-120097962D01*
X147187720Y-120071440D01*
X147203464Y-120056964D01*
X147299953Y-119981682D01*
X147406664Y-119926241D01*
X147522168Y-119891141D01*
X147645038Y-119876880D01*
X147714439Y-119878051D01*
X147835577Y-119895212D01*
X147944795Y-119931094D01*
X148042418Y-119985959D01*
X148128772Y-120060070D01*
X148204185Y-120153688D01*
X148268982Y-120267076D01*
X148306399Y-120353667D01*
X148350252Y-120489366D01*
X148382572Y-120636850D01*
X148403443Y-120792314D01*
X148412949Y-120951956D01*
X148411173Y-121111973D01*
X148398197Y-121268561D01*
X148374106Y-121417918D01*
X148338982Y-121556240D01*
X148292908Y-121679724D01*
X148276627Y-121713978D01*
X148208380Y-121828064D01*
X148127921Y-121924557D01*
X148036430Y-122002670D01*
X147935089Y-122061617D01*
X147825080Y-122100612D01*
X147707585Y-122118868D01*
X147666117Y-122120211D01*
X147544559Y-122109290D01*
X147424122Y-122076474D01*
X147306334Y-122022439D01*
X147192723Y-121947865D01*
X147101315Y-121869539D01*
X147054785Y-121825008D01*
X146873517Y-122122271D01*
X146828420Y-122196433D01*
X146787181Y-122264646D01*
X146751265Y-122324459D01*
X146722134Y-122373420D01*
X146701250Y-122409079D01*
X146690076Y-122428984D01*
X146688625Y-122432079D01*
X146696854Y-122441718D01*
X146722433Y-122458999D01*
X146762127Y-122482283D01*
X146812703Y-122509934D01*
X146870926Y-122540315D01*
X146933563Y-122571790D01*
X146997379Y-122602722D01*
X147059140Y-122631473D01*
X147115612Y-122656408D01*
X147163562Y-122675889D01*
X147187014Y-122684318D01*
X147320779Y-122722133D01*
X147458673Y-122747136D01*
X147606378Y-122760140D01*
X147733167Y-122762468D01*
X147801122Y-122761373D01*
X147866723Y-122759275D01*
X147924153Y-122756434D01*
X147967597Y-122753106D01*
X147981702Y-122751422D01*
X148120716Y-122722587D01*
X148262243Y-122677468D01*
X148399725Y-122618750D01*
X148526606Y-122549120D01*
X148604111Y-122496441D01*
X148731519Y-122388239D01*
X148849822Y-122261671D01*
X148956828Y-122119866D01*
X149050348Y-121965951D01*
X149128190Y-121803053D01*
X149172044Y-121685756D01*
X149222292Y-121502128D01*
X149255791Y-121307581D01*
X149272551Y-121106325D01*
X149272584Y-120902568D01*
X149255899Y-120700521D01*
X149222507Y-120504392D01*
X149172420Y-120318391D01*
X149168603Y-120306803D01*
X149105719Y-120144750D01*
X149028972Y-119996832D01*
X148935758Y-119858865D01*
X148823473Y-119726661D01*
X148779608Y-119681399D01*
X148643466Y-119557457D01*
X148503509Y-119454915D01*
X148357589Y-119372656D01*
X148203558Y-119309564D01*
X148039268Y-119264523D01*
X147943711Y-119247033D01*
X147784977Y-119231466D01*
X147626571Y-119234071D01*
G37*
X147626571Y-119234071D02*
X147466430Y-119255245D01*
X147302490Y-119295385D01*
X147132687Y-119354889D01*
X146954957Y-119434154D01*
X146943690Y-119439699D01*
X146885995Y-119467725D01*
X146834448Y-119491802D01*
X146792809Y-119510249D01*
X146764838Y-119521386D01*
X146755267Y-119523933D01*
X146736050Y-119528941D01*
X146731439Y-119533147D01*
X146736542Y-119543580D01*
X146752582Y-119569868D01*
X146777712Y-119609257D01*
X146810086Y-119658991D01*
X146847857Y-119716315D01*
X146889178Y-119778476D01*
X146932202Y-119842718D01*
X146975083Y-119906285D01*
X147015974Y-119966425D01*
X147053029Y-120020380D01*
X147084400Y-120065397D01*
X147108241Y-120098721D01*
X147122706Y-120117597D01*
X147124691Y-120119787D01*
X147134809Y-120115138D01*
X147157150Y-120097962D01*
X147187720Y-120071440D01*
X147203464Y-120056964D01*
X147299953Y-119981682D01*
X147406664Y-119926241D01*
X147522168Y-119891141D01*
X147645038Y-119876880D01*
X147714439Y-119878051D01*
X147835577Y-119895212D01*
X147944795Y-119931094D01*
X148042418Y-119985959D01*
X148128772Y-120060070D01*
X148204185Y-120153688D01*
X148268982Y-120267076D01*
X148306399Y-120353667D01*
X148350252Y-120489366D01*
X148382572Y-120636850D01*
X148403443Y-120792314D01*
X148412949Y-120951956D01*
X148411173Y-121111973D01*
X148398197Y-121268561D01*
X148374106Y-121417918D01*
X148338982Y-121556240D01*
X148292908Y-121679724D01*
X148276627Y-121713978D01*
X148208380Y-121828064D01*
X148127921Y-121924557D01*
X148036430Y-122002670D01*
X147935089Y-122061617D01*
X147825080Y-122100612D01*
X147707585Y-122118868D01*
X147666117Y-122120211D01*
X147544559Y-122109290D01*
X147424122Y-122076474D01*
X147306334Y-122022439D01*
X147192723Y-121947865D01*
X147101315Y-121869539D01*
X147054785Y-121825008D01*
X146873517Y-122122271D01*
X146828420Y-122196433D01*
X146787181Y-122264646D01*
X146751265Y-122324459D01*
X146722134Y-122373420D01*
X146701250Y-122409079D01*
X146690076Y-122428984D01*
X146688625Y-122432079D01*
X146696854Y-122441718D01*
X146722433Y-122458999D01*
X146762127Y-122482283D01*
X146812703Y-122509934D01*
X146870926Y-122540315D01*
X146933563Y-122571790D01*
X146997379Y-122602722D01*
X147059140Y-122631473D01*
X147115612Y-122656408D01*
X147163562Y-122675889D01*
X147187014Y-122684318D01*
X147320779Y-122722133D01*
X147458673Y-122747136D01*
X147606378Y-122760140D01*
X147733167Y-122762468D01*
X147801122Y-122761373D01*
X147866723Y-122759275D01*
X147924153Y-122756434D01*
X147967597Y-122753106D01*
X147981702Y-122751422D01*
X148120716Y-122722587D01*
X148262243Y-122677468D01*
X148399725Y-122618750D01*
X148526606Y-122549120D01*
X148604111Y-122496441D01*
X148731519Y-122388239D01*
X148849822Y-122261671D01*
X148956828Y-122119866D01*
X149050348Y-121965951D01*
X149128190Y-121803053D01*
X149172044Y-121685756D01*
X149222292Y-121502128D01*
X149255791Y-121307581D01*
X149272551Y-121106325D01*
X149272584Y-120902568D01*
X149255899Y-120700521D01*
X149222507Y-120504392D01*
X149172420Y-120318391D01*
X149168603Y-120306803D01*
X149105719Y-120144750D01*
X149028972Y-119996832D01*
X148935758Y-119858865D01*
X148823473Y-119726661D01*
X148779608Y-119681399D01*
X148643466Y-119557457D01*
X148503509Y-119454915D01*
X148357589Y-119372656D01*
X148203558Y-119309564D01*
X148039268Y-119264523D01*
X147943711Y-119247033D01*
X147784977Y-119231466D01*
X147626571Y-119234071D01*
M02*
