G04 #@! TF.GenerationSoftware,KiCad,Pcbnew,5.1.5-52549c5~84~ubuntu19.04.1*
G04 #@! TF.CreationDate,2019-11-23T15:47:04+01:00*
G04 #@! TF.ProjectId,2ch-4-20mA,3263682d-342d-4323-906d-412e6b696361,rev?*
G04 #@! TF.SameCoordinates,Original*
G04 #@! TF.FileFunction,Copper,L2,Bot*
G04 #@! TF.FilePolarity,Positive*
%FSLAX46Y46*%
G04 Gerber Fmt 4.6, Leading zero omitted, Abs format (unit mm)*
G04 Created by KiCad (PCBNEW 5.1.5-52549c5~84~ubuntu19.04.1) date 2019-11-23 15:47:04*
%MOMM*%
%LPD*%
G04 APERTURE LIST*
%ADD10C,2.000000*%
%ADD11R,2.000000X2.000000*%
%ADD12C,1.700000*%
%ADD13R,1.700000X1.700000*%
%ADD14O,1.700000X1.700000*%
%ADD15C,0.800000*%
%ADD16C,0.508000*%
%ADD17C,1.016000*%
%ADD18C,0.254000*%
G04 APERTURE END LIST*
D10*
X127553200Y-114619600D03*
D11*
X122553200Y-111119600D03*
D10*
X127553200Y-101919600D03*
D11*
X122553200Y-98419600D03*
D12*
X127635000Y-85725000D03*
X130175000Y-85725000D03*
X132715000Y-85725000D03*
X135255000Y-85725000D03*
X140335000Y-85725000D03*
X142875000Y-85725000D03*
D13*
X145415000Y-85725000D03*
D14*
X132715000Y-93345000D03*
D13*
X132715000Y-90805000D03*
D14*
X139700000Y-120650000D03*
D13*
X137160000Y-120650000D03*
D14*
X149225000Y-95885000D03*
D13*
X149225000Y-93345000D03*
D14*
X139700000Y-90805000D03*
D13*
X137160000Y-90805000D03*
D14*
X159385000Y-106045000D03*
X159385000Y-103505000D03*
X159385000Y-100965000D03*
X159385000Y-98425000D03*
X159385000Y-95885000D03*
X159385000Y-93345000D03*
D13*
X159385000Y-90805000D03*
D10*
X156210000Y-98425000D03*
X156210000Y-95885000D03*
X156210000Y-93345000D03*
X156210000Y-90805000D03*
X128905000Y-90805000D03*
X128905000Y-93345000D03*
X145415000Y-108585000D03*
X132715000Y-111125000D03*
X145415000Y-95885000D03*
X132715000Y-98425000D03*
D15*
X141605000Y-117475000D03*
X140970000Y-106680000D03*
X141605000Y-104775000D03*
X140970000Y-93980000D03*
X146050000Y-102235000D03*
X143510000Y-100965000D03*
X143510000Y-113665000D03*
D10*
X132715000Y-106045000D03*
D16*
X159385000Y-95885000D02*
X156210000Y-95885000D01*
X156210000Y-95885000D02*
X152400000Y-95885000D01*
X147320000Y-100965000D02*
X143510000Y-100965000D01*
X152400000Y-95885000D02*
X147320000Y-100965000D01*
X143510000Y-113665000D02*
X143510000Y-100965000D01*
D17*
X132715000Y-93345000D02*
X132715000Y-93980000D01*
X132715000Y-93980000D02*
X129540000Y-97155000D01*
X129540000Y-97155000D02*
X129540000Y-99695000D01*
X132715000Y-102870000D02*
X132715000Y-106045000D01*
X129540000Y-99695000D02*
X132715000Y-102870000D01*
D18*
G36*
X137668000Y-124435000D02*
G01*
X117507277Y-124435000D01*
X117233795Y-124408185D01*
X117001774Y-124338133D01*
X116787778Y-124224350D01*
X116599961Y-124071169D01*
X116445471Y-123884424D01*
X116330198Y-123671231D01*
X116258528Y-123439701D01*
X116230000Y-123168276D01*
X116230000Y-120429872D01*
X117780000Y-120429872D01*
X117780000Y-120870128D01*
X117865890Y-121301925D01*
X118034369Y-121708669D01*
X118278962Y-122074729D01*
X118590271Y-122386038D01*
X118956331Y-122630631D01*
X119363075Y-122799110D01*
X119794872Y-122885000D01*
X120235128Y-122885000D01*
X120666925Y-122799110D01*
X121073669Y-122630631D01*
X121439729Y-122386038D01*
X121751038Y-122074729D01*
X121995631Y-121708669D01*
X122164110Y-121301925D01*
X122250000Y-120870128D01*
X122250000Y-120429872D01*
X122164110Y-119998075D01*
X121995631Y-119591331D01*
X121751038Y-119225271D01*
X121439729Y-118913962D01*
X121073669Y-118669369D01*
X120666925Y-118500890D01*
X120235128Y-118415000D01*
X119794872Y-118415000D01*
X119363075Y-118500890D01*
X118956331Y-118669369D01*
X118590271Y-118913962D01*
X118278962Y-119225271D01*
X118034369Y-119591331D01*
X117865890Y-119998075D01*
X117780000Y-120429872D01*
X116230000Y-120429872D01*
X116230000Y-110119600D01*
X120915128Y-110119600D01*
X120915128Y-112119600D01*
X120927388Y-112244082D01*
X120963698Y-112363780D01*
X121022663Y-112474094D01*
X121102015Y-112570785D01*
X121198706Y-112650137D01*
X121309020Y-112709102D01*
X121428718Y-112745412D01*
X121553200Y-112757672D01*
X123553200Y-112757672D01*
X123677682Y-112745412D01*
X123797380Y-112709102D01*
X123907694Y-112650137D01*
X124004385Y-112570785D01*
X124083737Y-112474094D01*
X124142702Y-112363780D01*
X124179012Y-112244082D01*
X124191272Y-112119600D01*
X124191272Y-110963967D01*
X131080000Y-110963967D01*
X131080000Y-111286033D01*
X131142832Y-111601912D01*
X131266082Y-111899463D01*
X131445013Y-112167252D01*
X131672748Y-112394987D01*
X131940537Y-112573918D01*
X132238088Y-112697168D01*
X132553967Y-112760000D01*
X132876033Y-112760000D01*
X133191912Y-112697168D01*
X133489463Y-112573918D01*
X133757252Y-112394987D01*
X133984987Y-112167252D01*
X134163918Y-111899463D01*
X134287168Y-111601912D01*
X134350000Y-111286033D01*
X134350000Y-110963967D01*
X134287168Y-110648088D01*
X134163918Y-110350537D01*
X133984987Y-110082748D01*
X133757252Y-109855013D01*
X133489463Y-109676082D01*
X133191912Y-109552832D01*
X132876033Y-109490000D01*
X132553967Y-109490000D01*
X132238088Y-109552832D01*
X131940537Y-109676082D01*
X131672748Y-109855013D01*
X131445013Y-110082748D01*
X131266082Y-110350537D01*
X131142832Y-110648088D01*
X131080000Y-110963967D01*
X124191272Y-110963967D01*
X124191272Y-110119600D01*
X124179012Y-109995118D01*
X124142702Y-109875420D01*
X124083737Y-109765106D01*
X124004385Y-109668415D01*
X123907694Y-109589063D01*
X123797380Y-109530098D01*
X123677682Y-109493788D01*
X123553200Y-109481528D01*
X121553200Y-109481528D01*
X121428718Y-109493788D01*
X121309020Y-109530098D01*
X121198706Y-109589063D01*
X121102015Y-109668415D01*
X121022663Y-109765106D01*
X120963698Y-109875420D01*
X120927388Y-109995118D01*
X120915128Y-110119600D01*
X116230000Y-110119600D01*
X116230000Y-97419600D01*
X120915128Y-97419600D01*
X120915128Y-99419600D01*
X120927388Y-99544082D01*
X120963698Y-99663780D01*
X121022663Y-99774094D01*
X121102015Y-99870785D01*
X121198706Y-99950137D01*
X121309020Y-100009102D01*
X121428718Y-100045412D01*
X121553200Y-100057672D01*
X123553200Y-100057672D01*
X123677682Y-100045412D01*
X123797380Y-100009102D01*
X123907694Y-99950137D01*
X124004385Y-99870785D01*
X124083737Y-99774094D01*
X124142702Y-99663780D01*
X124179012Y-99544082D01*
X124191272Y-99419600D01*
X124191272Y-97419600D01*
X124179012Y-97295118D01*
X124142702Y-97175420D01*
X124131788Y-97155000D01*
X128391471Y-97155000D01*
X128397000Y-97211139D01*
X128397001Y-99638852D01*
X128391471Y-99695000D01*
X128413539Y-99919067D01*
X128478898Y-100134523D01*
X128585033Y-100333089D01*
X128727868Y-100507133D01*
X128771478Y-100542923D01*
X131572000Y-103343446D01*
X131572001Y-104875760D01*
X131445013Y-105002748D01*
X131266082Y-105270537D01*
X131142832Y-105568088D01*
X131080000Y-105883967D01*
X131080000Y-106206033D01*
X131142832Y-106521912D01*
X131266082Y-106819463D01*
X131445013Y-107087252D01*
X131672748Y-107314987D01*
X131940537Y-107493918D01*
X132238088Y-107617168D01*
X132553967Y-107680000D01*
X132876033Y-107680000D01*
X133191912Y-107617168D01*
X133489463Y-107493918D01*
X133757252Y-107314987D01*
X133984987Y-107087252D01*
X134163918Y-106819463D01*
X134287168Y-106521912D01*
X134350000Y-106206033D01*
X134350000Y-105883967D01*
X134287168Y-105568088D01*
X134163918Y-105270537D01*
X133984987Y-105002748D01*
X133858000Y-104875761D01*
X133858000Y-102926138D01*
X133863529Y-102869999D01*
X133858000Y-102813860D01*
X133858000Y-102813854D01*
X133841461Y-102645933D01*
X133776103Y-102430477D01*
X133669968Y-102231911D01*
X133527133Y-102057867D01*
X133483524Y-102022078D01*
X130683000Y-99221555D01*
X130683000Y-98263967D01*
X131080000Y-98263967D01*
X131080000Y-98586033D01*
X131142832Y-98901912D01*
X131266082Y-99199463D01*
X131445013Y-99467252D01*
X131672748Y-99694987D01*
X131940537Y-99873918D01*
X132238088Y-99997168D01*
X132553967Y-100060000D01*
X132876033Y-100060000D01*
X133191912Y-99997168D01*
X133489463Y-99873918D01*
X133757252Y-99694987D01*
X133984987Y-99467252D01*
X134163918Y-99199463D01*
X134287168Y-98901912D01*
X134350000Y-98586033D01*
X134350000Y-98263967D01*
X134287168Y-97948088D01*
X134163918Y-97650537D01*
X133984987Y-97382748D01*
X133757252Y-97155013D01*
X133489463Y-96976082D01*
X133191912Y-96852832D01*
X132876033Y-96790000D01*
X132553967Y-96790000D01*
X132238088Y-96852832D01*
X131940537Y-96976082D01*
X131672748Y-97155013D01*
X131445013Y-97382748D01*
X131266082Y-97650537D01*
X131142832Y-97948088D01*
X131080000Y-98263967D01*
X130683000Y-98263967D01*
X130683000Y-97628445D01*
X133483523Y-94827923D01*
X133527133Y-94792133D01*
X133669968Y-94618089D01*
X133776103Y-94419523D01*
X133791569Y-94368538D01*
X133868475Y-94291632D01*
X134030990Y-94048411D01*
X134142932Y-93778158D01*
X134200000Y-93491260D01*
X134200000Y-93198740D01*
X134142932Y-92911842D01*
X134030990Y-92641589D01*
X133868475Y-92398368D01*
X133736620Y-92266513D01*
X133809180Y-92244502D01*
X133919494Y-92185537D01*
X134016185Y-92106185D01*
X134095537Y-92009494D01*
X134154502Y-91899180D01*
X134190812Y-91779482D01*
X134203072Y-91655000D01*
X134203072Y-89955000D01*
X134190812Y-89830518D01*
X134154502Y-89710820D01*
X134095537Y-89600506D01*
X134016185Y-89503815D01*
X133919494Y-89424463D01*
X133809180Y-89365498D01*
X133689482Y-89329188D01*
X133565000Y-89316928D01*
X131865000Y-89316928D01*
X131740518Y-89329188D01*
X131620820Y-89365498D01*
X131510506Y-89424463D01*
X131413815Y-89503815D01*
X131334463Y-89600506D01*
X131275498Y-89710820D01*
X131239188Y-89830518D01*
X131226928Y-89955000D01*
X131226928Y-91655000D01*
X131239188Y-91779482D01*
X131275498Y-91899180D01*
X131334463Y-92009494D01*
X131413815Y-92106185D01*
X131510506Y-92185537D01*
X131620820Y-92244502D01*
X131693380Y-92266513D01*
X131561525Y-92398368D01*
X131399010Y-92641589D01*
X131287068Y-92911842D01*
X131230000Y-93198740D01*
X131230000Y-93491260D01*
X131287068Y-93778158D01*
X131290972Y-93787582D01*
X128771482Y-96307073D01*
X128727867Y-96342867D01*
X128585032Y-96516912D01*
X128478897Y-96715478D01*
X128413539Y-96930934D01*
X128397000Y-97098855D01*
X128397000Y-97098861D01*
X128391471Y-97155000D01*
X124131788Y-97155000D01*
X124083737Y-97065106D01*
X124004385Y-96968415D01*
X123907694Y-96889063D01*
X123797380Y-96830098D01*
X123677682Y-96793788D01*
X123553200Y-96781528D01*
X121553200Y-96781528D01*
X121428718Y-96793788D01*
X121309020Y-96830098D01*
X121198706Y-96889063D01*
X121102015Y-96968415D01*
X121022663Y-97065106D01*
X120963698Y-97175420D01*
X120927388Y-97295118D01*
X120915128Y-97419600D01*
X116230000Y-97419600D01*
X116230000Y-93183967D01*
X127270000Y-93183967D01*
X127270000Y-93506033D01*
X127332832Y-93821912D01*
X127456082Y-94119463D01*
X127635013Y-94387252D01*
X127862748Y-94614987D01*
X128130537Y-94793918D01*
X128428088Y-94917168D01*
X128743967Y-94980000D01*
X129066033Y-94980000D01*
X129381912Y-94917168D01*
X129679463Y-94793918D01*
X129947252Y-94614987D01*
X130174987Y-94387252D01*
X130353918Y-94119463D01*
X130477168Y-93821912D01*
X130540000Y-93506033D01*
X130540000Y-93183967D01*
X130477168Y-92868088D01*
X130353918Y-92570537D01*
X130174987Y-92302748D01*
X129947252Y-92075013D01*
X129679463Y-91896082D01*
X129381912Y-91772832D01*
X129066033Y-91710000D01*
X128743967Y-91710000D01*
X128428088Y-91772832D01*
X128130537Y-91896082D01*
X127862748Y-92075013D01*
X127635013Y-92302748D01*
X127456082Y-92570537D01*
X127332832Y-92868088D01*
X127270000Y-93183967D01*
X116230000Y-93183967D01*
X116230000Y-85578740D01*
X126150000Y-85578740D01*
X126150000Y-85871260D01*
X126207068Y-86158158D01*
X126319010Y-86428411D01*
X126481525Y-86671632D01*
X126688368Y-86878475D01*
X126931589Y-87040990D01*
X127201842Y-87152932D01*
X127488740Y-87210000D01*
X127781260Y-87210000D01*
X128068158Y-87152932D01*
X128338411Y-87040990D01*
X128581632Y-86878475D01*
X128788475Y-86671632D01*
X128950990Y-86428411D01*
X129062932Y-86158158D01*
X129120000Y-85871260D01*
X129120000Y-85578740D01*
X131230000Y-85578740D01*
X131230000Y-85871260D01*
X131287068Y-86158158D01*
X131399010Y-86428411D01*
X131561525Y-86671632D01*
X131768368Y-86878475D01*
X132011589Y-87040990D01*
X132281842Y-87152932D01*
X132568740Y-87210000D01*
X132861260Y-87210000D01*
X133148158Y-87152932D01*
X133418411Y-87040990D01*
X133661632Y-86878475D01*
X133868475Y-86671632D01*
X133985000Y-86497240D01*
X134101525Y-86671632D01*
X134308368Y-86878475D01*
X134551589Y-87040990D01*
X134821842Y-87152932D01*
X135108740Y-87210000D01*
X135401260Y-87210000D01*
X135688158Y-87152932D01*
X135958411Y-87040990D01*
X136201632Y-86878475D01*
X136408475Y-86671632D01*
X136570990Y-86428411D01*
X136682932Y-86158158D01*
X136740000Y-85871260D01*
X136740000Y-85578740D01*
X136682932Y-85291842D01*
X136570990Y-85021589D01*
X136408475Y-84778368D01*
X136201632Y-84571525D01*
X135958411Y-84409010D01*
X135688158Y-84297068D01*
X135401260Y-84240000D01*
X135108740Y-84240000D01*
X134821842Y-84297068D01*
X134551589Y-84409010D01*
X134308368Y-84571525D01*
X134101525Y-84778368D01*
X133985000Y-84952760D01*
X133868475Y-84778368D01*
X133661632Y-84571525D01*
X133418411Y-84409010D01*
X133148158Y-84297068D01*
X132861260Y-84240000D01*
X132568740Y-84240000D01*
X132281842Y-84297068D01*
X132011589Y-84409010D01*
X131768368Y-84571525D01*
X131561525Y-84778368D01*
X131399010Y-85021589D01*
X131287068Y-85291842D01*
X131230000Y-85578740D01*
X129120000Y-85578740D01*
X129062932Y-85291842D01*
X128950990Y-85021589D01*
X128788475Y-84778368D01*
X128581632Y-84571525D01*
X128338411Y-84409010D01*
X128068158Y-84297068D01*
X127781260Y-84240000D01*
X127488740Y-84240000D01*
X127201842Y-84297068D01*
X126931589Y-84409010D01*
X126688368Y-84571525D01*
X126481525Y-84778368D01*
X126319010Y-85021589D01*
X126207068Y-85291842D01*
X126150000Y-85578740D01*
X116230000Y-85578740D01*
X116230000Y-82964872D01*
X117780000Y-82964872D01*
X117780000Y-83405128D01*
X117865890Y-83836925D01*
X118034369Y-84243669D01*
X118278962Y-84609729D01*
X118590271Y-84921038D01*
X118956331Y-85165631D01*
X119363075Y-85334110D01*
X119794872Y-85420000D01*
X120235128Y-85420000D01*
X120666925Y-85334110D01*
X121073669Y-85165631D01*
X121439729Y-84921038D01*
X121751038Y-84609729D01*
X121995631Y-84243669D01*
X122164110Y-83836925D01*
X122250000Y-83405128D01*
X122250000Y-82964872D01*
X122164110Y-82533075D01*
X121995631Y-82126331D01*
X121751038Y-81760271D01*
X121439729Y-81448962D01*
X121073669Y-81204369D01*
X120666925Y-81035890D01*
X120235128Y-80950000D01*
X119794872Y-80950000D01*
X119363075Y-81035890D01*
X118956331Y-81204369D01*
X118590271Y-81448962D01*
X118278962Y-81760271D01*
X118034369Y-82126331D01*
X117865890Y-82533075D01*
X117780000Y-82964872D01*
X116230000Y-82964872D01*
X116230000Y-80677277D01*
X116256815Y-80403796D01*
X116326867Y-80171774D01*
X116440650Y-79957778D01*
X116593832Y-79769959D01*
X116780577Y-79615470D01*
X116993769Y-79500199D01*
X117225300Y-79428528D01*
X117496725Y-79400000D01*
X137668000Y-79400000D01*
X137668000Y-124435000D01*
G37*
X137668000Y-124435000D02*
X117507277Y-124435000D01*
X117233795Y-124408185D01*
X117001774Y-124338133D01*
X116787778Y-124224350D01*
X116599961Y-124071169D01*
X116445471Y-123884424D01*
X116330198Y-123671231D01*
X116258528Y-123439701D01*
X116230000Y-123168276D01*
X116230000Y-120429872D01*
X117780000Y-120429872D01*
X117780000Y-120870128D01*
X117865890Y-121301925D01*
X118034369Y-121708669D01*
X118278962Y-122074729D01*
X118590271Y-122386038D01*
X118956331Y-122630631D01*
X119363075Y-122799110D01*
X119794872Y-122885000D01*
X120235128Y-122885000D01*
X120666925Y-122799110D01*
X121073669Y-122630631D01*
X121439729Y-122386038D01*
X121751038Y-122074729D01*
X121995631Y-121708669D01*
X122164110Y-121301925D01*
X122250000Y-120870128D01*
X122250000Y-120429872D01*
X122164110Y-119998075D01*
X121995631Y-119591331D01*
X121751038Y-119225271D01*
X121439729Y-118913962D01*
X121073669Y-118669369D01*
X120666925Y-118500890D01*
X120235128Y-118415000D01*
X119794872Y-118415000D01*
X119363075Y-118500890D01*
X118956331Y-118669369D01*
X118590271Y-118913962D01*
X118278962Y-119225271D01*
X118034369Y-119591331D01*
X117865890Y-119998075D01*
X117780000Y-120429872D01*
X116230000Y-120429872D01*
X116230000Y-110119600D01*
X120915128Y-110119600D01*
X120915128Y-112119600D01*
X120927388Y-112244082D01*
X120963698Y-112363780D01*
X121022663Y-112474094D01*
X121102015Y-112570785D01*
X121198706Y-112650137D01*
X121309020Y-112709102D01*
X121428718Y-112745412D01*
X121553200Y-112757672D01*
X123553200Y-112757672D01*
X123677682Y-112745412D01*
X123797380Y-112709102D01*
X123907694Y-112650137D01*
X124004385Y-112570785D01*
X124083737Y-112474094D01*
X124142702Y-112363780D01*
X124179012Y-112244082D01*
X124191272Y-112119600D01*
X124191272Y-110963967D01*
X131080000Y-110963967D01*
X131080000Y-111286033D01*
X131142832Y-111601912D01*
X131266082Y-111899463D01*
X131445013Y-112167252D01*
X131672748Y-112394987D01*
X131940537Y-112573918D01*
X132238088Y-112697168D01*
X132553967Y-112760000D01*
X132876033Y-112760000D01*
X133191912Y-112697168D01*
X133489463Y-112573918D01*
X133757252Y-112394987D01*
X133984987Y-112167252D01*
X134163918Y-111899463D01*
X134287168Y-111601912D01*
X134350000Y-111286033D01*
X134350000Y-110963967D01*
X134287168Y-110648088D01*
X134163918Y-110350537D01*
X133984987Y-110082748D01*
X133757252Y-109855013D01*
X133489463Y-109676082D01*
X133191912Y-109552832D01*
X132876033Y-109490000D01*
X132553967Y-109490000D01*
X132238088Y-109552832D01*
X131940537Y-109676082D01*
X131672748Y-109855013D01*
X131445013Y-110082748D01*
X131266082Y-110350537D01*
X131142832Y-110648088D01*
X131080000Y-110963967D01*
X124191272Y-110963967D01*
X124191272Y-110119600D01*
X124179012Y-109995118D01*
X124142702Y-109875420D01*
X124083737Y-109765106D01*
X124004385Y-109668415D01*
X123907694Y-109589063D01*
X123797380Y-109530098D01*
X123677682Y-109493788D01*
X123553200Y-109481528D01*
X121553200Y-109481528D01*
X121428718Y-109493788D01*
X121309020Y-109530098D01*
X121198706Y-109589063D01*
X121102015Y-109668415D01*
X121022663Y-109765106D01*
X120963698Y-109875420D01*
X120927388Y-109995118D01*
X120915128Y-110119600D01*
X116230000Y-110119600D01*
X116230000Y-97419600D01*
X120915128Y-97419600D01*
X120915128Y-99419600D01*
X120927388Y-99544082D01*
X120963698Y-99663780D01*
X121022663Y-99774094D01*
X121102015Y-99870785D01*
X121198706Y-99950137D01*
X121309020Y-100009102D01*
X121428718Y-100045412D01*
X121553200Y-100057672D01*
X123553200Y-100057672D01*
X123677682Y-100045412D01*
X123797380Y-100009102D01*
X123907694Y-99950137D01*
X124004385Y-99870785D01*
X124083737Y-99774094D01*
X124142702Y-99663780D01*
X124179012Y-99544082D01*
X124191272Y-99419600D01*
X124191272Y-97419600D01*
X124179012Y-97295118D01*
X124142702Y-97175420D01*
X124131788Y-97155000D01*
X128391471Y-97155000D01*
X128397000Y-97211139D01*
X128397001Y-99638852D01*
X128391471Y-99695000D01*
X128413539Y-99919067D01*
X128478898Y-100134523D01*
X128585033Y-100333089D01*
X128727868Y-100507133D01*
X128771478Y-100542923D01*
X131572000Y-103343446D01*
X131572001Y-104875760D01*
X131445013Y-105002748D01*
X131266082Y-105270537D01*
X131142832Y-105568088D01*
X131080000Y-105883967D01*
X131080000Y-106206033D01*
X131142832Y-106521912D01*
X131266082Y-106819463D01*
X131445013Y-107087252D01*
X131672748Y-107314987D01*
X131940537Y-107493918D01*
X132238088Y-107617168D01*
X132553967Y-107680000D01*
X132876033Y-107680000D01*
X133191912Y-107617168D01*
X133489463Y-107493918D01*
X133757252Y-107314987D01*
X133984987Y-107087252D01*
X134163918Y-106819463D01*
X134287168Y-106521912D01*
X134350000Y-106206033D01*
X134350000Y-105883967D01*
X134287168Y-105568088D01*
X134163918Y-105270537D01*
X133984987Y-105002748D01*
X133858000Y-104875761D01*
X133858000Y-102926138D01*
X133863529Y-102869999D01*
X133858000Y-102813860D01*
X133858000Y-102813854D01*
X133841461Y-102645933D01*
X133776103Y-102430477D01*
X133669968Y-102231911D01*
X133527133Y-102057867D01*
X133483524Y-102022078D01*
X130683000Y-99221555D01*
X130683000Y-98263967D01*
X131080000Y-98263967D01*
X131080000Y-98586033D01*
X131142832Y-98901912D01*
X131266082Y-99199463D01*
X131445013Y-99467252D01*
X131672748Y-99694987D01*
X131940537Y-99873918D01*
X132238088Y-99997168D01*
X132553967Y-100060000D01*
X132876033Y-100060000D01*
X133191912Y-99997168D01*
X133489463Y-99873918D01*
X133757252Y-99694987D01*
X133984987Y-99467252D01*
X134163918Y-99199463D01*
X134287168Y-98901912D01*
X134350000Y-98586033D01*
X134350000Y-98263967D01*
X134287168Y-97948088D01*
X134163918Y-97650537D01*
X133984987Y-97382748D01*
X133757252Y-97155013D01*
X133489463Y-96976082D01*
X133191912Y-96852832D01*
X132876033Y-96790000D01*
X132553967Y-96790000D01*
X132238088Y-96852832D01*
X131940537Y-96976082D01*
X131672748Y-97155013D01*
X131445013Y-97382748D01*
X131266082Y-97650537D01*
X131142832Y-97948088D01*
X131080000Y-98263967D01*
X130683000Y-98263967D01*
X130683000Y-97628445D01*
X133483523Y-94827923D01*
X133527133Y-94792133D01*
X133669968Y-94618089D01*
X133776103Y-94419523D01*
X133791569Y-94368538D01*
X133868475Y-94291632D01*
X134030990Y-94048411D01*
X134142932Y-93778158D01*
X134200000Y-93491260D01*
X134200000Y-93198740D01*
X134142932Y-92911842D01*
X134030990Y-92641589D01*
X133868475Y-92398368D01*
X133736620Y-92266513D01*
X133809180Y-92244502D01*
X133919494Y-92185537D01*
X134016185Y-92106185D01*
X134095537Y-92009494D01*
X134154502Y-91899180D01*
X134190812Y-91779482D01*
X134203072Y-91655000D01*
X134203072Y-89955000D01*
X134190812Y-89830518D01*
X134154502Y-89710820D01*
X134095537Y-89600506D01*
X134016185Y-89503815D01*
X133919494Y-89424463D01*
X133809180Y-89365498D01*
X133689482Y-89329188D01*
X133565000Y-89316928D01*
X131865000Y-89316928D01*
X131740518Y-89329188D01*
X131620820Y-89365498D01*
X131510506Y-89424463D01*
X131413815Y-89503815D01*
X131334463Y-89600506D01*
X131275498Y-89710820D01*
X131239188Y-89830518D01*
X131226928Y-89955000D01*
X131226928Y-91655000D01*
X131239188Y-91779482D01*
X131275498Y-91899180D01*
X131334463Y-92009494D01*
X131413815Y-92106185D01*
X131510506Y-92185537D01*
X131620820Y-92244502D01*
X131693380Y-92266513D01*
X131561525Y-92398368D01*
X131399010Y-92641589D01*
X131287068Y-92911842D01*
X131230000Y-93198740D01*
X131230000Y-93491260D01*
X131287068Y-93778158D01*
X131290972Y-93787582D01*
X128771482Y-96307073D01*
X128727867Y-96342867D01*
X128585032Y-96516912D01*
X128478897Y-96715478D01*
X128413539Y-96930934D01*
X128397000Y-97098855D01*
X128397000Y-97098861D01*
X128391471Y-97155000D01*
X124131788Y-97155000D01*
X124083737Y-97065106D01*
X124004385Y-96968415D01*
X123907694Y-96889063D01*
X123797380Y-96830098D01*
X123677682Y-96793788D01*
X123553200Y-96781528D01*
X121553200Y-96781528D01*
X121428718Y-96793788D01*
X121309020Y-96830098D01*
X121198706Y-96889063D01*
X121102015Y-96968415D01*
X121022663Y-97065106D01*
X120963698Y-97175420D01*
X120927388Y-97295118D01*
X120915128Y-97419600D01*
X116230000Y-97419600D01*
X116230000Y-93183967D01*
X127270000Y-93183967D01*
X127270000Y-93506033D01*
X127332832Y-93821912D01*
X127456082Y-94119463D01*
X127635013Y-94387252D01*
X127862748Y-94614987D01*
X128130537Y-94793918D01*
X128428088Y-94917168D01*
X128743967Y-94980000D01*
X129066033Y-94980000D01*
X129381912Y-94917168D01*
X129679463Y-94793918D01*
X129947252Y-94614987D01*
X130174987Y-94387252D01*
X130353918Y-94119463D01*
X130477168Y-93821912D01*
X130540000Y-93506033D01*
X130540000Y-93183967D01*
X130477168Y-92868088D01*
X130353918Y-92570537D01*
X130174987Y-92302748D01*
X129947252Y-92075013D01*
X129679463Y-91896082D01*
X129381912Y-91772832D01*
X129066033Y-91710000D01*
X128743967Y-91710000D01*
X128428088Y-91772832D01*
X128130537Y-91896082D01*
X127862748Y-92075013D01*
X127635013Y-92302748D01*
X127456082Y-92570537D01*
X127332832Y-92868088D01*
X127270000Y-93183967D01*
X116230000Y-93183967D01*
X116230000Y-85578740D01*
X126150000Y-85578740D01*
X126150000Y-85871260D01*
X126207068Y-86158158D01*
X126319010Y-86428411D01*
X126481525Y-86671632D01*
X126688368Y-86878475D01*
X126931589Y-87040990D01*
X127201842Y-87152932D01*
X127488740Y-87210000D01*
X127781260Y-87210000D01*
X128068158Y-87152932D01*
X128338411Y-87040990D01*
X128581632Y-86878475D01*
X128788475Y-86671632D01*
X128950990Y-86428411D01*
X129062932Y-86158158D01*
X129120000Y-85871260D01*
X129120000Y-85578740D01*
X131230000Y-85578740D01*
X131230000Y-85871260D01*
X131287068Y-86158158D01*
X131399010Y-86428411D01*
X131561525Y-86671632D01*
X131768368Y-86878475D01*
X132011589Y-87040990D01*
X132281842Y-87152932D01*
X132568740Y-87210000D01*
X132861260Y-87210000D01*
X133148158Y-87152932D01*
X133418411Y-87040990D01*
X133661632Y-86878475D01*
X133868475Y-86671632D01*
X133985000Y-86497240D01*
X134101525Y-86671632D01*
X134308368Y-86878475D01*
X134551589Y-87040990D01*
X134821842Y-87152932D01*
X135108740Y-87210000D01*
X135401260Y-87210000D01*
X135688158Y-87152932D01*
X135958411Y-87040990D01*
X136201632Y-86878475D01*
X136408475Y-86671632D01*
X136570990Y-86428411D01*
X136682932Y-86158158D01*
X136740000Y-85871260D01*
X136740000Y-85578740D01*
X136682932Y-85291842D01*
X136570990Y-85021589D01*
X136408475Y-84778368D01*
X136201632Y-84571525D01*
X135958411Y-84409010D01*
X135688158Y-84297068D01*
X135401260Y-84240000D01*
X135108740Y-84240000D01*
X134821842Y-84297068D01*
X134551589Y-84409010D01*
X134308368Y-84571525D01*
X134101525Y-84778368D01*
X133985000Y-84952760D01*
X133868475Y-84778368D01*
X133661632Y-84571525D01*
X133418411Y-84409010D01*
X133148158Y-84297068D01*
X132861260Y-84240000D01*
X132568740Y-84240000D01*
X132281842Y-84297068D01*
X132011589Y-84409010D01*
X131768368Y-84571525D01*
X131561525Y-84778368D01*
X131399010Y-85021589D01*
X131287068Y-85291842D01*
X131230000Y-85578740D01*
X129120000Y-85578740D01*
X129062932Y-85291842D01*
X128950990Y-85021589D01*
X128788475Y-84778368D01*
X128581632Y-84571525D01*
X128338411Y-84409010D01*
X128068158Y-84297068D01*
X127781260Y-84240000D01*
X127488740Y-84240000D01*
X127201842Y-84297068D01*
X126931589Y-84409010D01*
X126688368Y-84571525D01*
X126481525Y-84778368D01*
X126319010Y-85021589D01*
X126207068Y-85291842D01*
X126150000Y-85578740D01*
X116230000Y-85578740D01*
X116230000Y-82964872D01*
X117780000Y-82964872D01*
X117780000Y-83405128D01*
X117865890Y-83836925D01*
X118034369Y-84243669D01*
X118278962Y-84609729D01*
X118590271Y-84921038D01*
X118956331Y-85165631D01*
X119363075Y-85334110D01*
X119794872Y-85420000D01*
X120235128Y-85420000D01*
X120666925Y-85334110D01*
X121073669Y-85165631D01*
X121439729Y-84921038D01*
X121751038Y-84609729D01*
X121995631Y-84243669D01*
X122164110Y-83836925D01*
X122250000Y-83405128D01*
X122250000Y-82964872D01*
X122164110Y-82533075D01*
X121995631Y-82126331D01*
X121751038Y-81760271D01*
X121439729Y-81448962D01*
X121073669Y-81204369D01*
X120666925Y-81035890D01*
X120235128Y-80950000D01*
X119794872Y-80950000D01*
X119363075Y-81035890D01*
X118956331Y-81204369D01*
X118590271Y-81448962D01*
X118278962Y-81760271D01*
X118034369Y-82126331D01*
X117865890Y-82533075D01*
X117780000Y-82964872D01*
X116230000Y-82964872D01*
X116230000Y-80677277D01*
X116256815Y-80403796D01*
X116326867Y-80171774D01*
X116440650Y-79957778D01*
X116593832Y-79769959D01*
X116780577Y-79615470D01*
X116993769Y-79500199D01*
X117225300Y-79428528D01*
X117496725Y-79400000D01*
X137668000Y-79400000D01*
X137668000Y-124435000D01*
G36*
X160261204Y-79426815D02*
G01*
X160493226Y-79496867D01*
X160707222Y-79610650D01*
X160895041Y-79763832D01*
X161049530Y-79950577D01*
X161164801Y-80163769D01*
X161236472Y-80395300D01*
X161265000Y-80666725D01*
X161265000Y-93853000D01*
X148082000Y-93853000D01*
X148082000Y-92075000D01*
X148079560Y-92050224D01*
X148072333Y-92026399D01*
X148060597Y-92004443D01*
X148044803Y-91985197D01*
X148025557Y-91969403D01*
X148003601Y-91957667D01*
X147979776Y-91950440D01*
X147955000Y-91948000D01*
X139192000Y-91948000D01*
X139192000Y-90643967D01*
X154575000Y-90643967D01*
X154575000Y-90966033D01*
X154637832Y-91281912D01*
X154761082Y-91579463D01*
X154940013Y-91847252D01*
X155167748Y-92074987D01*
X155435537Y-92253918D01*
X155733088Y-92377168D01*
X156048967Y-92440000D01*
X156371033Y-92440000D01*
X156686912Y-92377168D01*
X156984463Y-92253918D01*
X157252252Y-92074987D01*
X157479987Y-91847252D01*
X157658918Y-91579463D01*
X157782168Y-91281912D01*
X157845000Y-90966033D01*
X157845000Y-90643967D01*
X157782168Y-90328088D01*
X157658918Y-90030537D01*
X157608446Y-89955000D01*
X157896928Y-89955000D01*
X157896928Y-91655000D01*
X157909188Y-91779482D01*
X157945498Y-91899180D01*
X158004463Y-92009494D01*
X158083815Y-92106185D01*
X158180506Y-92185537D01*
X158290820Y-92244502D01*
X158410518Y-92280812D01*
X158535000Y-92293072D01*
X160235000Y-92293072D01*
X160359482Y-92280812D01*
X160479180Y-92244502D01*
X160589494Y-92185537D01*
X160686185Y-92106185D01*
X160765537Y-92009494D01*
X160824502Y-91899180D01*
X160860812Y-91779482D01*
X160873072Y-91655000D01*
X160873072Y-89955000D01*
X160860812Y-89830518D01*
X160824502Y-89710820D01*
X160765537Y-89600506D01*
X160686185Y-89503815D01*
X160589494Y-89424463D01*
X160479180Y-89365498D01*
X160359482Y-89329188D01*
X160235000Y-89316928D01*
X158535000Y-89316928D01*
X158410518Y-89329188D01*
X158290820Y-89365498D01*
X158180506Y-89424463D01*
X158083815Y-89503815D01*
X158004463Y-89600506D01*
X157945498Y-89710820D01*
X157909188Y-89830518D01*
X157896928Y-89955000D01*
X157608446Y-89955000D01*
X157479987Y-89762748D01*
X157252252Y-89535013D01*
X156984463Y-89356082D01*
X156686912Y-89232832D01*
X156371033Y-89170000D01*
X156048967Y-89170000D01*
X155733088Y-89232832D01*
X155435537Y-89356082D01*
X155167748Y-89535013D01*
X154940013Y-89762748D01*
X154761082Y-90030537D01*
X154637832Y-90328088D01*
X154575000Y-90643967D01*
X139192000Y-90643967D01*
X139192000Y-86682107D01*
X139388368Y-86878475D01*
X139631589Y-87040990D01*
X139901842Y-87152932D01*
X140188740Y-87210000D01*
X140481260Y-87210000D01*
X140768158Y-87152932D01*
X141038411Y-87040990D01*
X141281632Y-86878475D01*
X141488475Y-86671632D01*
X141605000Y-86497240D01*
X141721525Y-86671632D01*
X141928368Y-86878475D01*
X142171589Y-87040990D01*
X142441842Y-87152932D01*
X142728740Y-87210000D01*
X143021260Y-87210000D01*
X143308158Y-87152932D01*
X143578411Y-87040990D01*
X143821632Y-86878475D01*
X144028475Y-86671632D01*
X144190990Y-86428411D01*
X144302932Y-86158158D01*
X144360000Y-85871260D01*
X144360000Y-85578740D01*
X144302932Y-85291842D01*
X144190990Y-85021589D01*
X144028475Y-84778368D01*
X143821632Y-84571525D01*
X143578411Y-84409010D01*
X143308158Y-84297068D01*
X143021260Y-84240000D01*
X142728740Y-84240000D01*
X142441842Y-84297068D01*
X142171589Y-84409010D01*
X141928368Y-84571525D01*
X141721525Y-84778368D01*
X141605000Y-84952760D01*
X141488475Y-84778368D01*
X141281632Y-84571525D01*
X141038411Y-84409010D01*
X140768158Y-84297068D01*
X140481260Y-84240000D01*
X140188740Y-84240000D01*
X139901842Y-84297068D01*
X139631589Y-84409010D01*
X139388368Y-84571525D01*
X139192000Y-84767893D01*
X139192000Y-82964872D01*
X155245000Y-82964872D01*
X155245000Y-83405128D01*
X155330890Y-83836925D01*
X155499369Y-84243669D01*
X155743962Y-84609729D01*
X156055271Y-84921038D01*
X156421331Y-85165631D01*
X156828075Y-85334110D01*
X157259872Y-85420000D01*
X157700128Y-85420000D01*
X158131925Y-85334110D01*
X158538669Y-85165631D01*
X158904729Y-84921038D01*
X159216038Y-84609729D01*
X159460631Y-84243669D01*
X159629110Y-83836925D01*
X159715000Y-83405128D01*
X159715000Y-82964872D01*
X159629110Y-82533075D01*
X159460631Y-82126331D01*
X159216038Y-81760271D01*
X158904729Y-81448962D01*
X158538669Y-81204369D01*
X158131925Y-81035890D01*
X157700128Y-80950000D01*
X157259872Y-80950000D01*
X156828075Y-81035890D01*
X156421331Y-81204369D01*
X156055271Y-81448962D01*
X155743962Y-81760271D01*
X155499369Y-82126331D01*
X155330890Y-82533075D01*
X155245000Y-82964872D01*
X139192000Y-82964872D01*
X139192000Y-79400000D01*
X159987723Y-79400000D01*
X160261204Y-79426815D01*
G37*
X160261204Y-79426815D02*
X160493226Y-79496867D01*
X160707222Y-79610650D01*
X160895041Y-79763832D01*
X161049530Y-79950577D01*
X161164801Y-80163769D01*
X161236472Y-80395300D01*
X161265000Y-80666725D01*
X161265000Y-93853000D01*
X148082000Y-93853000D01*
X148082000Y-92075000D01*
X148079560Y-92050224D01*
X148072333Y-92026399D01*
X148060597Y-92004443D01*
X148044803Y-91985197D01*
X148025557Y-91969403D01*
X148003601Y-91957667D01*
X147979776Y-91950440D01*
X147955000Y-91948000D01*
X139192000Y-91948000D01*
X139192000Y-90643967D01*
X154575000Y-90643967D01*
X154575000Y-90966033D01*
X154637832Y-91281912D01*
X154761082Y-91579463D01*
X154940013Y-91847252D01*
X155167748Y-92074987D01*
X155435537Y-92253918D01*
X155733088Y-92377168D01*
X156048967Y-92440000D01*
X156371033Y-92440000D01*
X156686912Y-92377168D01*
X156984463Y-92253918D01*
X157252252Y-92074987D01*
X157479987Y-91847252D01*
X157658918Y-91579463D01*
X157782168Y-91281912D01*
X157845000Y-90966033D01*
X157845000Y-90643967D01*
X157782168Y-90328088D01*
X157658918Y-90030537D01*
X157608446Y-89955000D01*
X157896928Y-89955000D01*
X157896928Y-91655000D01*
X157909188Y-91779482D01*
X157945498Y-91899180D01*
X158004463Y-92009494D01*
X158083815Y-92106185D01*
X158180506Y-92185537D01*
X158290820Y-92244502D01*
X158410518Y-92280812D01*
X158535000Y-92293072D01*
X160235000Y-92293072D01*
X160359482Y-92280812D01*
X160479180Y-92244502D01*
X160589494Y-92185537D01*
X160686185Y-92106185D01*
X160765537Y-92009494D01*
X160824502Y-91899180D01*
X160860812Y-91779482D01*
X160873072Y-91655000D01*
X160873072Y-89955000D01*
X160860812Y-89830518D01*
X160824502Y-89710820D01*
X160765537Y-89600506D01*
X160686185Y-89503815D01*
X160589494Y-89424463D01*
X160479180Y-89365498D01*
X160359482Y-89329188D01*
X160235000Y-89316928D01*
X158535000Y-89316928D01*
X158410518Y-89329188D01*
X158290820Y-89365498D01*
X158180506Y-89424463D01*
X158083815Y-89503815D01*
X158004463Y-89600506D01*
X157945498Y-89710820D01*
X157909188Y-89830518D01*
X157896928Y-89955000D01*
X157608446Y-89955000D01*
X157479987Y-89762748D01*
X157252252Y-89535013D01*
X156984463Y-89356082D01*
X156686912Y-89232832D01*
X156371033Y-89170000D01*
X156048967Y-89170000D01*
X155733088Y-89232832D01*
X155435537Y-89356082D01*
X155167748Y-89535013D01*
X154940013Y-89762748D01*
X154761082Y-90030537D01*
X154637832Y-90328088D01*
X154575000Y-90643967D01*
X139192000Y-90643967D01*
X139192000Y-86682107D01*
X139388368Y-86878475D01*
X139631589Y-87040990D01*
X139901842Y-87152932D01*
X140188740Y-87210000D01*
X140481260Y-87210000D01*
X140768158Y-87152932D01*
X141038411Y-87040990D01*
X141281632Y-86878475D01*
X141488475Y-86671632D01*
X141605000Y-86497240D01*
X141721525Y-86671632D01*
X141928368Y-86878475D01*
X142171589Y-87040990D01*
X142441842Y-87152932D01*
X142728740Y-87210000D01*
X143021260Y-87210000D01*
X143308158Y-87152932D01*
X143578411Y-87040990D01*
X143821632Y-86878475D01*
X144028475Y-86671632D01*
X144190990Y-86428411D01*
X144302932Y-86158158D01*
X144360000Y-85871260D01*
X144360000Y-85578740D01*
X144302932Y-85291842D01*
X144190990Y-85021589D01*
X144028475Y-84778368D01*
X143821632Y-84571525D01*
X143578411Y-84409010D01*
X143308158Y-84297068D01*
X143021260Y-84240000D01*
X142728740Y-84240000D01*
X142441842Y-84297068D01*
X142171589Y-84409010D01*
X141928368Y-84571525D01*
X141721525Y-84778368D01*
X141605000Y-84952760D01*
X141488475Y-84778368D01*
X141281632Y-84571525D01*
X141038411Y-84409010D01*
X140768158Y-84297068D01*
X140481260Y-84240000D01*
X140188740Y-84240000D01*
X139901842Y-84297068D01*
X139631589Y-84409010D01*
X139388368Y-84571525D01*
X139192000Y-84767893D01*
X139192000Y-82964872D01*
X155245000Y-82964872D01*
X155245000Y-83405128D01*
X155330890Y-83836925D01*
X155499369Y-84243669D01*
X155743962Y-84609729D01*
X156055271Y-84921038D01*
X156421331Y-85165631D01*
X156828075Y-85334110D01*
X157259872Y-85420000D01*
X157700128Y-85420000D01*
X158131925Y-85334110D01*
X158538669Y-85165631D01*
X158904729Y-84921038D01*
X159216038Y-84609729D01*
X159460631Y-84243669D01*
X159629110Y-83836925D01*
X159715000Y-83405128D01*
X159715000Y-82964872D01*
X159629110Y-82533075D01*
X159460631Y-82126331D01*
X159216038Y-81760271D01*
X158904729Y-81448962D01*
X158538669Y-81204369D01*
X158131925Y-81035890D01*
X157700128Y-80950000D01*
X157259872Y-80950000D01*
X156828075Y-81035890D01*
X156421331Y-81204369D01*
X156055271Y-81448962D01*
X155743962Y-81760271D01*
X155499369Y-82126331D01*
X155330890Y-82533075D01*
X155245000Y-82964872D01*
X139192000Y-82964872D01*
X139192000Y-79400000D01*
X159987723Y-79400000D01*
X160261204Y-79426815D01*
G36*
X147193000Y-95250000D02*
G01*
X147195440Y-95274776D01*
X147202667Y-95298601D01*
X147214403Y-95320557D01*
X147230197Y-95339803D01*
X147249443Y-95355597D01*
X147271399Y-95367333D01*
X147295224Y-95374560D01*
X147320000Y-95377000D01*
X151650764Y-95377000D01*
X146951765Y-100076000D01*
X144042468Y-100076000D01*
X144000256Y-100047795D01*
X143811898Y-99969774D01*
X143611939Y-99930000D01*
X143408061Y-99930000D01*
X143208102Y-99969774D01*
X143019744Y-100047795D01*
X142850226Y-100161063D01*
X142706063Y-100305226D01*
X142592795Y-100474744D01*
X142514774Y-100663102D01*
X142475000Y-100863061D01*
X142475000Y-101066939D01*
X142514774Y-101266898D01*
X142592795Y-101455256D01*
X142621001Y-101497469D01*
X142621000Y-113132532D01*
X142592795Y-113174744D01*
X142514774Y-113363102D01*
X142475000Y-113563061D01*
X142475000Y-113766939D01*
X142514774Y-113966898D01*
X142592795Y-114155256D01*
X142706063Y-114324774D01*
X142850226Y-114468937D01*
X143019744Y-114582205D01*
X143208102Y-114660226D01*
X143408061Y-114700000D01*
X143611939Y-114700000D01*
X143811898Y-114660226D01*
X144000256Y-114582205D01*
X144169774Y-114468937D01*
X144313937Y-114324774D01*
X144427205Y-114155256D01*
X144505226Y-113966898D01*
X144545000Y-113766939D01*
X144545000Y-113563061D01*
X144505226Y-113363102D01*
X144427205Y-113174744D01*
X144399000Y-113132532D01*
X144399000Y-109872528D01*
X144640537Y-110033918D01*
X144938088Y-110157168D01*
X145253967Y-110220000D01*
X145576033Y-110220000D01*
X145891912Y-110157168D01*
X146189463Y-110033918D01*
X146457252Y-109854987D01*
X146684987Y-109627252D01*
X146863918Y-109359463D01*
X146987168Y-109061912D01*
X147050000Y-108746033D01*
X147050000Y-108423967D01*
X146987168Y-108108088D01*
X146863918Y-107810537D01*
X146684987Y-107542748D01*
X146457252Y-107315013D01*
X146189463Y-107136082D01*
X145891912Y-107012832D01*
X145576033Y-106950000D01*
X145253967Y-106950000D01*
X144938088Y-107012832D01*
X144640537Y-107136082D01*
X144399000Y-107297472D01*
X144399000Y-101854000D01*
X147276340Y-101854000D01*
X147320000Y-101858300D01*
X147363660Y-101854000D01*
X147363667Y-101854000D01*
X147494274Y-101841136D01*
X147661851Y-101790303D01*
X147816291Y-101707753D01*
X147951659Y-101596659D01*
X147979499Y-101562736D01*
X148723495Y-100818740D01*
X157900000Y-100818740D01*
X157900000Y-101111260D01*
X157957068Y-101398158D01*
X158069010Y-101668411D01*
X158231525Y-101911632D01*
X158438368Y-102118475D01*
X158612760Y-102235000D01*
X158438368Y-102351525D01*
X158231525Y-102558368D01*
X158069010Y-102801589D01*
X157957068Y-103071842D01*
X157900000Y-103358740D01*
X157900000Y-103651260D01*
X157957068Y-103938158D01*
X158069010Y-104208411D01*
X158231525Y-104451632D01*
X158438368Y-104658475D01*
X158612760Y-104775000D01*
X158438368Y-104891525D01*
X158231525Y-105098368D01*
X158069010Y-105341589D01*
X157957068Y-105611842D01*
X157900000Y-105898740D01*
X157900000Y-106191260D01*
X157957068Y-106478158D01*
X158069010Y-106748411D01*
X158231525Y-106991632D01*
X158438368Y-107198475D01*
X158681589Y-107360990D01*
X158951842Y-107472932D01*
X159238740Y-107530000D01*
X159531260Y-107530000D01*
X159818158Y-107472932D01*
X160088411Y-107360990D01*
X160331632Y-107198475D01*
X160538475Y-106991632D01*
X160700990Y-106748411D01*
X160812932Y-106478158D01*
X160870000Y-106191260D01*
X160870000Y-105898740D01*
X160812932Y-105611842D01*
X160700990Y-105341589D01*
X160538475Y-105098368D01*
X160331632Y-104891525D01*
X160157240Y-104775000D01*
X160331632Y-104658475D01*
X160538475Y-104451632D01*
X160700990Y-104208411D01*
X160812932Y-103938158D01*
X160870000Y-103651260D01*
X160870000Y-103358740D01*
X160812932Y-103071842D01*
X160700990Y-102801589D01*
X160538475Y-102558368D01*
X160331632Y-102351525D01*
X160157240Y-102235000D01*
X160331632Y-102118475D01*
X160538475Y-101911632D01*
X160700990Y-101668411D01*
X160812932Y-101398158D01*
X160870000Y-101111260D01*
X160870000Y-100818740D01*
X160812932Y-100531842D01*
X160700990Y-100261589D01*
X160538475Y-100018368D01*
X160331632Y-99811525D01*
X160088411Y-99649010D01*
X159818158Y-99537068D01*
X159531260Y-99480000D01*
X159238740Y-99480000D01*
X158951842Y-99537068D01*
X158681589Y-99649010D01*
X158438368Y-99811525D01*
X158231525Y-100018368D01*
X158069010Y-100261589D01*
X157957068Y-100531842D01*
X157900000Y-100818740D01*
X148723495Y-100818740D01*
X152768236Y-96774000D01*
X154837613Y-96774000D01*
X154940013Y-96927252D01*
X155167748Y-97154987D01*
X155435537Y-97333918D01*
X155733088Y-97457168D01*
X156048967Y-97520000D01*
X156371033Y-97520000D01*
X156686912Y-97457168D01*
X156984463Y-97333918D01*
X157252252Y-97154987D01*
X157479987Y-96927252D01*
X157582387Y-96774000D01*
X158193017Y-96774000D01*
X158231525Y-96831632D01*
X158438368Y-97038475D01*
X158681589Y-97200990D01*
X158951842Y-97312932D01*
X159238740Y-97370000D01*
X159531260Y-97370000D01*
X159818158Y-97312932D01*
X160088411Y-97200990D01*
X160331632Y-97038475D01*
X160538475Y-96831632D01*
X160700990Y-96588411D01*
X160812932Y-96318158D01*
X160870000Y-96031260D01*
X160870000Y-95738740D01*
X160812932Y-95451842D01*
X160781932Y-95377000D01*
X161265000Y-95377000D01*
X161265001Y-123157712D01*
X161238185Y-123431205D01*
X161168133Y-123663226D01*
X161054350Y-123877222D01*
X160901169Y-124065039D01*
X160714424Y-124219529D01*
X160501231Y-124334802D01*
X160269701Y-124406472D01*
X159998276Y-124435000D01*
X139192000Y-124435000D01*
X139192000Y-120429872D01*
X155245000Y-120429872D01*
X155245000Y-120870128D01*
X155330890Y-121301925D01*
X155499369Y-121708669D01*
X155743962Y-122074729D01*
X156055271Y-122386038D01*
X156421331Y-122630631D01*
X156828075Y-122799110D01*
X157259872Y-122885000D01*
X157700128Y-122885000D01*
X158131925Y-122799110D01*
X158538669Y-122630631D01*
X158904729Y-122386038D01*
X159216038Y-122074729D01*
X159460631Y-121708669D01*
X159629110Y-121301925D01*
X159715000Y-120870128D01*
X159715000Y-120429872D01*
X159629110Y-119998075D01*
X159460631Y-119591331D01*
X159216038Y-119225271D01*
X158904729Y-118913962D01*
X158538669Y-118669369D01*
X158131925Y-118500890D01*
X157700128Y-118415000D01*
X157259872Y-118415000D01*
X156828075Y-118500890D01*
X156421331Y-118669369D01*
X156055271Y-118913962D01*
X155743962Y-119225271D01*
X155499369Y-119591331D01*
X155330890Y-119998075D01*
X155245000Y-120429872D01*
X139192000Y-120429872D01*
X139192000Y-95723967D01*
X143780000Y-95723967D01*
X143780000Y-96046033D01*
X143842832Y-96361912D01*
X143966082Y-96659463D01*
X144145013Y-96927252D01*
X144372748Y-97154987D01*
X144640537Y-97333918D01*
X144938088Y-97457168D01*
X145253967Y-97520000D01*
X145576033Y-97520000D01*
X145891912Y-97457168D01*
X146189463Y-97333918D01*
X146457252Y-97154987D01*
X146684987Y-96927252D01*
X146863918Y-96659463D01*
X146987168Y-96361912D01*
X147050000Y-96046033D01*
X147050000Y-95723967D01*
X146987168Y-95408088D01*
X146863918Y-95110537D01*
X146684987Y-94842748D01*
X146457252Y-94615013D01*
X146189463Y-94436082D01*
X145891912Y-94312832D01*
X145576033Y-94250000D01*
X145253967Y-94250000D01*
X144938088Y-94312832D01*
X144640537Y-94436082D01*
X144372748Y-94615013D01*
X144145013Y-94842748D01*
X143966082Y-95110537D01*
X143842832Y-95408088D01*
X143780000Y-95723967D01*
X139192000Y-95723967D01*
X139192000Y-93472000D01*
X147193000Y-93472000D01*
X147193000Y-95250000D01*
G37*
X147193000Y-95250000D02*
X147195440Y-95274776D01*
X147202667Y-95298601D01*
X147214403Y-95320557D01*
X147230197Y-95339803D01*
X147249443Y-95355597D01*
X147271399Y-95367333D01*
X147295224Y-95374560D01*
X147320000Y-95377000D01*
X151650764Y-95377000D01*
X146951765Y-100076000D01*
X144042468Y-100076000D01*
X144000256Y-100047795D01*
X143811898Y-99969774D01*
X143611939Y-99930000D01*
X143408061Y-99930000D01*
X143208102Y-99969774D01*
X143019744Y-100047795D01*
X142850226Y-100161063D01*
X142706063Y-100305226D01*
X142592795Y-100474744D01*
X142514774Y-100663102D01*
X142475000Y-100863061D01*
X142475000Y-101066939D01*
X142514774Y-101266898D01*
X142592795Y-101455256D01*
X142621001Y-101497469D01*
X142621000Y-113132532D01*
X142592795Y-113174744D01*
X142514774Y-113363102D01*
X142475000Y-113563061D01*
X142475000Y-113766939D01*
X142514774Y-113966898D01*
X142592795Y-114155256D01*
X142706063Y-114324774D01*
X142850226Y-114468937D01*
X143019744Y-114582205D01*
X143208102Y-114660226D01*
X143408061Y-114700000D01*
X143611939Y-114700000D01*
X143811898Y-114660226D01*
X144000256Y-114582205D01*
X144169774Y-114468937D01*
X144313937Y-114324774D01*
X144427205Y-114155256D01*
X144505226Y-113966898D01*
X144545000Y-113766939D01*
X144545000Y-113563061D01*
X144505226Y-113363102D01*
X144427205Y-113174744D01*
X144399000Y-113132532D01*
X144399000Y-109872528D01*
X144640537Y-110033918D01*
X144938088Y-110157168D01*
X145253967Y-110220000D01*
X145576033Y-110220000D01*
X145891912Y-110157168D01*
X146189463Y-110033918D01*
X146457252Y-109854987D01*
X146684987Y-109627252D01*
X146863918Y-109359463D01*
X146987168Y-109061912D01*
X147050000Y-108746033D01*
X147050000Y-108423967D01*
X146987168Y-108108088D01*
X146863918Y-107810537D01*
X146684987Y-107542748D01*
X146457252Y-107315013D01*
X146189463Y-107136082D01*
X145891912Y-107012832D01*
X145576033Y-106950000D01*
X145253967Y-106950000D01*
X144938088Y-107012832D01*
X144640537Y-107136082D01*
X144399000Y-107297472D01*
X144399000Y-101854000D01*
X147276340Y-101854000D01*
X147320000Y-101858300D01*
X147363660Y-101854000D01*
X147363667Y-101854000D01*
X147494274Y-101841136D01*
X147661851Y-101790303D01*
X147816291Y-101707753D01*
X147951659Y-101596659D01*
X147979499Y-101562736D01*
X148723495Y-100818740D01*
X157900000Y-100818740D01*
X157900000Y-101111260D01*
X157957068Y-101398158D01*
X158069010Y-101668411D01*
X158231525Y-101911632D01*
X158438368Y-102118475D01*
X158612760Y-102235000D01*
X158438368Y-102351525D01*
X158231525Y-102558368D01*
X158069010Y-102801589D01*
X157957068Y-103071842D01*
X157900000Y-103358740D01*
X157900000Y-103651260D01*
X157957068Y-103938158D01*
X158069010Y-104208411D01*
X158231525Y-104451632D01*
X158438368Y-104658475D01*
X158612760Y-104775000D01*
X158438368Y-104891525D01*
X158231525Y-105098368D01*
X158069010Y-105341589D01*
X157957068Y-105611842D01*
X157900000Y-105898740D01*
X157900000Y-106191260D01*
X157957068Y-106478158D01*
X158069010Y-106748411D01*
X158231525Y-106991632D01*
X158438368Y-107198475D01*
X158681589Y-107360990D01*
X158951842Y-107472932D01*
X159238740Y-107530000D01*
X159531260Y-107530000D01*
X159818158Y-107472932D01*
X160088411Y-107360990D01*
X160331632Y-107198475D01*
X160538475Y-106991632D01*
X160700990Y-106748411D01*
X160812932Y-106478158D01*
X160870000Y-106191260D01*
X160870000Y-105898740D01*
X160812932Y-105611842D01*
X160700990Y-105341589D01*
X160538475Y-105098368D01*
X160331632Y-104891525D01*
X160157240Y-104775000D01*
X160331632Y-104658475D01*
X160538475Y-104451632D01*
X160700990Y-104208411D01*
X160812932Y-103938158D01*
X160870000Y-103651260D01*
X160870000Y-103358740D01*
X160812932Y-103071842D01*
X160700990Y-102801589D01*
X160538475Y-102558368D01*
X160331632Y-102351525D01*
X160157240Y-102235000D01*
X160331632Y-102118475D01*
X160538475Y-101911632D01*
X160700990Y-101668411D01*
X160812932Y-101398158D01*
X160870000Y-101111260D01*
X160870000Y-100818740D01*
X160812932Y-100531842D01*
X160700990Y-100261589D01*
X160538475Y-100018368D01*
X160331632Y-99811525D01*
X160088411Y-99649010D01*
X159818158Y-99537068D01*
X159531260Y-99480000D01*
X159238740Y-99480000D01*
X158951842Y-99537068D01*
X158681589Y-99649010D01*
X158438368Y-99811525D01*
X158231525Y-100018368D01*
X158069010Y-100261589D01*
X157957068Y-100531842D01*
X157900000Y-100818740D01*
X148723495Y-100818740D01*
X152768236Y-96774000D01*
X154837613Y-96774000D01*
X154940013Y-96927252D01*
X155167748Y-97154987D01*
X155435537Y-97333918D01*
X155733088Y-97457168D01*
X156048967Y-97520000D01*
X156371033Y-97520000D01*
X156686912Y-97457168D01*
X156984463Y-97333918D01*
X157252252Y-97154987D01*
X157479987Y-96927252D01*
X157582387Y-96774000D01*
X158193017Y-96774000D01*
X158231525Y-96831632D01*
X158438368Y-97038475D01*
X158681589Y-97200990D01*
X158951842Y-97312932D01*
X159238740Y-97370000D01*
X159531260Y-97370000D01*
X159818158Y-97312932D01*
X160088411Y-97200990D01*
X160331632Y-97038475D01*
X160538475Y-96831632D01*
X160700990Y-96588411D01*
X160812932Y-96318158D01*
X160870000Y-96031260D01*
X160870000Y-95738740D01*
X160812932Y-95451842D01*
X160781932Y-95377000D01*
X161265000Y-95377000D01*
X161265001Y-123157712D01*
X161238185Y-123431205D01*
X161168133Y-123663226D01*
X161054350Y-123877222D01*
X160901169Y-124065039D01*
X160714424Y-124219529D01*
X160501231Y-124334802D01*
X160269701Y-124406472D01*
X159998276Y-124435000D01*
X139192000Y-124435000D01*
X139192000Y-120429872D01*
X155245000Y-120429872D01*
X155245000Y-120870128D01*
X155330890Y-121301925D01*
X155499369Y-121708669D01*
X155743962Y-122074729D01*
X156055271Y-122386038D01*
X156421331Y-122630631D01*
X156828075Y-122799110D01*
X157259872Y-122885000D01*
X157700128Y-122885000D01*
X158131925Y-122799110D01*
X158538669Y-122630631D01*
X158904729Y-122386038D01*
X159216038Y-122074729D01*
X159460631Y-121708669D01*
X159629110Y-121301925D01*
X159715000Y-120870128D01*
X159715000Y-120429872D01*
X159629110Y-119998075D01*
X159460631Y-119591331D01*
X159216038Y-119225271D01*
X158904729Y-118913962D01*
X158538669Y-118669369D01*
X158131925Y-118500890D01*
X157700128Y-118415000D01*
X157259872Y-118415000D01*
X156828075Y-118500890D01*
X156421331Y-118669369D01*
X156055271Y-118913962D01*
X155743962Y-119225271D01*
X155499369Y-119591331D01*
X155330890Y-119998075D01*
X155245000Y-120429872D01*
X139192000Y-120429872D01*
X139192000Y-95723967D01*
X143780000Y-95723967D01*
X143780000Y-96046033D01*
X143842832Y-96361912D01*
X143966082Y-96659463D01*
X144145013Y-96927252D01*
X144372748Y-97154987D01*
X144640537Y-97333918D01*
X144938088Y-97457168D01*
X145253967Y-97520000D01*
X145576033Y-97520000D01*
X145891912Y-97457168D01*
X146189463Y-97333918D01*
X146457252Y-97154987D01*
X146684987Y-96927252D01*
X146863918Y-96659463D01*
X146987168Y-96361912D01*
X147050000Y-96046033D01*
X147050000Y-95723967D01*
X146987168Y-95408088D01*
X146863918Y-95110537D01*
X146684987Y-94842748D01*
X146457252Y-94615013D01*
X146189463Y-94436082D01*
X145891912Y-94312832D01*
X145576033Y-94250000D01*
X145253967Y-94250000D01*
X144938088Y-94312832D01*
X144640537Y-94436082D01*
X144372748Y-94615013D01*
X144145013Y-94842748D01*
X143966082Y-95110537D01*
X143842832Y-95408088D01*
X143780000Y-95723967D01*
X139192000Y-95723967D01*
X139192000Y-93472000D01*
X147193000Y-93472000D01*
X147193000Y-95250000D01*
M02*
