G04 #@! TF.GenerationSoftware,KiCad,Pcbnew,5.1.5-52549c5~84~ubuntu19.04.1*
G04 #@! TF.CreationDate,2019-11-23T15:47:04+01:00*
G04 #@! TF.ProjectId,2ch-4-20mA,3263682d-342d-4323-906d-412e6b696361,rev?*
G04 #@! TF.SameCoordinates,Original*
G04 #@! TF.FileFunction,Soldermask,Top*
G04 #@! TF.FilePolarity,Negative*
%FSLAX46Y46*%
G04 Gerber Fmt 4.6, Leading zero omitted, Abs format (unit mm)*
G04 Created by KiCad (PCBNEW 5.1.5-52549c5~84~ubuntu19.04.1) date 2019-11-23 15:47:04*
%MOMM*%
%LPD*%
G04 APERTURE LIST*
%ADD10C,0.010000*%
%ADD11C,0.100000*%
G04 APERTURE END LIST*
D10*
G36*
X150207616Y-118076579D02*
G01*
X150211262Y-118089976D01*
X150217630Y-118118675D01*
X150226270Y-118160435D01*
X150236735Y-118213016D01*
X150248576Y-118274181D01*
X150261344Y-118341688D01*
X150269486Y-118385510D01*
X150282504Y-118455110D01*
X150294816Y-118519123D01*
X150305988Y-118575432D01*
X150315586Y-118621921D01*
X150323176Y-118656474D01*
X150328326Y-118676973D01*
X150330157Y-118681757D01*
X150341537Y-118688352D01*
X150366525Y-118700076D01*
X150402377Y-118715821D01*
X150446346Y-118734479D01*
X150495686Y-118754940D01*
X150547652Y-118776095D01*
X150599497Y-118796836D01*
X150648476Y-118816053D01*
X150691844Y-118832638D01*
X150726853Y-118845483D01*
X150750758Y-118853477D01*
X150760611Y-118855589D01*
X150772302Y-118849490D01*
X150798098Y-118833373D01*
X150838066Y-118807195D01*
X150892270Y-118770910D01*
X150960778Y-118724475D01*
X151043656Y-118667844D01*
X151140968Y-118600974D01*
X151205113Y-118556747D01*
X151236149Y-118536353D01*
X151262879Y-118520651D01*
X151281144Y-118512009D01*
X151285392Y-118511053D01*
X151294804Y-118517160D01*
X151315179Y-118534513D01*
X151344971Y-118561661D01*
X151382635Y-118597149D01*
X151426623Y-118639527D01*
X151475392Y-118687340D01*
X151516796Y-118728515D01*
X151578304Y-118790358D01*
X151627879Y-118840918D01*
X151666464Y-118881232D01*
X151695002Y-118912342D01*
X151714438Y-118935287D01*
X151725715Y-118951107D01*
X151729778Y-118960841D01*
X151729665Y-118963023D01*
X151723673Y-118974278D01*
X151708743Y-118998299D01*
X151686109Y-119033216D01*
X151657005Y-119077159D01*
X151622666Y-119128257D01*
X151584327Y-119184641D01*
X151559060Y-119221476D01*
X151519068Y-119279987D01*
X151482537Y-119334212D01*
X151450660Y-119382317D01*
X151424634Y-119422467D01*
X151405652Y-119452828D01*
X151394911Y-119471565D01*
X151392912Y-119476588D01*
X151396341Y-119488253D01*
X151405851Y-119513482D01*
X151420280Y-119549557D01*
X151438465Y-119593755D01*
X151459242Y-119643357D01*
X151481449Y-119695642D01*
X151503922Y-119747890D01*
X151525499Y-119797379D01*
X151545016Y-119841390D01*
X151561310Y-119877202D01*
X151573218Y-119902095D01*
X151579577Y-119913347D01*
X151579681Y-119913457D01*
X151587248Y-119917163D01*
X151604472Y-119922214D01*
X151632466Y-119928835D01*
X151672343Y-119937251D01*
X151725216Y-119947688D01*
X151792199Y-119960371D01*
X151874405Y-119975525D01*
X151972946Y-119993376D01*
X151985579Y-119995648D01*
X152048739Y-120007276D01*
X152096540Y-120016808D01*
X152131247Y-120024836D01*
X152155121Y-120031946D01*
X152170427Y-120038727D01*
X152179428Y-120045769D01*
X152179757Y-120046144D01*
X152184095Y-120052270D01*
X152187536Y-120060764D01*
X152190161Y-120073513D01*
X152192050Y-120092407D01*
X152193284Y-120119333D01*
X152193942Y-120156180D01*
X152194105Y-120204838D01*
X152193852Y-120267194D01*
X152193264Y-120345137D01*
X152193126Y-120361319D01*
X152192012Y-120456485D01*
X152190469Y-120533918D01*
X152188491Y-120593701D01*
X152186076Y-120635921D01*
X152183221Y-120660663D01*
X152180864Y-120667729D01*
X152170024Y-120671661D01*
X152143801Y-120678298D01*
X152104354Y-120687178D01*
X152053842Y-120697840D01*
X151994423Y-120709824D01*
X151928257Y-120722669D01*
X151887216Y-120730411D01*
X151818049Y-120743599D01*
X151754330Y-120756283D01*
X151698223Y-120767990D01*
X151651897Y-120778246D01*
X151617518Y-120786580D01*
X151597253Y-120792517D01*
X151592812Y-120794685D01*
X151586205Y-120806530D01*
X151574441Y-120832323D01*
X151558600Y-120869328D01*
X151539761Y-120914809D01*
X151519006Y-120966028D01*
X151497413Y-121020248D01*
X151476065Y-121074733D01*
X151456039Y-121126745D01*
X151438418Y-121173547D01*
X151424280Y-121212404D01*
X151414707Y-121240576D01*
X151410778Y-121255329D01*
X151410737Y-121256015D01*
X151415722Y-121272772D01*
X151428576Y-121297264D01*
X151440941Y-121316172D01*
X151474881Y-121364266D01*
X151511364Y-121416839D01*
X151549026Y-121471836D01*
X151586505Y-121527203D01*
X151622434Y-121580885D01*
X151655450Y-121630828D01*
X151684188Y-121674977D01*
X151707285Y-121711279D01*
X151723377Y-121737678D01*
X151731098Y-121752121D01*
X151731579Y-121753849D01*
X151725486Y-121763244D01*
X151708187Y-121783601D01*
X151681150Y-121813351D01*
X151645846Y-121850925D01*
X151603742Y-121894752D01*
X151556308Y-121943264D01*
X151520158Y-121979732D01*
X151459860Y-122039944D01*
X151410700Y-122088351D01*
X151371492Y-122126024D01*
X151341052Y-122154038D01*
X151318194Y-122173464D01*
X151301733Y-122185375D01*
X151290485Y-122190844D01*
X151286211Y-122191498D01*
X151271670Y-122186177D01*
X151243631Y-122170783D01*
X151202929Y-122145837D01*
X151150401Y-122111864D01*
X151086880Y-122069387D01*
X151037282Y-122035533D01*
X150980746Y-121996911D01*
X150928643Y-121961780D01*
X150882852Y-121931374D01*
X150845255Y-121906921D01*
X150817730Y-121889655D01*
X150802159Y-121880806D01*
X150799615Y-121879895D01*
X150787833Y-121883855D01*
X150763718Y-121894676D01*
X150730635Y-121910767D01*
X150691945Y-121930539D01*
X150686542Y-121933368D01*
X150646656Y-121953617D01*
X150611158Y-121970349D01*
X150583666Y-121981946D01*
X150567799Y-121986791D01*
X150566920Y-121986842D01*
X150549739Y-121979433D01*
X150540042Y-121966789D01*
X150535049Y-121955057D01*
X150523883Y-121928378D01*
X150507178Y-121888279D01*
X150485569Y-121836289D01*
X150459688Y-121773935D01*
X150430171Y-121702743D01*
X150397650Y-121624240D01*
X150362761Y-121539956D01*
X150332741Y-121467388D01*
X150286353Y-121354803D01*
X150246819Y-121257940D01*
X150213896Y-121176168D01*
X150187343Y-121108858D01*
X150166915Y-121055382D01*
X150152371Y-121015109D01*
X150143466Y-120987411D01*
X150139958Y-120971657D01*
X150140075Y-120968300D01*
X150150195Y-120953571D01*
X150171297Y-120934257D01*
X150197791Y-120915203D01*
X150288360Y-120849553D01*
X150363099Y-120778174D01*
X150423518Y-120699466D01*
X150457996Y-120639357D01*
X150495587Y-120545636D01*
X150517048Y-120447290D01*
X150522635Y-120346707D01*
X150512607Y-120246278D01*
X150487221Y-120148388D01*
X150446732Y-120055428D01*
X150391398Y-119969786D01*
X150385072Y-119961733D01*
X150318545Y-119890986D01*
X150240873Y-119829675D01*
X150155881Y-119780257D01*
X150067395Y-119745189D01*
X150033781Y-119736166D01*
X149995415Y-119729684D01*
X149947406Y-119725050D01*
X149895371Y-119722445D01*
X149844927Y-119722052D01*
X149801692Y-119724051D01*
X149774744Y-119727782D01*
X149666550Y-119760341D01*
X149568407Y-119807394D01*
X149480908Y-119868502D01*
X149404644Y-119943223D01*
X149340209Y-120031116D01*
X149319769Y-120066364D01*
X149286952Y-120141799D01*
X149263763Y-120226888D01*
X149251269Y-120315652D01*
X149250536Y-120402113D01*
X149253899Y-120435622D01*
X149276774Y-120542536D01*
X149314899Y-120640277D01*
X149368338Y-120728940D01*
X149437154Y-120808621D01*
X149521409Y-120879417D01*
X149564684Y-120908595D01*
X149597895Y-120931516D01*
X149621827Y-120952067D01*
X149633279Y-120967474D01*
X149633512Y-120968217D01*
X149632146Y-120979274D01*
X149625161Y-121002807D01*
X149612349Y-121039348D01*
X149593506Y-121089431D01*
X149568425Y-121153587D01*
X149536901Y-121232350D01*
X149498729Y-121326250D01*
X149453702Y-121435822D01*
X149440697Y-121467305D01*
X149404339Y-121555209D01*
X149369828Y-121638587D01*
X149337799Y-121715911D01*
X149308885Y-121785653D01*
X149283720Y-121846287D01*
X149262938Y-121896285D01*
X149247172Y-121934121D01*
X149237057Y-121958266D01*
X149233418Y-121966789D01*
X149218884Y-121982921D01*
X149205745Y-121986632D01*
X149191043Y-121982558D01*
X149164342Y-121971584D01*
X149129295Y-121955333D01*
X149089560Y-121935426D01*
X149085205Y-121933159D01*
X149046078Y-121913110D01*
X149012222Y-121896509D01*
X148986969Y-121884937D01*
X148973650Y-121879972D01*
X148972941Y-121879895D01*
X148963277Y-121884773D01*
X148940844Y-121898590D01*
X148907513Y-121920113D01*
X148865156Y-121948114D01*
X148815643Y-121981362D01*
X148760845Y-122018627D01*
X148736192Y-122035533D01*
X148666602Y-122082870D01*
X148606917Y-122122433D01*
X148558075Y-122153632D01*
X148521018Y-122175879D01*
X148496684Y-122188585D01*
X148487439Y-122191498D01*
X148478440Y-122188937D01*
X148464673Y-122180347D01*
X148444973Y-122164674D01*
X148418173Y-122140865D01*
X148383109Y-122107865D01*
X148338615Y-122064620D01*
X148283525Y-122010077D01*
X148252286Y-121978883D01*
X148194171Y-121920570D01*
X148147609Y-121873394D01*
X148111418Y-121836022D01*
X148084419Y-121807119D01*
X148065429Y-121785349D01*
X148053268Y-121769379D01*
X148046754Y-121757874D01*
X148044708Y-121749499D01*
X148045258Y-121744936D01*
X148051631Y-121732539D01*
X148066909Y-121707509D01*
X148089794Y-121671829D01*
X148118989Y-121627482D01*
X148153196Y-121576453D01*
X148191119Y-121520723D01*
X148206884Y-121497783D01*
X148245633Y-121441032D01*
X148280869Y-121388415D01*
X148311351Y-121341866D01*
X148335839Y-121303317D01*
X148353094Y-121274701D01*
X148361874Y-121257950D01*
X148362737Y-121254942D01*
X148359491Y-121242044D01*
X148350475Y-121215422D01*
X148336771Y-121177807D01*
X148319460Y-121131929D01*
X148299623Y-121080520D01*
X148278342Y-121026309D01*
X148256699Y-120972029D01*
X148235775Y-120920409D01*
X148216651Y-120874181D01*
X148200409Y-120836076D01*
X148188131Y-120808824D01*
X148180898Y-120795157D01*
X148180399Y-120794536D01*
X148169358Y-120790181D01*
X148142938Y-120783163D01*
X148103307Y-120773955D01*
X148052635Y-120763030D01*
X147993088Y-120750863D01*
X147926835Y-120737927D01*
X147886086Y-120730240D01*
X147816984Y-120717133D01*
X147753366Y-120704616D01*
X147697392Y-120693148D01*
X147651222Y-120683191D01*
X147617014Y-120675204D01*
X147596927Y-120669646D01*
X147592587Y-120667707D01*
X147589408Y-120655520D01*
X147586670Y-120625725D01*
X147584372Y-120578275D01*
X147582512Y-120513128D01*
X147581088Y-120430237D01*
X147580347Y-120361319D01*
X147579706Y-120280302D01*
X147579386Y-120215219D01*
X147579467Y-120164182D01*
X147580028Y-120125301D01*
X147581150Y-120096687D01*
X147582913Y-120076451D01*
X147585398Y-120062705D01*
X147588683Y-120053560D01*
X147592850Y-120047127D01*
X147593716Y-120046093D01*
X147600725Y-120040356D01*
X147612846Y-120034604D01*
X147631884Y-120028413D01*
X147659642Y-120021360D01*
X147697927Y-120013020D01*
X147748542Y-120002970D01*
X147813291Y-119990788D01*
X147885930Y-119977507D01*
X147954581Y-119964933D01*
X148018154Y-119953043D01*
X148074369Y-119942283D01*
X148120949Y-119933097D01*
X148155614Y-119925932D01*
X148176085Y-119921233D01*
X148180166Y-119919998D01*
X148188889Y-119911410D01*
X148201731Y-119890641D01*
X148219176Y-119856718D01*
X148241706Y-119808669D01*
X148269806Y-119745521D01*
X148289634Y-119699760D01*
X148314301Y-119641925D01*
X148336427Y-119589140D01*
X148355077Y-119543712D01*
X148369314Y-119507949D01*
X148378202Y-119484158D01*
X148380854Y-119474915D01*
X148375891Y-119464912D01*
X148361944Y-119442096D01*
X148340208Y-119408289D01*
X148311880Y-119365311D01*
X148278154Y-119314981D01*
X148240226Y-119259121D01*
X148214414Y-119221476D01*
X148174212Y-119162752D01*
X148137245Y-119108153D01*
X148104747Y-119059548D01*
X148077952Y-119018809D01*
X148058094Y-118987804D01*
X148046409Y-118968405D01*
X148043809Y-118963023D01*
X148045544Y-118955194D01*
X148054160Y-118941647D01*
X148070600Y-118921343D01*
X148095809Y-118893242D01*
X148130730Y-118856304D01*
X148176307Y-118809489D01*
X148233484Y-118751758D01*
X148256677Y-118728515D01*
X148308156Y-118677399D01*
X148356091Y-118630558D01*
X148398937Y-118589444D01*
X148435148Y-118555510D01*
X148463178Y-118530207D01*
X148481481Y-118514990D01*
X148488082Y-118511053D01*
X148501368Y-118515887D01*
X148524929Y-118528810D01*
X148554604Y-118547455D01*
X148568360Y-118556747D01*
X148674212Y-118629673D01*
X148765590Y-118692333D01*
X148842559Y-118744772D01*
X148905186Y-118787034D01*
X148953537Y-118819164D01*
X148987678Y-118841205D01*
X149007675Y-118853204D01*
X149012862Y-118855589D01*
X149024007Y-118853087D01*
X149048805Y-118844706D01*
X149084508Y-118831555D01*
X149128371Y-118814743D01*
X149177648Y-118795379D01*
X149229594Y-118774571D01*
X149281462Y-118753429D01*
X149330507Y-118733061D01*
X149373983Y-118714576D01*
X149409144Y-118699084D01*
X149433244Y-118687692D01*
X149443316Y-118681757D01*
X149446650Y-118671510D01*
X149452706Y-118645836D01*
X149461051Y-118606852D01*
X149471250Y-118556674D01*
X149482872Y-118497420D01*
X149495481Y-118431204D01*
X149503988Y-118385510D01*
X149517104Y-118315207D01*
X149529570Y-118249867D01*
X149540936Y-118191727D01*
X149550755Y-118143028D01*
X149558577Y-118106010D01*
X149563955Y-118082911D01*
X149565858Y-118076579D01*
X149574425Y-118056526D01*
X150199049Y-118056526D01*
X150207616Y-118076579D01*
G37*
X150207616Y-118076579D02*
X150211262Y-118089976D01*
X150217630Y-118118675D01*
X150226270Y-118160435D01*
X150236735Y-118213016D01*
X150248576Y-118274181D01*
X150261344Y-118341688D01*
X150269486Y-118385510D01*
X150282504Y-118455110D01*
X150294816Y-118519123D01*
X150305988Y-118575432D01*
X150315586Y-118621921D01*
X150323176Y-118656474D01*
X150328326Y-118676973D01*
X150330157Y-118681757D01*
X150341537Y-118688352D01*
X150366525Y-118700076D01*
X150402377Y-118715821D01*
X150446346Y-118734479D01*
X150495686Y-118754940D01*
X150547652Y-118776095D01*
X150599497Y-118796836D01*
X150648476Y-118816053D01*
X150691844Y-118832638D01*
X150726853Y-118845483D01*
X150750758Y-118853477D01*
X150760611Y-118855589D01*
X150772302Y-118849490D01*
X150798098Y-118833373D01*
X150838066Y-118807195D01*
X150892270Y-118770910D01*
X150960778Y-118724475D01*
X151043656Y-118667844D01*
X151140968Y-118600974D01*
X151205113Y-118556747D01*
X151236149Y-118536353D01*
X151262879Y-118520651D01*
X151281144Y-118512009D01*
X151285392Y-118511053D01*
X151294804Y-118517160D01*
X151315179Y-118534513D01*
X151344971Y-118561661D01*
X151382635Y-118597149D01*
X151426623Y-118639527D01*
X151475392Y-118687340D01*
X151516796Y-118728515D01*
X151578304Y-118790358D01*
X151627879Y-118840918D01*
X151666464Y-118881232D01*
X151695002Y-118912342D01*
X151714438Y-118935287D01*
X151725715Y-118951107D01*
X151729778Y-118960841D01*
X151729665Y-118963023D01*
X151723673Y-118974278D01*
X151708743Y-118998299D01*
X151686109Y-119033216D01*
X151657005Y-119077159D01*
X151622666Y-119128257D01*
X151584327Y-119184641D01*
X151559060Y-119221476D01*
X151519068Y-119279987D01*
X151482537Y-119334212D01*
X151450660Y-119382317D01*
X151424634Y-119422467D01*
X151405652Y-119452828D01*
X151394911Y-119471565D01*
X151392912Y-119476588D01*
X151396341Y-119488253D01*
X151405851Y-119513482D01*
X151420280Y-119549557D01*
X151438465Y-119593755D01*
X151459242Y-119643357D01*
X151481449Y-119695642D01*
X151503922Y-119747890D01*
X151525499Y-119797379D01*
X151545016Y-119841390D01*
X151561310Y-119877202D01*
X151573218Y-119902095D01*
X151579577Y-119913347D01*
X151579681Y-119913457D01*
X151587248Y-119917163D01*
X151604472Y-119922214D01*
X151632466Y-119928835D01*
X151672343Y-119937251D01*
X151725216Y-119947688D01*
X151792199Y-119960371D01*
X151874405Y-119975525D01*
X151972946Y-119993376D01*
X151985579Y-119995648D01*
X152048739Y-120007276D01*
X152096540Y-120016808D01*
X152131247Y-120024836D01*
X152155121Y-120031946D01*
X152170427Y-120038727D01*
X152179428Y-120045769D01*
X152179757Y-120046144D01*
X152184095Y-120052270D01*
X152187536Y-120060764D01*
X152190161Y-120073513D01*
X152192050Y-120092407D01*
X152193284Y-120119333D01*
X152193942Y-120156180D01*
X152194105Y-120204838D01*
X152193852Y-120267194D01*
X152193264Y-120345137D01*
X152193126Y-120361319D01*
X152192012Y-120456485D01*
X152190469Y-120533918D01*
X152188491Y-120593701D01*
X152186076Y-120635921D01*
X152183221Y-120660663D01*
X152180864Y-120667729D01*
X152170024Y-120671661D01*
X152143801Y-120678298D01*
X152104354Y-120687178D01*
X152053842Y-120697840D01*
X151994423Y-120709824D01*
X151928257Y-120722669D01*
X151887216Y-120730411D01*
X151818049Y-120743599D01*
X151754330Y-120756283D01*
X151698223Y-120767990D01*
X151651897Y-120778246D01*
X151617518Y-120786580D01*
X151597253Y-120792517D01*
X151592812Y-120794685D01*
X151586205Y-120806530D01*
X151574441Y-120832323D01*
X151558600Y-120869328D01*
X151539761Y-120914809D01*
X151519006Y-120966028D01*
X151497413Y-121020248D01*
X151476065Y-121074733D01*
X151456039Y-121126745D01*
X151438418Y-121173547D01*
X151424280Y-121212404D01*
X151414707Y-121240576D01*
X151410778Y-121255329D01*
X151410737Y-121256015D01*
X151415722Y-121272772D01*
X151428576Y-121297264D01*
X151440941Y-121316172D01*
X151474881Y-121364266D01*
X151511364Y-121416839D01*
X151549026Y-121471836D01*
X151586505Y-121527203D01*
X151622434Y-121580885D01*
X151655450Y-121630828D01*
X151684188Y-121674977D01*
X151707285Y-121711279D01*
X151723377Y-121737678D01*
X151731098Y-121752121D01*
X151731579Y-121753849D01*
X151725486Y-121763244D01*
X151708187Y-121783601D01*
X151681150Y-121813351D01*
X151645846Y-121850925D01*
X151603742Y-121894752D01*
X151556308Y-121943264D01*
X151520158Y-121979732D01*
X151459860Y-122039944D01*
X151410700Y-122088351D01*
X151371492Y-122126024D01*
X151341052Y-122154038D01*
X151318194Y-122173464D01*
X151301733Y-122185375D01*
X151290485Y-122190844D01*
X151286211Y-122191498D01*
X151271670Y-122186177D01*
X151243631Y-122170783D01*
X151202929Y-122145837D01*
X151150401Y-122111864D01*
X151086880Y-122069387D01*
X151037282Y-122035533D01*
X150980746Y-121996911D01*
X150928643Y-121961780D01*
X150882852Y-121931374D01*
X150845255Y-121906921D01*
X150817730Y-121889655D01*
X150802159Y-121880806D01*
X150799615Y-121879895D01*
X150787833Y-121883855D01*
X150763718Y-121894676D01*
X150730635Y-121910767D01*
X150691945Y-121930539D01*
X150686542Y-121933368D01*
X150646656Y-121953617D01*
X150611158Y-121970349D01*
X150583666Y-121981946D01*
X150567799Y-121986791D01*
X150566920Y-121986842D01*
X150549739Y-121979433D01*
X150540042Y-121966789D01*
X150535049Y-121955057D01*
X150523883Y-121928378D01*
X150507178Y-121888279D01*
X150485569Y-121836289D01*
X150459688Y-121773935D01*
X150430171Y-121702743D01*
X150397650Y-121624240D01*
X150362761Y-121539956D01*
X150332741Y-121467388D01*
X150286353Y-121354803D01*
X150246819Y-121257940D01*
X150213896Y-121176168D01*
X150187343Y-121108858D01*
X150166915Y-121055382D01*
X150152371Y-121015109D01*
X150143466Y-120987411D01*
X150139958Y-120971657D01*
X150140075Y-120968300D01*
X150150195Y-120953571D01*
X150171297Y-120934257D01*
X150197791Y-120915203D01*
X150288360Y-120849553D01*
X150363099Y-120778174D01*
X150423518Y-120699466D01*
X150457996Y-120639357D01*
X150495587Y-120545636D01*
X150517048Y-120447290D01*
X150522635Y-120346707D01*
X150512607Y-120246278D01*
X150487221Y-120148388D01*
X150446732Y-120055428D01*
X150391398Y-119969786D01*
X150385072Y-119961733D01*
X150318545Y-119890986D01*
X150240873Y-119829675D01*
X150155881Y-119780257D01*
X150067395Y-119745189D01*
X150033781Y-119736166D01*
X149995415Y-119729684D01*
X149947406Y-119725050D01*
X149895371Y-119722445D01*
X149844927Y-119722052D01*
X149801692Y-119724051D01*
X149774744Y-119727782D01*
X149666550Y-119760341D01*
X149568407Y-119807394D01*
X149480908Y-119868502D01*
X149404644Y-119943223D01*
X149340209Y-120031116D01*
X149319769Y-120066364D01*
X149286952Y-120141799D01*
X149263763Y-120226888D01*
X149251269Y-120315652D01*
X149250536Y-120402113D01*
X149253899Y-120435622D01*
X149276774Y-120542536D01*
X149314899Y-120640277D01*
X149368338Y-120728940D01*
X149437154Y-120808621D01*
X149521409Y-120879417D01*
X149564684Y-120908595D01*
X149597895Y-120931516D01*
X149621827Y-120952067D01*
X149633279Y-120967474D01*
X149633512Y-120968217D01*
X149632146Y-120979274D01*
X149625161Y-121002807D01*
X149612349Y-121039348D01*
X149593506Y-121089431D01*
X149568425Y-121153587D01*
X149536901Y-121232350D01*
X149498729Y-121326250D01*
X149453702Y-121435822D01*
X149440697Y-121467305D01*
X149404339Y-121555209D01*
X149369828Y-121638587D01*
X149337799Y-121715911D01*
X149308885Y-121785653D01*
X149283720Y-121846287D01*
X149262938Y-121896285D01*
X149247172Y-121934121D01*
X149237057Y-121958266D01*
X149233418Y-121966789D01*
X149218884Y-121982921D01*
X149205745Y-121986632D01*
X149191043Y-121982558D01*
X149164342Y-121971584D01*
X149129295Y-121955333D01*
X149089560Y-121935426D01*
X149085205Y-121933159D01*
X149046078Y-121913110D01*
X149012222Y-121896509D01*
X148986969Y-121884937D01*
X148973650Y-121879972D01*
X148972941Y-121879895D01*
X148963277Y-121884773D01*
X148940844Y-121898590D01*
X148907513Y-121920113D01*
X148865156Y-121948114D01*
X148815643Y-121981362D01*
X148760845Y-122018627D01*
X148736192Y-122035533D01*
X148666602Y-122082870D01*
X148606917Y-122122433D01*
X148558075Y-122153632D01*
X148521018Y-122175879D01*
X148496684Y-122188585D01*
X148487439Y-122191498D01*
X148478440Y-122188937D01*
X148464673Y-122180347D01*
X148444973Y-122164674D01*
X148418173Y-122140865D01*
X148383109Y-122107865D01*
X148338615Y-122064620D01*
X148283525Y-122010077D01*
X148252286Y-121978883D01*
X148194171Y-121920570D01*
X148147609Y-121873394D01*
X148111418Y-121836022D01*
X148084419Y-121807119D01*
X148065429Y-121785349D01*
X148053268Y-121769379D01*
X148046754Y-121757874D01*
X148044708Y-121749499D01*
X148045258Y-121744936D01*
X148051631Y-121732539D01*
X148066909Y-121707509D01*
X148089794Y-121671829D01*
X148118989Y-121627482D01*
X148153196Y-121576453D01*
X148191119Y-121520723D01*
X148206884Y-121497783D01*
X148245633Y-121441032D01*
X148280869Y-121388415D01*
X148311351Y-121341866D01*
X148335839Y-121303317D01*
X148353094Y-121274701D01*
X148361874Y-121257950D01*
X148362737Y-121254942D01*
X148359491Y-121242044D01*
X148350475Y-121215422D01*
X148336771Y-121177807D01*
X148319460Y-121131929D01*
X148299623Y-121080520D01*
X148278342Y-121026309D01*
X148256699Y-120972029D01*
X148235775Y-120920409D01*
X148216651Y-120874181D01*
X148200409Y-120836076D01*
X148188131Y-120808824D01*
X148180898Y-120795157D01*
X148180399Y-120794536D01*
X148169358Y-120790181D01*
X148142938Y-120783163D01*
X148103307Y-120773955D01*
X148052635Y-120763030D01*
X147993088Y-120750863D01*
X147926835Y-120737927D01*
X147886086Y-120730240D01*
X147816984Y-120717133D01*
X147753366Y-120704616D01*
X147697392Y-120693148D01*
X147651222Y-120683191D01*
X147617014Y-120675204D01*
X147596927Y-120669646D01*
X147592587Y-120667707D01*
X147589408Y-120655520D01*
X147586670Y-120625725D01*
X147584372Y-120578275D01*
X147582512Y-120513128D01*
X147581088Y-120430237D01*
X147580347Y-120361319D01*
X147579706Y-120280302D01*
X147579386Y-120215219D01*
X147579467Y-120164182D01*
X147580028Y-120125301D01*
X147581150Y-120096687D01*
X147582913Y-120076451D01*
X147585398Y-120062705D01*
X147588683Y-120053560D01*
X147592850Y-120047127D01*
X147593716Y-120046093D01*
X147600725Y-120040356D01*
X147612846Y-120034604D01*
X147631884Y-120028413D01*
X147659642Y-120021360D01*
X147697927Y-120013020D01*
X147748542Y-120002970D01*
X147813291Y-119990788D01*
X147885930Y-119977507D01*
X147954581Y-119964933D01*
X148018154Y-119953043D01*
X148074369Y-119942283D01*
X148120949Y-119933097D01*
X148155614Y-119925932D01*
X148176085Y-119921233D01*
X148180166Y-119919998D01*
X148188889Y-119911410D01*
X148201731Y-119890641D01*
X148219176Y-119856718D01*
X148241706Y-119808669D01*
X148269806Y-119745521D01*
X148289634Y-119699760D01*
X148314301Y-119641925D01*
X148336427Y-119589140D01*
X148355077Y-119543712D01*
X148369314Y-119507949D01*
X148378202Y-119484158D01*
X148380854Y-119474915D01*
X148375891Y-119464912D01*
X148361944Y-119442096D01*
X148340208Y-119408289D01*
X148311880Y-119365311D01*
X148278154Y-119314981D01*
X148240226Y-119259121D01*
X148214414Y-119221476D01*
X148174212Y-119162752D01*
X148137245Y-119108153D01*
X148104747Y-119059548D01*
X148077952Y-119018809D01*
X148058094Y-118987804D01*
X148046409Y-118968405D01*
X148043809Y-118963023D01*
X148045544Y-118955194D01*
X148054160Y-118941647D01*
X148070600Y-118921343D01*
X148095809Y-118893242D01*
X148130730Y-118856304D01*
X148176307Y-118809489D01*
X148233484Y-118751758D01*
X148256677Y-118728515D01*
X148308156Y-118677399D01*
X148356091Y-118630558D01*
X148398937Y-118589444D01*
X148435148Y-118555510D01*
X148463178Y-118530207D01*
X148481481Y-118514990D01*
X148488082Y-118511053D01*
X148501368Y-118515887D01*
X148524929Y-118528810D01*
X148554604Y-118547455D01*
X148568360Y-118556747D01*
X148674212Y-118629673D01*
X148765590Y-118692333D01*
X148842559Y-118744772D01*
X148905186Y-118787034D01*
X148953537Y-118819164D01*
X148987678Y-118841205D01*
X149007675Y-118853204D01*
X149012862Y-118855589D01*
X149024007Y-118853087D01*
X149048805Y-118844706D01*
X149084508Y-118831555D01*
X149128371Y-118814743D01*
X149177648Y-118795379D01*
X149229594Y-118774571D01*
X149281462Y-118753429D01*
X149330507Y-118733061D01*
X149373983Y-118714576D01*
X149409144Y-118699084D01*
X149433244Y-118687692D01*
X149443316Y-118681757D01*
X149446650Y-118671510D01*
X149452706Y-118645836D01*
X149461051Y-118606852D01*
X149471250Y-118556674D01*
X149482872Y-118497420D01*
X149495481Y-118431204D01*
X149503988Y-118385510D01*
X149517104Y-118315207D01*
X149529570Y-118249867D01*
X149540936Y-118191727D01*
X149550755Y-118143028D01*
X149558577Y-118106010D01*
X149563955Y-118082911D01*
X149565858Y-118076579D01*
X149574425Y-118056526D01*
X150199049Y-118056526D01*
X150207616Y-118076579D01*
G36*
X149576670Y-122586193D02*
G01*
X149601304Y-122638190D01*
X149628608Y-122697975D01*
X149654625Y-122756790D01*
X149669194Y-122790888D01*
X149686033Y-122830251D01*
X149700651Y-122862876D01*
X149711603Y-122885647D01*
X149717444Y-122895448D01*
X149717758Y-122895608D01*
X149722998Y-122888061D01*
X149733282Y-122867485D01*
X149746939Y-122837360D01*
X149757192Y-122813456D01*
X149774259Y-122773896D01*
X149796395Y-122724142D01*
X149820952Y-122670066D01*
X149845284Y-122617542D01*
X149849545Y-122608474D01*
X149907275Y-122485930D01*
X150062528Y-122485930D01*
X150068439Y-122536225D01*
X150073667Y-122584309D01*
X150079438Y-122643561D01*
X150085527Y-122711026D01*
X150091707Y-122783748D01*
X150097750Y-122858769D01*
X150103428Y-122933134D01*
X150108516Y-123003887D01*
X150112786Y-123068071D01*
X150116010Y-123122732D01*
X150117963Y-123164911D01*
X150118456Y-123187268D01*
X150117594Y-123197039D01*
X150112714Y-123203090D01*
X150100376Y-123206312D01*
X150077141Y-123207594D01*
X150039567Y-123207824D01*
X149959454Y-123207824D01*
X149954538Y-123152123D01*
X149952517Y-123123903D01*
X149950150Y-123082381D01*
X149947666Y-123032068D01*
X149945292Y-122977476D01*
X149944055Y-122945590D01*
X149941851Y-122894460D01*
X149939283Y-122848711D01*
X149936587Y-122811686D01*
X149933995Y-122786725D01*
X149932322Y-122778088D01*
X149927964Y-122777423D01*
X149919440Y-122789210D01*
X149906274Y-122814394D01*
X149887991Y-122853920D01*
X149864116Y-122908731D01*
X149850744Y-122940241D01*
X149775333Y-123119065D01*
X149714302Y-123116655D01*
X149653272Y-123114245D01*
X149576162Y-122931544D01*
X149499052Y-122748842D01*
X149493324Y-122806772D01*
X149491135Y-122834488D01*
X149488567Y-122875934D01*
X149485841Y-122927022D01*
X149483176Y-122983667D01*
X149481001Y-123036263D01*
X149474407Y-123207824D01*
X149310055Y-123207824D01*
X149313012Y-123165491D01*
X149314512Y-123142649D01*
X149316813Y-123105894D01*
X149319679Y-123059109D01*
X149322870Y-123006176D01*
X149325454Y-122962737D01*
X149329359Y-122901392D01*
X149333994Y-122836202D01*
X149339117Y-122769891D01*
X149344486Y-122705183D01*
X149349860Y-122644804D01*
X149354996Y-122591476D01*
X149359652Y-122547925D01*
X149363587Y-122516876D01*
X149366410Y-122501526D01*
X149371073Y-122493914D01*
X149381909Y-122489225D01*
X149402445Y-122486796D01*
X149436206Y-122485966D01*
X149449462Y-122485930D01*
X149527898Y-122485930D01*
X149576670Y-122586193D01*
G37*
X149576670Y-122586193D02*
X149601304Y-122638190D01*
X149628608Y-122697975D01*
X149654625Y-122756790D01*
X149669194Y-122790888D01*
X149686033Y-122830251D01*
X149700651Y-122862876D01*
X149711603Y-122885647D01*
X149717444Y-122895448D01*
X149717758Y-122895608D01*
X149722998Y-122888061D01*
X149733282Y-122867485D01*
X149746939Y-122837360D01*
X149757192Y-122813456D01*
X149774259Y-122773896D01*
X149796395Y-122724142D01*
X149820952Y-122670066D01*
X149845284Y-122617542D01*
X149849545Y-122608474D01*
X149907275Y-122485930D01*
X150062528Y-122485930D01*
X150068439Y-122536225D01*
X150073667Y-122584309D01*
X150079438Y-122643561D01*
X150085527Y-122711026D01*
X150091707Y-122783748D01*
X150097750Y-122858769D01*
X150103428Y-122933134D01*
X150108516Y-123003887D01*
X150112786Y-123068071D01*
X150116010Y-123122732D01*
X150117963Y-123164911D01*
X150118456Y-123187268D01*
X150117594Y-123197039D01*
X150112714Y-123203090D01*
X150100376Y-123206312D01*
X150077141Y-123207594D01*
X150039567Y-123207824D01*
X149959454Y-123207824D01*
X149954538Y-123152123D01*
X149952517Y-123123903D01*
X149950150Y-123082381D01*
X149947666Y-123032068D01*
X149945292Y-122977476D01*
X149944055Y-122945590D01*
X149941851Y-122894460D01*
X149939283Y-122848711D01*
X149936587Y-122811686D01*
X149933995Y-122786725D01*
X149932322Y-122778088D01*
X149927964Y-122777423D01*
X149919440Y-122789210D01*
X149906274Y-122814394D01*
X149887991Y-122853920D01*
X149864116Y-122908731D01*
X149850744Y-122940241D01*
X149775333Y-123119065D01*
X149714302Y-123116655D01*
X149653272Y-123114245D01*
X149576162Y-122931544D01*
X149499052Y-122748842D01*
X149493324Y-122806772D01*
X149491135Y-122834488D01*
X149488567Y-122875934D01*
X149485841Y-122927022D01*
X149483176Y-122983667D01*
X149481001Y-123036263D01*
X149474407Y-123207824D01*
X149310055Y-123207824D01*
X149313012Y-123165491D01*
X149314512Y-123142649D01*
X149316813Y-123105894D01*
X149319679Y-123059109D01*
X149322870Y-123006176D01*
X149325454Y-122962737D01*
X149329359Y-122901392D01*
X149333994Y-122836202D01*
X149339117Y-122769891D01*
X149344486Y-122705183D01*
X149349860Y-122644804D01*
X149354996Y-122591476D01*
X149359652Y-122547925D01*
X149363587Y-122516876D01*
X149366410Y-122501526D01*
X149371073Y-122493914D01*
X149381909Y-122489225D01*
X149402445Y-122486796D01*
X149436206Y-122485966D01*
X149449462Y-122485930D01*
X149527898Y-122485930D01*
X149576670Y-122586193D01*
G36*
X149227228Y-122628526D02*
G01*
X148906386Y-122628526D01*
X148906386Y-122771123D01*
X149191579Y-122771123D01*
X149191579Y-122913719D01*
X148906386Y-122913719D01*
X148906386Y-123207824D01*
X148737052Y-123207824D01*
X148737052Y-122485930D01*
X149227228Y-122485930D01*
X149227228Y-122628526D01*
G37*
X149227228Y-122628526D02*
X148906386Y-122628526D01*
X148906386Y-122771123D01*
X149191579Y-122771123D01*
X149191579Y-122913719D01*
X148906386Y-122913719D01*
X148906386Y-123207824D01*
X148737052Y-123207824D01*
X148737052Y-122485930D01*
X149227228Y-122485930D01*
X149227228Y-122628526D01*
G36*
X148375821Y-122485030D02*
G01*
X148440512Y-122494988D01*
X148486542Y-122509030D01*
X148541983Y-122537970D01*
X148582056Y-122573367D01*
X148608200Y-122617439D01*
X148621851Y-122672403D01*
X148624758Y-122722105D01*
X148618794Y-122788469D01*
X148600506Y-122843495D01*
X148569302Y-122887685D01*
X148524588Y-122921543D01*
X148465770Y-122945571D01*
X148392255Y-122960273D01*
X148338228Y-122964967D01*
X148246877Y-122969753D01*
X148246877Y-123207824D01*
X148077544Y-123207824D01*
X148077544Y-122727527D01*
X148246877Y-122727527D01*
X148246877Y-122824596D01*
X148291948Y-122824596D01*
X148328683Y-122822406D01*
X148366227Y-122816923D01*
X148376846Y-122814568D01*
X148416364Y-122797653D01*
X148441300Y-122770533D01*
X148451572Y-122733306D01*
X148451859Y-122724773D01*
X148447331Y-122686310D01*
X148432407Y-122659727D01*
X148409262Y-122643199D01*
X148380569Y-122633221D01*
X148343266Y-122625964D01*
X148305247Y-122622469D01*
X148274410Y-122623777D01*
X148269515Y-122624777D01*
X148259590Y-122627839D01*
X148253095Y-122633263D01*
X148249304Y-122644350D01*
X148247489Y-122664403D01*
X148246921Y-122696724D01*
X148246877Y-122727527D01*
X148077544Y-122727527D01*
X148077544Y-122496515D01*
X148119877Y-122491446D01*
X148212950Y-122483136D01*
X148299116Y-122481038D01*
X148375821Y-122485030D01*
G37*
X148375821Y-122485030D02*
X148440512Y-122494988D01*
X148486542Y-122509030D01*
X148541983Y-122537970D01*
X148582056Y-122573367D01*
X148608200Y-122617439D01*
X148621851Y-122672403D01*
X148624758Y-122722105D01*
X148618794Y-122788469D01*
X148600506Y-122843495D01*
X148569302Y-122887685D01*
X148524588Y-122921543D01*
X148465770Y-122945571D01*
X148392255Y-122960273D01*
X148338228Y-122964967D01*
X148246877Y-122969753D01*
X148246877Y-123207824D01*
X148077544Y-123207824D01*
X148077544Y-122727527D01*
X148246877Y-122727527D01*
X148246877Y-122824596D01*
X148291948Y-122824596D01*
X148328683Y-122822406D01*
X148366227Y-122816923D01*
X148376846Y-122814568D01*
X148416364Y-122797653D01*
X148441300Y-122770533D01*
X148451572Y-122733306D01*
X148451859Y-122724773D01*
X148447331Y-122686310D01*
X148432407Y-122659727D01*
X148409262Y-122643199D01*
X148380569Y-122633221D01*
X148343266Y-122625964D01*
X148305247Y-122622469D01*
X148274410Y-122623777D01*
X148269515Y-122624777D01*
X148259590Y-122627839D01*
X148253095Y-122633263D01*
X148249304Y-122644350D01*
X148247489Y-122664403D01*
X148246921Y-122696724D01*
X148246877Y-122727527D01*
X148077544Y-122727527D01*
X148077544Y-122496515D01*
X148119877Y-122491446D01*
X148212950Y-122483136D01*
X148299116Y-122481038D01*
X148375821Y-122485030D01*
G36*
X151311669Y-122484994D02*
G01*
X151376127Y-122493402D01*
X151428189Y-122508040D01*
X151470180Y-122529421D01*
X151480566Y-122536772D01*
X151517139Y-122574263D01*
X151540594Y-122619136D01*
X151550561Y-122667747D01*
X151546666Y-122716453D01*
X151528540Y-122761609D01*
X151506369Y-122789979D01*
X151489634Y-122808539D01*
X151485734Y-122818872D01*
X151490990Y-122823016D01*
X151504765Y-122831536D01*
X151524964Y-122848397D01*
X151536665Y-122859501D01*
X151564156Y-122898568D01*
X151580294Y-122946814D01*
X151584909Y-122999539D01*
X151577828Y-123052040D01*
X151558881Y-123099618D01*
X151546086Y-123118616D01*
X151515109Y-123147509D01*
X151471829Y-123174087D01*
X151421758Y-123195459D01*
X151376099Y-123207733D01*
X151350349Y-123210842D01*
X151312907Y-123213253D01*
X151268581Y-123214889D01*
X151222179Y-123215677D01*
X151178508Y-123215540D01*
X151142375Y-123214402D01*
X151118589Y-123212189D01*
X151116631Y-123211813D01*
X151100114Y-123208983D01*
X151073850Y-123205136D01*
X151060930Y-123203389D01*
X151018596Y-123197820D01*
X151018596Y-122895895D01*
X151179017Y-122895895D01*
X151179017Y-123073115D01*
X151216895Y-123075856D01*
X151254047Y-123076441D01*
X151294733Y-123073839D01*
X151332863Y-123068752D01*
X151362346Y-123061882D01*
X151372016Y-123057960D01*
X151392140Y-123043700D01*
X151401545Y-123034372D01*
X151410693Y-123012250D01*
X151412802Y-122982163D01*
X151408156Y-122952398D01*
X151398035Y-122932280D01*
X151373148Y-122915923D01*
X151333574Y-122904039D01*
X151282030Y-122897263D01*
X151241913Y-122895895D01*
X151179017Y-122895895D01*
X151018596Y-122895895D01*
X151018596Y-122773770D01*
X151179017Y-122773770D01*
X151256704Y-122768288D01*
X151303408Y-122763506D01*
X151335576Y-122756454D01*
X151356427Y-122746416D01*
X151356967Y-122746020D01*
X151375643Y-122722694D01*
X151383343Y-122692781D01*
X151379518Y-122662901D01*
X151365683Y-122641433D01*
X151352644Y-122632699D01*
X151333969Y-122626919D01*
X151305620Y-122623290D01*
X151263558Y-122621011D01*
X151262766Y-122620982D01*
X151179017Y-122617893D01*
X151179017Y-122773770D01*
X151018596Y-122773770D01*
X151018596Y-122496125D01*
X151069842Y-122489218D01*
X151099510Y-122486468D01*
X151141210Y-122484237D01*
X151189150Y-122482770D01*
X151232491Y-122482307D01*
X151311669Y-122484994D01*
G37*
X151311669Y-122484994D02*
X151376127Y-122493402D01*
X151428189Y-122508040D01*
X151470180Y-122529421D01*
X151480566Y-122536772D01*
X151517139Y-122574263D01*
X151540594Y-122619136D01*
X151550561Y-122667747D01*
X151546666Y-122716453D01*
X151528540Y-122761609D01*
X151506369Y-122789979D01*
X151489634Y-122808539D01*
X151485734Y-122818872D01*
X151490990Y-122823016D01*
X151504765Y-122831536D01*
X151524964Y-122848397D01*
X151536665Y-122859501D01*
X151564156Y-122898568D01*
X151580294Y-122946814D01*
X151584909Y-122999539D01*
X151577828Y-123052040D01*
X151558881Y-123099618D01*
X151546086Y-123118616D01*
X151515109Y-123147509D01*
X151471829Y-123174087D01*
X151421758Y-123195459D01*
X151376099Y-123207733D01*
X151350349Y-123210842D01*
X151312907Y-123213253D01*
X151268581Y-123214889D01*
X151222179Y-123215677D01*
X151178508Y-123215540D01*
X151142375Y-123214402D01*
X151118589Y-123212189D01*
X151116631Y-123211813D01*
X151100114Y-123208983D01*
X151073850Y-123205136D01*
X151060930Y-123203389D01*
X151018596Y-123197820D01*
X151018596Y-122895895D01*
X151179017Y-122895895D01*
X151179017Y-123073115D01*
X151216895Y-123075856D01*
X151254047Y-123076441D01*
X151294733Y-123073839D01*
X151332863Y-123068752D01*
X151362346Y-123061882D01*
X151372016Y-123057960D01*
X151392140Y-123043700D01*
X151401545Y-123034372D01*
X151410693Y-123012250D01*
X151412802Y-122982163D01*
X151408156Y-122952398D01*
X151398035Y-122932280D01*
X151373148Y-122915923D01*
X151333574Y-122904039D01*
X151282030Y-122897263D01*
X151241913Y-122895895D01*
X151179017Y-122895895D01*
X151018596Y-122895895D01*
X151018596Y-122773770D01*
X151179017Y-122773770D01*
X151256704Y-122768288D01*
X151303408Y-122763506D01*
X151335576Y-122756454D01*
X151356427Y-122746416D01*
X151356967Y-122746020D01*
X151375643Y-122722694D01*
X151383343Y-122692781D01*
X151379518Y-122662901D01*
X151365683Y-122641433D01*
X151352644Y-122632699D01*
X151333969Y-122626919D01*
X151305620Y-122623290D01*
X151263558Y-122621011D01*
X151262766Y-122620982D01*
X151179017Y-122617893D01*
X151179017Y-122773770D01*
X151018596Y-122773770D01*
X151018596Y-122496125D01*
X151069842Y-122489218D01*
X151099510Y-122486468D01*
X151141210Y-122484237D01*
X151189150Y-122482770D01*
X151232491Y-122482307D01*
X151311669Y-122484994D01*
G36*
X150469542Y-122482580D02*
G01*
X150528650Y-122484822D01*
X150581427Y-122489079D01*
X150622960Y-122495225D01*
X150633127Y-122497584D01*
X150708562Y-122524239D01*
X150769901Y-122561032D01*
X150818288Y-122608855D01*
X150854866Y-122668600D01*
X150856338Y-122671769D01*
X150867230Y-122698326D01*
X150874560Y-122724829D01*
X150879255Y-122756447D01*
X150882239Y-122798351D01*
X150883287Y-122822358D01*
X150884573Y-122870105D01*
X150883753Y-122905809D01*
X150880252Y-122935186D01*
X150873494Y-122963953D01*
X150866841Y-122985785D01*
X150836543Y-123052054D01*
X150792095Y-123108365D01*
X150734766Y-123153705D01*
X150665823Y-123187062D01*
X150590077Y-123206839D01*
X150558549Y-123210605D01*
X150517272Y-123213414D01*
X150471370Y-123215159D01*
X150425967Y-123215734D01*
X150386185Y-123215034D01*
X150357150Y-123212951D01*
X150350175Y-123211813D01*
X150333657Y-123208983D01*
X150307394Y-123205136D01*
X150294474Y-123203389D01*
X150252140Y-123197820D01*
X150252140Y-122629942D01*
X150421474Y-122629942D01*
X150421474Y-123074140D01*
X150460362Y-123074140D01*
X150493031Y-123072341D01*
X150530946Y-123067790D01*
X150547049Y-123065076D01*
X150605482Y-123046322D01*
X150651633Y-123014706D01*
X150685271Y-122970500D01*
X150706164Y-122913976D01*
X150712825Y-122870461D01*
X150711790Y-122804338D01*
X150697659Y-122745994D01*
X150671330Y-122697478D01*
X150633700Y-122660841D01*
X150616435Y-122650361D01*
X150590651Y-122640935D01*
X150554496Y-122632557D01*
X150514568Y-122626240D01*
X150477465Y-122622994D01*
X150449786Y-122623828D01*
X150446795Y-122624381D01*
X150421474Y-122629942D01*
X150252140Y-122629942D01*
X150252140Y-122496125D01*
X150303386Y-122489189D01*
X150351996Y-122484638D01*
X150409020Y-122482477D01*
X150469542Y-122482580D01*
G37*
X150469542Y-122482580D02*
X150528650Y-122484822D01*
X150581427Y-122489079D01*
X150622960Y-122495225D01*
X150633127Y-122497584D01*
X150708562Y-122524239D01*
X150769901Y-122561032D01*
X150818288Y-122608855D01*
X150854866Y-122668600D01*
X150856338Y-122671769D01*
X150867230Y-122698326D01*
X150874560Y-122724829D01*
X150879255Y-122756447D01*
X150882239Y-122798351D01*
X150883287Y-122822358D01*
X150884573Y-122870105D01*
X150883753Y-122905809D01*
X150880252Y-122935186D01*
X150873494Y-122963953D01*
X150866841Y-122985785D01*
X150836543Y-123052054D01*
X150792095Y-123108365D01*
X150734766Y-123153705D01*
X150665823Y-123187062D01*
X150590077Y-123206839D01*
X150558549Y-123210605D01*
X150517272Y-123213414D01*
X150471370Y-123215159D01*
X150425967Y-123215734D01*
X150386185Y-123215034D01*
X150357150Y-123212951D01*
X150350175Y-123211813D01*
X150333657Y-123208983D01*
X150307394Y-123205136D01*
X150294474Y-123203389D01*
X150252140Y-123197820D01*
X150252140Y-122629942D01*
X150421474Y-122629942D01*
X150421474Y-123074140D01*
X150460362Y-123074140D01*
X150493031Y-123072341D01*
X150530946Y-123067790D01*
X150547049Y-123065076D01*
X150605482Y-123046322D01*
X150651633Y-123014706D01*
X150685271Y-122970500D01*
X150706164Y-122913976D01*
X150712825Y-122870461D01*
X150711790Y-122804338D01*
X150697659Y-122745994D01*
X150671330Y-122697478D01*
X150633700Y-122660841D01*
X150616435Y-122650361D01*
X150590651Y-122640935D01*
X150554496Y-122632557D01*
X150514568Y-122626240D01*
X150477465Y-122622994D01*
X150449786Y-122623828D01*
X150446795Y-122624381D01*
X150421474Y-122629942D01*
X150252140Y-122629942D01*
X150252140Y-122496125D01*
X150303386Y-122489189D01*
X150351996Y-122484638D01*
X150409020Y-122482477D01*
X150469542Y-122482580D01*
G36*
X152109548Y-122476343D02*
G01*
X152112579Y-122476763D01*
X152159931Y-122485295D01*
X152202237Y-122496191D01*
X152235999Y-122508279D01*
X152257722Y-122520384D01*
X152263634Y-122527444D01*
X152263642Y-122543035D01*
X152257931Y-122567301D01*
X152254400Y-122577617D01*
X152243433Y-122606939D01*
X152233561Y-122633464D01*
X152231514Y-122638992D01*
X152222709Y-122662825D01*
X152177042Y-122645474D01*
X152106781Y-122625619D01*
X152042130Y-122621194D01*
X151984264Y-122632059D01*
X151934355Y-122658079D01*
X151913108Y-122676371D01*
X151884586Y-122711547D01*
X151866431Y-122751548D01*
X151857191Y-122800656D01*
X151855237Y-122846877D01*
X151861377Y-122916568D01*
X151879853Y-122973453D01*
X151910750Y-123017675D01*
X151954150Y-123049374D01*
X151983005Y-123061397D01*
X152032962Y-123070938D01*
X152091006Y-123070799D01*
X152150535Y-123061397D01*
X152193155Y-123048137D01*
X152236304Y-123031130D01*
X152259324Y-123101348D01*
X152282344Y-123171567D01*
X152234113Y-123189612D01*
X152210285Y-123196623D01*
X152176380Y-123204257D01*
X152137203Y-123211713D01*
X152097560Y-123218187D01*
X152062256Y-123222876D01*
X152036098Y-123224976D01*
X152025684Y-123224448D01*
X152015243Y-123222868D01*
X151992060Y-123219718D01*
X151961078Y-123215672D01*
X151959930Y-123215524D01*
X151885906Y-123198069D01*
X151822238Y-123166564D01*
X151769518Y-123121868D01*
X151728332Y-123064842D01*
X151699273Y-122996344D01*
X151682927Y-122917234D01*
X151679886Y-122828373D01*
X151680986Y-122808640D01*
X151693374Y-122734134D01*
X151718665Y-122663825D01*
X151754947Y-122602245D01*
X151780975Y-122571598D01*
X151830647Y-122532590D01*
X151892375Y-122502406D01*
X151962124Y-122482201D01*
X152035859Y-122473129D01*
X152109548Y-122476343D01*
G37*
X152109548Y-122476343D02*
X152112579Y-122476763D01*
X152159931Y-122485295D01*
X152202237Y-122496191D01*
X152235999Y-122508279D01*
X152257722Y-122520384D01*
X152263634Y-122527444D01*
X152263642Y-122543035D01*
X152257931Y-122567301D01*
X152254400Y-122577617D01*
X152243433Y-122606939D01*
X152233561Y-122633464D01*
X152231514Y-122638992D01*
X152222709Y-122662825D01*
X152177042Y-122645474D01*
X152106781Y-122625619D01*
X152042130Y-122621194D01*
X151984264Y-122632059D01*
X151934355Y-122658079D01*
X151913108Y-122676371D01*
X151884586Y-122711547D01*
X151866431Y-122751548D01*
X151857191Y-122800656D01*
X151855237Y-122846877D01*
X151861377Y-122916568D01*
X151879853Y-122973453D01*
X151910750Y-123017675D01*
X151954150Y-123049374D01*
X151983005Y-123061397D01*
X152032962Y-123070938D01*
X152091006Y-123070799D01*
X152150535Y-123061397D01*
X152193155Y-123048137D01*
X152236304Y-123031130D01*
X152259324Y-123101348D01*
X152282344Y-123171567D01*
X152234113Y-123189612D01*
X152210285Y-123196623D01*
X152176380Y-123204257D01*
X152137203Y-123211713D01*
X152097560Y-123218187D01*
X152062256Y-123222876D01*
X152036098Y-123224976D01*
X152025684Y-123224448D01*
X152015243Y-123222868D01*
X151992060Y-123219718D01*
X151961078Y-123215672D01*
X151959930Y-123215524D01*
X151885906Y-123198069D01*
X151822238Y-123166564D01*
X151769518Y-123121868D01*
X151728332Y-123064842D01*
X151699273Y-122996344D01*
X151682927Y-122917234D01*
X151679886Y-122828373D01*
X151680986Y-122808640D01*
X151693374Y-122734134D01*
X151718665Y-122663825D01*
X151754947Y-122602245D01*
X151780975Y-122571598D01*
X151830647Y-122532590D01*
X151892375Y-122502406D01*
X151962124Y-122482201D01*
X152035859Y-122473129D01*
X152109548Y-122476343D01*
G36*
X147756960Y-122474901D02*
G01*
X147771624Y-122476668D01*
X147811579Y-122483783D01*
X147850903Y-122493172D01*
X147885269Y-122503541D01*
X147910351Y-122513598D01*
X147921519Y-122521482D01*
X147920294Y-122531620D01*
X147914465Y-122553230D01*
X147905754Y-122581119D01*
X147895884Y-122610095D01*
X147886576Y-122634965D01*
X147879552Y-122650537D01*
X147877959Y-122652823D01*
X147869284Y-122651045D01*
X147848994Y-122644344D01*
X147829601Y-122637227D01*
X147772221Y-122623084D01*
X147720552Y-122619614D01*
X147685886Y-122620418D01*
X147663512Y-122623777D01*
X147647936Y-122631112D01*
X147635981Y-122641490D01*
X147619004Y-122664130D01*
X147615835Y-122685418D01*
X147627252Y-122706277D01*
X147654029Y-122727624D01*
X147696944Y-122750382D01*
X147745097Y-122770892D01*
X147813998Y-122800665D01*
X147867027Y-122829788D01*
X147905943Y-122860228D01*
X147932503Y-122893952D01*
X147948468Y-122932928D01*
X147955596Y-122979124D01*
X147956392Y-123007298D01*
X147949487Y-123069843D01*
X147929028Y-123120936D01*
X147894585Y-123161181D01*
X147845731Y-123191183D01*
X147819088Y-123201452D01*
X147777281Y-123211259D01*
X147724621Y-123217788D01*
X147667851Y-123220623D01*
X147613711Y-123219345D01*
X147582912Y-123216079D01*
X147541243Y-123207992D01*
X147501843Y-123197267D01*
X147468772Y-123185324D01*
X147446091Y-123173584D01*
X147438224Y-123165483D01*
X147438873Y-123152283D01*
X147444722Y-123129295D01*
X147453944Y-123101423D01*
X147464712Y-123073570D01*
X147475200Y-123050641D01*
X147483580Y-123037539D01*
X147486385Y-123036198D01*
X147498253Y-123040191D01*
X147521262Y-123048272D01*
X147542807Y-123055960D01*
X147585813Y-123067416D01*
X147633096Y-123073608D01*
X147679789Y-123074544D01*
X147721024Y-123070229D01*
X147751936Y-123060669D01*
X147759956Y-123055669D01*
X147777890Y-123032225D01*
X147783767Y-123003676D01*
X147777037Y-122976584D01*
X147767600Y-122964534D01*
X147748099Y-122951512D01*
X147715512Y-122934773D01*
X147673702Y-122916119D01*
X147626533Y-122897354D01*
X147612857Y-122892313D01*
X147549577Y-122862240D01*
X147500505Y-122823420D01*
X147466415Y-122776800D01*
X147448081Y-122723327D01*
X147444967Y-122686934D01*
X147450712Y-122642825D01*
X147465637Y-122597032D01*
X147486811Y-122557611D01*
X147496507Y-122545285D01*
X147531173Y-122518075D01*
X147578828Y-122496366D01*
X147635195Y-122481223D01*
X147695997Y-122473712D01*
X147756960Y-122474901D01*
G37*
X147756960Y-122474901D02*
X147771624Y-122476668D01*
X147811579Y-122483783D01*
X147850903Y-122493172D01*
X147885269Y-122503541D01*
X147910351Y-122513598D01*
X147921519Y-122521482D01*
X147920294Y-122531620D01*
X147914465Y-122553230D01*
X147905754Y-122581119D01*
X147895884Y-122610095D01*
X147886576Y-122634965D01*
X147879552Y-122650537D01*
X147877959Y-122652823D01*
X147869284Y-122651045D01*
X147848994Y-122644344D01*
X147829601Y-122637227D01*
X147772221Y-122623084D01*
X147720552Y-122619614D01*
X147685886Y-122620418D01*
X147663512Y-122623777D01*
X147647936Y-122631112D01*
X147635981Y-122641490D01*
X147619004Y-122664130D01*
X147615835Y-122685418D01*
X147627252Y-122706277D01*
X147654029Y-122727624D01*
X147696944Y-122750382D01*
X147745097Y-122770892D01*
X147813998Y-122800665D01*
X147867027Y-122829788D01*
X147905943Y-122860228D01*
X147932503Y-122893952D01*
X147948468Y-122932928D01*
X147955596Y-122979124D01*
X147956392Y-123007298D01*
X147949487Y-123069843D01*
X147929028Y-123120936D01*
X147894585Y-123161181D01*
X147845731Y-123191183D01*
X147819088Y-123201452D01*
X147777281Y-123211259D01*
X147724621Y-123217788D01*
X147667851Y-123220623D01*
X147613711Y-123219345D01*
X147582912Y-123216079D01*
X147541243Y-123207992D01*
X147501843Y-123197267D01*
X147468772Y-123185324D01*
X147446091Y-123173584D01*
X147438224Y-123165483D01*
X147438873Y-123152283D01*
X147444722Y-123129295D01*
X147453944Y-123101423D01*
X147464712Y-123073570D01*
X147475200Y-123050641D01*
X147483580Y-123037539D01*
X147486385Y-123036198D01*
X147498253Y-123040191D01*
X147521262Y-123048272D01*
X147542807Y-123055960D01*
X147585813Y-123067416D01*
X147633096Y-123073608D01*
X147679789Y-123074544D01*
X147721024Y-123070229D01*
X147751936Y-123060669D01*
X147759956Y-123055669D01*
X147777890Y-123032225D01*
X147783767Y-123003676D01*
X147777037Y-122976584D01*
X147767600Y-122964534D01*
X147748099Y-122951512D01*
X147715512Y-122934773D01*
X147673702Y-122916119D01*
X147626533Y-122897354D01*
X147612857Y-122892313D01*
X147549577Y-122862240D01*
X147500505Y-122823420D01*
X147466415Y-122776800D01*
X147448081Y-122723327D01*
X147444967Y-122686934D01*
X147450712Y-122642825D01*
X147465637Y-122597032D01*
X147486811Y-122557611D01*
X147496507Y-122545285D01*
X147531173Y-122518075D01*
X147578828Y-122496366D01*
X147635195Y-122481223D01*
X147695997Y-122473712D01*
X147756960Y-122474901D01*
D11*
G36*
X157855256Y-119041298D02*
G01*
X157961579Y-119062447D01*
X158262042Y-119186903D01*
X158532451Y-119367585D01*
X158762415Y-119597549D01*
X158943097Y-119867958D01*
X159029125Y-120075647D01*
X159067553Y-120168422D01*
X159131000Y-120487389D01*
X159131000Y-120812611D01*
X159088702Y-121025256D01*
X159067553Y-121131579D01*
X158943097Y-121432042D01*
X158762415Y-121702451D01*
X158532451Y-121932415D01*
X158262042Y-122113097D01*
X157961579Y-122237553D01*
X157855256Y-122258702D01*
X157642611Y-122301000D01*
X157317389Y-122301000D01*
X157104744Y-122258702D01*
X156998421Y-122237553D01*
X156697958Y-122113097D01*
X156427549Y-121932415D01*
X156197585Y-121702451D01*
X156016903Y-121432042D01*
X155892447Y-121131579D01*
X155871298Y-121025256D01*
X155829000Y-120812611D01*
X155829000Y-120487389D01*
X155892447Y-120168422D01*
X155930876Y-120075647D01*
X156016903Y-119867958D01*
X156197585Y-119597549D01*
X156427549Y-119367585D01*
X156697958Y-119186903D01*
X156998421Y-119062447D01*
X157104744Y-119041298D01*
X157317389Y-118999000D01*
X157642611Y-118999000D01*
X157855256Y-119041298D01*
G37*
G36*
X120390256Y-119041298D02*
G01*
X120496579Y-119062447D01*
X120797042Y-119186903D01*
X121067451Y-119367585D01*
X121297415Y-119597549D01*
X121478097Y-119867958D01*
X121564125Y-120075647D01*
X121602553Y-120168422D01*
X121666000Y-120487389D01*
X121666000Y-120812611D01*
X121623702Y-121025256D01*
X121602553Y-121131579D01*
X121478097Y-121432042D01*
X121297415Y-121702451D01*
X121067451Y-121932415D01*
X120797042Y-122113097D01*
X120496579Y-122237553D01*
X120390256Y-122258702D01*
X120177611Y-122301000D01*
X119852389Y-122301000D01*
X119639744Y-122258702D01*
X119533421Y-122237553D01*
X119232958Y-122113097D01*
X118962549Y-121932415D01*
X118732585Y-121702451D01*
X118551903Y-121432042D01*
X118427447Y-121131579D01*
X118406298Y-121025256D01*
X118364000Y-120812611D01*
X118364000Y-120487389D01*
X118427447Y-120168422D01*
X118465876Y-120075647D01*
X118551903Y-119867958D01*
X118732585Y-119597549D01*
X118962549Y-119367585D01*
X119232958Y-119186903D01*
X119533421Y-119062447D01*
X119639744Y-119041298D01*
X119852389Y-118999000D01*
X120177611Y-118999000D01*
X120390256Y-119041298D01*
G37*
G36*
X138061000Y-121551000D02*
G01*
X136259000Y-121551000D01*
X136259000Y-119749000D01*
X138061000Y-119749000D01*
X138061000Y-121551000D01*
G37*
G36*
X139813512Y-119753927D02*
G01*
X139962812Y-119783624D01*
X140126784Y-119851544D01*
X140274354Y-119950147D01*
X140399853Y-120075646D01*
X140498456Y-120223216D01*
X140566376Y-120387188D01*
X140601000Y-120561259D01*
X140601000Y-120738741D01*
X140566376Y-120912812D01*
X140498456Y-121076784D01*
X140399853Y-121224354D01*
X140274354Y-121349853D01*
X140126784Y-121448456D01*
X139962812Y-121516376D01*
X139813512Y-121546073D01*
X139788742Y-121551000D01*
X139611258Y-121551000D01*
X139586488Y-121546073D01*
X139437188Y-121516376D01*
X139273216Y-121448456D01*
X139125646Y-121349853D01*
X139000147Y-121224354D01*
X138901544Y-121076784D01*
X138833624Y-120912812D01*
X138799000Y-120738741D01*
X138799000Y-120561259D01*
X138833624Y-120387188D01*
X138901544Y-120223216D01*
X139000147Y-120075646D01*
X139125646Y-119950147D01*
X139273216Y-119851544D01*
X139437188Y-119783624D01*
X139586488Y-119753927D01*
X139611258Y-119749000D01*
X139788742Y-119749000D01*
X139813512Y-119753927D01*
G37*
G36*
X142193674Y-115338465D02*
G01*
X142231367Y-115349899D01*
X142266103Y-115368466D01*
X142296548Y-115393452D01*
X142321534Y-115423897D01*
X142340101Y-115458633D01*
X142351535Y-115496326D01*
X142356000Y-115541661D01*
X142356000Y-116378339D01*
X142351535Y-116423674D01*
X142340101Y-116461367D01*
X142321534Y-116496103D01*
X142296548Y-116526548D01*
X142266103Y-116551534D01*
X142231367Y-116570101D01*
X142193674Y-116581535D01*
X142148339Y-116586000D01*
X141061661Y-116586000D01*
X141016326Y-116581535D01*
X140978633Y-116570101D01*
X140943897Y-116551534D01*
X140913452Y-116526548D01*
X140888466Y-116496103D01*
X140869899Y-116461367D01*
X140858465Y-116423674D01*
X140854000Y-116378339D01*
X140854000Y-115541661D01*
X140858465Y-115496326D01*
X140869899Y-115458633D01*
X140888466Y-115423897D01*
X140913452Y-115393452D01*
X140943897Y-115368466D01*
X140978633Y-115349899D01*
X141016326Y-115338465D01*
X141061661Y-115334000D01*
X142148339Y-115334000D01*
X142193674Y-115338465D01*
G37*
G36*
X127859764Y-113608989D02*
G01*
X128051033Y-113688215D01*
X128051035Y-113688216D01*
X128223173Y-113803235D01*
X128369565Y-113949627D01*
X128484585Y-114121767D01*
X128563811Y-114313036D01*
X128604200Y-114516084D01*
X128604200Y-114723116D01*
X128563811Y-114926164D01*
X128484585Y-115117433D01*
X128484584Y-115117435D01*
X128369565Y-115289573D01*
X128223173Y-115435965D01*
X128051035Y-115550984D01*
X128051034Y-115550985D01*
X128051033Y-115550985D01*
X127859764Y-115630211D01*
X127656716Y-115670600D01*
X127449684Y-115670600D01*
X127246636Y-115630211D01*
X127055367Y-115550985D01*
X127055366Y-115550985D01*
X127055365Y-115550984D01*
X126883227Y-115435965D01*
X126736835Y-115289573D01*
X126621816Y-115117435D01*
X126621815Y-115117433D01*
X126542589Y-114926164D01*
X126502200Y-114723116D01*
X126502200Y-114516084D01*
X126542589Y-114313036D01*
X126621815Y-114121767D01*
X126736835Y-113949627D01*
X126883227Y-113803235D01*
X127055365Y-113688216D01*
X127055367Y-113688215D01*
X127246636Y-113608989D01*
X127449684Y-113568600D01*
X127656716Y-113568600D01*
X127859764Y-113608989D01*
G37*
G36*
X142193674Y-113288465D02*
G01*
X142231367Y-113299899D01*
X142266103Y-113318466D01*
X142296548Y-113343452D01*
X142321534Y-113373897D01*
X142340101Y-113408633D01*
X142351535Y-113446326D01*
X142356000Y-113491661D01*
X142356000Y-114328339D01*
X142351535Y-114373674D01*
X142340101Y-114411367D01*
X142321534Y-114446103D01*
X142296548Y-114476548D01*
X142266103Y-114501534D01*
X142231367Y-114520101D01*
X142193674Y-114531535D01*
X142148339Y-114536000D01*
X141061661Y-114536000D01*
X141016326Y-114531535D01*
X140978633Y-114520101D01*
X140943897Y-114501534D01*
X140913452Y-114476548D01*
X140888466Y-114446103D01*
X140869899Y-114411367D01*
X140858465Y-114373674D01*
X140854000Y-114328339D01*
X140854000Y-113491661D01*
X140858465Y-113446326D01*
X140869899Y-113408633D01*
X140888466Y-113373897D01*
X140913452Y-113343452D01*
X140943897Y-113318466D01*
X140978633Y-113299899D01*
X141016326Y-113288465D01*
X141061661Y-113284000D01*
X142148339Y-113284000D01*
X142193674Y-113288465D01*
G37*
G36*
X133021564Y-110114389D02*
G01*
X133212833Y-110193615D01*
X133212835Y-110193616D01*
X133334213Y-110274718D01*
X133384973Y-110308635D01*
X133531365Y-110455027D01*
X133646385Y-110627167D01*
X133725611Y-110818436D01*
X133766000Y-111021484D01*
X133766000Y-111228516D01*
X133725611Y-111431564D01*
X133646385Y-111622833D01*
X133646384Y-111622835D01*
X133531365Y-111794973D01*
X133384973Y-111941365D01*
X133212835Y-112056384D01*
X133212834Y-112056385D01*
X133212833Y-112056385D01*
X133021564Y-112135611D01*
X132818516Y-112176000D01*
X132611484Y-112176000D01*
X132408436Y-112135611D01*
X132217167Y-112056385D01*
X132217166Y-112056385D01*
X132217165Y-112056384D01*
X132045027Y-111941365D01*
X131898635Y-111794973D01*
X131783616Y-111622835D01*
X131783615Y-111622833D01*
X131704389Y-111431564D01*
X131664000Y-111228516D01*
X131664000Y-111021484D01*
X131704389Y-110818436D01*
X131783615Y-110627167D01*
X131898635Y-110455027D01*
X132045027Y-110308635D01*
X132095787Y-110274718D01*
X132217165Y-110193616D01*
X132217167Y-110193615D01*
X132408436Y-110114389D01*
X132611484Y-110074000D01*
X132818516Y-110074000D01*
X133021564Y-110114389D01*
G37*
G36*
X123604200Y-112170600D02*
G01*
X121502200Y-112170600D01*
X121502200Y-110068600D01*
X123604200Y-110068600D01*
X123604200Y-112170600D01*
G37*
G36*
X142296000Y-112036000D02*
G01*
X139644000Y-112036000D01*
X139644000Y-110374000D01*
X142296000Y-110374000D01*
X142296000Y-112036000D01*
G37*
G36*
X137113674Y-110258465D02*
G01*
X137151367Y-110269899D01*
X137186103Y-110288466D01*
X137216548Y-110313452D01*
X137241534Y-110343897D01*
X137260101Y-110378633D01*
X137271535Y-110416326D01*
X137276000Y-110461661D01*
X137276000Y-111298339D01*
X137271535Y-111343674D01*
X137260101Y-111381367D01*
X137241534Y-111416103D01*
X137216548Y-111446548D01*
X137186103Y-111471534D01*
X137151367Y-111490101D01*
X137113674Y-111501535D01*
X137068339Y-111506000D01*
X135981661Y-111506000D01*
X135936326Y-111501535D01*
X135898633Y-111490101D01*
X135863897Y-111471534D01*
X135833452Y-111446548D01*
X135808466Y-111416103D01*
X135789899Y-111381367D01*
X135778465Y-111343674D01*
X135774000Y-111298339D01*
X135774000Y-110461661D01*
X135778465Y-110416326D01*
X135789899Y-110378633D01*
X135808466Y-110343897D01*
X135833452Y-110313452D01*
X135863897Y-110288466D01*
X135898633Y-110269899D01*
X135936326Y-110258465D01*
X135981661Y-110254000D01*
X137068339Y-110254000D01*
X137113674Y-110258465D01*
G37*
G36*
X145721564Y-107574389D02*
G01*
X145912833Y-107653615D01*
X145912835Y-107653616D01*
X146084973Y-107768635D01*
X146231365Y-107915027D01*
X146346385Y-108087167D01*
X146425611Y-108278436D01*
X146466000Y-108481484D01*
X146466000Y-108688516D01*
X146425611Y-108891564D01*
X146346385Y-109082833D01*
X146346384Y-109082835D01*
X146231365Y-109254973D01*
X146084973Y-109401365D01*
X145912835Y-109516384D01*
X145912834Y-109516385D01*
X145912833Y-109516385D01*
X145721564Y-109595611D01*
X145518516Y-109636000D01*
X145311484Y-109636000D01*
X145108436Y-109595611D01*
X144917167Y-109516385D01*
X144917166Y-109516385D01*
X144917165Y-109516384D01*
X144745027Y-109401365D01*
X144598635Y-109254973D01*
X144483616Y-109082835D01*
X144483615Y-109082833D01*
X144404389Y-108891564D01*
X144364000Y-108688516D01*
X144364000Y-108481484D01*
X144404389Y-108278436D01*
X144483615Y-108087167D01*
X144598635Y-107915027D01*
X144745027Y-107768635D01*
X144917165Y-107653616D01*
X144917167Y-107653615D01*
X145108436Y-107574389D01*
X145311484Y-107534000D01*
X145518516Y-107534000D01*
X145721564Y-107574389D01*
G37*
G36*
X137113674Y-108208465D02*
G01*
X137151367Y-108219899D01*
X137186103Y-108238466D01*
X137216548Y-108263452D01*
X137241534Y-108293897D01*
X137260101Y-108328633D01*
X137271535Y-108366326D01*
X137276000Y-108411661D01*
X137276000Y-109248339D01*
X137271535Y-109293674D01*
X137260101Y-109331367D01*
X137241534Y-109366103D01*
X137216548Y-109396548D01*
X137186103Y-109421534D01*
X137151367Y-109440101D01*
X137113674Y-109451535D01*
X137068339Y-109456000D01*
X135981661Y-109456000D01*
X135936326Y-109451535D01*
X135898633Y-109440101D01*
X135863897Y-109421534D01*
X135833452Y-109396548D01*
X135808466Y-109366103D01*
X135789899Y-109331367D01*
X135778465Y-109293674D01*
X135774000Y-109248339D01*
X135774000Y-108411661D01*
X135778465Y-108366326D01*
X135789899Y-108328633D01*
X135808466Y-108293897D01*
X135833452Y-108263452D01*
X135863897Y-108238466D01*
X135898633Y-108219899D01*
X135936326Y-108208465D01*
X135981661Y-108204000D01*
X137068339Y-108204000D01*
X137113674Y-108208465D01*
G37*
G36*
X142296000Y-109336000D02*
G01*
X139644000Y-109336000D01*
X139644000Y-107674000D01*
X142296000Y-107674000D01*
X142296000Y-109336000D01*
G37*
G36*
X159498512Y-105148927D02*
G01*
X159647812Y-105178624D01*
X159811784Y-105246544D01*
X159959354Y-105345147D01*
X160084853Y-105470646D01*
X160183456Y-105618216D01*
X160251376Y-105782188D01*
X160286000Y-105956259D01*
X160286000Y-106133741D01*
X160251376Y-106307812D01*
X160183456Y-106471784D01*
X160084853Y-106619354D01*
X159959354Y-106744853D01*
X159811784Y-106843456D01*
X159647812Y-106911376D01*
X159498512Y-106941073D01*
X159473742Y-106946000D01*
X159296258Y-106946000D01*
X159271488Y-106941073D01*
X159122188Y-106911376D01*
X158958216Y-106843456D01*
X158810646Y-106744853D01*
X158685147Y-106619354D01*
X158586544Y-106471784D01*
X158518624Y-106307812D01*
X158484000Y-106133741D01*
X158484000Y-105956259D01*
X158518624Y-105782188D01*
X158586544Y-105618216D01*
X158685147Y-105470646D01*
X158810646Y-105345147D01*
X158958216Y-105246544D01*
X159122188Y-105178624D01*
X159271488Y-105148927D01*
X159296258Y-105144000D01*
X159473742Y-105144000D01*
X159498512Y-105148927D01*
G37*
G36*
X159498512Y-102608927D02*
G01*
X159647812Y-102638624D01*
X159811784Y-102706544D01*
X159959354Y-102805147D01*
X160084853Y-102930646D01*
X160183456Y-103078216D01*
X160251376Y-103242188D01*
X160286000Y-103416259D01*
X160286000Y-103593741D01*
X160251376Y-103767812D01*
X160183456Y-103931784D01*
X160084853Y-104079354D01*
X159959354Y-104204853D01*
X159811784Y-104303456D01*
X159647812Y-104371376D01*
X159498512Y-104401073D01*
X159473742Y-104406000D01*
X159296258Y-104406000D01*
X159271488Y-104401073D01*
X159122188Y-104371376D01*
X158958216Y-104303456D01*
X158810646Y-104204853D01*
X158685147Y-104079354D01*
X158586544Y-103931784D01*
X158518624Y-103767812D01*
X158484000Y-103593741D01*
X158484000Y-103416259D01*
X158518624Y-103242188D01*
X158586544Y-103078216D01*
X158685147Y-102930646D01*
X158810646Y-102805147D01*
X158958216Y-102706544D01*
X159122188Y-102638624D01*
X159271488Y-102608927D01*
X159296258Y-102604000D01*
X159473742Y-102604000D01*
X159498512Y-102608927D01*
G37*
G36*
X142193674Y-102638465D02*
G01*
X142231367Y-102649899D01*
X142266103Y-102668466D01*
X142296548Y-102693452D01*
X142321534Y-102723897D01*
X142340101Y-102758633D01*
X142351535Y-102796326D01*
X142356000Y-102841661D01*
X142356000Y-103678339D01*
X142351535Y-103723674D01*
X142340101Y-103761367D01*
X142321534Y-103796103D01*
X142296548Y-103826548D01*
X142266103Y-103851534D01*
X142231367Y-103870101D01*
X142193674Y-103881535D01*
X142148339Y-103886000D01*
X141061661Y-103886000D01*
X141016326Y-103881535D01*
X140978633Y-103870101D01*
X140943897Y-103851534D01*
X140913452Y-103826548D01*
X140888466Y-103796103D01*
X140869899Y-103761367D01*
X140858465Y-103723674D01*
X140854000Y-103678339D01*
X140854000Y-102841661D01*
X140858465Y-102796326D01*
X140869899Y-102758633D01*
X140888466Y-102723897D01*
X140913452Y-102693452D01*
X140943897Y-102668466D01*
X140978633Y-102649899D01*
X141016326Y-102638465D01*
X141061661Y-102634000D01*
X142148339Y-102634000D01*
X142193674Y-102638465D01*
G37*
G36*
X127859764Y-100908989D02*
G01*
X128051033Y-100988215D01*
X128051035Y-100988216D01*
X128223173Y-101103235D01*
X128369565Y-101249627D01*
X128484585Y-101421767D01*
X128563811Y-101613036D01*
X128604200Y-101816084D01*
X128604200Y-102023116D01*
X128563811Y-102226164D01*
X128484585Y-102417433D01*
X128484584Y-102417435D01*
X128369565Y-102589573D01*
X128223173Y-102735965D01*
X128051035Y-102850984D01*
X128051034Y-102850985D01*
X128051033Y-102850985D01*
X127859764Y-102930211D01*
X127656716Y-102970600D01*
X127449684Y-102970600D01*
X127246636Y-102930211D01*
X127055367Y-102850985D01*
X127055366Y-102850985D01*
X127055365Y-102850984D01*
X126883227Y-102735965D01*
X126736835Y-102589573D01*
X126621816Y-102417435D01*
X126621815Y-102417433D01*
X126542589Y-102226164D01*
X126502200Y-102023116D01*
X126502200Y-101816084D01*
X126542589Y-101613036D01*
X126621815Y-101421767D01*
X126736835Y-101249627D01*
X126883227Y-101103235D01*
X127055365Y-100988216D01*
X127055367Y-100988215D01*
X127246636Y-100908989D01*
X127449684Y-100868600D01*
X127656716Y-100868600D01*
X127859764Y-100908989D01*
G37*
G36*
X159498512Y-100068927D02*
G01*
X159647812Y-100098624D01*
X159811784Y-100166544D01*
X159959354Y-100265147D01*
X160084853Y-100390646D01*
X160183456Y-100538216D01*
X160251376Y-100702188D01*
X160286000Y-100876259D01*
X160286000Y-101053741D01*
X160251376Y-101227812D01*
X160183456Y-101391784D01*
X160084853Y-101539354D01*
X159959354Y-101664853D01*
X159811784Y-101763456D01*
X159647812Y-101831376D01*
X159498512Y-101861073D01*
X159473742Y-101866000D01*
X159296258Y-101866000D01*
X159271488Y-101861073D01*
X159122188Y-101831376D01*
X158958216Y-101763456D01*
X158810646Y-101664853D01*
X158685147Y-101539354D01*
X158586544Y-101391784D01*
X158518624Y-101227812D01*
X158484000Y-101053741D01*
X158484000Y-100876259D01*
X158518624Y-100702188D01*
X158586544Y-100538216D01*
X158685147Y-100390646D01*
X158810646Y-100265147D01*
X158958216Y-100166544D01*
X159122188Y-100098624D01*
X159271488Y-100068927D01*
X159296258Y-100064000D01*
X159473742Y-100064000D01*
X159498512Y-100068927D01*
G37*
G36*
X142193674Y-100588465D02*
G01*
X142231367Y-100599899D01*
X142266103Y-100618466D01*
X142296548Y-100643452D01*
X142321534Y-100673897D01*
X142340101Y-100708633D01*
X142351535Y-100746326D01*
X142356000Y-100791661D01*
X142356000Y-101628339D01*
X142351535Y-101673674D01*
X142340101Y-101711367D01*
X142321534Y-101746103D01*
X142296548Y-101776548D01*
X142266103Y-101801534D01*
X142231367Y-101820101D01*
X142193674Y-101831535D01*
X142148339Y-101836000D01*
X141061661Y-101836000D01*
X141016326Y-101831535D01*
X140978633Y-101820101D01*
X140943897Y-101801534D01*
X140913452Y-101776548D01*
X140888466Y-101746103D01*
X140869899Y-101711367D01*
X140858465Y-101673674D01*
X140854000Y-101628339D01*
X140854000Y-100791661D01*
X140858465Y-100746326D01*
X140869899Y-100708633D01*
X140888466Y-100673897D01*
X140913452Y-100643452D01*
X140943897Y-100618466D01*
X140978633Y-100599899D01*
X141016326Y-100588465D01*
X141061661Y-100584000D01*
X142148339Y-100584000D01*
X142193674Y-100588465D01*
G37*
G36*
X156516564Y-97414389D02*
G01*
X156707833Y-97493615D01*
X156707835Y-97493616D01*
X156879973Y-97608635D01*
X157026365Y-97755027D01*
X157090256Y-97850646D01*
X157141385Y-97927167D01*
X157220611Y-98118436D01*
X157261000Y-98321484D01*
X157261000Y-98528516D01*
X157220611Y-98731564D01*
X157170815Y-98851782D01*
X157141384Y-98922835D01*
X157026365Y-99094973D01*
X156879973Y-99241365D01*
X156707835Y-99356384D01*
X156707834Y-99356385D01*
X156707833Y-99356385D01*
X156516564Y-99435611D01*
X156313516Y-99476000D01*
X156106484Y-99476000D01*
X155903436Y-99435611D01*
X155712167Y-99356385D01*
X155712166Y-99356385D01*
X155712165Y-99356384D01*
X155540027Y-99241365D01*
X155393635Y-99094973D01*
X155278616Y-98922835D01*
X155249185Y-98851782D01*
X155199389Y-98731564D01*
X155159000Y-98528516D01*
X155159000Y-98321484D01*
X155199389Y-98118436D01*
X155278615Y-97927167D01*
X155329745Y-97850646D01*
X155393635Y-97755027D01*
X155540027Y-97608635D01*
X155712165Y-97493616D01*
X155712167Y-97493615D01*
X155903436Y-97414389D01*
X156106484Y-97374000D01*
X156313516Y-97374000D01*
X156516564Y-97414389D01*
G37*
G36*
X133021564Y-97414389D02*
G01*
X133212833Y-97493615D01*
X133212835Y-97493616D01*
X133384973Y-97608635D01*
X133531365Y-97755027D01*
X133595256Y-97850646D01*
X133646385Y-97927167D01*
X133725611Y-98118436D01*
X133766000Y-98321484D01*
X133766000Y-98528516D01*
X133725611Y-98731564D01*
X133675815Y-98851782D01*
X133646384Y-98922835D01*
X133531365Y-99094973D01*
X133384973Y-99241365D01*
X133212835Y-99356384D01*
X133212834Y-99356385D01*
X133212833Y-99356385D01*
X133021564Y-99435611D01*
X132818516Y-99476000D01*
X132611484Y-99476000D01*
X132408436Y-99435611D01*
X132217167Y-99356385D01*
X132217166Y-99356385D01*
X132217165Y-99356384D01*
X132045027Y-99241365D01*
X131898635Y-99094973D01*
X131783616Y-98922835D01*
X131754185Y-98851782D01*
X131704389Y-98731564D01*
X131664000Y-98528516D01*
X131664000Y-98321484D01*
X131704389Y-98118436D01*
X131783615Y-97927167D01*
X131834745Y-97850646D01*
X131898635Y-97755027D01*
X132045027Y-97608635D01*
X132217165Y-97493616D01*
X132217167Y-97493615D01*
X132408436Y-97414389D01*
X132611484Y-97374000D01*
X132818516Y-97374000D01*
X133021564Y-97414389D01*
G37*
G36*
X123604200Y-99470600D02*
G01*
X121502200Y-99470600D01*
X121502200Y-97368600D01*
X123604200Y-97368600D01*
X123604200Y-99470600D01*
G37*
G36*
X142296000Y-99336000D02*
G01*
X139644000Y-99336000D01*
X139644000Y-97674000D01*
X142296000Y-97674000D01*
X142296000Y-99336000D01*
G37*
G36*
X159498512Y-97528927D02*
G01*
X159647812Y-97558624D01*
X159811784Y-97626544D01*
X159959354Y-97725147D01*
X160084853Y-97850646D01*
X160183456Y-97998216D01*
X160251376Y-98162188D01*
X160286000Y-98336259D01*
X160286000Y-98513741D01*
X160251376Y-98687812D01*
X160183456Y-98851784D01*
X160084853Y-98999354D01*
X159959354Y-99124853D01*
X159811784Y-99223456D01*
X159647812Y-99291376D01*
X159498512Y-99321073D01*
X159473742Y-99326000D01*
X159296258Y-99326000D01*
X159271488Y-99321073D01*
X159122188Y-99291376D01*
X158958216Y-99223456D01*
X158810646Y-99124853D01*
X158685147Y-98999354D01*
X158586544Y-98851784D01*
X158518624Y-98687812D01*
X158484000Y-98513741D01*
X158484000Y-98336259D01*
X158518624Y-98162188D01*
X158586544Y-97998216D01*
X158685147Y-97850646D01*
X158810646Y-97725147D01*
X158958216Y-97626544D01*
X159122188Y-97558624D01*
X159271488Y-97528927D01*
X159296258Y-97524000D01*
X159473742Y-97524000D01*
X159498512Y-97528927D01*
G37*
G36*
X137113674Y-97558465D02*
G01*
X137151367Y-97569899D01*
X137186103Y-97588466D01*
X137216548Y-97613452D01*
X137241534Y-97643897D01*
X137260101Y-97678633D01*
X137271535Y-97716326D01*
X137276000Y-97761661D01*
X137276000Y-98598339D01*
X137271535Y-98643674D01*
X137260101Y-98681367D01*
X137241534Y-98716103D01*
X137216548Y-98746548D01*
X137186103Y-98771534D01*
X137151367Y-98790101D01*
X137113674Y-98801535D01*
X137068339Y-98806000D01*
X135981661Y-98806000D01*
X135936326Y-98801535D01*
X135898633Y-98790101D01*
X135863897Y-98771534D01*
X135833452Y-98746548D01*
X135808466Y-98716103D01*
X135789899Y-98681367D01*
X135778465Y-98643674D01*
X135774000Y-98598339D01*
X135774000Y-97761661D01*
X135778465Y-97716326D01*
X135789899Y-97678633D01*
X135808466Y-97643897D01*
X135833452Y-97613452D01*
X135863897Y-97588466D01*
X135898633Y-97569899D01*
X135936326Y-97558465D01*
X135981661Y-97554000D01*
X137068339Y-97554000D01*
X137113674Y-97558465D01*
G37*
G36*
X145721564Y-94874389D02*
G01*
X145912833Y-94953615D01*
X145912835Y-94953616D01*
X146084973Y-95068635D01*
X146231365Y-95215027D01*
X146295256Y-95310646D01*
X146346385Y-95387167D01*
X146425611Y-95578436D01*
X146466000Y-95781484D01*
X146466000Y-95988516D01*
X146425611Y-96191564D01*
X146375815Y-96311782D01*
X146346384Y-96382835D01*
X146231365Y-96554973D01*
X146084973Y-96701365D01*
X145912835Y-96816384D01*
X145912834Y-96816385D01*
X145912833Y-96816385D01*
X145721564Y-96895611D01*
X145518516Y-96936000D01*
X145311484Y-96936000D01*
X145108436Y-96895611D01*
X144917167Y-96816385D01*
X144917166Y-96816385D01*
X144917165Y-96816384D01*
X144745027Y-96701365D01*
X144598635Y-96554973D01*
X144483616Y-96382835D01*
X144454185Y-96311782D01*
X144404389Y-96191564D01*
X144364000Y-95988516D01*
X144364000Y-95781484D01*
X144404389Y-95578436D01*
X144483615Y-95387167D01*
X144534745Y-95310646D01*
X144598635Y-95215027D01*
X144745027Y-95068635D01*
X144917165Y-94953616D01*
X144917167Y-94953615D01*
X145108436Y-94874389D01*
X145311484Y-94834000D01*
X145518516Y-94834000D01*
X145721564Y-94874389D01*
G37*
G36*
X156516564Y-94874389D02*
G01*
X156707833Y-94953615D01*
X156707835Y-94953616D01*
X156879973Y-95068635D01*
X157026365Y-95215027D01*
X157090256Y-95310646D01*
X157141385Y-95387167D01*
X157220611Y-95578436D01*
X157261000Y-95781484D01*
X157261000Y-95988516D01*
X157220611Y-96191564D01*
X157170815Y-96311782D01*
X157141384Y-96382835D01*
X157026365Y-96554973D01*
X156879973Y-96701365D01*
X156707835Y-96816384D01*
X156707834Y-96816385D01*
X156707833Y-96816385D01*
X156516564Y-96895611D01*
X156313516Y-96936000D01*
X156106484Y-96936000D01*
X155903436Y-96895611D01*
X155712167Y-96816385D01*
X155712166Y-96816385D01*
X155712165Y-96816384D01*
X155540027Y-96701365D01*
X155393635Y-96554973D01*
X155278616Y-96382835D01*
X155249185Y-96311782D01*
X155199389Y-96191564D01*
X155159000Y-95988516D01*
X155159000Y-95781484D01*
X155199389Y-95578436D01*
X155278615Y-95387167D01*
X155329745Y-95310646D01*
X155393635Y-95215027D01*
X155540027Y-95068635D01*
X155712165Y-94953616D01*
X155712167Y-94953615D01*
X155903436Y-94874389D01*
X156106484Y-94834000D01*
X156313516Y-94834000D01*
X156516564Y-94874389D01*
G37*
G36*
X149338512Y-94988927D02*
G01*
X149487812Y-95018624D01*
X149651784Y-95086544D01*
X149799354Y-95185147D01*
X149924853Y-95310646D01*
X150023456Y-95458216D01*
X150091376Y-95622188D01*
X150126000Y-95796259D01*
X150126000Y-95973741D01*
X150091376Y-96147812D01*
X150023456Y-96311784D01*
X149924853Y-96459354D01*
X149799354Y-96584853D01*
X149651784Y-96683456D01*
X149487812Y-96751376D01*
X149338512Y-96781073D01*
X149313742Y-96786000D01*
X149136258Y-96786000D01*
X149111488Y-96781073D01*
X148962188Y-96751376D01*
X148798216Y-96683456D01*
X148650646Y-96584853D01*
X148525147Y-96459354D01*
X148426544Y-96311784D01*
X148358624Y-96147812D01*
X148324000Y-95973741D01*
X148324000Y-95796259D01*
X148358624Y-95622188D01*
X148426544Y-95458216D01*
X148525147Y-95310646D01*
X148650646Y-95185147D01*
X148798216Y-95086544D01*
X148962188Y-95018624D01*
X149111488Y-94988927D01*
X149136258Y-94984000D01*
X149313742Y-94984000D01*
X149338512Y-94988927D01*
G37*
G36*
X159498512Y-94988927D02*
G01*
X159647812Y-95018624D01*
X159811784Y-95086544D01*
X159959354Y-95185147D01*
X160084853Y-95310646D01*
X160183456Y-95458216D01*
X160251376Y-95622188D01*
X160286000Y-95796259D01*
X160286000Y-95973741D01*
X160251376Y-96147812D01*
X160183456Y-96311784D01*
X160084853Y-96459354D01*
X159959354Y-96584853D01*
X159811784Y-96683456D01*
X159647812Y-96751376D01*
X159498512Y-96781073D01*
X159473742Y-96786000D01*
X159296258Y-96786000D01*
X159271488Y-96781073D01*
X159122188Y-96751376D01*
X158958216Y-96683456D01*
X158810646Y-96584853D01*
X158685147Y-96459354D01*
X158586544Y-96311784D01*
X158518624Y-96147812D01*
X158484000Y-95973741D01*
X158484000Y-95796259D01*
X158518624Y-95622188D01*
X158586544Y-95458216D01*
X158685147Y-95310646D01*
X158810646Y-95185147D01*
X158958216Y-95086544D01*
X159122188Y-95018624D01*
X159271488Y-94988927D01*
X159296258Y-94984000D01*
X159473742Y-94984000D01*
X159498512Y-94988927D01*
G37*
G36*
X137113674Y-95508465D02*
G01*
X137151367Y-95519899D01*
X137186103Y-95538466D01*
X137216548Y-95563452D01*
X137241534Y-95593897D01*
X137260101Y-95628633D01*
X137271535Y-95666326D01*
X137276000Y-95711661D01*
X137276000Y-96548339D01*
X137271535Y-96593674D01*
X137260101Y-96631367D01*
X137241534Y-96666103D01*
X137216548Y-96696548D01*
X137186103Y-96721534D01*
X137151367Y-96740101D01*
X137113674Y-96751535D01*
X137068339Y-96756000D01*
X135981661Y-96756000D01*
X135936326Y-96751535D01*
X135898633Y-96740101D01*
X135863897Y-96721534D01*
X135833452Y-96696548D01*
X135808466Y-96666103D01*
X135789899Y-96631367D01*
X135778465Y-96593674D01*
X135774000Y-96548339D01*
X135774000Y-95711661D01*
X135778465Y-95666326D01*
X135789899Y-95628633D01*
X135808466Y-95593897D01*
X135833452Y-95563452D01*
X135863897Y-95538466D01*
X135898633Y-95519899D01*
X135936326Y-95508465D01*
X135981661Y-95504000D01*
X137068339Y-95504000D01*
X137113674Y-95508465D01*
G37*
G36*
X142296000Y-96636000D02*
G01*
X139644000Y-96636000D01*
X139644000Y-94974000D01*
X142296000Y-94974000D01*
X142296000Y-96636000D01*
G37*
G36*
X156516564Y-92334389D02*
G01*
X156707833Y-92413615D01*
X156707835Y-92413616D01*
X156879973Y-92528635D01*
X157026365Y-92675027D01*
X157090256Y-92770646D01*
X157141385Y-92847167D01*
X157220611Y-93038436D01*
X157261000Y-93241484D01*
X157261000Y-93448516D01*
X157220611Y-93651564D01*
X157170815Y-93771782D01*
X157141384Y-93842835D01*
X157026365Y-94014973D01*
X156879973Y-94161365D01*
X156707835Y-94276384D01*
X156707834Y-94276385D01*
X156707833Y-94276385D01*
X156516564Y-94355611D01*
X156313516Y-94396000D01*
X156106484Y-94396000D01*
X155903436Y-94355611D01*
X155712167Y-94276385D01*
X155712166Y-94276385D01*
X155712165Y-94276384D01*
X155540027Y-94161365D01*
X155393635Y-94014973D01*
X155278616Y-93842835D01*
X155249185Y-93771782D01*
X155199389Y-93651564D01*
X155159000Y-93448516D01*
X155159000Y-93241484D01*
X155199389Y-93038436D01*
X155278615Y-92847167D01*
X155329745Y-92770646D01*
X155393635Y-92675027D01*
X155540027Y-92528635D01*
X155712165Y-92413616D01*
X155712167Y-92413615D01*
X155903436Y-92334389D01*
X156106484Y-92294000D01*
X156313516Y-92294000D01*
X156516564Y-92334389D01*
G37*
G36*
X129211564Y-92334389D02*
G01*
X129402833Y-92413615D01*
X129402835Y-92413616D01*
X129574973Y-92528635D01*
X129721365Y-92675027D01*
X129785256Y-92770646D01*
X129836385Y-92847167D01*
X129915611Y-93038436D01*
X129956000Y-93241484D01*
X129956000Y-93448516D01*
X129915611Y-93651564D01*
X129865815Y-93771782D01*
X129836384Y-93842835D01*
X129721365Y-94014973D01*
X129574973Y-94161365D01*
X129402835Y-94276384D01*
X129402834Y-94276385D01*
X129402833Y-94276385D01*
X129211564Y-94355611D01*
X129008516Y-94396000D01*
X128801484Y-94396000D01*
X128598436Y-94355611D01*
X128407167Y-94276385D01*
X128407166Y-94276385D01*
X128407165Y-94276384D01*
X128235027Y-94161365D01*
X128088635Y-94014973D01*
X127973616Y-93842835D01*
X127944185Y-93771782D01*
X127894389Y-93651564D01*
X127854000Y-93448516D01*
X127854000Y-93241484D01*
X127894389Y-93038436D01*
X127973615Y-92847167D01*
X128024745Y-92770646D01*
X128088635Y-92675027D01*
X128235027Y-92528635D01*
X128407165Y-92413616D01*
X128407167Y-92413615D01*
X128598436Y-92334389D01*
X128801484Y-92294000D01*
X129008516Y-92294000D01*
X129211564Y-92334389D01*
G37*
G36*
X150126000Y-94246000D02*
G01*
X148324000Y-94246000D01*
X148324000Y-92444000D01*
X150126000Y-92444000D01*
X150126000Y-94246000D01*
G37*
G36*
X132828512Y-92448927D02*
G01*
X132977812Y-92478624D01*
X133141784Y-92546544D01*
X133289354Y-92645147D01*
X133414853Y-92770646D01*
X133513456Y-92918216D01*
X133581376Y-93082188D01*
X133616000Y-93256259D01*
X133616000Y-93433741D01*
X133581376Y-93607812D01*
X133513456Y-93771784D01*
X133414853Y-93919354D01*
X133289354Y-94044853D01*
X133141784Y-94143456D01*
X132977812Y-94211376D01*
X132828512Y-94241073D01*
X132803742Y-94246000D01*
X132626258Y-94246000D01*
X132601488Y-94241073D01*
X132452188Y-94211376D01*
X132288216Y-94143456D01*
X132140646Y-94044853D01*
X132015147Y-93919354D01*
X131916544Y-93771784D01*
X131848624Y-93607812D01*
X131814000Y-93433741D01*
X131814000Y-93256259D01*
X131848624Y-93082188D01*
X131916544Y-92918216D01*
X132015147Y-92770646D01*
X132140646Y-92645147D01*
X132288216Y-92546544D01*
X132452188Y-92478624D01*
X132601488Y-92448927D01*
X132626258Y-92444000D01*
X132803742Y-92444000D01*
X132828512Y-92448927D01*
G37*
G36*
X159498512Y-92448927D02*
G01*
X159647812Y-92478624D01*
X159811784Y-92546544D01*
X159959354Y-92645147D01*
X160084853Y-92770646D01*
X160183456Y-92918216D01*
X160251376Y-93082188D01*
X160286000Y-93256259D01*
X160286000Y-93433741D01*
X160251376Y-93607812D01*
X160183456Y-93771784D01*
X160084853Y-93919354D01*
X159959354Y-94044853D01*
X159811784Y-94143456D01*
X159647812Y-94211376D01*
X159498512Y-94241073D01*
X159473742Y-94246000D01*
X159296258Y-94246000D01*
X159271488Y-94241073D01*
X159122188Y-94211376D01*
X158958216Y-94143456D01*
X158810646Y-94044853D01*
X158685147Y-93919354D01*
X158586544Y-93771784D01*
X158518624Y-93607812D01*
X158484000Y-93433741D01*
X158484000Y-93256259D01*
X158518624Y-93082188D01*
X158586544Y-92918216D01*
X158685147Y-92770646D01*
X158810646Y-92645147D01*
X158958216Y-92546544D01*
X159122188Y-92478624D01*
X159271488Y-92448927D01*
X159296258Y-92444000D01*
X159473742Y-92444000D01*
X159498512Y-92448927D01*
G37*
G36*
X129211564Y-89794389D02*
G01*
X129402833Y-89873615D01*
X129402835Y-89873616D01*
X129574973Y-89988635D01*
X129721365Y-90135027D01*
X129785256Y-90230646D01*
X129836385Y-90307167D01*
X129915611Y-90498436D01*
X129956000Y-90701484D01*
X129956000Y-90908516D01*
X129915611Y-91111564D01*
X129865815Y-91231782D01*
X129836384Y-91302835D01*
X129721365Y-91474973D01*
X129574973Y-91621365D01*
X129402835Y-91736384D01*
X129402834Y-91736385D01*
X129402833Y-91736385D01*
X129211564Y-91815611D01*
X129008516Y-91856000D01*
X128801484Y-91856000D01*
X128598436Y-91815611D01*
X128407167Y-91736385D01*
X128407166Y-91736385D01*
X128407165Y-91736384D01*
X128235027Y-91621365D01*
X128088635Y-91474973D01*
X127973616Y-91302835D01*
X127944185Y-91231782D01*
X127894389Y-91111564D01*
X127854000Y-90908516D01*
X127854000Y-90701484D01*
X127894389Y-90498436D01*
X127973615Y-90307167D01*
X128024745Y-90230646D01*
X128088635Y-90135027D01*
X128235027Y-89988635D01*
X128407165Y-89873616D01*
X128407167Y-89873615D01*
X128598436Y-89794389D01*
X128801484Y-89754000D01*
X129008516Y-89754000D01*
X129211564Y-89794389D01*
G37*
G36*
X156516564Y-89794389D02*
G01*
X156707833Y-89873615D01*
X156707835Y-89873616D01*
X156879973Y-89988635D01*
X157026365Y-90135027D01*
X157090256Y-90230646D01*
X157141385Y-90307167D01*
X157220611Y-90498436D01*
X157261000Y-90701484D01*
X157261000Y-90908516D01*
X157220611Y-91111564D01*
X157170815Y-91231782D01*
X157141384Y-91302835D01*
X157026365Y-91474973D01*
X156879973Y-91621365D01*
X156707835Y-91736384D01*
X156707834Y-91736385D01*
X156707833Y-91736385D01*
X156516564Y-91815611D01*
X156313516Y-91856000D01*
X156106484Y-91856000D01*
X155903436Y-91815611D01*
X155712167Y-91736385D01*
X155712166Y-91736385D01*
X155712165Y-91736384D01*
X155540027Y-91621365D01*
X155393635Y-91474973D01*
X155278616Y-91302835D01*
X155249185Y-91231782D01*
X155199389Y-91111564D01*
X155159000Y-90908516D01*
X155159000Y-90701484D01*
X155199389Y-90498436D01*
X155278615Y-90307167D01*
X155329745Y-90230646D01*
X155393635Y-90135027D01*
X155540027Y-89988635D01*
X155712165Y-89873616D01*
X155712167Y-89873615D01*
X155903436Y-89794389D01*
X156106484Y-89754000D01*
X156313516Y-89754000D01*
X156516564Y-89794389D01*
G37*
G36*
X160286000Y-91706000D02*
G01*
X158484000Y-91706000D01*
X158484000Y-89904000D01*
X160286000Y-89904000D01*
X160286000Y-91706000D01*
G37*
G36*
X133616000Y-91706000D02*
G01*
X131814000Y-91706000D01*
X131814000Y-89904000D01*
X133616000Y-89904000D01*
X133616000Y-91706000D01*
G37*
G36*
X139813512Y-89908927D02*
G01*
X139962812Y-89938624D01*
X140126784Y-90006544D01*
X140274354Y-90105147D01*
X140399853Y-90230646D01*
X140498456Y-90378216D01*
X140566376Y-90542188D01*
X140601000Y-90716259D01*
X140601000Y-90893741D01*
X140566376Y-91067812D01*
X140498456Y-91231784D01*
X140399853Y-91379354D01*
X140274354Y-91504853D01*
X140126784Y-91603456D01*
X139962812Y-91671376D01*
X139813512Y-91701073D01*
X139788742Y-91706000D01*
X139611258Y-91706000D01*
X139586488Y-91701073D01*
X139437188Y-91671376D01*
X139273216Y-91603456D01*
X139125646Y-91504853D01*
X139000147Y-91379354D01*
X138901544Y-91231784D01*
X138833624Y-91067812D01*
X138799000Y-90893741D01*
X138799000Y-90716259D01*
X138833624Y-90542188D01*
X138901544Y-90378216D01*
X139000147Y-90230646D01*
X139125646Y-90105147D01*
X139273216Y-90006544D01*
X139437188Y-89938624D01*
X139586488Y-89908927D01*
X139611258Y-89904000D01*
X139788742Y-89904000D01*
X139813512Y-89908927D01*
G37*
G36*
X138061000Y-91706000D02*
G01*
X136259000Y-91706000D01*
X136259000Y-89904000D01*
X138061000Y-89904000D01*
X138061000Y-91706000D01*
G37*
G36*
X142988512Y-84828927D02*
G01*
X143137812Y-84858624D01*
X143301784Y-84926544D01*
X143449354Y-85025147D01*
X143574853Y-85150646D01*
X143673456Y-85298216D01*
X143741376Y-85462188D01*
X143776000Y-85636259D01*
X143776000Y-85813741D01*
X143741376Y-85987812D01*
X143673456Y-86151784D01*
X143574853Y-86299354D01*
X143449354Y-86424853D01*
X143301784Y-86523456D01*
X143137812Y-86591376D01*
X142988512Y-86621073D01*
X142963742Y-86626000D01*
X142786258Y-86626000D01*
X142761488Y-86621073D01*
X142612188Y-86591376D01*
X142448216Y-86523456D01*
X142300646Y-86424853D01*
X142175147Y-86299354D01*
X142076544Y-86151784D01*
X142008624Y-85987812D01*
X141974000Y-85813741D01*
X141974000Y-85636259D01*
X142008624Y-85462188D01*
X142076544Y-85298216D01*
X142175147Y-85150646D01*
X142300646Y-85025147D01*
X142448216Y-84926544D01*
X142612188Y-84858624D01*
X142761488Y-84828927D01*
X142786258Y-84824000D01*
X142963742Y-84824000D01*
X142988512Y-84828927D01*
G37*
G36*
X127748512Y-84828927D02*
G01*
X127897812Y-84858624D01*
X128061784Y-84926544D01*
X128209354Y-85025147D01*
X128334853Y-85150646D01*
X128433456Y-85298216D01*
X128501376Y-85462188D01*
X128536000Y-85636259D01*
X128536000Y-85813741D01*
X128501376Y-85987812D01*
X128433456Y-86151784D01*
X128334853Y-86299354D01*
X128209354Y-86424853D01*
X128061784Y-86523456D01*
X127897812Y-86591376D01*
X127748512Y-86621073D01*
X127723742Y-86626000D01*
X127546258Y-86626000D01*
X127521488Y-86621073D01*
X127372188Y-86591376D01*
X127208216Y-86523456D01*
X127060646Y-86424853D01*
X126935147Y-86299354D01*
X126836544Y-86151784D01*
X126768624Y-85987812D01*
X126734000Y-85813741D01*
X126734000Y-85636259D01*
X126768624Y-85462188D01*
X126836544Y-85298216D01*
X126935147Y-85150646D01*
X127060646Y-85025147D01*
X127208216Y-84926544D01*
X127372188Y-84858624D01*
X127521488Y-84828927D01*
X127546258Y-84824000D01*
X127723742Y-84824000D01*
X127748512Y-84828927D01*
G37*
G36*
X130288512Y-84828927D02*
G01*
X130437812Y-84858624D01*
X130601784Y-84926544D01*
X130749354Y-85025147D01*
X130874853Y-85150646D01*
X130973456Y-85298216D01*
X131041376Y-85462188D01*
X131076000Y-85636259D01*
X131076000Y-85813741D01*
X131041376Y-85987812D01*
X130973456Y-86151784D01*
X130874853Y-86299354D01*
X130749354Y-86424853D01*
X130601784Y-86523456D01*
X130437812Y-86591376D01*
X130288512Y-86621073D01*
X130263742Y-86626000D01*
X130086258Y-86626000D01*
X130061488Y-86621073D01*
X129912188Y-86591376D01*
X129748216Y-86523456D01*
X129600646Y-86424853D01*
X129475147Y-86299354D01*
X129376544Y-86151784D01*
X129308624Y-85987812D01*
X129274000Y-85813741D01*
X129274000Y-85636259D01*
X129308624Y-85462188D01*
X129376544Y-85298216D01*
X129475147Y-85150646D01*
X129600646Y-85025147D01*
X129748216Y-84926544D01*
X129912188Y-84858624D01*
X130061488Y-84828927D01*
X130086258Y-84824000D01*
X130263742Y-84824000D01*
X130288512Y-84828927D01*
G37*
G36*
X132828512Y-84828927D02*
G01*
X132977812Y-84858624D01*
X133141784Y-84926544D01*
X133289354Y-85025147D01*
X133414853Y-85150646D01*
X133513456Y-85298216D01*
X133581376Y-85462188D01*
X133616000Y-85636259D01*
X133616000Y-85813741D01*
X133581376Y-85987812D01*
X133513456Y-86151784D01*
X133414853Y-86299354D01*
X133289354Y-86424853D01*
X133141784Y-86523456D01*
X132977812Y-86591376D01*
X132828512Y-86621073D01*
X132803742Y-86626000D01*
X132626258Y-86626000D01*
X132601488Y-86621073D01*
X132452188Y-86591376D01*
X132288216Y-86523456D01*
X132140646Y-86424853D01*
X132015147Y-86299354D01*
X131916544Y-86151784D01*
X131848624Y-85987812D01*
X131814000Y-85813741D01*
X131814000Y-85636259D01*
X131848624Y-85462188D01*
X131916544Y-85298216D01*
X132015147Y-85150646D01*
X132140646Y-85025147D01*
X132288216Y-84926544D01*
X132452188Y-84858624D01*
X132601488Y-84828927D01*
X132626258Y-84824000D01*
X132803742Y-84824000D01*
X132828512Y-84828927D01*
G37*
G36*
X146316000Y-86626000D02*
G01*
X144514000Y-86626000D01*
X144514000Y-84824000D01*
X146316000Y-84824000D01*
X146316000Y-86626000D01*
G37*
G36*
X140448512Y-84828927D02*
G01*
X140597812Y-84858624D01*
X140761784Y-84926544D01*
X140909354Y-85025147D01*
X141034853Y-85150646D01*
X141133456Y-85298216D01*
X141201376Y-85462188D01*
X141236000Y-85636259D01*
X141236000Y-85813741D01*
X141201376Y-85987812D01*
X141133456Y-86151784D01*
X141034853Y-86299354D01*
X140909354Y-86424853D01*
X140761784Y-86523456D01*
X140597812Y-86591376D01*
X140448512Y-86621073D01*
X140423742Y-86626000D01*
X140246258Y-86626000D01*
X140221488Y-86621073D01*
X140072188Y-86591376D01*
X139908216Y-86523456D01*
X139760646Y-86424853D01*
X139635147Y-86299354D01*
X139536544Y-86151784D01*
X139468624Y-85987812D01*
X139434000Y-85813741D01*
X139434000Y-85636259D01*
X139468624Y-85462188D01*
X139536544Y-85298216D01*
X139635147Y-85150646D01*
X139760646Y-85025147D01*
X139908216Y-84926544D01*
X140072188Y-84858624D01*
X140221488Y-84828927D01*
X140246258Y-84824000D01*
X140423742Y-84824000D01*
X140448512Y-84828927D01*
G37*
G36*
X135368512Y-84828927D02*
G01*
X135517812Y-84858624D01*
X135681784Y-84926544D01*
X135829354Y-85025147D01*
X135954853Y-85150646D01*
X136053456Y-85298216D01*
X136121376Y-85462188D01*
X136156000Y-85636259D01*
X136156000Y-85813741D01*
X136121376Y-85987812D01*
X136053456Y-86151784D01*
X135954853Y-86299354D01*
X135829354Y-86424853D01*
X135681784Y-86523456D01*
X135517812Y-86591376D01*
X135368512Y-86621073D01*
X135343742Y-86626000D01*
X135166258Y-86626000D01*
X135141488Y-86621073D01*
X134992188Y-86591376D01*
X134828216Y-86523456D01*
X134680646Y-86424853D01*
X134555147Y-86299354D01*
X134456544Y-86151784D01*
X134388624Y-85987812D01*
X134354000Y-85813741D01*
X134354000Y-85636259D01*
X134388624Y-85462188D01*
X134456544Y-85298216D01*
X134555147Y-85150646D01*
X134680646Y-85025147D01*
X134828216Y-84926544D01*
X134992188Y-84858624D01*
X135141488Y-84828927D01*
X135166258Y-84824000D01*
X135343742Y-84824000D01*
X135368512Y-84828927D01*
G37*
G36*
X120390256Y-81576298D02*
G01*
X120496579Y-81597447D01*
X120797042Y-81721903D01*
X121067451Y-81902585D01*
X121297415Y-82132549D01*
X121478097Y-82402958D01*
X121602553Y-82703421D01*
X121666000Y-83022391D01*
X121666000Y-83347609D01*
X121602553Y-83666579D01*
X121478097Y-83967042D01*
X121297415Y-84237451D01*
X121067451Y-84467415D01*
X120797042Y-84648097D01*
X120496579Y-84772553D01*
X120390256Y-84793702D01*
X120177611Y-84836000D01*
X119852389Y-84836000D01*
X119639744Y-84793702D01*
X119533421Y-84772553D01*
X119232958Y-84648097D01*
X118962549Y-84467415D01*
X118732585Y-84237451D01*
X118551903Y-83967042D01*
X118427447Y-83666579D01*
X118364000Y-83347609D01*
X118364000Y-83022391D01*
X118427447Y-82703421D01*
X118551903Y-82402958D01*
X118732585Y-82132549D01*
X118962549Y-81902585D01*
X119232958Y-81721903D01*
X119533421Y-81597447D01*
X119639744Y-81576298D01*
X119852389Y-81534000D01*
X120177611Y-81534000D01*
X120390256Y-81576298D01*
G37*
G36*
X157855256Y-81576298D02*
G01*
X157961579Y-81597447D01*
X158262042Y-81721903D01*
X158532451Y-81902585D01*
X158762415Y-82132549D01*
X158943097Y-82402958D01*
X159067553Y-82703421D01*
X159131000Y-83022391D01*
X159131000Y-83347609D01*
X159067553Y-83666579D01*
X158943097Y-83967042D01*
X158762415Y-84237451D01*
X158532451Y-84467415D01*
X158262042Y-84648097D01*
X157961579Y-84772553D01*
X157855256Y-84793702D01*
X157642611Y-84836000D01*
X157317389Y-84836000D01*
X157104744Y-84793702D01*
X156998421Y-84772553D01*
X156697958Y-84648097D01*
X156427549Y-84467415D01*
X156197585Y-84237451D01*
X156016903Y-83967042D01*
X155892447Y-83666579D01*
X155829000Y-83347609D01*
X155829000Y-83022391D01*
X155892447Y-82703421D01*
X156016903Y-82402958D01*
X156197585Y-82132549D01*
X156427549Y-81902585D01*
X156697958Y-81721903D01*
X156998421Y-81597447D01*
X157104744Y-81576298D01*
X157317389Y-81534000D01*
X157642611Y-81534000D01*
X157855256Y-81576298D01*
G37*
M02*
