G04 #@! TF.GenerationSoftware,KiCad,Pcbnew,5.1.5-52549c5~84~ubuntu19.04.1*
G04 #@! TF.CreationDate,2019-11-23T15:47:04+01:00*
G04 #@! TF.ProjectId,2ch-4-20mA,3263682d-342d-4323-906d-412e6b696361,rev?*
G04 #@! TF.SameCoordinates,Original*
G04 #@! TF.FileFunction,Copper,L1,Top*
G04 #@! TF.FilePolarity,Positive*
%FSLAX46Y46*%
G04 Gerber Fmt 4.6, Leading zero omitted, Abs format (unit mm)*
G04 Created by KiCad (PCBNEW 5.1.5-52549c5~84~ubuntu19.04.1) date 2019-11-23 15:47:04*
%MOMM*%
%LPD*%
G04 APERTURE LIST*
%ADD10C,2.000000*%
%ADD11R,2.000000X2.000000*%
%ADD12C,1.700000*%
%ADD13R,1.700000X1.700000*%
%ADD14O,1.700000X1.700000*%
%ADD15R,0.650000X1.560000*%
%ADD16C,0.100000*%
%ADD17C,0.800000*%
%ADD18C,0.508000*%
%ADD19C,1.016000*%
%ADD20C,0.254000*%
G04 APERTURE END LIST*
D10*
X127553200Y-114619600D03*
D11*
X122553200Y-111119600D03*
D10*
X127553200Y-101919600D03*
D11*
X122553200Y-98419600D03*
D12*
X127635000Y-85725000D03*
X130175000Y-85725000D03*
X132715000Y-85725000D03*
X135255000Y-85725000D03*
X140335000Y-85725000D03*
X142875000Y-85725000D03*
D13*
X145415000Y-85725000D03*
D14*
X132715000Y-93345000D03*
D13*
X132715000Y-90805000D03*
D14*
X139700000Y-120650000D03*
D13*
X137160000Y-120650000D03*
D14*
X149225000Y-95885000D03*
D13*
X149225000Y-93345000D03*
D14*
X139700000Y-90805000D03*
D13*
X137160000Y-90805000D03*
D14*
X159385000Y-106045000D03*
X159385000Y-103505000D03*
X159385000Y-100965000D03*
X159385000Y-98425000D03*
X159385000Y-95885000D03*
X159385000Y-93345000D03*
D13*
X159385000Y-90805000D03*
D10*
X156210000Y-98425000D03*
X156210000Y-95885000D03*
X156210000Y-93345000D03*
X156210000Y-90805000D03*
X128905000Y-90805000D03*
X128905000Y-93345000D03*
X145415000Y-108585000D03*
X132715000Y-111125000D03*
X145415000Y-95885000D03*
X132715000Y-98425000D03*
D15*
X141920000Y-108505000D03*
X140970000Y-108505000D03*
X140020000Y-108505000D03*
X140020000Y-111205000D03*
X141920000Y-111205000D03*
X140970000Y-111205000D03*
X141920000Y-95805000D03*
X140970000Y-95805000D03*
X140020000Y-95805000D03*
X140020000Y-98505000D03*
X141920000Y-98505000D03*
X140970000Y-98505000D03*
G04 #@! TA.AperFunction,SMDPad,CuDef*
D16*
G36*
X136999505Y-108256204D02*
G01*
X137023773Y-108259804D01*
X137047572Y-108265765D01*
X137070671Y-108274030D01*
X137092850Y-108284520D01*
X137113893Y-108297132D01*
X137133599Y-108311747D01*
X137151777Y-108328223D01*
X137168253Y-108346401D01*
X137182868Y-108366107D01*
X137195480Y-108387150D01*
X137205970Y-108409329D01*
X137214235Y-108432428D01*
X137220196Y-108456227D01*
X137223796Y-108480495D01*
X137225000Y-108504999D01*
X137225000Y-109155001D01*
X137223796Y-109179505D01*
X137220196Y-109203773D01*
X137214235Y-109227572D01*
X137205970Y-109250671D01*
X137195480Y-109272850D01*
X137182868Y-109293893D01*
X137168253Y-109313599D01*
X137151777Y-109331777D01*
X137133599Y-109348253D01*
X137113893Y-109362868D01*
X137092850Y-109375480D01*
X137070671Y-109385970D01*
X137047572Y-109394235D01*
X137023773Y-109400196D01*
X136999505Y-109403796D01*
X136975001Y-109405000D01*
X136074999Y-109405000D01*
X136050495Y-109403796D01*
X136026227Y-109400196D01*
X136002428Y-109394235D01*
X135979329Y-109385970D01*
X135957150Y-109375480D01*
X135936107Y-109362868D01*
X135916401Y-109348253D01*
X135898223Y-109331777D01*
X135881747Y-109313599D01*
X135867132Y-109293893D01*
X135854520Y-109272850D01*
X135844030Y-109250671D01*
X135835765Y-109227572D01*
X135829804Y-109203773D01*
X135826204Y-109179505D01*
X135825000Y-109155001D01*
X135825000Y-108504999D01*
X135826204Y-108480495D01*
X135829804Y-108456227D01*
X135835765Y-108432428D01*
X135844030Y-108409329D01*
X135854520Y-108387150D01*
X135867132Y-108366107D01*
X135881747Y-108346401D01*
X135898223Y-108328223D01*
X135916401Y-108311747D01*
X135936107Y-108297132D01*
X135957150Y-108284520D01*
X135979329Y-108274030D01*
X136002428Y-108265765D01*
X136026227Y-108259804D01*
X136050495Y-108256204D01*
X136074999Y-108255000D01*
X136975001Y-108255000D01*
X136999505Y-108256204D01*
G37*
G04 #@! TD.AperFunction*
G04 #@! TA.AperFunction,SMDPad,CuDef*
G36*
X136999505Y-110306204D02*
G01*
X137023773Y-110309804D01*
X137047572Y-110315765D01*
X137070671Y-110324030D01*
X137092850Y-110334520D01*
X137113893Y-110347132D01*
X137133599Y-110361747D01*
X137151777Y-110378223D01*
X137168253Y-110396401D01*
X137182868Y-110416107D01*
X137195480Y-110437150D01*
X137205970Y-110459329D01*
X137214235Y-110482428D01*
X137220196Y-110506227D01*
X137223796Y-110530495D01*
X137225000Y-110554999D01*
X137225000Y-111205001D01*
X137223796Y-111229505D01*
X137220196Y-111253773D01*
X137214235Y-111277572D01*
X137205970Y-111300671D01*
X137195480Y-111322850D01*
X137182868Y-111343893D01*
X137168253Y-111363599D01*
X137151777Y-111381777D01*
X137133599Y-111398253D01*
X137113893Y-111412868D01*
X137092850Y-111425480D01*
X137070671Y-111435970D01*
X137047572Y-111444235D01*
X137023773Y-111450196D01*
X136999505Y-111453796D01*
X136975001Y-111455000D01*
X136074999Y-111455000D01*
X136050495Y-111453796D01*
X136026227Y-111450196D01*
X136002428Y-111444235D01*
X135979329Y-111435970D01*
X135957150Y-111425480D01*
X135936107Y-111412868D01*
X135916401Y-111398253D01*
X135898223Y-111381777D01*
X135881747Y-111363599D01*
X135867132Y-111343893D01*
X135854520Y-111322850D01*
X135844030Y-111300671D01*
X135835765Y-111277572D01*
X135829804Y-111253773D01*
X135826204Y-111229505D01*
X135825000Y-111205001D01*
X135825000Y-110554999D01*
X135826204Y-110530495D01*
X135829804Y-110506227D01*
X135835765Y-110482428D01*
X135844030Y-110459329D01*
X135854520Y-110437150D01*
X135867132Y-110416107D01*
X135881747Y-110396401D01*
X135898223Y-110378223D01*
X135916401Y-110361747D01*
X135936107Y-110347132D01*
X135957150Y-110334520D01*
X135979329Y-110324030D01*
X136002428Y-110315765D01*
X136026227Y-110309804D01*
X136050495Y-110306204D01*
X136074999Y-110305000D01*
X136975001Y-110305000D01*
X136999505Y-110306204D01*
G37*
G04 #@! TD.AperFunction*
G04 #@! TA.AperFunction,SMDPad,CuDef*
G36*
X136999505Y-95556204D02*
G01*
X137023773Y-95559804D01*
X137047572Y-95565765D01*
X137070671Y-95574030D01*
X137092850Y-95584520D01*
X137113893Y-95597132D01*
X137133599Y-95611747D01*
X137151777Y-95628223D01*
X137168253Y-95646401D01*
X137182868Y-95666107D01*
X137195480Y-95687150D01*
X137205970Y-95709329D01*
X137214235Y-95732428D01*
X137220196Y-95756227D01*
X137223796Y-95780495D01*
X137225000Y-95804999D01*
X137225000Y-96455001D01*
X137223796Y-96479505D01*
X137220196Y-96503773D01*
X137214235Y-96527572D01*
X137205970Y-96550671D01*
X137195480Y-96572850D01*
X137182868Y-96593893D01*
X137168253Y-96613599D01*
X137151777Y-96631777D01*
X137133599Y-96648253D01*
X137113893Y-96662868D01*
X137092850Y-96675480D01*
X137070671Y-96685970D01*
X137047572Y-96694235D01*
X137023773Y-96700196D01*
X136999505Y-96703796D01*
X136975001Y-96705000D01*
X136074999Y-96705000D01*
X136050495Y-96703796D01*
X136026227Y-96700196D01*
X136002428Y-96694235D01*
X135979329Y-96685970D01*
X135957150Y-96675480D01*
X135936107Y-96662868D01*
X135916401Y-96648253D01*
X135898223Y-96631777D01*
X135881747Y-96613599D01*
X135867132Y-96593893D01*
X135854520Y-96572850D01*
X135844030Y-96550671D01*
X135835765Y-96527572D01*
X135829804Y-96503773D01*
X135826204Y-96479505D01*
X135825000Y-96455001D01*
X135825000Y-95804999D01*
X135826204Y-95780495D01*
X135829804Y-95756227D01*
X135835765Y-95732428D01*
X135844030Y-95709329D01*
X135854520Y-95687150D01*
X135867132Y-95666107D01*
X135881747Y-95646401D01*
X135898223Y-95628223D01*
X135916401Y-95611747D01*
X135936107Y-95597132D01*
X135957150Y-95584520D01*
X135979329Y-95574030D01*
X136002428Y-95565765D01*
X136026227Y-95559804D01*
X136050495Y-95556204D01*
X136074999Y-95555000D01*
X136975001Y-95555000D01*
X136999505Y-95556204D01*
G37*
G04 #@! TD.AperFunction*
G04 #@! TA.AperFunction,SMDPad,CuDef*
G36*
X136999505Y-97606204D02*
G01*
X137023773Y-97609804D01*
X137047572Y-97615765D01*
X137070671Y-97624030D01*
X137092850Y-97634520D01*
X137113893Y-97647132D01*
X137133599Y-97661747D01*
X137151777Y-97678223D01*
X137168253Y-97696401D01*
X137182868Y-97716107D01*
X137195480Y-97737150D01*
X137205970Y-97759329D01*
X137214235Y-97782428D01*
X137220196Y-97806227D01*
X137223796Y-97830495D01*
X137225000Y-97854999D01*
X137225000Y-98505001D01*
X137223796Y-98529505D01*
X137220196Y-98553773D01*
X137214235Y-98577572D01*
X137205970Y-98600671D01*
X137195480Y-98622850D01*
X137182868Y-98643893D01*
X137168253Y-98663599D01*
X137151777Y-98681777D01*
X137133599Y-98698253D01*
X137113893Y-98712868D01*
X137092850Y-98725480D01*
X137070671Y-98735970D01*
X137047572Y-98744235D01*
X137023773Y-98750196D01*
X136999505Y-98753796D01*
X136975001Y-98755000D01*
X136074999Y-98755000D01*
X136050495Y-98753796D01*
X136026227Y-98750196D01*
X136002428Y-98744235D01*
X135979329Y-98735970D01*
X135957150Y-98725480D01*
X135936107Y-98712868D01*
X135916401Y-98698253D01*
X135898223Y-98681777D01*
X135881747Y-98663599D01*
X135867132Y-98643893D01*
X135854520Y-98622850D01*
X135844030Y-98600671D01*
X135835765Y-98577572D01*
X135829804Y-98553773D01*
X135826204Y-98529505D01*
X135825000Y-98505001D01*
X135825000Y-97854999D01*
X135826204Y-97830495D01*
X135829804Y-97806227D01*
X135835765Y-97782428D01*
X135844030Y-97759329D01*
X135854520Y-97737150D01*
X135867132Y-97716107D01*
X135881747Y-97696401D01*
X135898223Y-97678223D01*
X135916401Y-97661747D01*
X135936107Y-97647132D01*
X135957150Y-97634520D01*
X135979329Y-97624030D01*
X136002428Y-97615765D01*
X136026227Y-97609804D01*
X136050495Y-97606204D01*
X136074999Y-97605000D01*
X136975001Y-97605000D01*
X136999505Y-97606204D01*
G37*
G04 #@! TD.AperFunction*
G04 #@! TA.AperFunction,SMDPad,CuDef*
G36*
X142079505Y-113336204D02*
G01*
X142103773Y-113339804D01*
X142127572Y-113345765D01*
X142150671Y-113354030D01*
X142172850Y-113364520D01*
X142193893Y-113377132D01*
X142213599Y-113391747D01*
X142231777Y-113408223D01*
X142248253Y-113426401D01*
X142262868Y-113446107D01*
X142275480Y-113467150D01*
X142285970Y-113489329D01*
X142294235Y-113512428D01*
X142300196Y-113536227D01*
X142303796Y-113560495D01*
X142305000Y-113584999D01*
X142305000Y-114235001D01*
X142303796Y-114259505D01*
X142300196Y-114283773D01*
X142294235Y-114307572D01*
X142285970Y-114330671D01*
X142275480Y-114352850D01*
X142262868Y-114373893D01*
X142248253Y-114393599D01*
X142231777Y-114411777D01*
X142213599Y-114428253D01*
X142193893Y-114442868D01*
X142172850Y-114455480D01*
X142150671Y-114465970D01*
X142127572Y-114474235D01*
X142103773Y-114480196D01*
X142079505Y-114483796D01*
X142055001Y-114485000D01*
X141154999Y-114485000D01*
X141130495Y-114483796D01*
X141106227Y-114480196D01*
X141082428Y-114474235D01*
X141059329Y-114465970D01*
X141037150Y-114455480D01*
X141016107Y-114442868D01*
X140996401Y-114428253D01*
X140978223Y-114411777D01*
X140961747Y-114393599D01*
X140947132Y-114373893D01*
X140934520Y-114352850D01*
X140924030Y-114330671D01*
X140915765Y-114307572D01*
X140909804Y-114283773D01*
X140906204Y-114259505D01*
X140905000Y-114235001D01*
X140905000Y-113584999D01*
X140906204Y-113560495D01*
X140909804Y-113536227D01*
X140915765Y-113512428D01*
X140924030Y-113489329D01*
X140934520Y-113467150D01*
X140947132Y-113446107D01*
X140961747Y-113426401D01*
X140978223Y-113408223D01*
X140996401Y-113391747D01*
X141016107Y-113377132D01*
X141037150Y-113364520D01*
X141059329Y-113354030D01*
X141082428Y-113345765D01*
X141106227Y-113339804D01*
X141130495Y-113336204D01*
X141154999Y-113335000D01*
X142055001Y-113335000D01*
X142079505Y-113336204D01*
G37*
G04 #@! TD.AperFunction*
G04 #@! TA.AperFunction,SMDPad,CuDef*
G36*
X142079505Y-115386204D02*
G01*
X142103773Y-115389804D01*
X142127572Y-115395765D01*
X142150671Y-115404030D01*
X142172850Y-115414520D01*
X142193893Y-115427132D01*
X142213599Y-115441747D01*
X142231777Y-115458223D01*
X142248253Y-115476401D01*
X142262868Y-115496107D01*
X142275480Y-115517150D01*
X142285970Y-115539329D01*
X142294235Y-115562428D01*
X142300196Y-115586227D01*
X142303796Y-115610495D01*
X142305000Y-115634999D01*
X142305000Y-116285001D01*
X142303796Y-116309505D01*
X142300196Y-116333773D01*
X142294235Y-116357572D01*
X142285970Y-116380671D01*
X142275480Y-116402850D01*
X142262868Y-116423893D01*
X142248253Y-116443599D01*
X142231777Y-116461777D01*
X142213599Y-116478253D01*
X142193893Y-116492868D01*
X142172850Y-116505480D01*
X142150671Y-116515970D01*
X142127572Y-116524235D01*
X142103773Y-116530196D01*
X142079505Y-116533796D01*
X142055001Y-116535000D01*
X141154999Y-116535000D01*
X141130495Y-116533796D01*
X141106227Y-116530196D01*
X141082428Y-116524235D01*
X141059329Y-116515970D01*
X141037150Y-116505480D01*
X141016107Y-116492868D01*
X140996401Y-116478253D01*
X140978223Y-116461777D01*
X140961747Y-116443599D01*
X140947132Y-116423893D01*
X140934520Y-116402850D01*
X140924030Y-116380671D01*
X140915765Y-116357572D01*
X140909804Y-116333773D01*
X140906204Y-116309505D01*
X140905000Y-116285001D01*
X140905000Y-115634999D01*
X140906204Y-115610495D01*
X140909804Y-115586227D01*
X140915765Y-115562428D01*
X140924030Y-115539329D01*
X140934520Y-115517150D01*
X140947132Y-115496107D01*
X140961747Y-115476401D01*
X140978223Y-115458223D01*
X140996401Y-115441747D01*
X141016107Y-115427132D01*
X141037150Y-115414520D01*
X141059329Y-115404030D01*
X141082428Y-115395765D01*
X141106227Y-115389804D01*
X141130495Y-115386204D01*
X141154999Y-115385000D01*
X142055001Y-115385000D01*
X142079505Y-115386204D01*
G37*
G04 #@! TD.AperFunction*
G04 #@! TA.AperFunction,SMDPad,CuDef*
G36*
X142079505Y-100636204D02*
G01*
X142103773Y-100639804D01*
X142127572Y-100645765D01*
X142150671Y-100654030D01*
X142172850Y-100664520D01*
X142193893Y-100677132D01*
X142213599Y-100691747D01*
X142231777Y-100708223D01*
X142248253Y-100726401D01*
X142262868Y-100746107D01*
X142275480Y-100767150D01*
X142285970Y-100789329D01*
X142294235Y-100812428D01*
X142300196Y-100836227D01*
X142303796Y-100860495D01*
X142305000Y-100884999D01*
X142305000Y-101535001D01*
X142303796Y-101559505D01*
X142300196Y-101583773D01*
X142294235Y-101607572D01*
X142285970Y-101630671D01*
X142275480Y-101652850D01*
X142262868Y-101673893D01*
X142248253Y-101693599D01*
X142231777Y-101711777D01*
X142213599Y-101728253D01*
X142193893Y-101742868D01*
X142172850Y-101755480D01*
X142150671Y-101765970D01*
X142127572Y-101774235D01*
X142103773Y-101780196D01*
X142079505Y-101783796D01*
X142055001Y-101785000D01*
X141154999Y-101785000D01*
X141130495Y-101783796D01*
X141106227Y-101780196D01*
X141082428Y-101774235D01*
X141059329Y-101765970D01*
X141037150Y-101755480D01*
X141016107Y-101742868D01*
X140996401Y-101728253D01*
X140978223Y-101711777D01*
X140961747Y-101693599D01*
X140947132Y-101673893D01*
X140934520Y-101652850D01*
X140924030Y-101630671D01*
X140915765Y-101607572D01*
X140909804Y-101583773D01*
X140906204Y-101559505D01*
X140905000Y-101535001D01*
X140905000Y-100884999D01*
X140906204Y-100860495D01*
X140909804Y-100836227D01*
X140915765Y-100812428D01*
X140924030Y-100789329D01*
X140934520Y-100767150D01*
X140947132Y-100746107D01*
X140961747Y-100726401D01*
X140978223Y-100708223D01*
X140996401Y-100691747D01*
X141016107Y-100677132D01*
X141037150Y-100664520D01*
X141059329Y-100654030D01*
X141082428Y-100645765D01*
X141106227Y-100639804D01*
X141130495Y-100636204D01*
X141154999Y-100635000D01*
X142055001Y-100635000D01*
X142079505Y-100636204D01*
G37*
G04 #@! TD.AperFunction*
G04 #@! TA.AperFunction,SMDPad,CuDef*
G36*
X142079505Y-102686204D02*
G01*
X142103773Y-102689804D01*
X142127572Y-102695765D01*
X142150671Y-102704030D01*
X142172850Y-102714520D01*
X142193893Y-102727132D01*
X142213599Y-102741747D01*
X142231777Y-102758223D01*
X142248253Y-102776401D01*
X142262868Y-102796107D01*
X142275480Y-102817150D01*
X142285970Y-102839329D01*
X142294235Y-102862428D01*
X142300196Y-102886227D01*
X142303796Y-102910495D01*
X142305000Y-102934999D01*
X142305000Y-103585001D01*
X142303796Y-103609505D01*
X142300196Y-103633773D01*
X142294235Y-103657572D01*
X142285970Y-103680671D01*
X142275480Y-103702850D01*
X142262868Y-103723893D01*
X142248253Y-103743599D01*
X142231777Y-103761777D01*
X142213599Y-103778253D01*
X142193893Y-103792868D01*
X142172850Y-103805480D01*
X142150671Y-103815970D01*
X142127572Y-103824235D01*
X142103773Y-103830196D01*
X142079505Y-103833796D01*
X142055001Y-103835000D01*
X141154999Y-103835000D01*
X141130495Y-103833796D01*
X141106227Y-103830196D01*
X141082428Y-103824235D01*
X141059329Y-103815970D01*
X141037150Y-103805480D01*
X141016107Y-103792868D01*
X140996401Y-103778253D01*
X140978223Y-103761777D01*
X140961747Y-103743599D01*
X140947132Y-103723893D01*
X140934520Y-103702850D01*
X140924030Y-103680671D01*
X140915765Y-103657572D01*
X140909804Y-103633773D01*
X140906204Y-103609505D01*
X140905000Y-103585001D01*
X140905000Y-102934999D01*
X140906204Y-102910495D01*
X140909804Y-102886227D01*
X140915765Y-102862428D01*
X140924030Y-102839329D01*
X140934520Y-102817150D01*
X140947132Y-102796107D01*
X140961747Y-102776401D01*
X140978223Y-102758223D01*
X140996401Y-102741747D01*
X141016107Y-102727132D01*
X141037150Y-102714520D01*
X141059329Y-102704030D01*
X141082428Y-102695765D01*
X141106227Y-102689804D01*
X141130495Y-102686204D01*
X141154999Y-102685000D01*
X142055001Y-102685000D01*
X142079505Y-102686204D01*
G37*
G04 #@! TD.AperFunction*
D17*
X141605000Y-117475000D03*
X140970000Y-106680000D03*
X141605000Y-104775000D03*
X140970000Y-93980000D03*
X146050000Y-102235000D03*
X143510000Y-100965000D03*
X143510000Y-113665000D03*
D10*
X132715000Y-106045000D03*
D18*
X140970000Y-93980000D02*
X140970000Y-95805000D01*
X141605000Y-103260000D02*
X141605000Y-104775000D01*
X140970000Y-106680000D02*
X140970000Y-108505000D01*
X141605000Y-115960000D02*
X141605000Y-117475000D01*
X141605000Y-113910000D02*
X141605000Y-112903000D01*
X141920000Y-112588000D02*
X141920000Y-111205000D01*
X141605000Y-112903000D02*
X141920000Y-112588000D01*
X141920000Y-99888000D02*
X141920000Y-98505000D01*
X141605000Y-101210000D02*
X141605000Y-100203000D01*
X141605000Y-100203000D02*
X141920000Y-99888000D01*
X143265000Y-101210000D02*
X143510000Y-100965000D01*
X141605000Y-101210000D02*
X143265000Y-101210000D01*
X143265000Y-113910000D02*
X143510000Y-113665000D01*
X141605000Y-113910000D02*
X143265000Y-113910000D01*
D19*
X132960000Y-98180000D02*
X132715000Y-98425000D01*
X122558600Y-98425000D02*
X122553200Y-98419600D01*
X132715000Y-98425000D02*
X122558600Y-98425000D01*
X136280000Y-98425000D02*
X136525000Y-98180000D01*
X132715000Y-98425000D02*
X136280000Y-98425000D01*
D20*
X136525000Y-98180000D02*
X138185000Y-98180000D01*
X138510000Y-98505000D02*
X140020000Y-98505000D01*
X138185000Y-98180000D02*
X138510000Y-98505000D01*
D19*
X132709600Y-111119600D02*
X132715000Y-111125000D01*
X122553200Y-111119600D02*
X132709600Y-111119600D01*
X136280000Y-111125000D02*
X136525000Y-110880000D01*
X132715000Y-111125000D02*
X136280000Y-111125000D01*
D20*
X136525000Y-110880000D02*
X138185000Y-110880000D01*
X138510000Y-111205000D02*
X140020000Y-111205000D01*
X138185000Y-110880000D02*
X138510000Y-111205000D01*
D18*
X140335000Y-83185000D02*
X140335000Y-85725000D01*
X142240000Y-81280000D02*
X140335000Y-83185000D01*
X150495000Y-83185000D02*
X148590000Y-81280000D01*
X148590000Y-81280000D02*
X142240000Y-81280000D01*
X150495000Y-85725000D02*
X150495000Y-83185000D01*
X152400000Y-87630000D02*
X150495000Y-85725000D01*
X159385000Y-106045000D02*
X160655000Y-106045000D01*
X160655000Y-106045000D02*
X161290000Y-105410000D01*
X161290000Y-105410000D02*
X161290000Y-89535000D01*
X161290000Y-89535000D02*
X159385000Y-87630000D01*
X159385000Y-87630000D02*
X152400000Y-87630000D01*
X145335000Y-108505000D02*
X145415000Y-108585000D01*
X141920000Y-108505000D02*
X145335000Y-108505000D01*
X159385000Y-103505000D02*
X147320000Y-103505000D01*
X147320000Y-103505000D02*
X145415000Y-105410000D01*
X145415000Y-105410000D02*
X145415000Y-108585000D01*
X159385000Y-100965000D02*
X147320000Y-100965000D01*
X147320000Y-100965000D02*
X145415000Y-99060000D01*
X145415000Y-99060000D02*
X145415000Y-95885000D01*
X145335000Y-95805000D02*
X145415000Y-95885000D01*
X141920000Y-95805000D02*
X145335000Y-95805000D01*
D19*
X159385000Y-90805000D02*
X156210000Y-90805000D01*
X156210000Y-90805000D02*
X153670000Y-90805000D01*
X153670000Y-90805000D02*
X149225000Y-86360000D01*
X149225000Y-86360000D02*
X149225000Y-83820000D01*
X149225000Y-83820000D02*
X147955000Y-82550000D01*
X147955000Y-82550000D02*
X144145000Y-82550000D01*
X142875000Y-83820000D02*
X142875000Y-85725000D01*
X144145000Y-82550000D02*
X142875000Y-83820000D01*
D20*
X136525000Y-96130000D02*
X138185000Y-96130000D01*
X138510000Y-95805000D02*
X140020000Y-95805000D01*
X138185000Y-96130000D02*
X138510000Y-95805000D01*
X136525000Y-108830000D02*
X138185000Y-108830000D01*
X138510000Y-108505000D02*
X140020000Y-108505000D01*
X138185000Y-108830000D02*
X138510000Y-108505000D01*
D19*
X135500000Y-96130000D02*
X136525000Y-96130000D01*
X132715000Y-93345000D02*
X135500000Y-96130000D01*
X128905000Y-93345000D02*
X132715000Y-93345000D01*
X135500000Y-108830000D02*
X136525000Y-108830000D01*
X132715000Y-106045000D02*
X135500000Y-108830000D01*
X132715000Y-85725000D02*
X132715000Y-90805000D01*
D20*
G36*
X137668000Y-95256287D02*
G01*
X137602962Y-95177038D01*
X137468387Y-95066595D01*
X137314851Y-94984528D01*
X137148255Y-94933992D01*
X136975001Y-94916928D01*
X136074999Y-94916928D01*
X135918762Y-94932316D01*
X134200000Y-93213555D01*
X134200000Y-93198740D01*
X134142932Y-92911842D01*
X134030990Y-92641589D01*
X133868475Y-92398368D01*
X133736620Y-92266513D01*
X133809180Y-92244502D01*
X133919494Y-92185537D01*
X134016185Y-92106185D01*
X134095537Y-92009494D01*
X134154502Y-91899180D01*
X134190812Y-91779482D01*
X134203072Y-91655000D01*
X134203072Y-89955000D01*
X134190812Y-89830518D01*
X134154502Y-89710820D01*
X134095537Y-89600506D01*
X134016185Y-89503815D01*
X133919494Y-89424463D01*
X133858000Y-89391593D01*
X133858000Y-86682107D01*
X133868475Y-86671632D01*
X133985000Y-86497240D01*
X134101525Y-86671632D01*
X134308368Y-86878475D01*
X134551589Y-87040990D01*
X134821842Y-87152932D01*
X135108740Y-87210000D01*
X135401260Y-87210000D01*
X135688158Y-87152932D01*
X135958411Y-87040990D01*
X136201632Y-86878475D01*
X136408475Y-86671632D01*
X136570990Y-86428411D01*
X136682932Y-86158158D01*
X136740000Y-85871260D01*
X136740000Y-85578740D01*
X136682932Y-85291842D01*
X136570990Y-85021589D01*
X136408475Y-84778368D01*
X136201632Y-84571525D01*
X135958411Y-84409010D01*
X135688158Y-84297068D01*
X135401260Y-84240000D01*
X135108740Y-84240000D01*
X134821842Y-84297068D01*
X134551589Y-84409010D01*
X134308368Y-84571525D01*
X134101525Y-84778368D01*
X133985000Y-84952760D01*
X133868475Y-84778368D01*
X133661632Y-84571525D01*
X133418411Y-84409010D01*
X133148158Y-84297068D01*
X132861260Y-84240000D01*
X132568740Y-84240000D01*
X132281842Y-84297068D01*
X132011589Y-84409010D01*
X131768368Y-84571525D01*
X131561525Y-84778368D01*
X131399010Y-85021589D01*
X131287068Y-85291842D01*
X131230000Y-85578740D01*
X131230000Y-85871260D01*
X131287068Y-86158158D01*
X131399010Y-86428411D01*
X131561525Y-86671632D01*
X131572000Y-86682107D01*
X131572001Y-89391593D01*
X131510506Y-89424463D01*
X131413815Y-89503815D01*
X131334463Y-89600506D01*
X131275498Y-89710820D01*
X131239188Y-89830518D01*
X131226928Y-89955000D01*
X131226928Y-91655000D01*
X131239188Y-91779482D01*
X131275498Y-91899180D01*
X131334463Y-92009494D01*
X131413815Y-92106185D01*
X131510506Y-92185537D01*
X131541306Y-92202000D01*
X130074239Y-92202000D01*
X129947252Y-92075013D01*
X129679463Y-91896082D01*
X129381912Y-91772832D01*
X129066033Y-91710000D01*
X128743967Y-91710000D01*
X128428088Y-91772832D01*
X128130537Y-91896082D01*
X127862748Y-92075013D01*
X127635013Y-92302748D01*
X127456082Y-92570537D01*
X127332832Y-92868088D01*
X127270000Y-93183967D01*
X127270000Y-93506033D01*
X127332832Y-93821912D01*
X127456082Y-94119463D01*
X127635013Y-94387252D01*
X127862748Y-94614987D01*
X128130537Y-94793918D01*
X128428088Y-94917168D01*
X128743967Y-94980000D01*
X129066033Y-94980000D01*
X129381912Y-94917168D01*
X129679463Y-94793918D01*
X129947252Y-94614987D01*
X130074239Y-94488000D01*
X131757893Y-94488000D01*
X131768368Y-94498475D01*
X132011589Y-94660990D01*
X132281842Y-94772932D01*
X132568740Y-94830000D01*
X132583555Y-94830000D01*
X134652077Y-96898523D01*
X134687867Y-96942133D01*
X134861911Y-97084968D01*
X135060477Y-97191103D01*
X135178939Y-97227038D01*
X135275932Y-97256461D01*
X135296517Y-97258488D01*
X135411901Y-97269853D01*
X135401932Y-97282000D01*
X133884239Y-97282000D01*
X133757252Y-97155013D01*
X133489463Y-96976082D01*
X133191912Y-96852832D01*
X132876033Y-96790000D01*
X132553967Y-96790000D01*
X132238088Y-96852832D01*
X131940537Y-96976082D01*
X131672748Y-97155013D01*
X131545761Y-97282000D01*
X124175033Y-97282000D01*
X124142702Y-97175420D01*
X124083737Y-97065106D01*
X124004385Y-96968415D01*
X123907694Y-96889063D01*
X123797380Y-96830098D01*
X123677682Y-96793788D01*
X123553200Y-96781528D01*
X121553200Y-96781528D01*
X121428718Y-96793788D01*
X121309020Y-96830098D01*
X121198706Y-96889063D01*
X121102015Y-96968415D01*
X121022663Y-97065106D01*
X120963698Y-97175420D01*
X120927388Y-97295118D01*
X120915128Y-97419600D01*
X120915128Y-99419600D01*
X120927388Y-99544082D01*
X120963698Y-99663780D01*
X121022663Y-99774094D01*
X121102015Y-99870785D01*
X121198706Y-99950137D01*
X121309020Y-100009102D01*
X121428718Y-100045412D01*
X121553200Y-100057672D01*
X123553200Y-100057672D01*
X123677682Y-100045412D01*
X123797380Y-100009102D01*
X123907694Y-99950137D01*
X124004385Y-99870785D01*
X124083737Y-99774094D01*
X124142702Y-99663780D01*
X124171757Y-99568000D01*
X131545761Y-99568000D01*
X131672748Y-99694987D01*
X131940537Y-99873918D01*
X132238088Y-99997168D01*
X132553967Y-100060000D01*
X132876033Y-100060000D01*
X133191912Y-99997168D01*
X133489463Y-99873918D01*
X133757252Y-99694987D01*
X133884239Y-99568000D01*
X136223861Y-99568000D01*
X136280000Y-99573529D01*
X136336139Y-99568000D01*
X136336146Y-99568000D01*
X136504067Y-99551461D01*
X136719523Y-99486103D01*
X136893573Y-99393072D01*
X136975001Y-99393072D01*
X137148255Y-99376008D01*
X137314851Y-99325472D01*
X137468387Y-99243405D01*
X137602962Y-99132962D01*
X137668000Y-99053713D01*
X137668000Y-107956287D01*
X137602962Y-107877038D01*
X137468387Y-107766595D01*
X137314851Y-107684528D01*
X137148255Y-107633992D01*
X136975001Y-107616928D01*
X136074999Y-107616928D01*
X135918762Y-107632316D01*
X134350000Y-106063555D01*
X134350000Y-105883967D01*
X134287168Y-105568088D01*
X134163918Y-105270537D01*
X133984987Y-105002748D01*
X133757252Y-104775013D01*
X133489463Y-104596082D01*
X133191912Y-104472832D01*
X132876033Y-104410000D01*
X132553967Y-104410000D01*
X132238088Y-104472832D01*
X131940537Y-104596082D01*
X131672748Y-104775013D01*
X131445013Y-105002748D01*
X131266082Y-105270537D01*
X131142832Y-105568088D01*
X131080000Y-105883967D01*
X131080000Y-106206033D01*
X131142832Y-106521912D01*
X131266082Y-106819463D01*
X131445013Y-107087252D01*
X131672748Y-107314987D01*
X131940537Y-107493918D01*
X132238088Y-107617168D01*
X132553967Y-107680000D01*
X132733555Y-107680000D01*
X134652077Y-109598523D01*
X134687867Y-109642133D01*
X134861911Y-109784968D01*
X135060477Y-109891103D01*
X135178939Y-109927038D01*
X135275932Y-109956461D01*
X135296517Y-109958488D01*
X135411901Y-109969853D01*
X135401932Y-109982000D01*
X133884239Y-109982000D01*
X133757252Y-109855013D01*
X133489463Y-109676082D01*
X133191912Y-109552832D01*
X132876033Y-109490000D01*
X132553967Y-109490000D01*
X132238088Y-109552832D01*
X131940537Y-109676082D01*
X131672748Y-109855013D01*
X131551161Y-109976600D01*
X124173395Y-109976600D01*
X124142702Y-109875420D01*
X124083737Y-109765106D01*
X124004385Y-109668415D01*
X123907694Y-109589063D01*
X123797380Y-109530098D01*
X123677682Y-109493788D01*
X123553200Y-109481528D01*
X121553200Y-109481528D01*
X121428718Y-109493788D01*
X121309020Y-109530098D01*
X121198706Y-109589063D01*
X121102015Y-109668415D01*
X121022663Y-109765106D01*
X120963698Y-109875420D01*
X120927388Y-109995118D01*
X120915128Y-110119600D01*
X120915128Y-112119600D01*
X120927388Y-112244082D01*
X120963698Y-112363780D01*
X121022663Y-112474094D01*
X121102015Y-112570785D01*
X121198706Y-112650137D01*
X121309020Y-112709102D01*
X121428718Y-112745412D01*
X121553200Y-112757672D01*
X123553200Y-112757672D01*
X123677682Y-112745412D01*
X123797380Y-112709102D01*
X123907694Y-112650137D01*
X124004385Y-112570785D01*
X124083737Y-112474094D01*
X124142702Y-112363780D01*
X124173395Y-112262600D01*
X131540361Y-112262600D01*
X131672748Y-112394987D01*
X131940537Y-112573918D01*
X132238088Y-112697168D01*
X132553967Y-112760000D01*
X132876033Y-112760000D01*
X133191912Y-112697168D01*
X133489463Y-112573918D01*
X133757252Y-112394987D01*
X133884239Y-112268000D01*
X136223861Y-112268000D01*
X136280000Y-112273529D01*
X136336139Y-112268000D01*
X136336146Y-112268000D01*
X136504067Y-112251461D01*
X136719523Y-112186103D01*
X136893573Y-112093072D01*
X136975001Y-112093072D01*
X137148255Y-112076008D01*
X137314851Y-112025472D01*
X137468387Y-111943405D01*
X137602962Y-111832962D01*
X137668000Y-111753713D01*
X137668000Y-124435000D01*
X117507277Y-124435000D01*
X117233795Y-124408185D01*
X117001774Y-124338133D01*
X116787778Y-124224350D01*
X116599961Y-124071169D01*
X116445471Y-123884424D01*
X116330198Y-123671231D01*
X116258528Y-123439701D01*
X116230000Y-123168276D01*
X116230000Y-120429872D01*
X117780000Y-120429872D01*
X117780000Y-120870128D01*
X117865890Y-121301925D01*
X118034369Y-121708669D01*
X118278962Y-122074729D01*
X118590271Y-122386038D01*
X118956331Y-122630631D01*
X119363075Y-122799110D01*
X119794872Y-122885000D01*
X120235128Y-122885000D01*
X120666925Y-122799110D01*
X121073669Y-122630631D01*
X121439729Y-122386038D01*
X121751038Y-122074729D01*
X121995631Y-121708669D01*
X122164110Y-121301925D01*
X122250000Y-120870128D01*
X122250000Y-120429872D01*
X122164110Y-119998075D01*
X121995631Y-119591331D01*
X121751038Y-119225271D01*
X121439729Y-118913962D01*
X121073669Y-118669369D01*
X120666925Y-118500890D01*
X120235128Y-118415000D01*
X119794872Y-118415000D01*
X119363075Y-118500890D01*
X118956331Y-118669369D01*
X118590271Y-118913962D01*
X118278962Y-119225271D01*
X118034369Y-119591331D01*
X117865890Y-119998075D01*
X117780000Y-120429872D01*
X116230000Y-120429872D01*
X116230000Y-85578740D01*
X126150000Y-85578740D01*
X126150000Y-85871260D01*
X126207068Y-86158158D01*
X126319010Y-86428411D01*
X126481525Y-86671632D01*
X126688368Y-86878475D01*
X126931589Y-87040990D01*
X127201842Y-87152932D01*
X127488740Y-87210000D01*
X127781260Y-87210000D01*
X128068158Y-87152932D01*
X128338411Y-87040990D01*
X128581632Y-86878475D01*
X128788475Y-86671632D01*
X128950990Y-86428411D01*
X129062932Y-86158158D01*
X129120000Y-85871260D01*
X129120000Y-85578740D01*
X129062932Y-85291842D01*
X128950990Y-85021589D01*
X128788475Y-84778368D01*
X128581632Y-84571525D01*
X128338411Y-84409010D01*
X128068158Y-84297068D01*
X127781260Y-84240000D01*
X127488740Y-84240000D01*
X127201842Y-84297068D01*
X126931589Y-84409010D01*
X126688368Y-84571525D01*
X126481525Y-84778368D01*
X126319010Y-85021589D01*
X126207068Y-85291842D01*
X126150000Y-85578740D01*
X116230000Y-85578740D01*
X116230000Y-82964872D01*
X117780000Y-82964872D01*
X117780000Y-83405128D01*
X117865890Y-83836925D01*
X118034369Y-84243669D01*
X118278962Y-84609729D01*
X118590271Y-84921038D01*
X118956331Y-85165631D01*
X119363075Y-85334110D01*
X119794872Y-85420000D01*
X120235128Y-85420000D01*
X120666925Y-85334110D01*
X121073669Y-85165631D01*
X121439729Y-84921038D01*
X121751038Y-84609729D01*
X121995631Y-84243669D01*
X122164110Y-83836925D01*
X122250000Y-83405128D01*
X122250000Y-82964872D01*
X122164110Y-82533075D01*
X121995631Y-82126331D01*
X121751038Y-81760271D01*
X121439729Y-81448962D01*
X121073669Y-81204369D01*
X120666925Y-81035890D01*
X120235128Y-80950000D01*
X119794872Y-80950000D01*
X119363075Y-81035890D01*
X118956331Y-81204369D01*
X118590271Y-81448962D01*
X118278962Y-81760271D01*
X118034369Y-82126331D01*
X117865890Y-82533075D01*
X117780000Y-82964872D01*
X116230000Y-82964872D01*
X116230000Y-80677277D01*
X116256815Y-80403796D01*
X116326867Y-80171774D01*
X116440650Y-79957778D01*
X116593832Y-79769959D01*
X116780577Y-79615470D01*
X116993769Y-79500199D01*
X117225300Y-79428528D01*
X117496725Y-79400000D01*
X137668000Y-79400000D01*
X137668000Y-95256287D01*
G37*
X137668000Y-95256287D02*
X137602962Y-95177038D01*
X137468387Y-95066595D01*
X137314851Y-94984528D01*
X137148255Y-94933992D01*
X136975001Y-94916928D01*
X136074999Y-94916928D01*
X135918762Y-94932316D01*
X134200000Y-93213555D01*
X134200000Y-93198740D01*
X134142932Y-92911842D01*
X134030990Y-92641589D01*
X133868475Y-92398368D01*
X133736620Y-92266513D01*
X133809180Y-92244502D01*
X133919494Y-92185537D01*
X134016185Y-92106185D01*
X134095537Y-92009494D01*
X134154502Y-91899180D01*
X134190812Y-91779482D01*
X134203072Y-91655000D01*
X134203072Y-89955000D01*
X134190812Y-89830518D01*
X134154502Y-89710820D01*
X134095537Y-89600506D01*
X134016185Y-89503815D01*
X133919494Y-89424463D01*
X133858000Y-89391593D01*
X133858000Y-86682107D01*
X133868475Y-86671632D01*
X133985000Y-86497240D01*
X134101525Y-86671632D01*
X134308368Y-86878475D01*
X134551589Y-87040990D01*
X134821842Y-87152932D01*
X135108740Y-87210000D01*
X135401260Y-87210000D01*
X135688158Y-87152932D01*
X135958411Y-87040990D01*
X136201632Y-86878475D01*
X136408475Y-86671632D01*
X136570990Y-86428411D01*
X136682932Y-86158158D01*
X136740000Y-85871260D01*
X136740000Y-85578740D01*
X136682932Y-85291842D01*
X136570990Y-85021589D01*
X136408475Y-84778368D01*
X136201632Y-84571525D01*
X135958411Y-84409010D01*
X135688158Y-84297068D01*
X135401260Y-84240000D01*
X135108740Y-84240000D01*
X134821842Y-84297068D01*
X134551589Y-84409010D01*
X134308368Y-84571525D01*
X134101525Y-84778368D01*
X133985000Y-84952760D01*
X133868475Y-84778368D01*
X133661632Y-84571525D01*
X133418411Y-84409010D01*
X133148158Y-84297068D01*
X132861260Y-84240000D01*
X132568740Y-84240000D01*
X132281842Y-84297068D01*
X132011589Y-84409010D01*
X131768368Y-84571525D01*
X131561525Y-84778368D01*
X131399010Y-85021589D01*
X131287068Y-85291842D01*
X131230000Y-85578740D01*
X131230000Y-85871260D01*
X131287068Y-86158158D01*
X131399010Y-86428411D01*
X131561525Y-86671632D01*
X131572000Y-86682107D01*
X131572001Y-89391593D01*
X131510506Y-89424463D01*
X131413815Y-89503815D01*
X131334463Y-89600506D01*
X131275498Y-89710820D01*
X131239188Y-89830518D01*
X131226928Y-89955000D01*
X131226928Y-91655000D01*
X131239188Y-91779482D01*
X131275498Y-91899180D01*
X131334463Y-92009494D01*
X131413815Y-92106185D01*
X131510506Y-92185537D01*
X131541306Y-92202000D01*
X130074239Y-92202000D01*
X129947252Y-92075013D01*
X129679463Y-91896082D01*
X129381912Y-91772832D01*
X129066033Y-91710000D01*
X128743967Y-91710000D01*
X128428088Y-91772832D01*
X128130537Y-91896082D01*
X127862748Y-92075013D01*
X127635013Y-92302748D01*
X127456082Y-92570537D01*
X127332832Y-92868088D01*
X127270000Y-93183967D01*
X127270000Y-93506033D01*
X127332832Y-93821912D01*
X127456082Y-94119463D01*
X127635013Y-94387252D01*
X127862748Y-94614987D01*
X128130537Y-94793918D01*
X128428088Y-94917168D01*
X128743967Y-94980000D01*
X129066033Y-94980000D01*
X129381912Y-94917168D01*
X129679463Y-94793918D01*
X129947252Y-94614987D01*
X130074239Y-94488000D01*
X131757893Y-94488000D01*
X131768368Y-94498475D01*
X132011589Y-94660990D01*
X132281842Y-94772932D01*
X132568740Y-94830000D01*
X132583555Y-94830000D01*
X134652077Y-96898523D01*
X134687867Y-96942133D01*
X134861911Y-97084968D01*
X135060477Y-97191103D01*
X135178939Y-97227038D01*
X135275932Y-97256461D01*
X135296517Y-97258488D01*
X135411901Y-97269853D01*
X135401932Y-97282000D01*
X133884239Y-97282000D01*
X133757252Y-97155013D01*
X133489463Y-96976082D01*
X133191912Y-96852832D01*
X132876033Y-96790000D01*
X132553967Y-96790000D01*
X132238088Y-96852832D01*
X131940537Y-96976082D01*
X131672748Y-97155013D01*
X131545761Y-97282000D01*
X124175033Y-97282000D01*
X124142702Y-97175420D01*
X124083737Y-97065106D01*
X124004385Y-96968415D01*
X123907694Y-96889063D01*
X123797380Y-96830098D01*
X123677682Y-96793788D01*
X123553200Y-96781528D01*
X121553200Y-96781528D01*
X121428718Y-96793788D01*
X121309020Y-96830098D01*
X121198706Y-96889063D01*
X121102015Y-96968415D01*
X121022663Y-97065106D01*
X120963698Y-97175420D01*
X120927388Y-97295118D01*
X120915128Y-97419600D01*
X120915128Y-99419600D01*
X120927388Y-99544082D01*
X120963698Y-99663780D01*
X121022663Y-99774094D01*
X121102015Y-99870785D01*
X121198706Y-99950137D01*
X121309020Y-100009102D01*
X121428718Y-100045412D01*
X121553200Y-100057672D01*
X123553200Y-100057672D01*
X123677682Y-100045412D01*
X123797380Y-100009102D01*
X123907694Y-99950137D01*
X124004385Y-99870785D01*
X124083737Y-99774094D01*
X124142702Y-99663780D01*
X124171757Y-99568000D01*
X131545761Y-99568000D01*
X131672748Y-99694987D01*
X131940537Y-99873918D01*
X132238088Y-99997168D01*
X132553967Y-100060000D01*
X132876033Y-100060000D01*
X133191912Y-99997168D01*
X133489463Y-99873918D01*
X133757252Y-99694987D01*
X133884239Y-99568000D01*
X136223861Y-99568000D01*
X136280000Y-99573529D01*
X136336139Y-99568000D01*
X136336146Y-99568000D01*
X136504067Y-99551461D01*
X136719523Y-99486103D01*
X136893573Y-99393072D01*
X136975001Y-99393072D01*
X137148255Y-99376008D01*
X137314851Y-99325472D01*
X137468387Y-99243405D01*
X137602962Y-99132962D01*
X137668000Y-99053713D01*
X137668000Y-107956287D01*
X137602962Y-107877038D01*
X137468387Y-107766595D01*
X137314851Y-107684528D01*
X137148255Y-107633992D01*
X136975001Y-107616928D01*
X136074999Y-107616928D01*
X135918762Y-107632316D01*
X134350000Y-106063555D01*
X134350000Y-105883967D01*
X134287168Y-105568088D01*
X134163918Y-105270537D01*
X133984987Y-105002748D01*
X133757252Y-104775013D01*
X133489463Y-104596082D01*
X133191912Y-104472832D01*
X132876033Y-104410000D01*
X132553967Y-104410000D01*
X132238088Y-104472832D01*
X131940537Y-104596082D01*
X131672748Y-104775013D01*
X131445013Y-105002748D01*
X131266082Y-105270537D01*
X131142832Y-105568088D01*
X131080000Y-105883967D01*
X131080000Y-106206033D01*
X131142832Y-106521912D01*
X131266082Y-106819463D01*
X131445013Y-107087252D01*
X131672748Y-107314987D01*
X131940537Y-107493918D01*
X132238088Y-107617168D01*
X132553967Y-107680000D01*
X132733555Y-107680000D01*
X134652077Y-109598523D01*
X134687867Y-109642133D01*
X134861911Y-109784968D01*
X135060477Y-109891103D01*
X135178939Y-109927038D01*
X135275932Y-109956461D01*
X135296517Y-109958488D01*
X135411901Y-109969853D01*
X135401932Y-109982000D01*
X133884239Y-109982000D01*
X133757252Y-109855013D01*
X133489463Y-109676082D01*
X133191912Y-109552832D01*
X132876033Y-109490000D01*
X132553967Y-109490000D01*
X132238088Y-109552832D01*
X131940537Y-109676082D01*
X131672748Y-109855013D01*
X131551161Y-109976600D01*
X124173395Y-109976600D01*
X124142702Y-109875420D01*
X124083737Y-109765106D01*
X124004385Y-109668415D01*
X123907694Y-109589063D01*
X123797380Y-109530098D01*
X123677682Y-109493788D01*
X123553200Y-109481528D01*
X121553200Y-109481528D01*
X121428718Y-109493788D01*
X121309020Y-109530098D01*
X121198706Y-109589063D01*
X121102015Y-109668415D01*
X121022663Y-109765106D01*
X120963698Y-109875420D01*
X120927388Y-109995118D01*
X120915128Y-110119600D01*
X120915128Y-112119600D01*
X120927388Y-112244082D01*
X120963698Y-112363780D01*
X121022663Y-112474094D01*
X121102015Y-112570785D01*
X121198706Y-112650137D01*
X121309020Y-112709102D01*
X121428718Y-112745412D01*
X121553200Y-112757672D01*
X123553200Y-112757672D01*
X123677682Y-112745412D01*
X123797380Y-112709102D01*
X123907694Y-112650137D01*
X124004385Y-112570785D01*
X124083737Y-112474094D01*
X124142702Y-112363780D01*
X124173395Y-112262600D01*
X131540361Y-112262600D01*
X131672748Y-112394987D01*
X131940537Y-112573918D01*
X132238088Y-112697168D01*
X132553967Y-112760000D01*
X132876033Y-112760000D01*
X133191912Y-112697168D01*
X133489463Y-112573918D01*
X133757252Y-112394987D01*
X133884239Y-112268000D01*
X136223861Y-112268000D01*
X136280000Y-112273529D01*
X136336139Y-112268000D01*
X136336146Y-112268000D01*
X136504067Y-112251461D01*
X136719523Y-112186103D01*
X136893573Y-112093072D01*
X136975001Y-112093072D01*
X137148255Y-112076008D01*
X137314851Y-112025472D01*
X137468387Y-111943405D01*
X137602962Y-111832962D01*
X137668000Y-111753713D01*
X137668000Y-124435000D01*
X117507277Y-124435000D01*
X117233795Y-124408185D01*
X117001774Y-124338133D01*
X116787778Y-124224350D01*
X116599961Y-124071169D01*
X116445471Y-123884424D01*
X116330198Y-123671231D01*
X116258528Y-123439701D01*
X116230000Y-123168276D01*
X116230000Y-120429872D01*
X117780000Y-120429872D01*
X117780000Y-120870128D01*
X117865890Y-121301925D01*
X118034369Y-121708669D01*
X118278962Y-122074729D01*
X118590271Y-122386038D01*
X118956331Y-122630631D01*
X119363075Y-122799110D01*
X119794872Y-122885000D01*
X120235128Y-122885000D01*
X120666925Y-122799110D01*
X121073669Y-122630631D01*
X121439729Y-122386038D01*
X121751038Y-122074729D01*
X121995631Y-121708669D01*
X122164110Y-121301925D01*
X122250000Y-120870128D01*
X122250000Y-120429872D01*
X122164110Y-119998075D01*
X121995631Y-119591331D01*
X121751038Y-119225271D01*
X121439729Y-118913962D01*
X121073669Y-118669369D01*
X120666925Y-118500890D01*
X120235128Y-118415000D01*
X119794872Y-118415000D01*
X119363075Y-118500890D01*
X118956331Y-118669369D01*
X118590271Y-118913962D01*
X118278962Y-119225271D01*
X118034369Y-119591331D01*
X117865890Y-119998075D01*
X117780000Y-120429872D01*
X116230000Y-120429872D01*
X116230000Y-85578740D01*
X126150000Y-85578740D01*
X126150000Y-85871260D01*
X126207068Y-86158158D01*
X126319010Y-86428411D01*
X126481525Y-86671632D01*
X126688368Y-86878475D01*
X126931589Y-87040990D01*
X127201842Y-87152932D01*
X127488740Y-87210000D01*
X127781260Y-87210000D01*
X128068158Y-87152932D01*
X128338411Y-87040990D01*
X128581632Y-86878475D01*
X128788475Y-86671632D01*
X128950990Y-86428411D01*
X129062932Y-86158158D01*
X129120000Y-85871260D01*
X129120000Y-85578740D01*
X129062932Y-85291842D01*
X128950990Y-85021589D01*
X128788475Y-84778368D01*
X128581632Y-84571525D01*
X128338411Y-84409010D01*
X128068158Y-84297068D01*
X127781260Y-84240000D01*
X127488740Y-84240000D01*
X127201842Y-84297068D01*
X126931589Y-84409010D01*
X126688368Y-84571525D01*
X126481525Y-84778368D01*
X126319010Y-85021589D01*
X126207068Y-85291842D01*
X126150000Y-85578740D01*
X116230000Y-85578740D01*
X116230000Y-82964872D01*
X117780000Y-82964872D01*
X117780000Y-83405128D01*
X117865890Y-83836925D01*
X118034369Y-84243669D01*
X118278962Y-84609729D01*
X118590271Y-84921038D01*
X118956331Y-85165631D01*
X119363075Y-85334110D01*
X119794872Y-85420000D01*
X120235128Y-85420000D01*
X120666925Y-85334110D01*
X121073669Y-85165631D01*
X121439729Y-84921038D01*
X121751038Y-84609729D01*
X121995631Y-84243669D01*
X122164110Y-83836925D01*
X122250000Y-83405128D01*
X122250000Y-82964872D01*
X122164110Y-82533075D01*
X121995631Y-82126331D01*
X121751038Y-81760271D01*
X121439729Y-81448962D01*
X121073669Y-81204369D01*
X120666925Y-81035890D01*
X120235128Y-80950000D01*
X119794872Y-80950000D01*
X119363075Y-81035890D01*
X118956331Y-81204369D01*
X118590271Y-81448962D01*
X118278962Y-81760271D01*
X118034369Y-82126331D01*
X117865890Y-82533075D01*
X117780000Y-82964872D01*
X116230000Y-82964872D01*
X116230000Y-80677277D01*
X116256815Y-80403796D01*
X116326867Y-80171774D01*
X116440650Y-79957778D01*
X116593832Y-79769959D01*
X116780577Y-79615470D01*
X116993769Y-79500199D01*
X117225300Y-79428528D01*
X117496725Y-79400000D01*
X137668000Y-79400000D01*
X137668000Y-95256287D01*
G36*
X148082001Y-84293447D02*
G01*
X148082000Y-86303861D01*
X148076471Y-86360000D01*
X148082000Y-86416139D01*
X148082000Y-86416145D01*
X148098539Y-86584066D01*
X148163897Y-86799522D01*
X148270032Y-86998088D01*
X148412867Y-87172133D01*
X148456482Y-87207927D01*
X152822081Y-91573528D01*
X152857867Y-91617133D01*
X152901471Y-91652918D01*
X152901477Y-91652924D01*
X153012117Y-91743723D01*
X153031911Y-91759968D01*
X153230477Y-91866103D01*
X153380574Y-91911635D01*
X153445932Y-91931461D01*
X153468600Y-91933694D01*
X153613854Y-91948000D01*
X153613860Y-91948000D01*
X153669999Y-91953529D01*
X153726138Y-91948000D01*
X155040761Y-91948000D01*
X155167748Y-92074987D01*
X155435537Y-92253918D01*
X155733088Y-92377168D01*
X156048967Y-92440000D01*
X156371033Y-92440000D01*
X156686912Y-92377168D01*
X156984463Y-92253918D01*
X157252252Y-92074987D01*
X157379239Y-91948000D01*
X157971593Y-91948000D01*
X158004463Y-92009494D01*
X158083815Y-92106185D01*
X158180506Y-92185537D01*
X158290820Y-92244502D01*
X158410518Y-92280812D01*
X158535000Y-92293072D01*
X160235000Y-92293072D01*
X160359482Y-92280812D01*
X160401001Y-92268217D01*
X160401001Y-93853000D01*
X148082000Y-93853000D01*
X148082000Y-92075000D01*
X148079560Y-92050224D01*
X148072333Y-92026399D01*
X148060597Y-92004443D01*
X148044803Y-91985197D01*
X148025557Y-91969403D01*
X148003601Y-91957667D01*
X147979776Y-91950440D01*
X147955000Y-91948000D01*
X139192000Y-91948000D01*
X139192000Y-86682107D01*
X139388368Y-86878475D01*
X139631589Y-87040990D01*
X139901842Y-87152932D01*
X140188740Y-87210000D01*
X140481260Y-87210000D01*
X140768158Y-87152932D01*
X141038411Y-87040990D01*
X141281632Y-86878475D01*
X141488475Y-86671632D01*
X141605000Y-86497240D01*
X141721525Y-86671632D01*
X141928368Y-86878475D01*
X142171589Y-87040990D01*
X142441842Y-87152932D01*
X142728740Y-87210000D01*
X143021260Y-87210000D01*
X143308158Y-87152932D01*
X143578411Y-87040990D01*
X143821632Y-86878475D01*
X144028475Y-86671632D01*
X144190990Y-86428411D01*
X144302932Y-86158158D01*
X144360000Y-85871260D01*
X144360000Y-85578740D01*
X144302932Y-85291842D01*
X144190990Y-85021589D01*
X144028475Y-84778368D01*
X144018000Y-84767893D01*
X144018000Y-84293445D01*
X144618446Y-83693000D01*
X147481555Y-83693000D01*
X148082001Y-84293447D01*
G37*
X148082001Y-84293447D02*
X148082000Y-86303861D01*
X148076471Y-86360000D01*
X148082000Y-86416139D01*
X148082000Y-86416145D01*
X148098539Y-86584066D01*
X148163897Y-86799522D01*
X148270032Y-86998088D01*
X148412867Y-87172133D01*
X148456482Y-87207927D01*
X152822081Y-91573528D01*
X152857867Y-91617133D01*
X152901471Y-91652918D01*
X152901477Y-91652924D01*
X153012117Y-91743723D01*
X153031911Y-91759968D01*
X153230477Y-91866103D01*
X153380574Y-91911635D01*
X153445932Y-91931461D01*
X153468600Y-91933694D01*
X153613854Y-91948000D01*
X153613860Y-91948000D01*
X153669999Y-91953529D01*
X153726138Y-91948000D01*
X155040761Y-91948000D01*
X155167748Y-92074987D01*
X155435537Y-92253918D01*
X155733088Y-92377168D01*
X156048967Y-92440000D01*
X156371033Y-92440000D01*
X156686912Y-92377168D01*
X156984463Y-92253918D01*
X157252252Y-92074987D01*
X157379239Y-91948000D01*
X157971593Y-91948000D01*
X158004463Y-92009494D01*
X158083815Y-92106185D01*
X158180506Y-92185537D01*
X158290820Y-92244502D01*
X158410518Y-92280812D01*
X158535000Y-92293072D01*
X160235000Y-92293072D01*
X160359482Y-92280812D01*
X160401001Y-92268217D01*
X160401001Y-93853000D01*
X148082000Y-93853000D01*
X148082000Y-92075000D01*
X148079560Y-92050224D01*
X148072333Y-92026399D01*
X148060597Y-92004443D01*
X148044803Y-91985197D01*
X148025557Y-91969403D01*
X148003601Y-91957667D01*
X147979776Y-91950440D01*
X147955000Y-91948000D01*
X139192000Y-91948000D01*
X139192000Y-86682107D01*
X139388368Y-86878475D01*
X139631589Y-87040990D01*
X139901842Y-87152932D01*
X140188740Y-87210000D01*
X140481260Y-87210000D01*
X140768158Y-87152932D01*
X141038411Y-87040990D01*
X141281632Y-86878475D01*
X141488475Y-86671632D01*
X141605000Y-86497240D01*
X141721525Y-86671632D01*
X141928368Y-86878475D01*
X142171589Y-87040990D01*
X142441842Y-87152932D01*
X142728740Y-87210000D01*
X143021260Y-87210000D01*
X143308158Y-87152932D01*
X143578411Y-87040990D01*
X143821632Y-86878475D01*
X144028475Y-86671632D01*
X144190990Y-86428411D01*
X144302932Y-86158158D01*
X144360000Y-85871260D01*
X144360000Y-85578740D01*
X144302932Y-85291842D01*
X144190990Y-85021589D01*
X144028475Y-84778368D01*
X144018000Y-84767893D01*
X144018000Y-84293445D01*
X144618446Y-83693000D01*
X147481555Y-83693000D01*
X148082001Y-84293447D01*
G36*
X158231525Y-104451632D02*
G01*
X158438368Y-104658475D01*
X158612760Y-104775000D01*
X158438368Y-104891525D01*
X158231525Y-105098368D01*
X158069010Y-105341589D01*
X157957068Y-105611842D01*
X157900000Y-105898740D01*
X157900000Y-106191260D01*
X157957068Y-106478158D01*
X158069010Y-106748411D01*
X158231525Y-106991632D01*
X158438368Y-107198475D01*
X158681589Y-107360990D01*
X158951842Y-107472932D01*
X159238740Y-107530000D01*
X159531260Y-107530000D01*
X159818158Y-107472932D01*
X160088411Y-107360990D01*
X160331632Y-107198475D01*
X160538475Y-106991632D01*
X160576983Y-106934000D01*
X160611340Y-106934000D01*
X160655000Y-106938300D01*
X160698660Y-106934000D01*
X160698667Y-106934000D01*
X160829274Y-106921136D01*
X160996851Y-106870303D01*
X161151291Y-106787753D01*
X161265001Y-106694434D01*
X161265001Y-123157712D01*
X161238185Y-123431205D01*
X161168133Y-123663226D01*
X161054350Y-123877222D01*
X160901169Y-124065039D01*
X160714424Y-124219529D01*
X160501231Y-124334802D01*
X160269701Y-124406472D01*
X159998276Y-124435000D01*
X139192000Y-124435000D01*
X139192000Y-120429872D01*
X155245000Y-120429872D01*
X155245000Y-120870128D01*
X155330890Y-121301925D01*
X155499369Y-121708669D01*
X155743962Y-122074729D01*
X156055271Y-122386038D01*
X156421331Y-122630631D01*
X156828075Y-122799110D01*
X157259872Y-122885000D01*
X157700128Y-122885000D01*
X158131925Y-122799110D01*
X158538669Y-122630631D01*
X158904729Y-122386038D01*
X159216038Y-122074729D01*
X159460631Y-121708669D01*
X159629110Y-121301925D01*
X159715000Y-120870128D01*
X159715000Y-120429872D01*
X159629110Y-119998075D01*
X159460631Y-119591331D01*
X159216038Y-119225271D01*
X158904729Y-118913962D01*
X158538669Y-118669369D01*
X158131925Y-118500890D01*
X157700128Y-118415000D01*
X157259872Y-118415000D01*
X156828075Y-118500890D01*
X156421331Y-118669369D01*
X156055271Y-118913962D01*
X155743962Y-119225271D01*
X155499369Y-119591331D01*
X155330890Y-119998075D01*
X155245000Y-120429872D01*
X139192000Y-120429872D01*
X139192000Y-112373048D01*
X139243815Y-112436185D01*
X139340506Y-112515537D01*
X139450820Y-112574502D01*
X139570518Y-112610812D01*
X139695000Y-112623072D01*
X140345000Y-112623072D01*
X140469482Y-112610812D01*
X140495000Y-112603071D01*
X140520518Y-112610812D01*
X140645000Y-112623072D01*
X140760914Y-112623072D01*
X140728864Y-112728726D01*
X140720347Y-112815201D01*
X140661613Y-112846595D01*
X140527038Y-112957038D01*
X140416595Y-113091613D01*
X140334528Y-113245149D01*
X140283992Y-113411745D01*
X140266928Y-113584999D01*
X140266928Y-114235001D01*
X140283992Y-114408255D01*
X140334528Y-114574851D01*
X140416595Y-114728387D01*
X140527038Y-114862962D01*
X140661613Y-114973405D01*
X140815149Y-115055472D01*
X140981745Y-115106008D01*
X141154999Y-115123072D01*
X142055001Y-115123072D01*
X142228255Y-115106008D01*
X142394851Y-115055472D01*
X142548387Y-114973405D01*
X142682962Y-114862962D01*
X142735454Y-114799000D01*
X143221340Y-114799000D01*
X143265000Y-114803300D01*
X143308660Y-114799000D01*
X143308667Y-114799000D01*
X143439274Y-114786136D01*
X143606851Y-114735303D01*
X143709029Y-114680688D01*
X143811898Y-114660226D01*
X144000256Y-114582205D01*
X144169774Y-114468937D01*
X144313937Y-114324774D01*
X144427205Y-114155256D01*
X144505226Y-113966898D01*
X144545000Y-113766939D01*
X144545000Y-113563061D01*
X144505226Y-113363102D01*
X144427205Y-113174744D01*
X144313937Y-113005226D01*
X144169774Y-112861063D01*
X144000256Y-112747795D01*
X143811898Y-112669774D01*
X143611939Y-112630000D01*
X143408061Y-112630000D01*
X143208102Y-112669774D01*
X143019744Y-112747795D01*
X142850226Y-112861063D01*
X142715096Y-112996193D01*
X142711914Y-112992317D01*
X142745303Y-112929851D01*
X142772650Y-112839698D01*
X142796136Y-112762276D01*
X142802572Y-112696928D01*
X142809000Y-112631667D01*
X142809000Y-112631661D01*
X142813300Y-112588001D01*
X142809000Y-112544341D01*
X142809000Y-112276890D01*
X142834502Y-112229180D01*
X142870812Y-112109482D01*
X142883072Y-111985000D01*
X142883072Y-110425000D01*
X142870812Y-110300518D01*
X142834502Y-110180820D01*
X142775537Y-110070506D01*
X142696185Y-109973815D01*
X142599494Y-109894463D01*
X142525665Y-109855000D01*
X142599494Y-109815537D01*
X142696185Y-109736185D01*
X142775537Y-109639494D01*
X142834502Y-109529180D01*
X142870812Y-109409482D01*
X142872337Y-109394000D01*
X143989159Y-109394000D01*
X144145013Y-109627252D01*
X144372748Y-109854987D01*
X144640537Y-110033918D01*
X144938088Y-110157168D01*
X145253967Y-110220000D01*
X145576033Y-110220000D01*
X145891912Y-110157168D01*
X146189463Y-110033918D01*
X146457252Y-109854987D01*
X146684987Y-109627252D01*
X146863918Y-109359463D01*
X146987168Y-109061912D01*
X147050000Y-108746033D01*
X147050000Y-108423967D01*
X146987168Y-108108088D01*
X146863918Y-107810537D01*
X146684987Y-107542748D01*
X146457252Y-107315013D01*
X146304000Y-107212613D01*
X146304000Y-105778235D01*
X147688236Y-104394000D01*
X158193017Y-104394000D01*
X158231525Y-104451632D01*
G37*
X158231525Y-104451632D02*
X158438368Y-104658475D01*
X158612760Y-104775000D01*
X158438368Y-104891525D01*
X158231525Y-105098368D01*
X158069010Y-105341589D01*
X157957068Y-105611842D01*
X157900000Y-105898740D01*
X157900000Y-106191260D01*
X157957068Y-106478158D01*
X158069010Y-106748411D01*
X158231525Y-106991632D01*
X158438368Y-107198475D01*
X158681589Y-107360990D01*
X158951842Y-107472932D01*
X159238740Y-107530000D01*
X159531260Y-107530000D01*
X159818158Y-107472932D01*
X160088411Y-107360990D01*
X160331632Y-107198475D01*
X160538475Y-106991632D01*
X160576983Y-106934000D01*
X160611340Y-106934000D01*
X160655000Y-106938300D01*
X160698660Y-106934000D01*
X160698667Y-106934000D01*
X160829274Y-106921136D01*
X160996851Y-106870303D01*
X161151291Y-106787753D01*
X161265001Y-106694434D01*
X161265001Y-123157712D01*
X161238185Y-123431205D01*
X161168133Y-123663226D01*
X161054350Y-123877222D01*
X160901169Y-124065039D01*
X160714424Y-124219529D01*
X160501231Y-124334802D01*
X160269701Y-124406472D01*
X159998276Y-124435000D01*
X139192000Y-124435000D01*
X139192000Y-120429872D01*
X155245000Y-120429872D01*
X155245000Y-120870128D01*
X155330890Y-121301925D01*
X155499369Y-121708669D01*
X155743962Y-122074729D01*
X156055271Y-122386038D01*
X156421331Y-122630631D01*
X156828075Y-122799110D01*
X157259872Y-122885000D01*
X157700128Y-122885000D01*
X158131925Y-122799110D01*
X158538669Y-122630631D01*
X158904729Y-122386038D01*
X159216038Y-122074729D01*
X159460631Y-121708669D01*
X159629110Y-121301925D01*
X159715000Y-120870128D01*
X159715000Y-120429872D01*
X159629110Y-119998075D01*
X159460631Y-119591331D01*
X159216038Y-119225271D01*
X158904729Y-118913962D01*
X158538669Y-118669369D01*
X158131925Y-118500890D01*
X157700128Y-118415000D01*
X157259872Y-118415000D01*
X156828075Y-118500890D01*
X156421331Y-118669369D01*
X156055271Y-118913962D01*
X155743962Y-119225271D01*
X155499369Y-119591331D01*
X155330890Y-119998075D01*
X155245000Y-120429872D01*
X139192000Y-120429872D01*
X139192000Y-112373048D01*
X139243815Y-112436185D01*
X139340506Y-112515537D01*
X139450820Y-112574502D01*
X139570518Y-112610812D01*
X139695000Y-112623072D01*
X140345000Y-112623072D01*
X140469482Y-112610812D01*
X140495000Y-112603071D01*
X140520518Y-112610812D01*
X140645000Y-112623072D01*
X140760914Y-112623072D01*
X140728864Y-112728726D01*
X140720347Y-112815201D01*
X140661613Y-112846595D01*
X140527038Y-112957038D01*
X140416595Y-113091613D01*
X140334528Y-113245149D01*
X140283992Y-113411745D01*
X140266928Y-113584999D01*
X140266928Y-114235001D01*
X140283992Y-114408255D01*
X140334528Y-114574851D01*
X140416595Y-114728387D01*
X140527038Y-114862962D01*
X140661613Y-114973405D01*
X140815149Y-115055472D01*
X140981745Y-115106008D01*
X141154999Y-115123072D01*
X142055001Y-115123072D01*
X142228255Y-115106008D01*
X142394851Y-115055472D01*
X142548387Y-114973405D01*
X142682962Y-114862962D01*
X142735454Y-114799000D01*
X143221340Y-114799000D01*
X143265000Y-114803300D01*
X143308660Y-114799000D01*
X143308667Y-114799000D01*
X143439274Y-114786136D01*
X143606851Y-114735303D01*
X143709029Y-114680688D01*
X143811898Y-114660226D01*
X144000256Y-114582205D01*
X144169774Y-114468937D01*
X144313937Y-114324774D01*
X144427205Y-114155256D01*
X144505226Y-113966898D01*
X144545000Y-113766939D01*
X144545000Y-113563061D01*
X144505226Y-113363102D01*
X144427205Y-113174744D01*
X144313937Y-113005226D01*
X144169774Y-112861063D01*
X144000256Y-112747795D01*
X143811898Y-112669774D01*
X143611939Y-112630000D01*
X143408061Y-112630000D01*
X143208102Y-112669774D01*
X143019744Y-112747795D01*
X142850226Y-112861063D01*
X142715096Y-112996193D01*
X142711914Y-112992317D01*
X142745303Y-112929851D01*
X142772650Y-112839698D01*
X142796136Y-112762276D01*
X142802572Y-112696928D01*
X142809000Y-112631667D01*
X142809000Y-112631661D01*
X142813300Y-112588001D01*
X142809000Y-112544341D01*
X142809000Y-112276890D01*
X142834502Y-112229180D01*
X142870812Y-112109482D01*
X142883072Y-111985000D01*
X142883072Y-110425000D01*
X142870812Y-110300518D01*
X142834502Y-110180820D01*
X142775537Y-110070506D01*
X142696185Y-109973815D01*
X142599494Y-109894463D01*
X142525665Y-109855000D01*
X142599494Y-109815537D01*
X142696185Y-109736185D01*
X142775537Y-109639494D01*
X142834502Y-109529180D01*
X142870812Y-109409482D01*
X142872337Y-109394000D01*
X143989159Y-109394000D01*
X144145013Y-109627252D01*
X144372748Y-109854987D01*
X144640537Y-110033918D01*
X144938088Y-110157168D01*
X145253967Y-110220000D01*
X145576033Y-110220000D01*
X145891912Y-110157168D01*
X146189463Y-110033918D01*
X146457252Y-109854987D01*
X146684987Y-109627252D01*
X146863918Y-109359463D01*
X146987168Y-109061912D01*
X147050000Y-108746033D01*
X147050000Y-108423967D01*
X146987168Y-108108088D01*
X146863918Y-107810537D01*
X146684987Y-107542748D01*
X146457252Y-107315013D01*
X146304000Y-107212613D01*
X146304000Y-105778235D01*
X147688236Y-104394000D01*
X158193017Y-104394000D01*
X158231525Y-104451632D01*
G36*
X144145013Y-96927252D02*
G01*
X144372748Y-97154987D01*
X144526001Y-97257387D01*
X144526000Y-99016340D01*
X144521700Y-99060000D01*
X144526000Y-99103660D01*
X144526000Y-99103666D01*
X144529741Y-99141644D01*
X144538864Y-99234274D01*
X144560998Y-99307241D01*
X144589697Y-99401850D01*
X144672247Y-99556290D01*
X144783341Y-99691659D01*
X144817264Y-99719499D01*
X146660504Y-101562740D01*
X146688341Y-101596659D01*
X146823709Y-101707753D01*
X146978149Y-101790303D01*
X147072758Y-101819002D01*
X147145725Y-101841136D01*
X147162325Y-101842771D01*
X147276333Y-101854000D01*
X147276340Y-101854000D01*
X147320000Y-101858300D01*
X147363660Y-101854000D01*
X158193017Y-101854000D01*
X158231525Y-101911632D01*
X158438368Y-102118475D01*
X158612760Y-102235000D01*
X158438368Y-102351525D01*
X158231525Y-102558368D01*
X158193017Y-102616000D01*
X147363660Y-102616000D01*
X147320000Y-102611700D01*
X147276340Y-102616000D01*
X147276333Y-102616000D01*
X147162325Y-102627229D01*
X147145725Y-102628864D01*
X147072758Y-102650998D01*
X146978149Y-102679697D01*
X146823709Y-102762247D01*
X146688341Y-102873341D01*
X146660506Y-102907258D01*
X144817264Y-104750501D01*
X144783341Y-104778341D01*
X144672247Y-104913710D01*
X144589697Y-105068150D01*
X144560998Y-105162759D01*
X144538865Y-105235725D01*
X144538864Y-105235727D01*
X144526000Y-105366334D01*
X144526000Y-105366340D01*
X144521700Y-105410000D01*
X144526000Y-105453660D01*
X144526001Y-107212613D01*
X144372748Y-107315013D01*
X144145013Y-107542748D01*
X144096068Y-107616000D01*
X142872337Y-107616000D01*
X142870812Y-107600518D01*
X142834502Y-107480820D01*
X142775537Y-107370506D01*
X142696185Y-107273815D01*
X142599494Y-107194463D01*
X142489180Y-107135498D01*
X142369482Y-107099188D01*
X142245000Y-107086928D01*
X141595000Y-107086928D01*
X141470518Y-107099188D01*
X141350820Y-107135498D01*
X141240506Y-107194463D01*
X141143815Y-107273815D01*
X141064463Y-107370506D01*
X141005498Y-107480820D01*
X140970000Y-107597841D01*
X140934502Y-107480820D01*
X140875537Y-107370506D01*
X140796185Y-107273815D01*
X140699494Y-107194463D01*
X140589180Y-107135498D01*
X140469482Y-107099188D01*
X140345000Y-107086928D01*
X139695000Y-107086928D01*
X139570518Y-107099188D01*
X139450820Y-107135498D01*
X139340506Y-107194463D01*
X139243815Y-107273815D01*
X139192000Y-107336952D01*
X139192000Y-99673048D01*
X139243815Y-99736185D01*
X139340506Y-99815537D01*
X139450820Y-99874502D01*
X139570518Y-99910812D01*
X139695000Y-99923072D01*
X140345000Y-99923072D01*
X140469482Y-99910812D01*
X140495000Y-99903071D01*
X140520518Y-99910812D01*
X140645000Y-99923072D01*
X140760914Y-99923072D01*
X140728864Y-100028726D01*
X140720347Y-100115201D01*
X140661613Y-100146595D01*
X140527038Y-100257038D01*
X140416595Y-100391613D01*
X140334528Y-100545149D01*
X140283992Y-100711745D01*
X140266928Y-100884999D01*
X140266928Y-101535001D01*
X140283992Y-101708255D01*
X140334528Y-101874851D01*
X140416595Y-102028387D01*
X140527038Y-102162962D01*
X140661613Y-102273405D01*
X140815149Y-102355472D01*
X140981745Y-102406008D01*
X141154999Y-102423072D01*
X142055001Y-102423072D01*
X142228255Y-102406008D01*
X142394851Y-102355472D01*
X142548387Y-102273405D01*
X142682962Y-102162962D01*
X142735454Y-102099000D01*
X143221340Y-102099000D01*
X143265000Y-102103300D01*
X143308660Y-102099000D01*
X143308667Y-102099000D01*
X143439274Y-102086136D01*
X143606851Y-102035303D01*
X143709029Y-101980688D01*
X143811898Y-101960226D01*
X144000256Y-101882205D01*
X144169774Y-101768937D01*
X144313937Y-101624774D01*
X144427205Y-101455256D01*
X144505226Y-101266898D01*
X144545000Y-101066939D01*
X144545000Y-100863061D01*
X144505226Y-100663102D01*
X144427205Y-100474744D01*
X144313937Y-100305226D01*
X144169774Y-100161063D01*
X144000256Y-100047795D01*
X143811898Y-99969774D01*
X143611939Y-99930000D01*
X143408061Y-99930000D01*
X143208102Y-99969774D01*
X143019744Y-100047795D01*
X142850226Y-100161063D01*
X142715096Y-100296193D01*
X142711914Y-100292317D01*
X142745303Y-100229851D01*
X142772650Y-100139697D01*
X142796136Y-100062276D01*
X142802572Y-99996928D01*
X142809000Y-99931667D01*
X142809000Y-99931661D01*
X142813300Y-99888001D01*
X142809000Y-99844341D01*
X142809000Y-99576890D01*
X142834502Y-99529180D01*
X142870812Y-99409482D01*
X142883072Y-99285000D01*
X142883072Y-97725000D01*
X142870812Y-97600518D01*
X142834502Y-97480820D01*
X142775537Y-97370506D01*
X142696185Y-97273815D01*
X142599494Y-97194463D01*
X142525665Y-97155000D01*
X142599494Y-97115537D01*
X142696185Y-97036185D01*
X142775537Y-96939494D01*
X142834502Y-96829180D01*
X142870812Y-96709482D01*
X142872337Y-96694000D01*
X143989159Y-96694000D01*
X144145013Y-96927252D01*
G37*
X144145013Y-96927252D02*
X144372748Y-97154987D01*
X144526001Y-97257387D01*
X144526000Y-99016340D01*
X144521700Y-99060000D01*
X144526000Y-99103660D01*
X144526000Y-99103666D01*
X144529741Y-99141644D01*
X144538864Y-99234274D01*
X144560998Y-99307241D01*
X144589697Y-99401850D01*
X144672247Y-99556290D01*
X144783341Y-99691659D01*
X144817264Y-99719499D01*
X146660504Y-101562740D01*
X146688341Y-101596659D01*
X146823709Y-101707753D01*
X146978149Y-101790303D01*
X147072758Y-101819002D01*
X147145725Y-101841136D01*
X147162325Y-101842771D01*
X147276333Y-101854000D01*
X147276340Y-101854000D01*
X147320000Y-101858300D01*
X147363660Y-101854000D01*
X158193017Y-101854000D01*
X158231525Y-101911632D01*
X158438368Y-102118475D01*
X158612760Y-102235000D01*
X158438368Y-102351525D01*
X158231525Y-102558368D01*
X158193017Y-102616000D01*
X147363660Y-102616000D01*
X147320000Y-102611700D01*
X147276340Y-102616000D01*
X147276333Y-102616000D01*
X147162325Y-102627229D01*
X147145725Y-102628864D01*
X147072758Y-102650998D01*
X146978149Y-102679697D01*
X146823709Y-102762247D01*
X146688341Y-102873341D01*
X146660506Y-102907258D01*
X144817264Y-104750501D01*
X144783341Y-104778341D01*
X144672247Y-104913710D01*
X144589697Y-105068150D01*
X144560998Y-105162759D01*
X144538865Y-105235725D01*
X144538864Y-105235727D01*
X144526000Y-105366334D01*
X144526000Y-105366340D01*
X144521700Y-105410000D01*
X144526000Y-105453660D01*
X144526001Y-107212613D01*
X144372748Y-107315013D01*
X144145013Y-107542748D01*
X144096068Y-107616000D01*
X142872337Y-107616000D01*
X142870812Y-107600518D01*
X142834502Y-107480820D01*
X142775537Y-107370506D01*
X142696185Y-107273815D01*
X142599494Y-107194463D01*
X142489180Y-107135498D01*
X142369482Y-107099188D01*
X142245000Y-107086928D01*
X141595000Y-107086928D01*
X141470518Y-107099188D01*
X141350820Y-107135498D01*
X141240506Y-107194463D01*
X141143815Y-107273815D01*
X141064463Y-107370506D01*
X141005498Y-107480820D01*
X140970000Y-107597841D01*
X140934502Y-107480820D01*
X140875537Y-107370506D01*
X140796185Y-107273815D01*
X140699494Y-107194463D01*
X140589180Y-107135498D01*
X140469482Y-107099188D01*
X140345000Y-107086928D01*
X139695000Y-107086928D01*
X139570518Y-107099188D01*
X139450820Y-107135498D01*
X139340506Y-107194463D01*
X139243815Y-107273815D01*
X139192000Y-107336952D01*
X139192000Y-99673048D01*
X139243815Y-99736185D01*
X139340506Y-99815537D01*
X139450820Y-99874502D01*
X139570518Y-99910812D01*
X139695000Y-99923072D01*
X140345000Y-99923072D01*
X140469482Y-99910812D01*
X140495000Y-99903071D01*
X140520518Y-99910812D01*
X140645000Y-99923072D01*
X140760914Y-99923072D01*
X140728864Y-100028726D01*
X140720347Y-100115201D01*
X140661613Y-100146595D01*
X140527038Y-100257038D01*
X140416595Y-100391613D01*
X140334528Y-100545149D01*
X140283992Y-100711745D01*
X140266928Y-100884999D01*
X140266928Y-101535001D01*
X140283992Y-101708255D01*
X140334528Y-101874851D01*
X140416595Y-102028387D01*
X140527038Y-102162962D01*
X140661613Y-102273405D01*
X140815149Y-102355472D01*
X140981745Y-102406008D01*
X141154999Y-102423072D01*
X142055001Y-102423072D01*
X142228255Y-102406008D01*
X142394851Y-102355472D01*
X142548387Y-102273405D01*
X142682962Y-102162962D01*
X142735454Y-102099000D01*
X143221340Y-102099000D01*
X143265000Y-102103300D01*
X143308660Y-102099000D01*
X143308667Y-102099000D01*
X143439274Y-102086136D01*
X143606851Y-102035303D01*
X143709029Y-101980688D01*
X143811898Y-101960226D01*
X144000256Y-101882205D01*
X144169774Y-101768937D01*
X144313937Y-101624774D01*
X144427205Y-101455256D01*
X144505226Y-101266898D01*
X144545000Y-101066939D01*
X144545000Y-100863061D01*
X144505226Y-100663102D01*
X144427205Y-100474744D01*
X144313937Y-100305226D01*
X144169774Y-100161063D01*
X144000256Y-100047795D01*
X143811898Y-99969774D01*
X143611939Y-99930000D01*
X143408061Y-99930000D01*
X143208102Y-99969774D01*
X143019744Y-100047795D01*
X142850226Y-100161063D01*
X142715096Y-100296193D01*
X142711914Y-100292317D01*
X142745303Y-100229851D01*
X142772650Y-100139697D01*
X142796136Y-100062276D01*
X142802572Y-99996928D01*
X142809000Y-99931667D01*
X142809000Y-99931661D01*
X142813300Y-99888001D01*
X142809000Y-99844341D01*
X142809000Y-99576890D01*
X142834502Y-99529180D01*
X142870812Y-99409482D01*
X142883072Y-99285000D01*
X142883072Y-97725000D01*
X142870812Y-97600518D01*
X142834502Y-97480820D01*
X142775537Y-97370506D01*
X142696185Y-97273815D01*
X142599494Y-97194463D01*
X142525665Y-97155000D01*
X142599494Y-97115537D01*
X142696185Y-97036185D01*
X142775537Y-96939494D01*
X142834502Y-96829180D01*
X142870812Y-96709482D01*
X142872337Y-96694000D01*
X143989159Y-96694000D01*
X144145013Y-96927252D01*
G36*
X147193000Y-95250000D02*
G01*
X147195440Y-95274776D01*
X147202667Y-95298601D01*
X147214403Y-95320557D01*
X147230197Y-95339803D01*
X147249443Y-95355597D01*
X147271399Y-95367333D01*
X147295224Y-95374560D01*
X147320000Y-95377000D01*
X154650709Y-95377000D01*
X154637832Y-95408088D01*
X154575000Y-95723967D01*
X154575000Y-96046033D01*
X154637832Y-96361912D01*
X154761082Y-96659463D01*
X154940013Y-96927252D01*
X155167748Y-97154987D01*
X155435537Y-97333918D01*
X155733088Y-97457168D01*
X156048967Y-97520000D01*
X156371033Y-97520000D01*
X156686912Y-97457168D01*
X156984463Y-97333918D01*
X157252252Y-97154987D01*
X157479987Y-96927252D01*
X157658918Y-96659463D01*
X157782168Y-96361912D01*
X157845000Y-96046033D01*
X157845000Y-95723967D01*
X157782168Y-95408088D01*
X157769291Y-95377000D01*
X157988068Y-95377000D01*
X157957068Y-95451842D01*
X157900000Y-95738740D01*
X157900000Y-96031260D01*
X157957068Y-96318158D01*
X158069010Y-96588411D01*
X158231525Y-96831632D01*
X158438368Y-97038475D01*
X158681589Y-97200990D01*
X158951842Y-97312932D01*
X159238740Y-97370000D01*
X159531260Y-97370000D01*
X159818158Y-97312932D01*
X160088411Y-97200990D01*
X160331632Y-97038475D01*
X160401001Y-96969106D01*
X160401000Y-99880893D01*
X160331632Y-99811525D01*
X160088411Y-99649010D01*
X159818158Y-99537068D01*
X159531260Y-99480000D01*
X159238740Y-99480000D01*
X158951842Y-99537068D01*
X158681589Y-99649010D01*
X158438368Y-99811525D01*
X158231525Y-100018368D01*
X158193017Y-100076000D01*
X147688236Y-100076000D01*
X146304000Y-98691765D01*
X146304000Y-97257387D01*
X146457252Y-97154987D01*
X146684987Y-96927252D01*
X146863918Y-96659463D01*
X146987168Y-96361912D01*
X147050000Y-96046033D01*
X147050000Y-95723967D01*
X146987168Y-95408088D01*
X146863918Y-95110537D01*
X146684987Y-94842748D01*
X146457252Y-94615013D01*
X146189463Y-94436082D01*
X145891912Y-94312832D01*
X145576033Y-94250000D01*
X145253967Y-94250000D01*
X144938088Y-94312832D01*
X144640537Y-94436082D01*
X144372748Y-94615013D01*
X144145013Y-94842748D01*
X144096068Y-94916000D01*
X142872337Y-94916000D01*
X142870812Y-94900518D01*
X142834502Y-94780820D01*
X142775537Y-94670506D01*
X142696185Y-94573815D01*
X142599494Y-94494463D01*
X142489180Y-94435498D01*
X142369482Y-94399188D01*
X142245000Y-94386928D01*
X141595000Y-94386928D01*
X141470518Y-94399188D01*
X141350820Y-94435498D01*
X141240506Y-94494463D01*
X141143815Y-94573815D01*
X141064463Y-94670506D01*
X141005498Y-94780820D01*
X140970000Y-94897841D01*
X140934502Y-94780820D01*
X140875537Y-94670506D01*
X140796185Y-94573815D01*
X140699494Y-94494463D01*
X140589180Y-94435498D01*
X140469482Y-94399188D01*
X140345000Y-94386928D01*
X139695000Y-94386928D01*
X139570518Y-94399188D01*
X139450820Y-94435498D01*
X139340506Y-94494463D01*
X139243815Y-94573815D01*
X139192000Y-94636952D01*
X139192000Y-93472000D01*
X147193000Y-93472000D01*
X147193000Y-95250000D01*
G37*
X147193000Y-95250000D02*
X147195440Y-95274776D01*
X147202667Y-95298601D01*
X147214403Y-95320557D01*
X147230197Y-95339803D01*
X147249443Y-95355597D01*
X147271399Y-95367333D01*
X147295224Y-95374560D01*
X147320000Y-95377000D01*
X154650709Y-95377000D01*
X154637832Y-95408088D01*
X154575000Y-95723967D01*
X154575000Y-96046033D01*
X154637832Y-96361912D01*
X154761082Y-96659463D01*
X154940013Y-96927252D01*
X155167748Y-97154987D01*
X155435537Y-97333918D01*
X155733088Y-97457168D01*
X156048967Y-97520000D01*
X156371033Y-97520000D01*
X156686912Y-97457168D01*
X156984463Y-97333918D01*
X157252252Y-97154987D01*
X157479987Y-96927252D01*
X157658918Y-96659463D01*
X157782168Y-96361912D01*
X157845000Y-96046033D01*
X157845000Y-95723967D01*
X157782168Y-95408088D01*
X157769291Y-95377000D01*
X157988068Y-95377000D01*
X157957068Y-95451842D01*
X157900000Y-95738740D01*
X157900000Y-96031260D01*
X157957068Y-96318158D01*
X158069010Y-96588411D01*
X158231525Y-96831632D01*
X158438368Y-97038475D01*
X158681589Y-97200990D01*
X158951842Y-97312932D01*
X159238740Y-97370000D01*
X159531260Y-97370000D01*
X159818158Y-97312932D01*
X160088411Y-97200990D01*
X160331632Y-97038475D01*
X160401001Y-96969106D01*
X160401000Y-99880893D01*
X160331632Y-99811525D01*
X160088411Y-99649010D01*
X159818158Y-99537068D01*
X159531260Y-99480000D01*
X159238740Y-99480000D01*
X158951842Y-99537068D01*
X158681589Y-99649010D01*
X158438368Y-99811525D01*
X158231525Y-100018368D01*
X158193017Y-100076000D01*
X147688236Y-100076000D01*
X146304000Y-98691765D01*
X146304000Y-97257387D01*
X146457252Y-97154987D01*
X146684987Y-96927252D01*
X146863918Y-96659463D01*
X146987168Y-96361912D01*
X147050000Y-96046033D01*
X147050000Y-95723967D01*
X146987168Y-95408088D01*
X146863918Y-95110537D01*
X146684987Y-94842748D01*
X146457252Y-94615013D01*
X146189463Y-94436082D01*
X145891912Y-94312832D01*
X145576033Y-94250000D01*
X145253967Y-94250000D01*
X144938088Y-94312832D01*
X144640537Y-94436082D01*
X144372748Y-94615013D01*
X144145013Y-94842748D01*
X144096068Y-94916000D01*
X142872337Y-94916000D01*
X142870812Y-94900518D01*
X142834502Y-94780820D01*
X142775537Y-94670506D01*
X142696185Y-94573815D01*
X142599494Y-94494463D01*
X142489180Y-94435498D01*
X142369482Y-94399188D01*
X142245000Y-94386928D01*
X141595000Y-94386928D01*
X141470518Y-94399188D01*
X141350820Y-94435498D01*
X141240506Y-94494463D01*
X141143815Y-94573815D01*
X141064463Y-94670506D01*
X141005498Y-94780820D01*
X140970000Y-94897841D01*
X140934502Y-94780820D01*
X140875537Y-94670506D01*
X140796185Y-94573815D01*
X140699494Y-94494463D01*
X140589180Y-94435498D01*
X140469482Y-94399188D01*
X140345000Y-94386928D01*
X139695000Y-94386928D01*
X139570518Y-94399188D01*
X139450820Y-94435498D01*
X139340506Y-94494463D01*
X139243815Y-94573815D01*
X139192000Y-94636952D01*
X139192000Y-93472000D01*
X147193000Y-93472000D01*
X147193000Y-95250000D01*
M02*
