M48
INCH,TZ
T1C0.0157
T2C0.0335
T3C0.0394
%
G90
G05
T1
X55500Y-37000
X55500Y-42000
X55750Y-41250
X55750Y-46250
X56500Y-39750
X56500Y-44750
X57500Y-40250
T2
X50250Y-33750
X51250Y-33750
X52250Y-33750
X53250Y-33750
X55250Y-33750
X56250Y-33750
X57250Y-33750
T3
X52250Y-41750
X62750Y-35750
X62750Y-36750
X62750Y-37750
X62750Y-38750
X62750Y-39750
X62750Y-40750
X62750Y-41750
X54000Y-35750
X55000Y-35750
X61500Y-38750
X48249Y-38748
X50218Y-40126
X61500Y-36750
X54000Y-47500
X55000Y-47500
X50750Y-35750
X52250Y-43750
X52250Y-35750
X52250Y-36750
X50750Y-36750
X58750Y-36750
X58750Y-37750
X57250Y-37750
X52250Y-38750
X48249Y-43748
X50218Y-45126
X61500Y-35750
X61500Y-37750
X57250Y-42750
T0
M30
