G04 #@! TF.GenerationSoftware,KiCad,Pcbnew,5.1.5-52549c5~84~ubuntu19.04.1*
G04 #@! TF.CreationDate,2019-11-26T12:40:58+01:00*
G04 #@! TF.ProjectId,2ch-4-20mA,3263682d-342d-4323-906d-412e6b696361,rev?*
G04 #@! TF.SameCoordinates,Original*
G04 #@! TF.FileFunction,Soldermask,Bot*
G04 #@! TF.FilePolarity,Negative*
%FSLAX46Y46*%
G04 Gerber Fmt 4.6, Leading zero omitted, Abs format (unit mm)*
G04 Created by KiCad (PCBNEW 5.1.5-52549c5~84~ubuntu19.04.1) date 2019-11-26 12:40:58*
%MOMM*%
%LPD*%
G04 APERTURE LIST*
%ADD10C,0.010000*%
%ADD11C,0.100000*%
G04 APERTURE END LIST*
D10*
G36*
X150901400Y-118774054D02*
G01*
X150890535Y-118887993D01*
X150858918Y-118995616D01*
X150808015Y-119094615D01*
X150739293Y-119182684D01*
X150654219Y-119257516D01*
X150557232Y-119315384D01*
X150450964Y-119355005D01*
X150343950Y-119373573D01*
X150238300Y-119372434D01*
X150136125Y-119352930D01*
X150039534Y-119316406D01*
X149950638Y-119264205D01*
X149871546Y-119197673D01*
X149804369Y-119118152D01*
X149751217Y-119026987D01*
X149714199Y-118925523D01*
X149695427Y-118815102D01*
X149693489Y-118765206D01*
X149693489Y-118677267D01*
X149641560Y-118677267D01*
X149605253Y-118680111D01*
X149578355Y-118691911D01*
X149551249Y-118715649D01*
X149512867Y-118754031D01*
X149512867Y-120945602D01*
X149512876Y-121207739D01*
X149512908Y-121448241D01*
X149512972Y-121668048D01*
X149513076Y-121868101D01*
X149513227Y-122049344D01*
X149513434Y-122212716D01*
X149513706Y-122359160D01*
X149514050Y-122489617D01*
X149514474Y-122605029D01*
X149514987Y-122706338D01*
X149515597Y-122794484D01*
X149516312Y-122870410D01*
X149517140Y-122935057D01*
X149518089Y-122989367D01*
X149519167Y-123034280D01*
X149520383Y-123070740D01*
X149521745Y-123099687D01*
X149523261Y-123122063D01*
X149524938Y-123138809D01*
X149526786Y-123150868D01*
X149528813Y-123159180D01*
X149531025Y-123164687D01*
X149532108Y-123166537D01*
X149536271Y-123173549D01*
X149539805Y-123179996D01*
X149543635Y-123185900D01*
X149548682Y-123191286D01*
X149555871Y-123196178D01*
X149566123Y-123200598D01*
X149580364Y-123204572D01*
X149599514Y-123208121D01*
X149624499Y-123211270D01*
X149656240Y-123214042D01*
X149695662Y-123216461D01*
X149743686Y-123218551D01*
X149801237Y-123220335D01*
X149869237Y-123221837D01*
X149948610Y-123223080D01*
X150040279Y-123224089D01*
X150145166Y-123224885D01*
X150264196Y-123225494D01*
X150398290Y-123225939D01*
X150548373Y-123226243D01*
X150715367Y-123226430D01*
X150900196Y-123226524D01*
X151103783Y-123226548D01*
X151327050Y-123226525D01*
X151570922Y-123226480D01*
X151836321Y-123226437D01*
X151874704Y-123226432D01*
X152141682Y-123226389D01*
X152387002Y-123226318D01*
X152611583Y-123226213D01*
X152816345Y-123226066D01*
X153002206Y-123225869D01*
X153170088Y-123225616D01*
X153320908Y-123225300D01*
X153455587Y-123224913D01*
X153575044Y-123224447D01*
X153680199Y-123223897D01*
X153771971Y-123223253D01*
X153851279Y-123222511D01*
X153919043Y-123221661D01*
X153976182Y-123220697D01*
X154023617Y-123219611D01*
X154062266Y-123218397D01*
X154093049Y-123217047D01*
X154116885Y-123215555D01*
X154134694Y-123213911D01*
X154147395Y-123212111D01*
X154155908Y-123210145D01*
X154160266Y-123208477D01*
X154168728Y-123204906D01*
X154176497Y-123202270D01*
X154183602Y-123199634D01*
X154190073Y-123196062D01*
X154195939Y-123190621D01*
X154201229Y-123182375D01*
X154205974Y-123170390D01*
X154210202Y-123153731D01*
X154213943Y-123131463D01*
X154217227Y-123102652D01*
X154220083Y-123066363D01*
X154222540Y-123021661D01*
X154224629Y-122967611D01*
X154226378Y-122903279D01*
X154227817Y-122827730D01*
X154228976Y-122740030D01*
X154229883Y-122639243D01*
X154230569Y-122524434D01*
X154231063Y-122394670D01*
X154231395Y-122249015D01*
X154231593Y-122086535D01*
X154231687Y-121906295D01*
X154231708Y-121707360D01*
X154231685Y-121488796D01*
X154231646Y-121249668D01*
X154231622Y-120989040D01*
X154231622Y-120946889D01*
X154231636Y-120683992D01*
X154231661Y-120442732D01*
X154231671Y-120222165D01*
X154231642Y-120021352D01*
X154231548Y-119839349D01*
X154231362Y-119675216D01*
X154231059Y-119528011D01*
X154230614Y-119396792D01*
X154230034Y-119286867D01*
X153927197Y-119286867D01*
X153887407Y-119344711D01*
X153876236Y-119360479D01*
X153866166Y-119374441D01*
X153857138Y-119387784D01*
X153849097Y-119401693D01*
X153841986Y-119417356D01*
X153835747Y-119435958D01*
X153830325Y-119458686D01*
X153825662Y-119486727D01*
X153821701Y-119521267D01*
X153818385Y-119563492D01*
X153815659Y-119614589D01*
X153813464Y-119675744D01*
X153811745Y-119748144D01*
X153810444Y-119832975D01*
X153809505Y-119931422D01*
X153808870Y-120044674D01*
X153808484Y-120173916D01*
X153808288Y-120320334D01*
X153808227Y-120485116D01*
X153808243Y-120669447D01*
X153808280Y-120874513D01*
X153808289Y-120997133D01*
X153808265Y-121214082D01*
X153808231Y-121409642D01*
X153808243Y-121584999D01*
X153808358Y-121741341D01*
X153808630Y-121879857D01*
X153809118Y-122001734D01*
X153809876Y-122108160D01*
X153810962Y-122200322D01*
X153812431Y-122279409D01*
X153814340Y-122346608D01*
X153816744Y-122403107D01*
X153819701Y-122450093D01*
X153823266Y-122488755D01*
X153827495Y-122520280D01*
X153832446Y-122545855D01*
X153838173Y-122566670D01*
X153844733Y-122583911D01*
X153852183Y-122598765D01*
X153860579Y-122612422D01*
X153869976Y-122626069D01*
X153880432Y-122640893D01*
X153886523Y-122649783D01*
X153925296Y-122707400D01*
X153393732Y-122707400D01*
X153270483Y-122707365D01*
X153167987Y-122707215D01*
X153084420Y-122706878D01*
X153017956Y-122706286D01*
X152966771Y-122705367D01*
X152929041Y-122704051D01*
X152902940Y-122702269D01*
X152886644Y-122699951D01*
X152878328Y-122697026D01*
X152876168Y-122693424D01*
X152878339Y-122689075D01*
X152879535Y-122687645D01*
X152904685Y-122650573D01*
X152930583Y-122597772D01*
X152954192Y-122535770D01*
X152962461Y-122509357D01*
X152967078Y-122491416D01*
X152970979Y-122470355D01*
X152974248Y-122444089D01*
X152976966Y-122410532D01*
X152979215Y-122367599D01*
X152981077Y-122313204D01*
X152982636Y-122245262D01*
X152983972Y-122161688D01*
X152985169Y-122060395D01*
X152986308Y-121939300D01*
X152986685Y-121894600D01*
X152987702Y-121769449D01*
X152988460Y-121665082D01*
X152988903Y-121579707D01*
X152988970Y-121511533D01*
X152988605Y-121458765D01*
X152987748Y-121419614D01*
X152986341Y-121392285D01*
X152984325Y-121374986D01*
X152981643Y-121365926D01*
X152978236Y-121363312D01*
X152974044Y-121365351D01*
X152969571Y-121369667D01*
X152959216Y-121382602D01*
X152937158Y-121411676D01*
X152904957Y-121454759D01*
X152864174Y-121509718D01*
X152816370Y-121574423D01*
X152763105Y-121646742D01*
X152705940Y-121724544D01*
X152646437Y-121805698D01*
X152586155Y-121888072D01*
X152526655Y-121969536D01*
X152469498Y-122047957D01*
X152416245Y-122121204D01*
X152368457Y-122187147D01*
X152327693Y-122243654D01*
X152295516Y-122288593D01*
X152273485Y-122319834D01*
X152268917Y-122326466D01*
X152245996Y-122363369D01*
X152219188Y-122411359D01*
X152193789Y-122460897D01*
X152190568Y-122467577D01*
X152168890Y-122515772D01*
X152156304Y-122553334D01*
X152150574Y-122589160D01*
X152149456Y-122631200D01*
X152150090Y-122707400D01*
X150995651Y-122707400D01*
X151086815Y-122613669D01*
X151133612Y-122563775D01*
X151183899Y-122507295D01*
X151229944Y-122453026D01*
X151250369Y-122427673D01*
X151280807Y-122388128D01*
X151320862Y-122334916D01*
X151369361Y-122269667D01*
X151425135Y-122194011D01*
X151487011Y-122109577D01*
X151553819Y-122017994D01*
X151624387Y-121920892D01*
X151697545Y-121819901D01*
X151772121Y-121716650D01*
X151846944Y-121612768D01*
X151920843Y-121509885D01*
X151992646Y-121409631D01*
X152061184Y-121313636D01*
X152125284Y-121223527D01*
X152183775Y-121140936D01*
X152235486Y-121067492D01*
X152279247Y-121004824D01*
X152313885Y-120954561D01*
X152338230Y-120918334D01*
X152351111Y-120897771D01*
X152352869Y-120893668D01*
X152344910Y-120882342D01*
X152324115Y-120855162D01*
X152291847Y-120813829D01*
X152249470Y-120760044D01*
X152198347Y-120695506D01*
X152139841Y-120621918D01*
X152075314Y-120540978D01*
X152006131Y-120454388D01*
X151933653Y-120363848D01*
X151859246Y-120271060D01*
X151799517Y-120196702D01*
X150788511Y-120196702D01*
X150782602Y-120209659D01*
X150768272Y-120231908D01*
X150767225Y-120233391D01*
X150748438Y-120263544D01*
X150728791Y-120300375D01*
X150724892Y-120308511D01*
X150721356Y-120316940D01*
X150718230Y-120327059D01*
X150715486Y-120340260D01*
X150713092Y-120357938D01*
X150711019Y-120381484D01*
X150709235Y-120412293D01*
X150707712Y-120451757D01*
X150706419Y-120501269D01*
X150705326Y-120562223D01*
X150704403Y-120636011D01*
X150703619Y-120724028D01*
X150702945Y-120827665D01*
X150702350Y-120948316D01*
X150701805Y-121087374D01*
X150701279Y-121246232D01*
X150700745Y-121425089D01*
X150700206Y-121610207D01*
X150699772Y-121774145D01*
X150699509Y-121918303D01*
X150699484Y-122044079D01*
X150699765Y-122152871D01*
X150700419Y-122246077D01*
X150701514Y-122325097D01*
X150703118Y-122391328D01*
X150705297Y-122446170D01*
X150708119Y-122491021D01*
X150711651Y-122527278D01*
X150715961Y-122556341D01*
X150721117Y-122579609D01*
X150727185Y-122598479D01*
X150734233Y-122614351D01*
X150742329Y-122628622D01*
X150751540Y-122642691D01*
X150760040Y-122655158D01*
X150777176Y-122681452D01*
X150787322Y-122699037D01*
X150788511Y-122702257D01*
X150777604Y-122703334D01*
X150746411Y-122704335D01*
X150697223Y-122705235D01*
X150632333Y-122706010D01*
X150554030Y-122706637D01*
X150464607Y-122707091D01*
X150366356Y-122707349D01*
X150297445Y-122707400D01*
X150192452Y-122707180D01*
X150095610Y-122706548D01*
X150009107Y-122705549D01*
X149935132Y-122704227D01*
X149875874Y-122702626D01*
X149833520Y-122700791D01*
X149810260Y-122698765D01*
X149806378Y-122697493D01*
X149814076Y-122682591D01*
X149822074Y-122674560D01*
X149835246Y-122657434D01*
X149852485Y-122627183D01*
X149864407Y-122602622D01*
X149891045Y-122543711D01*
X149894120Y-121366845D01*
X149897195Y-120189978D01*
X150342853Y-120189978D01*
X150440670Y-120190142D01*
X150531064Y-120190611D01*
X150611630Y-120191347D01*
X150679962Y-120192316D01*
X150733656Y-120193480D01*
X150770305Y-120194803D01*
X150787504Y-120196249D01*
X150788511Y-120196702D01*
X151799517Y-120196702D01*
X151784270Y-120177722D01*
X151710090Y-120085537D01*
X151638069Y-119996204D01*
X151569569Y-119911424D01*
X151505955Y-119832898D01*
X151448588Y-119762326D01*
X151398833Y-119701409D01*
X151358052Y-119651847D01*
X151340888Y-119631178D01*
X151254596Y-119530516D01*
X151177997Y-119447259D01*
X151109183Y-119379438D01*
X151046248Y-119325089D01*
X151036867Y-119317722D01*
X150997356Y-119287117D01*
X152129116Y-119286867D01*
X152123827Y-119334844D01*
X152127130Y-119392188D01*
X152148661Y-119460463D01*
X152188635Y-119540212D01*
X152233943Y-119612495D01*
X152250161Y-119635140D01*
X152278214Y-119672696D01*
X152316430Y-119723021D01*
X152363137Y-119783973D01*
X152416661Y-119853411D01*
X152475331Y-119929194D01*
X152537475Y-120009180D01*
X152601421Y-120091228D01*
X152665495Y-120173196D01*
X152728027Y-120252943D01*
X152787343Y-120328327D01*
X152841771Y-120397207D01*
X152889639Y-120457442D01*
X152929275Y-120506889D01*
X152959006Y-120543408D01*
X152977161Y-120564858D01*
X152980220Y-120568156D01*
X152983079Y-120560149D01*
X152985293Y-120529855D01*
X152986857Y-120477556D01*
X152987767Y-120403531D01*
X152988020Y-120308063D01*
X152987613Y-120191434D01*
X152986704Y-120071445D01*
X152985382Y-119939333D01*
X152983857Y-119827594D01*
X152981881Y-119734025D01*
X152979206Y-119656419D01*
X152975582Y-119592574D01*
X152970761Y-119540283D01*
X152964494Y-119497344D01*
X152956532Y-119461551D01*
X152946627Y-119430700D01*
X152934531Y-119402586D01*
X152919993Y-119375005D01*
X152905311Y-119349966D01*
X152867314Y-119286867D01*
X153927197Y-119286867D01*
X154230034Y-119286867D01*
X154230001Y-119280617D01*
X154229195Y-119178544D01*
X154228170Y-119089633D01*
X154226900Y-119012941D01*
X154225360Y-118947527D01*
X154223524Y-118892449D01*
X154221367Y-118846765D01*
X154218863Y-118809534D01*
X154215987Y-118779813D01*
X154212713Y-118756662D01*
X154209015Y-118739139D01*
X154204869Y-118726301D01*
X154200247Y-118717208D01*
X154195126Y-118710918D01*
X154189478Y-118706488D01*
X154183279Y-118702978D01*
X154176504Y-118699445D01*
X154170508Y-118695876D01*
X154165275Y-118693300D01*
X154157099Y-118690972D01*
X154144886Y-118688878D01*
X154127541Y-118687007D01*
X154103969Y-118685347D01*
X154073077Y-118683884D01*
X154033768Y-118682608D01*
X153984950Y-118681504D01*
X153925527Y-118680561D01*
X153854404Y-118679767D01*
X153770488Y-118679109D01*
X153672683Y-118678575D01*
X153559894Y-118678153D01*
X153431029Y-118677829D01*
X153284991Y-118677592D01*
X153120686Y-118677430D01*
X152937020Y-118677330D01*
X152732897Y-118677280D01*
X152521753Y-118677267D01*
X150901400Y-118677267D01*
X150901400Y-118774054D01*
G37*
X150901400Y-118774054D02*
X150890535Y-118887993D01*
X150858918Y-118995616D01*
X150808015Y-119094615D01*
X150739293Y-119182684D01*
X150654219Y-119257516D01*
X150557232Y-119315384D01*
X150450964Y-119355005D01*
X150343950Y-119373573D01*
X150238300Y-119372434D01*
X150136125Y-119352930D01*
X150039534Y-119316406D01*
X149950638Y-119264205D01*
X149871546Y-119197673D01*
X149804369Y-119118152D01*
X149751217Y-119026987D01*
X149714199Y-118925523D01*
X149695427Y-118815102D01*
X149693489Y-118765206D01*
X149693489Y-118677267D01*
X149641560Y-118677267D01*
X149605253Y-118680111D01*
X149578355Y-118691911D01*
X149551249Y-118715649D01*
X149512867Y-118754031D01*
X149512867Y-120945602D01*
X149512876Y-121207739D01*
X149512908Y-121448241D01*
X149512972Y-121668048D01*
X149513076Y-121868101D01*
X149513227Y-122049344D01*
X149513434Y-122212716D01*
X149513706Y-122359160D01*
X149514050Y-122489617D01*
X149514474Y-122605029D01*
X149514987Y-122706338D01*
X149515597Y-122794484D01*
X149516312Y-122870410D01*
X149517140Y-122935057D01*
X149518089Y-122989367D01*
X149519167Y-123034280D01*
X149520383Y-123070740D01*
X149521745Y-123099687D01*
X149523261Y-123122063D01*
X149524938Y-123138809D01*
X149526786Y-123150868D01*
X149528813Y-123159180D01*
X149531025Y-123164687D01*
X149532108Y-123166537D01*
X149536271Y-123173549D01*
X149539805Y-123179996D01*
X149543635Y-123185900D01*
X149548682Y-123191286D01*
X149555871Y-123196178D01*
X149566123Y-123200598D01*
X149580364Y-123204572D01*
X149599514Y-123208121D01*
X149624499Y-123211270D01*
X149656240Y-123214042D01*
X149695662Y-123216461D01*
X149743686Y-123218551D01*
X149801237Y-123220335D01*
X149869237Y-123221837D01*
X149948610Y-123223080D01*
X150040279Y-123224089D01*
X150145166Y-123224885D01*
X150264196Y-123225494D01*
X150398290Y-123225939D01*
X150548373Y-123226243D01*
X150715367Y-123226430D01*
X150900196Y-123226524D01*
X151103783Y-123226548D01*
X151327050Y-123226525D01*
X151570922Y-123226480D01*
X151836321Y-123226437D01*
X151874704Y-123226432D01*
X152141682Y-123226389D01*
X152387002Y-123226318D01*
X152611583Y-123226213D01*
X152816345Y-123226066D01*
X153002206Y-123225869D01*
X153170088Y-123225616D01*
X153320908Y-123225300D01*
X153455587Y-123224913D01*
X153575044Y-123224447D01*
X153680199Y-123223897D01*
X153771971Y-123223253D01*
X153851279Y-123222511D01*
X153919043Y-123221661D01*
X153976182Y-123220697D01*
X154023617Y-123219611D01*
X154062266Y-123218397D01*
X154093049Y-123217047D01*
X154116885Y-123215555D01*
X154134694Y-123213911D01*
X154147395Y-123212111D01*
X154155908Y-123210145D01*
X154160266Y-123208477D01*
X154168728Y-123204906D01*
X154176497Y-123202270D01*
X154183602Y-123199634D01*
X154190073Y-123196062D01*
X154195939Y-123190621D01*
X154201229Y-123182375D01*
X154205974Y-123170390D01*
X154210202Y-123153731D01*
X154213943Y-123131463D01*
X154217227Y-123102652D01*
X154220083Y-123066363D01*
X154222540Y-123021661D01*
X154224629Y-122967611D01*
X154226378Y-122903279D01*
X154227817Y-122827730D01*
X154228976Y-122740030D01*
X154229883Y-122639243D01*
X154230569Y-122524434D01*
X154231063Y-122394670D01*
X154231395Y-122249015D01*
X154231593Y-122086535D01*
X154231687Y-121906295D01*
X154231708Y-121707360D01*
X154231685Y-121488796D01*
X154231646Y-121249668D01*
X154231622Y-120989040D01*
X154231622Y-120946889D01*
X154231636Y-120683992D01*
X154231661Y-120442732D01*
X154231671Y-120222165D01*
X154231642Y-120021352D01*
X154231548Y-119839349D01*
X154231362Y-119675216D01*
X154231059Y-119528011D01*
X154230614Y-119396792D01*
X154230034Y-119286867D01*
X153927197Y-119286867D01*
X153887407Y-119344711D01*
X153876236Y-119360479D01*
X153866166Y-119374441D01*
X153857138Y-119387784D01*
X153849097Y-119401693D01*
X153841986Y-119417356D01*
X153835747Y-119435958D01*
X153830325Y-119458686D01*
X153825662Y-119486727D01*
X153821701Y-119521267D01*
X153818385Y-119563492D01*
X153815659Y-119614589D01*
X153813464Y-119675744D01*
X153811745Y-119748144D01*
X153810444Y-119832975D01*
X153809505Y-119931422D01*
X153808870Y-120044674D01*
X153808484Y-120173916D01*
X153808288Y-120320334D01*
X153808227Y-120485116D01*
X153808243Y-120669447D01*
X153808280Y-120874513D01*
X153808289Y-120997133D01*
X153808265Y-121214082D01*
X153808231Y-121409642D01*
X153808243Y-121584999D01*
X153808358Y-121741341D01*
X153808630Y-121879857D01*
X153809118Y-122001734D01*
X153809876Y-122108160D01*
X153810962Y-122200322D01*
X153812431Y-122279409D01*
X153814340Y-122346608D01*
X153816744Y-122403107D01*
X153819701Y-122450093D01*
X153823266Y-122488755D01*
X153827495Y-122520280D01*
X153832446Y-122545855D01*
X153838173Y-122566670D01*
X153844733Y-122583911D01*
X153852183Y-122598765D01*
X153860579Y-122612422D01*
X153869976Y-122626069D01*
X153880432Y-122640893D01*
X153886523Y-122649783D01*
X153925296Y-122707400D01*
X153393732Y-122707400D01*
X153270483Y-122707365D01*
X153167987Y-122707215D01*
X153084420Y-122706878D01*
X153017956Y-122706286D01*
X152966771Y-122705367D01*
X152929041Y-122704051D01*
X152902940Y-122702269D01*
X152886644Y-122699951D01*
X152878328Y-122697026D01*
X152876168Y-122693424D01*
X152878339Y-122689075D01*
X152879535Y-122687645D01*
X152904685Y-122650573D01*
X152930583Y-122597772D01*
X152954192Y-122535770D01*
X152962461Y-122509357D01*
X152967078Y-122491416D01*
X152970979Y-122470355D01*
X152974248Y-122444089D01*
X152976966Y-122410532D01*
X152979215Y-122367599D01*
X152981077Y-122313204D01*
X152982636Y-122245262D01*
X152983972Y-122161688D01*
X152985169Y-122060395D01*
X152986308Y-121939300D01*
X152986685Y-121894600D01*
X152987702Y-121769449D01*
X152988460Y-121665082D01*
X152988903Y-121579707D01*
X152988970Y-121511533D01*
X152988605Y-121458765D01*
X152987748Y-121419614D01*
X152986341Y-121392285D01*
X152984325Y-121374986D01*
X152981643Y-121365926D01*
X152978236Y-121363312D01*
X152974044Y-121365351D01*
X152969571Y-121369667D01*
X152959216Y-121382602D01*
X152937158Y-121411676D01*
X152904957Y-121454759D01*
X152864174Y-121509718D01*
X152816370Y-121574423D01*
X152763105Y-121646742D01*
X152705940Y-121724544D01*
X152646437Y-121805698D01*
X152586155Y-121888072D01*
X152526655Y-121969536D01*
X152469498Y-122047957D01*
X152416245Y-122121204D01*
X152368457Y-122187147D01*
X152327693Y-122243654D01*
X152295516Y-122288593D01*
X152273485Y-122319834D01*
X152268917Y-122326466D01*
X152245996Y-122363369D01*
X152219188Y-122411359D01*
X152193789Y-122460897D01*
X152190568Y-122467577D01*
X152168890Y-122515772D01*
X152156304Y-122553334D01*
X152150574Y-122589160D01*
X152149456Y-122631200D01*
X152150090Y-122707400D01*
X150995651Y-122707400D01*
X151086815Y-122613669D01*
X151133612Y-122563775D01*
X151183899Y-122507295D01*
X151229944Y-122453026D01*
X151250369Y-122427673D01*
X151280807Y-122388128D01*
X151320862Y-122334916D01*
X151369361Y-122269667D01*
X151425135Y-122194011D01*
X151487011Y-122109577D01*
X151553819Y-122017994D01*
X151624387Y-121920892D01*
X151697545Y-121819901D01*
X151772121Y-121716650D01*
X151846944Y-121612768D01*
X151920843Y-121509885D01*
X151992646Y-121409631D01*
X152061184Y-121313636D01*
X152125284Y-121223527D01*
X152183775Y-121140936D01*
X152235486Y-121067492D01*
X152279247Y-121004824D01*
X152313885Y-120954561D01*
X152338230Y-120918334D01*
X152351111Y-120897771D01*
X152352869Y-120893668D01*
X152344910Y-120882342D01*
X152324115Y-120855162D01*
X152291847Y-120813829D01*
X152249470Y-120760044D01*
X152198347Y-120695506D01*
X152139841Y-120621918D01*
X152075314Y-120540978D01*
X152006131Y-120454388D01*
X151933653Y-120363848D01*
X151859246Y-120271060D01*
X151799517Y-120196702D01*
X150788511Y-120196702D01*
X150782602Y-120209659D01*
X150768272Y-120231908D01*
X150767225Y-120233391D01*
X150748438Y-120263544D01*
X150728791Y-120300375D01*
X150724892Y-120308511D01*
X150721356Y-120316940D01*
X150718230Y-120327059D01*
X150715486Y-120340260D01*
X150713092Y-120357938D01*
X150711019Y-120381484D01*
X150709235Y-120412293D01*
X150707712Y-120451757D01*
X150706419Y-120501269D01*
X150705326Y-120562223D01*
X150704403Y-120636011D01*
X150703619Y-120724028D01*
X150702945Y-120827665D01*
X150702350Y-120948316D01*
X150701805Y-121087374D01*
X150701279Y-121246232D01*
X150700745Y-121425089D01*
X150700206Y-121610207D01*
X150699772Y-121774145D01*
X150699509Y-121918303D01*
X150699484Y-122044079D01*
X150699765Y-122152871D01*
X150700419Y-122246077D01*
X150701514Y-122325097D01*
X150703118Y-122391328D01*
X150705297Y-122446170D01*
X150708119Y-122491021D01*
X150711651Y-122527278D01*
X150715961Y-122556341D01*
X150721117Y-122579609D01*
X150727185Y-122598479D01*
X150734233Y-122614351D01*
X150742329Y-122628622D01*
X150751540Y-122642691D01*
X150760040Y-122655158D01*
X150777176Y-122681452D01*
X150787322Y-122699037D01*
X150788511Y-122702257D01*
X150777604Y-122703334D01*
X150746411Y-122704335D01*
X150697223Y-122705235D01*
X150632333Y-122706010D01*
X150554030Y-122706637D01*
X150464607Y-122707091D01*
X150366356Y-122707349D01*
X150297445Y-122707400D01*
X150192452Y-122707180D01*
X150095610Y-122706548D01*
X150009107Y-122705549D01*
X149935132Y-122704227D01*
X149875874Y-122702626D01*
X149833520Y-122700791D01*
X149810260Y-122698765D01*
X149806378Y-122697493D01*
X149814076Y-122682591D01*
X149822074Y-122674560D01*
X149835246Y-122657434D01*
X149852485Y-122627183D01*
X149864407Y-122602622D01*
X149891045Y-122543711D01*
X149894120Y-121366845D01*
X149897195Y-120189978D01*
X150342853Y-120189978D01*
X150440670Y-120190142D01*
X150531064Y-120190611D01*
X150611630Y-120191347D01*
X150679962Y-120192316D01*
X150733656Y-120193480D01*
X150770305Y-120194803D01*
X150787504Y-120196249D01*
X150788511Y-120196702D01*
X151799517Y-120196702D01*
X151784270Y-120177722D01*
X151710090Y-120085537D01*
X151638069Y-119996204D01*
X151569569Y-119911424D01*
X151505955Y-119832898D01*
X151448588Y-119762326D01*
X151398833Y-119701409D01*
X151358052Y-119651847D01*
X151340888Y-119631178D01*
X151254596Y-119530516D01*
X151177997Y-119447259D01*
X151109183Y-119379438D01*
X151046248Y-119325089D01*
X151036867Y-119317722D01*
X150997356Y-119287117D01*
X152129116Y-119286867D01*
X152123827Y-119334844D01*
X152127130Y-119392188D01*
X152148661Y-119460463D01*
X152188635Y-119540212D01*
X152233943Y-119612495D01*
X152250161Y-119635140D01*
X152278214Y-119672696D01*
X152316430Y-119723021D01*
X152363137Y-119783973D01*
X152416661Y-119853411D01*
X152475331Y-119929194D01*
X152537475Y-120009180D01*
X152601421Y-120091228D01*
X152665495Y-120173196D01*
X152728027Y-120252943D01*
X152787343Y-120328327D01*
X152841771Y-120397207D01*
X152889639Y-120457442D01*
X152929275Y-120506889D01*
X152959006Y-120543408D01*
X152977161Y-120564858D01*
X152980220Y-120568156D01*
X152983079Y-120560149D01*
X152985293Y-120529855D01*
X152986857Y-120477556D01*
X152987767Y-120403531D01*
X152988020Y-120308063D01*
X152987613Y-120191434D01*
X152986704Y-120071445D01*
X152985382Y-119939333D01*
X152983857Y-119827594D01*
X152981881Y-119734025D01*
X152979206Y-119656419D01*
X152975582Y-119592574D01*
X152970761Y-119540283D01*
X152964494Y-119497344D01*
X152956532Y-119461551D01*
X152946627Y-119430700D01*
X152934531Y-119402586D01*
X152919993Y-119375005D01*
X152905311Y-119349966D01*
X152867314Y-119286867D01*
X153927197Y-119286867D01*
X154230034Y-119286867D01*
X154230001Y-119280617D01*
X154229195Y-119178544D01*
X154228170Y-119089633D01*
X154226900Y-119012941D01*
X154225360Y-118947527D01*
X154223524Y-118892449D01*
X154221367Y-118846765D01*
X154218863Y-118809534D01*
X154215987Y-118779813D01*
X154212713Y-118756662D01*
X154209015Y-118739139D01*
X154204869Y-118726301D01*
X154200247Y-118717208D01*
X154195126Y-118710918D01*
X154189478Y-118706488D01*
X154183279Y-118702978D01*
X154176504Y-118699445D01*
X154170508Y-118695876D01*
X154165275Y-118693300D01*
X154157099Y-118690972D01*
X154144886Y-118688878D01*
X154127541Y-118687007D01*
X154103969Y-118685347D01*
X154073077Y-118683884D01*
X154033768Y-118682608D01*
X153984950Y-118681504D01*
X153925527Y-118680561D01*
X153854404Y-118679767D01*
X153770488Y-118679109D01*
X153672683Y-118678575D01*
X153559894Y-118678153D01*
X153431029Y-118677829D01*
X153284991Y-118677592D01*
X153120686Y-118677430D01*
X152937020Y-118677330D01*
X152732897Y-118677280D01*
X152521753Y-118677267D01*
X150901400Y-118677267D01*
X150901400Y-118774054D01*
D11*
G36*
X157855256Y-119041298D02*
G01*
X157961579Y-119062447D01*
X158262042Y-119186903D01*
X158532451Y-119367585D01*
X158762415Y-119597549D01*
X158943097Y-119867958D01*
X159029125Y-120075647D01*
X159067553Y-120168422D01*
X159131000Y-120487389D01*
X159131000Y-120812611D01*
X159088702Y-121025256D01*
X159067553Y-121131579D01*
X158943097Y-121432042D01*
X158762415Y-121702451D01*
X158532451Y-121932415D01*
X158262042Y-122113097D01*
X157961579Y-122237553D01*
X157855256Y-122258702D01*
X157642611Y-122301000D01*
X157317389Y-122301000D01*
X157104744Y-122258702D01*
X156998421Y-122237553D01*
X156697958Y-122113097D01*
X156427549Y-121932415D01*
X156197585Y-121702451D01*
X156016903Y-121432042D01*
X155892447Y-121131579D01*
X155871298Y-121025256D01*
X155829000Y-120812611D01*
X155829000Y-120487389D01*
X155892447Y-120168422D01*
X155930876Y-120075647D01*
X156016903Y-119867958D01*
X156197585Y-119597549D01*
X156427549Y-119367585D01*
X156697958Y-119186903D01*
X156998421Y-119062447D01*
X157104744Y-119041298D01*
X157317389Y-118999000D01*
X157642611Y-118999000D01*
X157855256Y-119041298D01*
G37*
G36*
X120390256Y-119041298D02*
G01*
X120496579Y-119062447D01*
X120797042Y-119186903D01*
X121067451Y-119367585D01*
X121297415Y-119597549D01*
X121478097Y-119867958D01*
X121564125Y-120075647D01*
X121602553Y-120168422D01*
X121666000Y-120487389D01*
X121666000Y-120812611D01*
X121623702Y-121025256D01*
X121602553Y-121131579D01*
X121478097Y-121432042D01*
X121297415Y-121702451D01*
X121067451Y-121932415D01*
X120797042Y-122113097D01*
X120496579Y-122237553D01*
X120390256Y-122258702D01*
X120177611Y-122301000D01*
X119852389Y-122301000D01*
X119639744Y-122258702D01*
X119533421Y-122237553D01*
X119232958Y-122113097D01*
X118962549Y-121932415D01*
X118732585Y-121702451D01*
X118551903Y-121432042D01*
X118427447Y-121131579D01*
X118406298Y-121025256D01*
X118364000Y-120812611D01*
X118364000Y-120487389D01*
X118427447Y-120168422D01*
X118465876Y-120075647D01*
X118551903Y-119867958D01*
X118732585Y-119597549D01*
X118962549Y-119367585D01*
X119232958Y-119186903D01*
X119533421Y-119062447D01*
X119639744Y-119041298D01*
X119852389Y-118999000D01*
X120177611Y-118999000D01*
X120390256Y-119041298D01*
G37*
G36*
X138061000Y-121551000D02*
G01*
X136259000Y-121551000D01*
X136259000Y-119749000D01*
X138061000Y-119749000D01*
X138061000Y-121551000D01*
G37*
G36*
X139813512Y-119753927D02*
G01*
X139962812Y-119783624D01*
X140126784Y-119851544D01*
X140274354Y-119950147D01*
X140399853Y-120075646D01*
X140498456Y-120223216D01*
X140566376Y-120387188D01*
X140601000Y-120561259D01*
X140601000Y-120738741D01*
X140566376Y-120912812D01*
X140498456Y-121076784D01*
X140399853Y-121224354D01*
X140274354Y-121349853D01*
X140126784Y-121448456D01*
X139962812Y-121516376D01*
X139813512Y-121546073D01*
X139788742Y-121551000D01*
X139611258Y-121551000D01*
X139586488Y-121546073D01*
X139437188Y-121516376D01*
X139273216Y-121448456D01*
X139125646Y-121349853D01*
X139000147Y-121224354D01*
X138901544Y-121076784D01*
X138833624Y-120912812D01*
X138799000Y-120738741D01*
X138799000Y-120561259D01*
X138833624Y-120387188D01*
X138901544Y-120223216D01*
X139000147Y-120075646D01*
X139125646Y-119950147D01*
X139273216Y-119851544D01*
X139437188Y-119783624D01*
X139586488Y-119753927D01*
X139611258Y-119749000D01*
X139788742Y-119749000D01*
X139813512Y-119753927D01*
G37*
G36*
X127859764Y-113608989D02*
G01*
X128051033Y-113688215D01*
X128051035Y-113688216D01*
X128223173Y-113803235D01*
X128369565Y-113949627D01*
X128484585Y-114121767D01*
X128563811Y-114313036D01*
X128604200Y-114516084D01*
X128604200Y-114723116D01*
X128563811Y-114926164D01*
X128484585Y-115117433D01*
X128484584Y-115117435D01*
X128369565Y-115289573D01*
X128223173Y-115435965D01*
X128051035Y-115550984D01*
X128051034Y-115550985D01*
X128051033Y-115550985D01*
X127859764Y-115630211D01*
X127656716Y-115670600D01*
X127449684Y-115670600D01*
X127246636Y-115630211D01*
X127055367Y-115550985D01*
X127055366Y-115550985D01*
X127055365Y-115550984D01*
X126883227Y-115435965D01*
X126736835Y-115289573D01*
X126621816Y-115117435D01*
X126621815Y-115117433D01*
X126542589Y-114926164D01*
X126502200Y-114723116D01*
X126502200Y-114516084D01*
X126542589Y-114313036D01*
X126621815Y-114121767D01*
X126736835Y-113949627D01*
X126883227Y-113803235D01*
X127055365Y-113688216D01*
X127055367Y-113688215D01*
X127246636Y-113608989D01*
X127449684Y-113568600D01*
X127656716Y-113568600D01*
X127859764Y-113608989D01*
G37*
G36*
X133021564Y-110114389D02*
G01*
X133212833Y-110193615D01*
X133212835Y-110193616D01*
X133384973Y-110308635D01*
X133531365Y-110455027D01*
X133646385Y-110627167D01*
X133725611Y-110818436D01*
X133766000Y-111021484D01*
X133766000Y-111228516D01*
X133725611Y-111431564D01*
X133646385Y-111622833D01*
X133646384Y-111622835D01*
X133531365Y-111794973D01*
X133384973Y-111941365D01*
X133212835Y-112056384D01*
X133212834Y-112056385D01*
X133212833Y-112056385D01*
X133021564Y-112135611D01*
X132818516Y-112176000D01*
X132611484Y-112176000D01*
X132408436Y-112135611D01*
X132217167Y-112056385D01*
X132217166Y-112056385D01*
X132217165Y-112056384D01*
X132045027Y-111941365D01*
X131898635Y-111794973D01*
X131783616Y-111622835D01*
X131783615Y-111622833D01*
X131704389Y-111431564D01*
X131664000Y-111228516D01*
X131664000Y-111021484D01*
X131704389Y-110818436D01*
X131783615Y-110627167D01*
X131898635Y-110455027D01*
X132045027Y-110308635D01*
X132217165Y-110193616D01*
X132217167Y-110193615D01*
X132408436Y-110114389D01*
X132611484Y-110074000D01*
X132818516Y-110074000D01*
X133021564Y-110114389D01*
G37*
G36*
X123604200Y-112170600D02*
G01*
X121502200Y-112170600D01*
X121502200Y-110068600D01*
X123604200Y-110068600D01*
X123604200Y-112170600D01*
G37*
G36*
X145721564Y-107574389D02*
G01*
X145912833Y-107653615D01*
X145912835Y-107653616D01*
X146084973Y-107768635D01*
X146231365Y-107915027D01*
X146346385Y-108087167D01*
X146425611Y-108278436D01*
X146466000Y-108481484D01*
X146466000Y-108688516D01*
X146425611Y-108891564D01*
X146346385Y-109082833D01*
X146346384Y-109082835D01*
X146231365Y-109254973D01*
X146084973Y-109401365D01*
X145912835Y-109516384D01*
X145912834Y-109516385D01*
X145912833Y-109516385D01*
X145721564Y-109595611D01*
X145518516Y-109636000D01*
X145311484Y-109636000D01*
X145108436Y-109595611D01*
X144917167Y-109516385D01*
X144917166Y-109516385D01*
X144917165Y-109516384D01*
X144745027Y-109401365D01*
X144598635Y-109254973D01*
X144483616Y-109082835D01*
X144483615Y-109082833D01*
X144404389Y-108891564D01*
X144364000Y-108688516D01*
X144364000Y-108481484D01*
X144404389Y-108278436D01*
X144483615Y-108087167D01*
X144598635Y-107915027D01*
X144745027Y-107768635D01*
X144917165Y-107653616D01*
X144917167Y-107653615D01*
X145108436Y-107574389D01*
X145311484Y-107534000D01*
X145518516Y-107534000D01*
X145721564Y-107574389D01*
G37*
G36*
X159498512Y-105148927D02*
G01*
X159647812Y-105178624D01*
X159811784Y-105246544D01*
X159959354Y-105345147D01*
X160084853Y-105470646D01*
X160183456Y-105618216D01*
X160251376Y-105782188D01*
X160286000Y-105956259D01*
X160286000Y-106133741D01*
X160251376Y-106307812D01*
X160183456Y-106471784D01*
X160084853Y-106619354D01*
X159959354Y-106744853D01*
X159811784Y-106843456D01*
X159647812Y-106911376D01*
X159498512Y-106941073D01*
X159473742Y-106946000D01*
X159296258Y-106946000D01*
X159271488Y-106941073D01*
X159122188Y-106911376D01*
X158958216Y-106843456D01*
X158810646Y-106744853D01*
X158685147Y-106619354D01*
X158586544Y-106471784D01*
X158518624Y-106307812D01*
X158484000Y-106133741D01*
X158484000Y-105956259D01*
X158518624Y-105782188D01*
X158586544Y-105618216D01*
X158685147Y-105470646D01*
X158810646Y-105345147D01*
X158958216Y-105246544D01*
X159122188Y-105178624D01*
X159271488Y-105148927D01*
X159296258Y-105144000D01*
X159473742Y-105144000D01*
X159498512Y-105148927D01*
G37*
G36*
X159498512Y-102608927D02*
G01*
X159647812Y-102638624D01*
X159811784Y-102706544D01*
X159959354Y-102805147D01*
X160084853Y-102930646D01*
X160183456Y-103078216D01*
X160251376Y-103242188D01*
X160286000Y-103416259D01*
X160286000Y-103593741D01*
X160251376Y-103767812D01*
X160183456Y-103931784D01*
X160084853Y-104079354D01*
X159959354Y-104204853D01*
X159811784Y-104303456D01*
X159647812Y-104371376D01*
X159498512Y-104401073D01*
X159473742Y-104406000D01*
X159296258Y-104406000D01*
X159271488Y-104401073D01*
X159122188Y-104371376D01*
X158958216Y-104303456D01*
X158810646Y-104204853D01*
X158685147Y-104079354D01*
X158586544Y-103931784D01*
X158518624Y-103767812D01*
X158484000Y-103593741D01*
X158484000Y-103416259D01*
X158518624Y-103242188D01*
X158586544Y-103078216D01*
X158685147Y-102930646D01*
X158810646Y-102805147D01*
X158958216Y-102706544D01*
X159122188Y-102638624D01*
X159271488Y-102608927D01*
X159296258Y-102604000D01*
X159473742Y-102604000D01*
X159498512Y-102608927D01*
G37*
G36*
X127859764Y-100908989D02*
G01*
X128051033Y-100988215D01*
X128051035Y-100988216D01*
X128223173Y-101103235D01*
X128369565Y-101249627D01*
X128484585Y-101421767D01*
X128563811Y-101613036D01*
X128604200Y-101816084D01*
X128604200Y-102023116D01*
X128563811Y-102226164D01*
X128484585Y-102417433D01*
X128484584Y-102417435D01*
X128369565Y-102589573D01*
X128223173Y-102735965D01*
X128051035Y-102850984D01*
X128051034Y-102850985D01*
X128051033Y-102850985D01*
X127859764Y-102930211D01*
X127656716Y-102970600D01*
X127449684Y-102970600D01*
X127246636Y-102930211D01*
X127055367Y-102850985D01*
X127055366Y-102850985D01*
X127055365Y-102850984D01*
X126883227Y-102735965D01*
X126736835Y-102589573D01*
X126621816Y-102417435D01*
X126621815Y-102417433D01*
X126542589Y-102226164D01*
X126502200Y-102023116D01*
X126502200Y-101816084D01*
X126542589Y-101613036D01*
X126621815Y-101421767D01*
X126736835Y-101249627D01*
X126883227Y-101103235D01*
X127055365Y-100988216D01*
X127055367Y-100988215D01*
X127246636Y-100908989D01*
X127449684Y-100868600D01*
X127656716Y-100868600D01*
X127859764Y-100908989D01*
G37*
G36*
X159498512Y-100068927D02*
G01*
X159647812Y-100098624D01*
X159811784Y-100166544D01*
X159959354Y-100265147D01*
X160084853Y-100390646D01*
X160183456Y-100538216D01*
X160251376Y-100702188D01*
X160286000Y-100876259D01*
X160286000Y-101053741D01*
X160251376Y-101227812D01*
X160183456Y-101391784D01*
X160084853Y-101539354D01*
X159959354Y-101664853D01*
X159811784Y-101763456D01*
X159647812Y-101831376D01*
X159498512Y-101861073D01*
X159473742Y-101866000D01*
X159296258Y-101866000D01*
X159271488Y-101861073D01*
X159122188Y-101831376D01*
X158958216Y-101763456D01*
X158810646Y-101664853D01*
X158685147Y-101539354D01*
X158586544Y-101391784D01*
X158518624Y-101227812D01*
X158484000Y-101053741D01*
X158484000Y-100876259D01*
X158518624Y-100702188D01*
X158586544Y-100538216D01*
X158685147Y-100390646D01*
X158810646Y-100265147D01*
X158958216Y-100166544D01*
X159122188Y-100098624D01*
X159271488Y-100068927D01*
X159296258Y-100064000D01*
X159473742Y-100064000D01*
X159498512Y-100068927D01*
G37*
G36*
X156516564Y-97414389D02*
G01*
X156707833Y-97493615D01*
X156707835Y-97493616D01*
X156879973Y-97608635D01*
X157026365Y-97755027D01*
X157090256Y-97850646D01*
X157141385Y-97927167D01*
X157220611Y-98118436D01*
X157261000Y-98321484D01*
X157261000Y-98528516D01*
X157220611Y-98731564D01*
X157170815Y-98851782D01*
X157141384Y-98922835D01*
X157026365Y-99094973D01*
X156879973Y-99241365D01*
X156707835Y-99356384D01*
X156707834Y-99356385D01*
X156707833Y-99356385D01*
X156516564Y-99435611D01*
X156313516Y-99476000D01*
X156106484Y-99476000D01*
X155903436Y-99435611D01*
X155712167Y-99356385D01*
X155712166Y-99356385D01*
X155712165Y-99356384D01*
X155540027Y-99241365D01*
X155393635Y-99094973D01*
X155278616Y-98922835D01*
X155249185Y-98851782D01*
X155199389Y-98731564D01*
X155159000Y-98528516D01*
X155159000Y-98321484D01*
X155199389Y-98118436D01*
X155278615Y-97927167D01*
X155329745Y-97850646D01*
X155393635Y-97755027D01*
X155540027Y-97608635D01*
X155712165Y-97493616D01*
X155712167Y-97493615D01*
X155903436Y-97414389D01*
X156106484Y-97374000D01*
X156313516Y-97374000D01*
X156516564Y-97414389D01*
G37*
G36*
X133021564Y-97414389D02*
G01*
X133212833Y-97493615D01*
X133212835Y-97493616D01*
X133384973Y-97608635D01*
X133531365Y-97755027D01*
X133595256Y-97850646D01*
X133646385Y-97927167D01*
X133725611Y-98118436D01*
X133766000Y-98321484D01*
X133766000Y-98528516D01*
X133725611Y-98731564D01*
X133675815Y-98851782D01*
X133646384Y-98922835D01*
X133531365Y-99094973D01*
X133384973Y-99241365D01*
X133212835Y-99356384D01*
X133212834Y-99356385D01*
X133212833Y-99356385D01*
X133021564Y-99435611D01*
X132818516Y-99476000D01*
X132611484Y-99476000D01*
X132408436Y-99435611D01*
X132217167Y-99356385D01*
X132217166Y-99356385D01*
X132217165Y-99356384D01*
X132045027Y-99241365D01*
X131898635Y-99094973D01*
X131783616Y-98922835D01*
X131754185Y-98851782D01*
X131704389Y-98731564D01*
X131664000Y-98528516D01*
X131664000Y-98321484D01*
X131704389Y-98118436D01*
X131783615Y-97927167D01*
X131834745Y-97850646D01*
X131898635Y-97755027D01*
X132045027Y-97608635D01*
X132217165Y-97493616D01*
X132217167Y-97493615D01*
X132408436Y-97414389D01*
X132611484Y-97374000D01*
X132818516Y-97374000D01*
X133021564Y-97414389D01*
G37*
G36*
X123604200Y-99470600D02*
G01*
X121502200Y-99470600D01*
X121502200Y-97368600D01*
X123604200Y-97368600D01*
X123604200Y-99470600D01*
G37*
G36*
X159498512Y-97528927D02*
G01*
X159647812Y-97558624D01*
X159811784Y-97626544D01*
X159959354Y-97725147D01*
X160084853Y-97850646D01*
X160183456Y-97998216D01*
X160251376Y-98162188D01*
X160286000Y-98336259D01*
X160286000Y-98513741D01*
X160251376Y-98687812D01*
X160183456Y-98851784D01*
X160084853Y-98999354D01*
X159959354Y-99124853D01*
X159811784Y-99223456D01*
X159647812Y-99291376D01*
X159498512Y-99321073D01*
X159473742Y-99326000D01*
X159296258Y-99326000D01*
X159271488Y-99321073D01*
X159122188Y-99291376D01*
X158958216Y-99223456D01*
X158810646Y-99124853D01*
X158685147Y-98999354D01*
X158586544Y-98851784D01*
X158518624Y-98687812D01*
X158484000Y-98513741D01*
X158484000Y-98336259D01*
X158518624Y-98162188D01*
X158586544Y-97998216D01*
X158685147Y-97850646D01*
X158810646Y-97725147D01*
X158958216Y-97626544D01*
X159122188Y-97558624D01*
X159271488Y-97528927D01*
X159296258Y-97524000D01*
X159473742Y-97524000D01*
X159498512Y-97528927D01*
G37*
G36*
X145721564Y-94874389D02*
G01*
X145912833Y-94953615D01*
X145912835Y-94953616D01*
X146084973Y-95068635D01*
X146231365Y-95215027D01*
X146295256Y-95310646D01*
X146346385Y-95387167D01*
X146425611Y-95578436D01*
X146466000Y-95781484D01*
X146466000Y-95988516D01*
X146425611Y-96191564D01*
X146375815Y-96311782D01*
X146346384Y-96382835D01*
X146231365Y-96554973D01*
X146084973Y-96701365D01*
X145912835Y-96816384D01*
X145912834Y-96816385D01*
X145912833Y-96816385D01*
X145721564Y-96895611D01*
X145518516Y-96936000D01*
X145311484Y-96936000D01*
X145108436Y-96895611D01*
X144917167Y-96816385D01*
X144917166Y-96816385D01*
X144917165Y-96816384D01*
X144745027Y-96701365D01*
X144598635Y-96554973D01*
X144483616Y-96382835D01*
X144454185Y-96311782D01*
X144404389Y-96191564D01*
X144364000Y-95988516D01*
X144364000Y-95781484D01*
X144404389Y-95578436D01*
X144483615Y-95387167D01*
X144534745Y-95310646D01*
X144598635Y-95215027D01*
X144745027Y-95068635D01*
X144917165Y-94953616D01*
X144917167Y-94953615D01*
X145108436Y-94874389D01*
X145311484Y-94834000D01*
X145518516Y-94834000D01*
X145721564Y-94874389D01*
G37*
G36*
X156516564Y-94874389D02*
G01*
X156707833Y-94953615D01*
X156707835Y-94953616D01*
X156879973Y-95068635D01*
X157026365Y-95215027D01*
X157090256Y-95310646D01*
X157141385Y-95387167D01*
X157220611Y-95578436D01*
X157261000Y-95781484D01*
X157261000Y-95988516D01*
X157220611Y-96191564D01*
X157170815Y-96311782D01*
X157141384Y-96382835D01*
X157026365Y-96554973D01*
X156879973Y-96701365D01*
X156707835Y-96816384D01*
X156707834Y-96816385D01*
X156707833Y-96816385D01*
X156516564Y-96895611D01*
X156313516Y-96936000D01*
X156106484Y-96936000D01*
X155903436Y-96895611D01*
X155712167Y-96816385D01*
X155712166Y-96816385D01*
X155712165Y-96816384D01*
X155540027Y-96701365D01*
X155393635Y-96554973D01*
X155278616Y-96382835D01*
X155249185Y-96311782D01*
X155199389Y-96191564D01*
X155159000Y-95988516D01*
X155159000Y-95781484D01*
X155199389Y-95578436D01*
X155278615Y-95387167D01*
X155329745Y-95310646D01*
X155393635Y-95215027D01*
X155540027Y-95068635D01*
X155712165Y-94953616D01*
X155712167Y-94953615D01*
X155903436Y-94874389D01*
X156106484Y-94834000D01*
X156313516Y-94834000D01*
X156516564Y-94874389D01*
G37*
G36*
X149338512Y-94988927D02*
G01*
X149487812Y-95018624D01*
X149651784Y-95086544D01*
X149799354Y-95185147D01*
X149924853Y-95310646D01*
X150023456Y-95458216D01*
X150091376Y-95622188D01*
X150126000Y-95796259D01*
X150126000Y-95973741D01*
X150091376Y-96147812D01*
X150023456Y-96311784D01*
X149924853Y-96459354D01*
X149799354Y-96584853D01*
X149651784Y-96683456D01*
X149487812Y-96751376D01*
X149338512Y-96781073D01*
X149313742Y-96786000D01*
X149136258Y-96786000D01*
X149111488Y-96781073D01*
X148962188Y-96751376D01*
X148798216Y-96683456D01*
X148650646Y-96584853D01*
X148525147Y-96459354D01*
X148426544Y-96311784D01*
X148358624Y-96147812D01*
X148324000Y-95973741D01*
X148324000Y-95796259D01*
X148358624Y-95622188D01*
X148426544Y-95458216D01*
X148525147Y-95310646D01*
X148650646Y-95185147D01*
X148798216Y-95086544D01*
X148962188Y-95018624D01*
X149111488Y-94988927D01*
X149136258Y-94984000D01*
X149313742Y-94984000D01*
X149338512Y-94988927D01*
G37*
G36*
X159498512Y-94988927D02*
G01*
X159647812Y-95018624D01*
X159811784Y-95086544D01*
X159959354Y-95185147D01*
X160084853Y-95310646D01*
X160183456Y-95458216D01*
X160251376Y-95622188D01*
X160286000Y-95796259D01*
X160286000Y-95973741D01*
X160251376Y-96147812D01*
X160183456Y-96311784D01*
X160084853Y-96459354D01*
X159959354Y-96584853D01*
X159811784Y-96683456D01*
X159647812Y-96751376D01*
X159498512Y-96781073D01*
X159473742Y-96786000D01*
X159296258Y-96786000D01*
X159271488Y-96781073D01*
X159122188Y-96751376D01*
X158958216Y-96683456D01*
X158810646Y-96584853D01*
X158685147Y-96459354D01*
X158586544Y-96311784D01*
X158518624Y-96147812D01*
X158484000Y-95973741D01*
X158484000Y-95796259D01*
X158518624Y-95622188D01*
X158586544Y-95458216D01*
X158685147Y-95310646D01*
X158810646Y-95185147D01*
X158958216Y-95086544D01*
X159122188Y-95018624D01*
X159271488Y-94988927D01*
X159296258Y-94984000D01*
X159473742Y-94984000D01*
X159498512Y-94988927D01*
G37*
G36*
X129211564Y-92334389D02*
G01*
X129402833Y-92413615D01*
X129402835Y-92413616D01*
X129574973Y-92528635D01*
X129721365Y-92675027D01*
X129785256Y-92770646D01*
X129836385Y-92847167D01*
X129915611Y-93038436D01*
X129956000Y-93241484D01*
X129956000Y-93448516D01*
X129915611Y-93651564D01*
X129865815Y-93771782D01*
X129836384Y-93842835D01*
X129721365Y-94014973D01*
X129574973Y-94161365D01*
X129402835Y-94276384D01*
X129402834Y-94276385D01*
X129402833Y-94276385D01*
X129211564Y-94355611D01*
X129008516Y-94396000D01*
X128801484Y-94396000D01*
X128598436Y-94355611D01*
X128407167Y-94276385D01*
X128407166Y-94276385D01*
X128407165Y-94276384D01*
X128235027Y-94161365D01*
X128088635Y-94014973D01*
X127973616Y-93842835D01*
X127944185Y-93771782D01*
X127894389Y-93651564D01*
X127854000Y-93448516D01*
X127854000Y-93241484D01*
X127894389Y-93038436D01*
X127973615Y-92847167D01*
X128024745Y-92770646D01*
X128088635Y-92675027D01*
X128235027Y-92528635D01*
X128407165Y-92413616D01*
X128407167Y-92413615D01*
X128598436Y-92334389D01*
X128801484Y-92294000D01*
X129008516Y-92294000D01*
X129211564Y-92334389D01*
G37*
G36*
X156516564Y-92334389D02*
G01*
X156707833Y-92413615D01*
X156707835Y-92413616D01*
X156879973Y-92528635D01*
X157026365Y-92675027D01*
X157090256Y-92770646D01*
X157141385Y-92847167D01*
X157220611Y-93038436D01*
X157261000Y-93241484D01*
X157261000Y-93448516D01*
X157220611Y-93651564D01*
X157170815Y-93771782D01*
X157141384Y-93842835D01*
X157026365Y-94014973D01*
X156879973Y-94161365D01*
X156707835Y-94276384D01*
X156707834Y-94276385D01*
X156707833Y-94276385D01*
X156516564Y-94355611D01*
X156313516Y-94396000D01*
X156106484Y-94396000D01*
X155903436Y-94355611D01*
X155712167Y-94276385D01*
X155712166Y-94276385D01*
X155712165Y-94276384D01*
X155540027Y-94161365D01*
X155393635Y-94014973D01*
X155278616Y-93842835D01*
X155249185Y-93771782D01*
X155199389Y-93651564D01*
X155159000Y-93448516D01*
X155159000Y-93241484D01*
X155199389Y-93038436D01*
X155278615Y-92847167D01*
X155329745Y-92770646D01*
X155393635Y-92675027D01*
X155540027Y-92528635D01*
X155712165Y-92413616D01*
X155712167Y-92413615D01*
X155903436Y-92334389D01*
X156106484Y-92294000D01*
X156313516Y-92294000D01*
X156516564Y-92334389D01*
G37*
G36*
X150126000Y-94246000D02*
G01*
X148324000Y-94246000D01*
X148324000Y-92444000D01*
X150126000Y-92444000D01*
X150126000Y-94246000D01*
G37*
G36*
X132828512Y-92448927D02*
G01*
X132977812Y-92478624D01*
X133141784Y-92546544D01*
X133289354Y-92645147D01*
X133414853Y-92770646D01*
X133513456Y-92918216D01*
X133581376Y-93082188D01*
X133616000Y-93256259D01*
X133616000Y-93433741D01*
X133581376Y-93607812D01*
X133513456Y-93771784D01*
X133414853Y-93919354D01*
X133289354Y-94044853D01*
X133141784Y-94143456D01*
X132977812Y-94211376D01*
X132828512Y-94241073D01*
X132803742Y-94246000D01*
X132626258Y-94246000D01*
X132601488Y-94241073D01*
X132452188Y-94211376D01*
X132288216Y-94143456D01*
X132140646Y-94044853D01*
X132015147Y-93919354D01*
X131916544Y-93771784D01*
X131848624Y-93607812D01*
X131814000Y-93433741D01*
X131814000Y-93256259D01*
X131848624Y-93082188D01*
X131916544Y-92918216D01*
X132015147Y-92770646D01*
X132140646Y-92645147D01*
X132288216Y-92546544D01*
X132452188Y-92478624D01*
X132601488Y-92448927D01*
X132626258Y-92444000D01*
X132803742Y-92444000D01*
X132828512Y-92448927D01*
G37*
G36*
X159498512Y-92448927D02*
G01*
X159647812Y-92478624D01*
X159811784Y-92546544D01*
X159959354Y-92645147D01*
X160084853Y-92770646D01*
X160183456Y-92918216D01*
X160251376Y-93082188D01*
X160286000Y-93256259D01*
X160286000Y-93433741D01*
X160251376Y-93607812D01*
X160183456Y-93771784D01*
X160084853Y-93919354D01*
X159959354Y-94044853D01*
X159811784Y-94143456D01*
X159647812Y-94211376D01*
X159498512Y-94241073D01*
X159473742Y-94246000D01*
X159296258Y-94246000D01*
X159271488Y-94241073D01*
X159122188Y-94211376D01*
X158958216Y-94143456D01*
X158810646Y-94044853D01*
X158685147Y-93919354D01*
X158586544Y-93771784D01*
X158518624Y-93607812D01*
X158484000Y-93433741D01*
X158484000Y-93256259D01*
X158518624Y-93082188D01*
X158586544Y-92918216D01*
X158685147Y-92770646D01*
X158810646Y-92645147D01*
X158958216Y-92546544D01*
X159122188Y-92478624D01*
X159271488Y-92448927D01*
X159296258Y-92444000D01*
X159473742Y-92444000D01*
X159498512Y-92448927D01*
G37*
G36*
X156516564Y-89794389D02*
G01*
X156707833Y-89873615D01*
X156707835Y-89873616D01*
X156879973Y-89988635D01*
X157026365Y-90135027D01*
X157090256Y-90230646D01*
X157141385Y-90307167D01*
X157220611Y-90498436D01*
X157261000Y-90701484D01*
X157261000Y-90908516D01*
X157220611Y-91111564D01*
X157170815Y-91231782D01*
X157141384Y-91302835D01*
X157026365Y-91474973D01*
X156879973Y-91621365D01*
X156707835Y-91736384D01*
X156707834Y-91736385D01*
X156707833Y-91736385D01*
X156516564Y-91815611D01*
X156313516Y-91856000D01*
X156106484Y-91856000D01*
X155903436Y-91815611D01*
X155712167Y-91736385D01*
X155712166Y-91736385D01*
X155712165Y-91736384D01*
X155540027Y-91621365D01*
X155393635Y-91474973D01*
X155278616Y-91302835D01*
X155249185Y-91231782D01*
X155199389Y-91111564D01*
X155159000Y-90908516D01*
X155159000Y-90701484D01*
X155199389Y-90498436D01*
X155278615Y-90307167D01*
X155329745Y-90230646D01*
X155393635Y-90135027D01*
X155540027Y-89988635D01*
X155712165Y-89873616D01*
X155712167Y-89873615D01*
X155903436Y-89794389D01*
X156106484Y-89754000D01*
X156313516Y-89754000D01*
X156516564Y-89794389D01*
G37*
G36*
X129211564Y-89794389D02*
G01*
X129402833Y-89873615D01*
X129402835Y-89873616D01*
X129574973Y-89988635D01*
X129721365Y-90135027D01*
X129785256Y-90230646D01*
X129836385Y-90307167D01*
X129915611Y-90498436D01*
X129956000Y-90701484D01*
X129956000Y-90908516D01*
X129915611Y-91111564D01*
X129865815Y-91231782D01*
X129836384Y-91302835D01*
X129721365Y-91474973D01*
X129574973Y-91621365D01*
X129402835Y-91736384D01*
X129402834Y-91736385D01*
X129402833Y-91736385D01*
X129211564Y-91815611D01*
X129008516Y-91856000D01*
X128801484Y-91856000D01*
X128598436Y-91815611D01*
X128407167Y-91736385D01*
X128407166Y-91736385D01*
X128407165Y-91736384D01*
X128235027Y-91621365D01*
X128088635Y-91474973D01*
X127973616Y-91302835D01*
X127944185Y-91231782D01*
X127894389Y-91111564D01*
X127854000Y-90908516D01*
X127854000Y-90701484D01*
X127894389Y-90498436D01*
X127973615Y-90307167D01*
X128024745Y-90230646D01*
X128088635Y-90135027D01*
X128235027Y-89988635D01*
X128407165Y-89873616D01*
X128407167Y-89873615D01*
X128598436Y-89794389D01*
X128801484Y-89754000D01*
X129008516Y-89754000D01*
X129211564Y-89794389D01*
G37*
G36*
X133616000Y-91706000D02*
G01*
X131814000Y-91706000D01*
X131814000Y-89904000D01*
X133616000Y-89904000D01*
X133616000Y-91706000D01*
G37*
G36*
X139813512Y-89908927D02*
G01*
X139962812Y-89938624D01*
X140126784Y-90006544D01*
X140274354Y-90105147D01*
X140399853Y-90230646D01*
X140498456Y-90378216D01*
X140566376Y-90542188D01*
X140601000Y-90716259D01*
X140601000Y-90893741D01*
X140566376Y-91067812D01*
X140498456Y-91231784D01*
X140399853Y-91379354D01*
X140274354Y-91504853D01*
X140126784Y-91603456D01*
X139962812Y-91671376D01*
X139813512Y-91701073D01*
X139788742Y-91706000D01*
X139611258Y-91706000D01*
X139586488Y-91701073D01*
X139437188Y-91671376D01*
X139273216Y-91603456D01*
X139125646Y-91504853D01*
X139000147Y-91379354D01*
X138901544Y-91231784D01*
X138833624Y-91067812D01*
X138799000Y-90893741D01*
X138799000Y-90716259D01*
X138833624Y-90542188D01*
X138901544Y-90378216D01*
X139000147Y-90230646D01*
X139125646Y-90105147D01*
X139273216Y-90006544D01*
X139437188Y-89938624D01*
X139586488Y-89908927D01*
X139611258Y-89904000D01*
X139788742Y-89904000D01*
X139813512Y-89908927D01*
G37*
G36*
X138061000Y-91706000D02*
G01*
X136259000Y-91706000D01*
X136259000Y-89904000D01*
X138061000Y-89904000D01*
X138061000Y-91706000D01*
G37*
G36*
X160286000Y-91706000D02*
G01*
X158484000Y-91706000D01*
X158484000Y-89904000D01*
X160286000Y-89904000D01*
X160286000Y-91706000D01*
G37*
G36*
X146316000Y-86626000D02*
G01*
X144514000Y-86626000D01*
X144514000Y-84824000D01*
X146316000Y-84824000D01*
X146316000Y-86626000D01*
G37*
G36*
X142988512Y-84828927D02*
G01*
X143137812Y-84858624D01*
X143301784Y-84926544D01*
X143449354Y-85025147D01*
X143574853Y-85150646D01*
X143673456Y-85298216D01*
X143741376Y-85462188D01*
X143776000Y-85636259D01*
X143776000Y-85813741D01*
X143741376Y-85987812D01*
X143673456Y-86151784D01*
X143574853Y-86299354D01*
X143449354Y-86424853D01*
X143301784Y-86523456D01*
X143137812Y-86591376D01*
X142988512Y-86621073D01*
X142963742Y-86626000D01*
X142786258Y-86626000D01*
X142761488Y-86621073D01*
X142612188Y-86591376D01*
X142448216Y-86523456D01*
X142300646Y-86424853D01*
X142175147Y-86299354D01*
X142076544Y-86151784D01*
X142008624Y-85987812D01*
X141974000Y-85813741D01*
X141974000Y-85636259D01*
X142008624Y-85462188D01*
X142076544Y-85298216D01*
X142175147Y-85150646D01*
X142300646Y-85025147D01*
X142448216Y-84926544D01*
X142612188Y-84858624D01*
X142761488Y-84828927D01*
X142786258Y-84824000D01*
X142963742Y-84824000D01*
X142988512Y-84828927D01*
G37*
G36*
X140448512Y-84828927D02*
G01*
X140597812Y-84858624D01*
X140761784Y-84926544D01*
X140909354Y-85025147D01*
X141034853Y-85150646D01*
X141133456Y-85298216D01*
X141201376Y-85462188D01*
X141236000Y-85636259D01*
X141236000Y-85813741D01*
X141201376Y-85987812D01*
X141133456Y-86151784D01*
X141034853Y-86299354D01*
X140909354Y-86424853D01*
X140761784Y-86523456D01*
X140597812Y-86591376D01*
X140448512Y-86621073D01*
X140423742Y-86626000D01*
X140246258Y-86626000D01*
X140221488Y-86621073D01*
X140072188Y-86591376D01*
X139908216Y-86523456D01*
X139760646Y-86424853D01*
X139635147Y-86299354D01*
X139536544Y-86151784D01*
X139468624Y-85987812D01*
X139434000Y-85813741D01*
X139434000Y-85636259D01*
X139468624Y-85462188D01*
X139536544Y-85298216D01*
X139635147Y-85150646D01*
X139760646Y-85025147D01*
X139908216Y-84926544D01*
X140072188Y-84858624D01*
X140221488Y-84828927D01*
X140246258Y-84824000D01*
X140423742Y-84824000D01*
X140448512Y-84828927D01*
G37*
G36*
X135368512Y-84828927D02*
G01*
X135517812Y-84858624D01*
X135681784Y-84926544D01*
X135829354Y-85025147D01*
X135954853Y-85150646D01*
X136053456Y-85298216D01*
X136121376Y-85462188D01*
X136156000Y-85636259D01*
X136156000Y-85813741D01*
X136121376Y-85987812D01*
X136053456Y-86151784D01*
X135954853Y-86299354D01*
X135829354Y-86424853D01*
X135681784Y-86523456D01*
X135517812Y-86591376D01*
X135368512Y-86621073D01*
X135343742Y-86626000D01*
X135166258Y-86626000D01*
X135141488Y-86621073D01*
X134992188Y-86591376D01*
X134828216Y-86523456D01*
X134680646Y-86424853D01*
X134555147Y-86299354D01*
X134456544Y-86151784D01*
X134388624Y-85987812D01*
X134354000Y-85813741D01*
X134354000Y-85636259D01*
X134388624Y-85462188D01*
X134456544Y-85298216D01*
X134555147Y-85150646D01*
X134680646Y-85025147D01*
X134828216Y-84926544D01*
X134992188Y-84858624D01*
X135141488Y-84828927D01*
X135166258Y-84824000D01*
X135343742Y-84824000D01*
X135368512Y-84828927D01*
G37*
G36*
X127748512Y-84828927D02*
G01*
X127897812Y-84858624D01*
X128061784Y-84926544D01*
X128209354Y-85025147D01*
X128334853Y-85150646D01*
X128433456Y-85298216D01*
X128501376Y-85462188D01*
X128536000Y-85636259D01*
X128536000Y-85813741D01*
X128501376Y-85987812D01*
X128433456Y-86151784D01*
X128334853Y-86299354D01*
X128209354Y-86424853D01*
X128061784Y-86523456D01*
X127897812Y-86591376D01*
X127748512Y-86621073D01*
X127723742Y-86626000D01*
X127546258Y-86626000D01*
X127521488Y-86621073D01*
X127372188Y-86591376D01*
X127208216Y-86523456D01*
X127060646Y-86424853D01*
X126935147Y-86299354D01*
X126836544Y-86151784D01*
X126768624Y-85987812D01*
X126734000Y-85813741D01*
X126734000Y-85636259D01*
X126768624Y-85462188D01*
X126836544Y-85298216D01*
X126935147Y-85150646D01*
X127060646Y-85025147D01*
X127208216Y-84926544D01*
X127372188Y-84858624D01*
X127521488Y-84828927D01*
X127546258Y-84824000D01*
X127723742Y-84824000D01*
X127748512Y-84828927D01*
G37*
G36*
X130288512Y-84828927D02*
G01*
X130437812Y-84858624D01*
X130601784Y-84926544D01*
X130749354Y-85025147D01*
X130874853Y-85150646D01*
X130973456Y-85298216D01*
X131041376Y-85462188D01*
X131076000Y-85636259D01*
X131076000Y-85813741D01*
X131041376Y-85987812D01*
X130973456Y-86151784D01*
X130874853Y-86299354D01*
X130749354Y-86424853D01*
X130601784Y-86523456D01*
X130437812Y-86591376D01*
X130288512Y-86621073D01*
X130263742Y-86626000D01*
X130086258Y-86626000D01*
X130061488Y-86621073D01*
X129912188Y-86591376D01*
X129748216Y-86523456D01*
X129600646Y-86424853D01*
X129475147Y-86299354D01*
X129376544Y-86151784D01*
X129308624Y-85987812D01*
X129274000Y-85813741D01*
X129274000Y-85636259D01*
X129308624Y-85462188D01*
X129376544Y-85298216D01*
X129475147Y-85150646D01*
X129600646Y-85025147D01*
X129748216Y-84926544D01*
X129912188Y-84858624D01*
X130061488Y-84828927D01*
X130086258Y-84824000D01*
X130263742Y-84824000D01*
X130288512Y-84828927D01*
G37*
G36*
X132828512Y-84828927D02*
G01*
X132977812Y-84858624D01*
X133141784Y-84926544D01*
X133289354Y-85025147D01*
X133414853Y-85150646D01*
X133513456Y-85298216D01*
X133581376Y-85462188D01*
X133616000Y-85636259D01*
X133616000Y-85813741D01*
X133581376Y-85987812D01*
X133513456Y-86151784D01*
X133414853Y-86299354D01*
X133289354Y-86424853D01*
X133141784Y-86523456D01*
X132977812Y-86591376D01*
X132828512Y-86621073D01*
X132803742Y-86626000D01*
X132626258Y-86626000D01*
X132601488Y-86621073D01*
X132452188Y-86591376D01*
X132288216Y-86523456D01*
X132140646Y-86424853D01*
X132015147Y-86299354D01*
X131916544Y-86151784D01*
X131848624Y-85987812D01*
X131814000Y-85813741D01*
X131814000Y-85636259D01*
X131848624Y-85462188D01*
X131916544Y-85298216D01*
X132015147Y-85150646D01*
X132140646Y-85025147D01*
X132288216Y-84926544D01*
X132452188Y-84858624D01*
X132601488Y-84828927D01*
X132626258Y-84824000D01*
X132803742Y-84824000D01*
X132828512Y-84828927D01*
G37*
G36*
X120390256Y-81576298D02*
G01*
X120496579Y-81597447D01*
X120797042Y-81721903D01*
X121067451Y-81902585D01*
X121297415Y-82132549D01*
X121478097Y-82402958D01*
X121602553Y-82703421D01*
X121666000Y-83022391D01*
X121666000Y-83347609D01*
X121602553Y-83666579D01*
X121478097Y-83967042D01*
X121297415Y-84237451D01*
X121067451Y-84467415D01*
X120797042Y-84648097D01*
X120496579Y-84772553D01*
X120390256Y-84793702D01*
X120177611Y-84836000D01*
X119852389Y-84836000D01*
X119639744Y-84793702D01*
X119533421Y-84772553D01*
X119232958Y-84648097D01*
X118962549Y-84467415D01*
X118732585Y-84237451D01*
X118551903Y-83967042D01*
X118427447Y-83666579D01*
X118364000Y-83347609D01*
X118364000Y-83022391D01*
X118427447Y-82703421D01*
X118551903Y-82402958D01*
X118732585Y-82132549D01*
X118962549Y-81902585D01*
X119232958Y-81721903D01*
X119533421Y-81597447D01*
X119639744Y-81576298D01*
X119852389Y-81534000D01*
X120177611Y-81534000D01*
X120390256Y-81576298D01*
G37*
G36*
X157855256Y-81576298D02*
G01*
X157961579Y-81597447D01*
X158262042Y-81721903D01*
X158532451Y-81902585D01*
X158762415Y-82132549D01*
X158943097Y-82402958D01*
X159067553Y-82703421D01*
X159131000Y-83022391D01*
X159131000Y-83347609D01*
X159067553Y-83666579D01*
X158943097Y-83967042D01*
X158762415Y-84237451D01*
X158532451Y-84467415D01*
X158262042Y-84648097D01*
X157961579Y-84772553D01*
X157855256Y-84793702D01*
X157642611Y-84836000D01*
X157317389Y-84836000D01*
X157104744Y-84793702D01*
X156998421Y-84772553D01*
X156697958Y-84648097D01*
X156427549Y-84467415D01*
X156197585Y-84237451D01*
X156016903Y-83967042D01*
X155892447Y-83666579D01*
X155829000Y-83347609D01*
X155829000Y-83022391D01*
X155892447Y-82703421D01*
X156016903Y-82402958D01*
X156197585Y-82132549D01*
X156427549Y-81902585D01*
X156697958Y-81721903D01*
X156998421Y-81597447D01*
X157104744Y-81576298D01*
X157317389Y-81534000D01*
X157642611Y-81534000D01*
X157855256Y-81576298D01*
G37*
M02*
